<?xml version="1.0" encoding="UTF-8" standalone="no"?>
<svg
   xmlns:dc="http://purl.org/dc/elements/1.1/"
   xmlns:cc="http://creativecommons.org/ns#"
   xmlns:rdf="http://www.w3.org/1999/02/22-rdf-syntax-ns#"
   xmlns:svg="http://www.w3.org/2000/svg"
   xmlns="http://www.w3.org/2000/svg"
   xmlns:sodipodi="http://sodipodi.sourceforge.net/DTD/sodipodi-0.dtd"
   xmlns:inkscape="http://www.inkscape.org/namespaces/inkscape"
   sodipodi:docname="80sr.svg"
   inkscape:version="1.0 (4035a4fb49, 2020-05-01)"
   id="svg98"
   version="1.1"
   viewBox="0 0 25.4 128.5"
   height="128.5mm"
   width="25.4mm">
  <defs
     id="defs92" />
  <sodipodi:namedview
     inkscape:window-maximized="1"
     inkscape:window-y="-8"
     inkscape:window-x="-8"
     inkscape:window-height="837"
     inkscape:window-width="1600"
     showgrid="false"
     inkscape:document-rotation="0"
     inkscape:current-layer="layer1"
     inkscape:document-units="mm"
     inkscape:cy="353.22261"
     inkscape:cx="183.98424"
     inkscape:zoom="1.88"
     inkscape:pageshadow="2"
     inkscape:pageopacity="0.0"
     borderopacity="1.0"
     bordercolor="#666666"
     pagecolor="#ffffff"
     id="base" />
  <metadata
     id="metadata95">
    <rdf:RDF>
      <cc:Work
         rdf:about="">
        <dc:format>image/svg+xml</dc:format>
        <dc:type
           rdf:resource="http://purl.org/dc/dcmitype/StillImage" />
        <dc:title />
      </cc:Work>
    </rdf:RDF>
  </metadata>
  <g
     id="layer1"
     inkscape:groupmode="layer"
     inkscape:label="Layer 1">
    <rect
       y="-0.24498457"
       x="-0.24498457"
       height="129.10686"
       width="25.723379"
       id="rect100"
       style="fill:#000000;fill-rule:evenodd;stroke-width:0.264583" />
    <g
       style="font-size:3.52777px;line-height:1.25;font-family:Arial;-inkscape-font-specification:Arial;stroke-width:0.264583"
       id="text104"
       aria-label="80SR">
      <path
         id="path191"
         style="font-style:normal;font-variant:normal;font-weight:normal;font-stretch:normal;font-size:8.46667px;font-family:'Crucial Noise';-inkscape-font-specification:'Crucial Noise';fill:#ffffff;stroke-width:0.264583"
         d="M 9.3602292,10.126776 C 9.3009625,10.084442 9.2416958,10.050576 9.1824291,10.008242 8.9876957,9.8727754 8.877629,9.7203754 8.9368957,9.4917753 8.979229,9.3055085 9.004629,9.1192418 9.004629,8.9329751 c 0,-0.2540001 -0.127,-0.4826002 -0.2963334,-0.694267 -0.042333,-0.042333 -0.084667,-0.1016 -0.1947334,-0.059267 0.0254,0.033867 0.0508,0.067733 0.0762,0.093133 0.1100667,0.1608667 0.1608667,0.3217335 0.1185334,0.4995335 -0.0254,0.1270001 -0.093133,0.2286001 -0.2286001,0.2963335 -0.2116667,0.1100667 -0.4233335,0.0254 -0.4402668,-0.1778001 -0.00847,-0.127 -0.0254,-0.1354667 -0.1862668,-0.1100667 -0.3556001,0.067733 -0.6519336,0 -0.8890003,-0.2370668 C 6.7863615,8.3741748 6.6339614,8.1963748 6.5154281,7.984708 c -0.016933,-0.033867 -0.042333,-0.0508 -0.0762,-0.0508 0,0.00847 0,0.00847 0,0.00847 0.016933,0.2286001 0.1862668,0.4910668 0.2032001,0.7366003 0.1439334,0.3556001 -0.1354667,0.8043336 -0.6604003,0.8297336 -0.059267,0.00847 -0.127,0.00847 -0.1947334,0.016933 -0.0508,0 -0.1016,0.00847 -0.1439334,0.016933 0.0508,0.3302001 0,0.6350011 -0.1354667,0.9313341 -0.033867,0.05927 -0.067733,0.110067 -0.1439334,0.143933 -0.016933,0.0085 -0.0254,0.04233 -0.0508,0.0762 0.1100667,0.0085 0.2032001,0.01693 0.2878668,0.03387 0.2878668,0.0508 0.4572002,0.2032 0.5334002,0.4318 0.0508,0.143934 -0.00847,0.2286 -0.1778001,0.270934 -0.127,0.03387 -0.2540001,0.05927 -0.3810001,0.0254 -0.042333,-0.0085 -0.093133,-0.01693 -0.1185334,0.0254 0.0762,0.2032 0.016933,0.2794 -0.2370668,0.321733 -0.033867,0.0085 -0.067733,0.0254 -0.1016,0.03387 0.2540001,0.143933 0.3132668,0.2794 0.1016,0.567267 0.1439334,0 0.2794002,0.0085 0.3894669,0.1016 0.1016,0.08467 0.1947334,0.169333 0.2286001,0.287867 0.0254,0.110066 0.033867,0.2286 0.0508,0.347133 0.1185334,0.03387 0.1778,0.1016 0.2032001,0.186267 0,0 0.00847,0.01693 0.00847,0.0254 0.042333,0.135467 0.0508,0.2794 0.084667,0.414867 0.016933,0.09313 0.033867,0.186266 0.0508,0.2794 0,-0.118534 0.033867,-0.2286 0.084667,-0.338667 0.0254,-0.03387 0.0508,-0.06773 0.084667,-0.08467 0.033867,-0.04233 0.1016001,-0.0508 0.1778001,-0.0254 0.1524001,0.0508 0.2370668,0.143934 0.2794001,0.270934 0.033867,0.1016 0.0508,0.2032 0.067733,0.3048 0.0254,0.194733 0.042333,0.389467 0.067733,0.601133 0.00847,0 0.00847,0 0.016933,-0.0085 0.0254,-0.160867 0.127,-0.321734 0.1862667,-0.465667 0.059267,-0.118534 0.1354668,-0.194734 0.2455335,-0.220134 0.127,-0.08467 0.2032,-0.09313 0.3471334,-0.03387 0.093133,0.04233 0.1270001,0.0254 0.1185334,-0.06773 0,-0.1524 0.093133,-0.262466 0.2455334,-0.338666 0.00847,0 0.00847,0.0085 0.016933,0.0085 0.033867,-0.0085 0.067733,0.0085 0.084667,0.03387 0.033867,0.0508 0.093133,0.0762 0.127,0.118533 0.042333,0.06773 0.0762,0.135467 0.093133,0.211667 0.042333,0.127 0.0508,0.262467 0.059267,0.397934 0.016933,-0.01693 0.0254,-0.04233 0.0254,-0.06773 0,-0.169333 0,-0.338667 0,-0.508 -0.016933,-0.321733 0,-0.635 0.1778001,-0.9398 0.1100667,-0.194734 0.2201334,-0.389467 0.4826002,-0.474134 0.00847,0 0.016933,-0.01693 0.0254,-0.01693 -0.0508,-0.110067 -0.1016001,-0.2032 -0.1354667,-0.3048 -0.067733,-0.245534 -0.2201335,-0.457201 -0.4402669,-0.635001 -0.1016,-0.08467 -0.2201334,-0.169333 -0.3217334,-0.262466 -0.1100668,-0.09313 -0.084667,-0.194734 0.059267,-0.254 0.067733,-0.0254 0.1185334,-0.01693 0.1862668,0.0085 0.059267,0.01693 0.1016,0.0762 0.2032001,0.05927 -0.00847,-0.04233 -0.016933,-0.09313 -0.0254,-0.135467 -0.0508,-0.143933 -0.016933,-0.296333 0.059267,-0.4318 0.059267,-0.09313 0.1693334,-0.160867 0.2794002,-0.2032 0.067733,-0.0254 0.1608667,0 0.2455334,0.0085 0.016933,0 0.033867,0 0.059267,0 0.016933,-0.05927 -0.0254,-0.09313 -0.059267,-0.127 z m -2.9633345,0.135466 c 0.00847,-0.0508 0.042333,-0.08467 0.1016,-0.09313 0.0762,-0.0254 0.1608667,-0.03387 0.2540001,-0.0508 -0.016933,-0.03387 -0.0254,-0.05927 -0.033867,-0.08467 -0.00847,-0.0254 -0.016933,-0.059266 -0.0254,-0.084667 0,-0.042333 0,-0.093133 0.059267,-0.1185334 0.0762,-0.016933 0.1100667,0.033867 0.1354667,0.0762 0.016933,0.0508 0.033867,0.1100664 0.042333,0.1608664 0.033867,0.160867 0.059267,0.3302 0.093133,0.499533 0.084667,-0.0085 0.0762,-0.0508 0.0762,-0.08467 -0.00847,-0.127 -0.016933,-0.253999 -0.016933,-0.372534 0,-0.135466 0.00847,-0.2793994 0.033867,-0.4063995 0.016933,-0.1354667 0.1185334,-0.2286001 0.2709335,-0.2794001 0.059267,-0.016933 0.1100667,-0.016933 0.1524,0.0254 0.067733,0.059267 0.1439334,0.1185334 0.2032001,0.1778001 0.067733,0.084667 0.042333,0.1354667 -0.067733,0.1693334 -0.0508,0.016933 -0.1016001,0.033867 -0.1608668,0.0508 0.00847,0.0762 0.067733,0.093133 0.1185334,0.1100667 0.1270001,0.0508 0.2540001,0.093134 0.3725335,0.1354674 0.1693334,0.05927 0.2709334,0.194733 0.2455334,0.347133 -0.042333,0.211667 -0.127,0.262467 -0.3217334,0.296334 -0.033867,0.0085 -0.067733,0.01693 -0.1016001,0.01693 -0.127,0 -0.2286001,0.01693 -0.2286001,0.1524 0,0.04233 -0.042333,0.0762 -0.084667,0.110067 -0.0762,0.0762 -0.1693334,0.1524 -0.2624668,0.237067 -0.093133,-0.0762 -0.2032,-0.1524 -0.2963334,-0.237067 -0.067733,-0.0508 -0.1100667,-0.127 -0.1185334,-0.2032 0,-0.05927 -0.033867,-0.08467 -0.093133,-0.1016 -0.2032,-0.0508 -0.3640668,-0.262467 -0.3471334,-0.448734 z m 1.9050007,2.074334 c 0,0.143934 -0.059267,0.279401 -0.1693334,0.372534 -0.127,0.127 -0.2963334,0.143933 -0.4826002,0.09313 -0.0508,-0.0085 -0.093133,-0.0254 -0.1524,-0.04233 0.059267,0.08467 0.1185334,0.143933 0.1608667,0.220133 0.0254,0.04233 0.0508,0.1016 0.059267,0.160867 0.00847,0.110067 -0.067733,0.160867 -0.2032001,0.135467 -0.2116667,-0.0508 -0.3725335,-0.160867 -0.4318002,-0.347134 -0.016933,-0.0508 -0.0254,-0.09313 -0.042333,-0.143933 -0.016933,-0.05927 -0.059267,-0.08467 -0.1270001,-0.06773 -0.1185333,0.03387 -0.2032,0 -0.2794001,-0.05927 -0.093133,-0.0762 -0.1947334,-0.1524 -0.2878667,-0.237067 -0.1100668,-0.08467 -0.1270001,-0.2032 -0.093133,-0.321733 0.067733,-0.270934 0.3386668,-0.465667 0.6773336,-0.482601 0.1439334,0 0.3217334,0.135467 0.3302001,0.270934 0,0.09313 0,0.186267 0,0.2794 0.00847,0.04233 0.0254,0.08467 0.033867,0.118533 0.093133,0 0.084667,-0.0508 0.093133,-0.09313 0.00847,-0.1016 0.016933,-0.2032 0.016933,-0.3048 0.00847,-0.1016 0.067733,-0.1778 0.1524001,-0.237067 0.084667,-0.06773 0.1778,-0.110067 0.2963334,-0.05927 0.1270001,0.0508 0.2370668,0.118534 0.2540001,0.245534 0.00847,0.05927 -0.00847,0.110067 -0.0762,0.143933 -0.067733,0.0254 -0.1354667,0.05927 -0.1947334,0.1016 -0.016933,0.0085 -0.016933,0.03387 -0.0254,0.0508 0.016933,0.0085 0.042333,0.0254 0.067733,0.0254 0.059267,0 0.1100667,-0.01693 0.1608668,-0.01693 0.1693334,-0.0085 0.2624667,0.05927 0.2624667,0.194733 z" />
      <path
         id="path193"
         style="font-style:normal;font-variant:normal;font-weight:normal;font-stretch:normal;font-size:8.46667px;font-family:'Crucial Noise';-inkscape-font-specification:'Crucial Noise';fill:#ffffff;stroke-width:0.264583"
         d="m 13.566048,10.313042 c -0.0508,-0.03387 -0.1016,-0.05927 -0.160867,-0.09313 -0.211667,-0.118533 -0.287867,-0.2709335 -0.237067,-0.4741336 0.0254,-0.093133 0.04233,-0.1862668 0.05927,-0.2709335 0.0508,-0.3048001 -0.05927,-0.5757335 -0.2794,-0.8128003 -0.03387,-0.033867 -0.06773,-0.059267 -0.1016,-0.0762 -0.01693,-0.00847 -0.03387,-0.016933 -0.05927,-0.016933 0.0085,0.00847 0.0085,0.016933 0.01693,0.0254 0.04233,0.1524 0.118534,0.2963334 0.08467,0.4656668 -0.0085,0.059267 -0.0254,0.1100667 -0.05927,0.1608667 -0.0085,0.016933 -0.01693,0.033867 -0.0254,0.0508 -0.0508,0.1100667 -0.194733,0.1608667 -0.347133,0.1439334 -0.127,-0.016933 -0.169334,-0.059267 -0.186267,-0.1947335 -0.01693,-0.1100667 -0.03387,-0.1185333 -0.1778,-0.093133 -0.3556,0.067733 -0.6604,0 -0.905934,-0.2201334 -0.0762,-0.0508 -0.143933,-0.1100668 -0.2032,-0.1778001 -0.0762,-0.084667 -0.143933,-0.1778001 -0.194733,-0.2794001 -0.04233,-0.093133 -0.09313,-0.1947334 -0.110067,-0.2878668 -0.0085,0 -0.0085,0 -0.01693,0 0,0 0,0 0,0 v 0 c -0.05927,0.127 -0.0254,0.2794001 0,0.4148668 v 0 c 0.0508,0.1439334 0.110067,0.2794001 0.186267,0.4148669 0.211666,0.3556001 -0.143934,0.7281336 -0.499534,0.7704669 -0.110067,0.00847 -0.220133,0.016933 -0.321733,0.0254 -0.059267,0 -0.1100672,0.00847 -0.1693339,0.0254 0.093133,0.1947328 0.016933,0.3725328 -0.016933,0.5503328 -0.016933,0.1016 -0.059267,0.2032 -0.1185334,0.287867 0,0 0,0.0085 0,0.0085 -0.033867,0.135466 -0.1354667,0.220133 -0.2455334,0.287867 -0.1270001,0.06773 -0.2540001,0.135466 -0.3810002,0.194733 0,0 -0.00847,0.0085 -0.00847,0.01693 0.084667,-0.0085 0.1354667,-0.0085 0.1862667,-0.01693 0.1016001,-0.0085 0.1947334,-0.01693 0.2878668,-0.01693 0.1608667,0.01693 0.2878668,0.08467 0.3386668,0.211666 0.0508,0.127 0.00847,0.237067 -0.1016,0.321734 -0.067733,0.0508 -0.1608668,0.0762 -0.2455335,0.110067 -0.059267,0.0254 -0.1354667,0.03387 -0.2032001,0.0508 -0.0254,0.0085 -0.042333,0.03387 -0.084667,0.05927 0.0508,0.01693 0.0762,0.03387 0.1016001,0.03387 0.1693334,0.01693 0.2201334,0.0762 0.2201334,0.211667 0,0.05927 0,0.118533 0,0.186266 0.2116668,0 0.3302001,0.110067 0.4233337,0.245534 0.08467,0.127 0.118534,0.296333 0.08467,0.448733 0.160867,0.03387 0.220133,0.110067 0.237067,0.220134 0.0254,0.0508 0.03387,0.1016 0.04233,0.160867 0.0085,0.05927 0.0085,0.118533 0.01693,0.186266 0.0254,0.08467 0.0508,0.169334 0.0762,0.245534 0.01693,-0.118534 0.05927,-0.2286 0.135467,-0.3302 0.0254,-0.08467 0.1016,-0.110067 0.220134,-0.06773 0.143933,0.04233 0.237066,0.135467 0.2794,0.254 0.0254,0.08467 0.04233,0.160867 0.0508,0.245534 0,0.0085 0,0.01693 0,0.01693 0.03387,0.118533 0.0508,0.237067 0.06773,0.3556 0.0254,0.135467 0.04233,0.2794 0.05927,0.423334 0.0085,-0.2032 0.05927,-0.440267 0.1778,-0.592667 0.0508,-0.09313 0.110066,-0.1778 0.186267,-0.245534 0.118533,-0.110066 0.194733,-0.127 0.3556,-0.06773 0.01693,0 0.0254,0.0085 0.04233,0.01693 0.0762,0.01693 0.110067,0 0.1016,-0.05927 -0.0085,-0.1524 0.09313,-0.245534 0.245533,-0.321734 0.0254,-0.01693 0.0508,-0.01693 0.0762,0 0.3048,0.220134 0.270933,0.6096 0.270933,0.956733 0,0 0,0 0.0085,0 0,-0.0254 0.0085,-0.04233 0.0085,-0.05927 0.0508,-0.237067 0.05927,-0.474133 0.04233,-0.7112 -0.0254,-0.287867 0,-0.575735 0.169333,-0.846667 0.118533,-0.1778 0.237067,-0.347135 0.4826,-0.414867 0.0085,-0.0085 0.01693,-0.01693 0.04233,-0.03387 -0.127,-0.135466 -0.169334,-0.3048 -0.211667,-0.465666 -0.0254,-0.110068 0.0254,-0.186268 0.160867,-0.237067 0.0254,-0.0085 0.04233,-0.01693 0.06773,-0.03387 -0.04233,-0.06773 -0.09313,-0.118533 -0.110067,-0.1778 -0.04233,-0.1016 -0.0085,-0.194733 0.09313,-0.270933 0.0762,-0.06773 0.0762,-0.0762 -0.0085,-0.143934 -0.0085,-0.0085 -0.01693,-0.0085 -0.03387,-0.0254 -0.118533,-0.110066 -0.2286,-0.2286 -0.2794,-0.372533 -0.04233,-0.135467 0.06773,-0.220134 0.2286,-0.194734 0.05927,0.0085 0.110067,0.0254 0.160867,0.03387 0.03387,0 0.06773,-0.0085 0.127,-0.01693 -0.0508,-0.0508 -0.0762,-0.09313 -0.118533,-0.118534 z m -2.429935,1.413934 c -0.06773,0.1524 -0.169333,0.220134 -0.423333,0.2794 0,0.0254 0,0.0508 0.0085,0.06773 0,0.03387 0.01693,0.05927 0.01693,0.08467 -0.0085,0.06773 -0.01693,0.127 -0.09313,0.160867 -0.0508,0.0254 -0.118533,-0.01693 -0.169333,-0.09313 -0.04233,-0.05927 -0.0762,-0.118534 -0.110067,-0.1778 -0.0508,-0.127 0.01693,-0.245534 0.160867,-0.3048 0.05927,-0.0254 0.127,-0.03387 0.194733,-0.0508 0.04233,-0.0085 0.0762,-0.01693 0.143934,-0.0254 -0.05927,-0.0508 -0.1016,-0.0762 -0.135467,-0.110066 -0.1016,-0.06773 -0.1778,-0.1524 -0.220133,-0.262467 -0.06773,-0.186267 0.03387,-0.3302 0.262467,-0.372533 0.04233,-0.01693 0.09313,-0.0254 0.160866,-0.03387 -0.03387,-0.03387 -0.05927,-0.05927 -0.08467,-0.0762 -0.101601,-0.0762 -0.177801,-0.160867 -0.203201,-0.270934 -0.03387,-0.127 -0.0085,-0.169333 0.152401,-0.2032 0.05927,-0.0085 0.118533,-0.0085 0.186266,-0.01693 -0.0254,-0.0508 -0.04233,-0.08467 -0.0508,-0.127 -0.01693,-0.0508 -0.01693,-0.1016 0.04233,-0.127 0.0508,-0.0254 0.110066,0 0.135466,0.06773 0.0254,0.04233 0.03387,0.08467 0.04233,0.127 0.03387,0.1524 0.06773,0.3048 0.1016,0.448734 0.08467,0 0.0762,-0.04233 0.06773,-0.0762 0,-0.110067 -0.01693,-0.2286 -0.0085,-0.338667 0,-0.110067 0.0085,-0.2286 0.0254,-0.3471335 0.01693,-0.093133 0.08467,-0.1608668 0.186267,-0.2116668 0.118534,-0.059267 0.2286,-0.059267 0.3302,0.016933 0.1016,0.059267 0.143934,0.1693334 0.110067,0.2624673 -0.03387,0.127 -0.127,0.2286 -0.270933,0.287867 -0.06773,0.0254 -0.152401,0.0508 -0.220134,0.08467 0,0.0508 0.04233,0.05927 0.08467,0.0762 0.135467,0.03387 0.1778,0.0762 0.1524,0.194734 -0.01693,0.05927 -0.0508,0.127 -0.09313,0.1778 -0.110067,0.110067 -0.194734,0.2286 -0.237067,0.364067 -0.0508,0.1524 -0.110067,0.1778 -0.296334,0.1778 -0.05927,0 -0.127,0 -0.211666,0 0.0254,0.03387 0.03387,0.05927 0.0508,0.06773 0.01693,0.01693 0.0508,0.01693 0.06773,0.0254 0.194733,0.0508 0.220133,0.1016 0.143933,0.254 z m 1.363134,-0.254 c -0.0254,0.01693 -0.0508,0.0254 -0.06773,0.04233 0,0.0085 0,0.01693 0,0.0254 0.118533,0.186267 0.110067,0.270934 -0.08467,0.414867 -0.05927,0.04233 -0.118533,0.08467 -0.194733,0.135467 0.08467,0.0085 0.135466,0.01693 0.1778,0.0254 0.160867,0.0254 0.2286,0.1016 0.194733,0.2286 -0.08467,0.347134 -0.372533,0.448734 -0.719667,0.347134 -0.03387,-0.0085 -0.05927,-0.0254 -0.1016,-0.0254 0.0254,0.0254 0.05927,0.0508 0.08467,0.0762 0.04233,0.0508 0.08467,0.1016 0.118533,0.1524 0.04233,0.06773 0.0762,0.135466 0.0085,0.2032 -0.06773,0.05927 -0.1524,0.03387 -0.237067,0.0085 -0.143933,-0.03387 -0.245533,-0.110066 -0.3048,-0.220133 -0.1016,-0.160867 -0.1524,-0.347133 -0.160867,-0.541867 0,-0.09313 0.05927,-0.169333 0.143934,-0.237067 0.1016,-0.06773 0.1778,-0.05927 0.270933,0.0254 0.01693,0.0085 0.0254,0.01693 0.04233,0.0254 0.05927,-0.0085 0.06773,-0.04233 0.0508,-0.0762 -0.0254,-0.06773 -0.06773,-0.135466 -0.110067,-0.194733 -0.0508,-0.05927 -0.09313,-0.118533 -0.04233,-0.186267 0.05927,-0.06773 0.118534,-0.135467 0.237067,-0.127 0.01693,0.0085 0.03387,0 0.05927,-0.0085 -0.0085,-0.0254 -0.0085,-0.0508 -0.0254,-0.06773 -0.0762,-0.08467 -0.06773,-0.1778 -0.0254,-0.270933 0.0762,-0.1524 0.2032,-0.287867 0.372533,-0.381001 0.1016,-0.05927 0.110067,-0.05927 0.03387,-0.1524 -0.0508,-0.06773 -0.08467,-0.135466 -0.0762,-0.220133 0.0085,-0.0508 0.0254,-0.110067 0.110067,-0.118533 0.1016,-0.0085 0.1524,0.01693 0.186267,0.08467 0.06773,0.118534 0.0508,0.2286 -0.0085,0.338667 -0.0508,0.09313 -0.110067,0.186267 -0.245534,0.2032 -0.01693,0 -0.0254,0.01693 -0.05927,0.0508 0.06773,0.01693 0.118533,0.0254 0.160866,0.04233 0.0762,0.01693 0.152401,0.03387 0.211667,0.06773 0.169334,0.09313 0.169334,0.237067 0,0.3302 z" />
      <path
         id="path195"
         style="font-style:normal;font-variant:normal;font-weight:normal;font-stretch:normal;font-size:8.46667px;font-family:'Crucial Noise';-inkscape-font-specification:'Crucial Noise';fill:#ffffff;stroke-width:0.264583"
         d="m 15.570003,12.09951 c 0.0085,-0.135467 0.01693,-0.262467 0.04233,-0.389467 0.01693,-0.1016 0.03387,-0.2032 0.06773,-0.296334 0.04233,-0.09313 0.160867,-0.127 0.262467,-0.09313 0.160867,0.05927 0.220134,0.211667 0.127,0.338667 -0.06773,0.09313 -0.160867,0.160867 -0.2794,0.211667 -0.03387,0.01693 -0.05927,0.03387 -0.110067,0.05927 0.0508,0.01693 0.08467,0.0254 0.110067,0.03387 0.135467,0.0254 0.211667,0.09313 0.2286,0.2032 0.01693,0.09313 0.0254,0.186267 0.0085,0.270933 -0.03387,0.211667 -0.270934,0.304801 -0.499534,0.203201 -0.03387,-0.01693 -0.06773,-0.0508 -0.127,-0.01693 0.03387,0.03387 0.06773,0.05927 0.1016,0.08467 0.06773,0.06773 0.110067,0.1524 0.110067,0.245533 0,0.0762 -0.04233,0.118534 -0.127,0.1524 -0.135467,0.04233 -0.254,0.0254 -0.364067,-0.0508 -0.127,-0.1016 -0.2032,-0.2286 -0.237067,-0.364066 -0.0085,-0.0508 -0.01693,-0.09313 -0.03387,-0.1524 -0.04233,0.05927 -0.06773,0.1016 -0.1016,0.143933 -0.06773,0.08467 -0.1778,0.1016 -0.270934,0.03387 -0.03387,-0.01693 -0.05927,-0.04233 -0.08467,-0.06773 -0.143933,-0.160867 -0.262466,-0.321733 -0.2794,-0.524933 -0.0085,-0.08467 -0.03387,-0.169334 -0.04233,-0.245534 -0.0254,-0.1524 -0.09313,-0.2794 -0.186267,-0.4064 -0.0254,-0.03387 -0.0508,-0.06773 -0.118533,-0.03387 0.194733,0.448734 0.143933,0.880534 -0.1524,1.270001 0.0762,0.03387 0.186267,0.0508 0.237067,0.1016 0.2032,0.2032 0.372533,0.4318 0.321733,0.719667 0,0.01693 0.0085,0.0254 0.0085,0.04233 0.0085,0 0.01693,0 0.0254,0 0.01693,0 0.03387,0 0.04233,-0.0085 0.254,-0.06773 0.4572,-0.01693 0.643467,0.135466 0.127,0.110067 0.220133,0.237067 0.313267,0.364067 0.0762,0.110067 0.186267,0.2032 0.3048,0.254 0.0254,0.0085 0.0508,0.0085 0.08467,0.0085 l 0.01693,-0.0254 c -0.04233,-0.03387 -0.0762,-0.06773 -0.110067,-0.1016 -0.06773,-0.05927 -0.118533,-0.110067 -0.1016,-0.194734 0.01693,-0.08467 0.05927,-0.110066 0.1524,-0.09313 0.1524,0.01693 0.287867,0.06773 0.4064,0.1524 0.09313,0.06773 0.194734,0.135467 0.296334,0.194734 0.262467,0.160866 0.5588,0.254 0.872067,0.287866 0.03387,0.0085 0.0762,0.0254 0.09313,-0.0254 -0.2286,-0.127 -0.4572,-0.262466 -0.651933,-0.440267 -0.237067,-0.211666 -0.3556,-0.4572 -0.3302,-0.745067 0,-0.0762 0.04233,-0.1524 0.110066,-0.194733 0.05927,-0.04233 0.127,-0.0508 0.194734,-0.01693 0.03387,0.01693 0.06773,0.03387 0.110066,0.05927 -0.04233,-0.110066 -0.1016,-0.2032 -0.118533,-0.3048 -0.0254,-0.110066 0.03387,-0.211666 0.135467,-0.2794 0.09313,-0.05927 0.2032,-0.1016 0.3048,-0.143933 -0.254,-0.143934 -0.3556,-0.364067 -0.3302,-0.601134 0.03387,-0.262467 0.169333,-0.499533 0.414867,-0.677333 0.0254,-0.01693 0.04233,-0.04233 0.0762,-0.0762 -0.08467,-0.0085 -0.143934,-0.01693 -0.203201,-0.01693 -0.169333,-0.0085 -0.321733,-0.05927 -0.465666,-0.127 -0.135467,-0.06773 -0.194734,-0.160867 -0.2032,-0.287867 0,-0.03387 0,-0.06773 -0.0085,-0.118533 -0.0762,0.05927 -0.127,0.110067 -0.186267,0.135467 -0.06773,0.03387 -0.1524,0.0762 -0.220133,0.06773 -0.110067,-0.0085 -0.2286,-0.04233 -0.3302,-0.0762 -0.09313,-0.03387 -0.118534,-0.110067 -0.0762,-0.186267 0.01693,-0.03387 0.03387,-0.05927 0.0508,-0.08467 -0.1016,-0.01693 -0.211667,-0.01693 -0.296334,-0.0508 -0.211667,-0.08467 -0.3048,-0.245534 -0.347133,-0.4233339 -0.0085,-0.042333 0,-0.0762 0.01693,-0.1100667 0.04233,-0.0762 0.143933,-0.084667 0.2032,-0.016933 0.0254,0.0254 0.0508,0.067733 0.0762,0.093133 0.01693,0.016933 0.0508,0.033867 0.0762,0.0508 l 0.0254,-0.016933 c 0,-0.042333 -0.0085,-0.084667 -0.01693,-0.127 -0.03387,-0.1100667 -0.03387,-0.2116668 0.01693,-0.3217335 0.01693,-0.0508 0.05927,-0.0762 0.127,-0.084667 0.1016,-0.00847 0.160867,0.016933 0.186267,0.1100667 0.03387,0.1185334 0.05927,0.2370668 0.0762,0.3556002 0.0085,0.1354667 0.01693,0.2624672 0.0254,0.3979332 0,0.0254 0.0254,0.0508 0.03387,0.0762 0.09313,-0.04233 0.0762,-0.1016 0.08467,-0.160866 0.0254,-0.127 0.03387,-0.2540005 0.06773,-0.3810006 0.0254,-0.0762 0.0762,-0.1524001 0.135466,-0.2201334 0.0762,-0.084667 0.1524,-0.0762 0.211667,0.0254 0.04233,0.067733 0.06773,0.1354667 0.09313,0.2116667 0.0508,0.1100668 0.09313,0.2201333 0.143933,0.3217333 0.05927,0.135467 0.135467,0.262467 0.2032,0.389467 0.0085,0.0254 0.01693,0.0508 0.04233,0.06773 0.0254,0.0254 0.06773,0.0254 0.08467,-0.0085 0.01693,-0.0254 0.0254,-0.0508 0.01693,-0.08467 -0.0085,-0.09313 -0.01693,-0.186267 -0.04233,-0.2794 -0.04233,-0.1524 -0.0762,-0.2963335 -0.04233,-0.4487336 0.03387,-0.1947334 0.143933,-0.3556001 0.372533,-0.4572002 -0.1016,-0.1185334 -0.1016,-0.2540001 -0.05927,-0.3725335 0.0508,-0.1524 0.110066,-0.3048001 0.186266,-0.4487335 0.06773,-0.1185334 0.169334,-0.2286001 0.254,-0.3386668 0.0254,-0.033867 0.06773,-0.059267 0,-0.1185334 -0.04233,0.033867 -0.09313,0.059267 -0.135466,0.093133 -0.127,0.1185334 -0.254,0.2370668 -0.372534,0.3556002 -0.0762,0.0762 -0.143933,0.1524 -0.220133,0.2286 -0.09313,0.0762 -0.2032,0.1270001 -0.3302,0.1354668 -0.143934,0.00847 -0.143934,0.00847 -0.194734,-0.1100667 -0.0085,-0.00847 -0.0254,-0.016933 -0.04233,-0.0254 -0.0254,0.016933 -0.0508,0.033867 -0.0762,0.0508 -0.03387,0.016933 -0.05927,0.033867 -0.09313,0.0508 -0.09313,0.042333 -0.186266,0.033867 -0.245533,-0.042333 -0.03387,-0.059267 -0.0508,-0.127 -0.0762,-0.1862667 -0.01693,-0.0254 -0.0254,-0.0508 -0.04233,-0.084667 h -0.03387 c -0.0254,0.042333 -0.04233,0.0762 -0.06773,0.1185334 -0.04233,0.0762 -0.0762,0.1693334 -0.1778,0.2116667 -0.313267,0.1185334 -0.626534,0.1439334 -0.931334,-0.016933 -0.2032,-0.1100667 -0.397934,-0.2286001 -0.524934,-0.4064002 -0.04233,-0.0508 -0.08467,-0.1016 -0.135466,-0.1439334 -0.0254,-0.016933 -0.05927,-0.0254 -0.08467,-0.042333 -0.0508,0.059267 -0.0085,0.1016 0.01693,0.1354667 0.09313,0.1439334 0.194734,0.2878668 0.287867,0.4318002 0.143933,0.2116667 0.220133,0.4487335 0.220133,0.7027336 0.0085,0.1524 -0.0508,0.2878668 -0.1778,0.4064002 -0.0254,0.0254 -0.04233,0.0508 -0.05927,0.067733 0.09313,0.042333 0.194733,0.0762 0.262466,0.1354672 0.127,0.1016 0.211667,0.254 0.2286,0.423333 0.01693,0.1016 0,0.2032 -0.110066,0.2794 -0.01693,0.0085 -0.0254,0.03387 -0.04233,0.0508 0.0762,0.0254 0.143934,0.04233 0.203201,0.05927 0.135466,0.0508 0.169333,0.09313 0.1524,0.211667 -0.01693,0.135466 -0.05927,0.262466 -0.09313,0.389466 -0.0085,0.03387 -0.0508,0.06773 0.0085,0.110067 0.0254,-0.03387 0.04233,-0.06773 0.06773,-0.09313 0.0762,-0.09313 0.143934,-0.186267 0.2286,-0.270934 0.0762,-0.0762 0.1778,-0.09313 0.287867,-0.05927 0.127,0.03387 0.220134,0.08467 0.254,0.194733 0.03387,0.135467 0.05927,0.270933 0.08467,0.414867 0.01693,0.09313 0.0085,0.194733 0.0508,0.287867 z" />
      <path
         id="path197"
         style="font-style:normal;font-variant:normal;font-weight:normal;font-stretch:normal;font-size:8.46667px;font-family:'Crucial Noise';-inkscape-font-specification:'Crucial Noise';fill:#ffffff;stroke-width:0.264583"
         d="m 17.242037,10.998843 c -0.0085,0.08467 0,0.1778 -0.0254,0.270933 -0.0508,0.143933 -0.118533,0.287867 -0.1778,0.4318 -0.04233,0.09313 -0.03387,0.1016 0.08467,0.118534 0.0762,0.01693 0.1524,0.03387 0.194733,0.1016 0.0762,0.09313 0.06773,0.2032 0.06773,0.313266 0,0.0762 -0.05927,0.118534 -0.127,0.160867 -0.0508,0.03387 -0.0508,0.06773 0.0085,0.1016 0.143934,0.06773 0.135467,0.1778 0.1016,0.287867 -0.03387,0.110067 -0.08467,0.2286 -0.118533,0.338667 -0.1016,0.2794 -0.127,0.5588 0.01693,0.829733 0.06773,0.135467 0.143934,0.262467 0.220134,0.397934 0.01693,0.01693 0.03387,0.03387 0.0762,0.06773 0,-0.143933 -0.0085,-0.254 0,-0.364067 0.0085,-0.110066 0.0254,-0.220133 0.05927,-0.3302 0.08467,-0.220133 0.262466,-0.296333 0.5334,-0.237066 0.0254,0 0.06773,0 0.08467,-0.0085 0.0085,-0.01693 0.0085,-0.04233 0,-0.06773 -0.03387,-0.08467 -0.05927,-0.177801 -0.1016,-0.262467 -0.05927,-0.143934 -0.0085,-0.245534 0.143934,-0.3302 0.01693,0 0.01693,-0.01693 0.0254,-0.0254 -0.186267,-0.186267 -0.237067,-0.448734 0,-0.694267 -0.01693,-0.0254 -0.04233,-0.04233 -0.06773,-0.05927 -0.194733,-0.2032 -0.0762,-0.4572 0.228601,-0.508 0.05927,-0.0085 0.118533,-0.0085 0.1778,0 0.08467,0 0.1524,0.03387 0.1778,0.110066 0.04233,0.08467 0.0508,0.186267 0.01693,0.279401 -0.04233,0.127 -0.08467,0.254 -0.118533,0.389466 -0.01693,0.03387 -0.01693,0.0762 -0.0254,0.127 0.0508,-0.01693 0.08467,-0.01693 0.1016,-0.03387 0.110066,-0.09313 0.254,-0.09313 0.389466,-0.08467 0.0762,0 0.118534,0.04233 0.143934,0.09313 0.04233,0.09313 0.0508,0.194734 0.0254,0.296334 -0.01693,0.08467 -0.04233,0.169333 -0.06773,0.254 -0.05927,0.220133 -0.06773,0.440267 0,0.651934 0.08467,0.254 0.135466,0.508 0.287866,0.745067 0.0508,0.08467 0.09313,0.169333 0.1524,0.254 0.0085,0.01693 0.04233,0.0254 0.06773,0.03387 0.01693,-0.01693 0.04233,-0.04233 0.04233,-0.06773 0,-0.04233 -0.0254,-0.08467 -0.03387,-0.135467 -0.0762,-0.262467 -0.143933,-0.5334 -0.135466,-0.804333 0.0085,-0.296334 0.135466,-0.516467 0.491067,-0.626534 0.04233,-0.0085 0.0762,-0.03387 0.118533,-0.05927 -0.05927,-0.09313 -0.110067,-0.160866 -0.1524,-0.245533 -0.1016,-0.211667 -0.1524,-0.4318 -0.06773,-0.668867 0.0085,-0.0254 0,-0.06773 0,-0.1016 -0.04233,0 -0.05927,0 -0.0762,0.0085 -0.135466,0.01693 -0.186266,0 -0.237066,-0.1016 -0.01693,-0.0508 -0.03387,-0.110067 -0.0508,-0.160867 -0.0254,-0.0762 -0.0508,-0.160867 -0.135467,-0.211667 0,0 -0.0085,0 -0.01693,0 -0.118534,0.04233 -0.194734,0.0254 -0.254,-0.03387 -0.0508,-0.0508 -0.04233,-0.09313 0.03387,-0.186266 0.0085,-0.01693 0.0085,-0.0508 0.01693,-0.1016 -0.203201,0.06773 -0.381001,0.127 -0.575734,0.0254 0.03387,-0.01693 0.05927,-0.03387 0.08467,-0.04233 0.127,-0.06773 0.262466,-0.127 0.381,-0.2032 0.0762,-0.05927 0.143933,-0.110067 0.254,-0.09313 0.05927,0 0.09313,-0.0254 0.0762,-0.08467 -0.0085,-0.01693 -0.0085,-0.03387 -0.0085,-0.05927 0.01693,-0.2286 0.06773,-0.3302 0.347134,-0.287866 0,0 0.0085,0 0.0085,0 0.08467,0 0.1016,-0.0254 0.0762,-0.08467 -0.135466,-0.296333 -0.06773,-0.5672669 0.169334,-0.8128004 0.01693,-0.016933 0.03387,-0.033867 0.0508,-0.0508 0.01693,-0.0254 0.03387,-0.059267 0.0508,-0.093133 -0.0762,0 -0.127,0 -0.169333,0.00847 -0.101601,0.0254 -0.194734,0.0508 -0.296334,0.084667 -0.169333,0.059267 -0.3556,0.067733 -0.5334,0.033867 -0.262467,-0.059267 -0.423334,-0.2286001 -0.414867,-0.4572002 0.0085,0 0.0085,-0.00847 0.0085,-0.016933 -0.0085,-0.0508 -0.0508,-0.067733 -0.09313,-0.042333 -0.0508,0.0254 -0.09313,0.059267 -0.135466,0.084667 -0.160867,0.084667 -0.304801,0.0762 -0.448734,-0.0254 -0.135467,-0.1016 -0.211667,-0.2201334 -0.245533,-0.3640668 -0.06773,-0.2878668 -0.0508,-0.5672669 0.05927,-0.846667 0.0085,-0.033867 0.04233,-0.067733 -0.0085,-0.093133 -0.0508,-0.016933 -0.06773,0.016933 -0.09313,0.042333 -0.0085,0.016933 -0.0254,0.0254 -0.03387,0.042333 -0.194734,0.2540001 -0.321734,0.5334002 -0.414867,0.821267 -0.05927,0.1947334 -0.08467,0.3894668 -0.03387,0.5842002 0.01693,0.067733 0.0254,0.1439334 0.0085,0.2201335 -0.0254,0.1439334 -0.09313,0.2624667 -0.270934,0.3217334 -0.01693,0.00847 -0.03387,0.0254 -0.06773,0.0508 0.04233,0.016933 0.06773,0.033867 0.09313,0.033867 0.09313,0.00847 0.1016,0.0762 0.118534,0.1270001 0.0254,0.059266 -0.01693,0.093133 -0.06773,0.1270002 -0.03387,0.01693 -0.0762,0.03387 -0.110066,0.04233 -0.118534,0.03387 -0.127,0.0762 -0.0254,0.135467 0.110066,0.05927 0.143933,0.143933 0.118533,0.237066 -0.01693,0.0762 -0.04233,0.143934 -0.0762,0.2286 0.06773,0.0762 0.118533,0.152401 0.118533,0.254001 z m 0.880534,-0.778934 c -0.0254,-0.0254 -0.0508,-0.0508 -0.0762,-0.0762 -0.09313,-0.118533 -0.08467,-0.2370669 -0.0085,-0.3556003 0.06773,-0.1016 0.194734,-0.1354667 0.330201,-0.1439334 0.04233,-0.00847 0.08467,0.00847 0.110066,0.042333 0.03387,0.033867 0.0508,0.0762 0.04233,0.1185334 -0.0085,0.042333 -0.03387,0.0762 -0.04233,0.1185334 -0.0085,0.0254 0,0.0508 0,0.1016009 0.04233,-0.0254 0.06773,-0.033867 0.09313,-0.0508 0.143933,-0.1016001 0.3048,-0.1100667 0.465666,-0.0508 0.1016,0.0254 0.118534,0.084666 0.0762,0.169333 -0.1016,0.169333 -0.313266,0.262467 -0.5588,0.237067 -0.0254,-0.0085 -0.05927,0.0085 -0.08467,0.01693 0.0085,0.01693 0.01693,0.0508 0.03387,0.05927 0.08467,0.0254 0.135467,0.06773 0.143934,0.143933 0.01693,0.08467 0.01693,0.186267 -0.05927,0.254 -0.06773,0.06773 -0.1524,0.118534 -0.2286,0.160867 -0.04233,0.0254 -0.110067,0.0254 -0.160867,0.0254 -0.135467,-0.0085 -0.1778,-0.0762 -0.143933,-0.186267 0.01693,-0.05927 0.0508,-0.110067 0.0762,-0.186267 -0.2032,-0.127 -0.1016,-0.262466 -0.0085,-0.397933 z" />
    </g>
    <g
       style="font-size:3.52777px;line-height:1.25;font-family:Arial;-inkscape-font-specification:Arial;stroke-width:0.264583"
       id="text129"
       aria-label="A">
      <path
         id="path200"
         style="fill:#ffffff;stroke-width:0.264583"
         d="M 0.92739245,28.776474 1.8971847,26.251225 h 0.3600117 l 1.0335264,2.525249 H 2.9100406 L 2.6154855,28.011664 H 1.5595661 l -0.2773296,0.76481 z M 1.6560286,27.739503 H 2.5121329 L 2.2485837,27.04015 q -0.1205781,-0.318671 -0.1791446,-0.523654 -0.048231,0.242879 -0.136081,0.482313 z" />
    </g>
    <g
       style="font-size:3.52777px;line-height:1.25;font-family:Arial;-inkscape-font-specification:Arial;stroke-width:0.264583"
       id="text133"
       aria-label="D">
      <path
         id="path203"
         style="fill:#ffffff;stroke-width:0.264583"
         d="m 1.3454577,45.664772 v -2.525249 h 0.8698847 q 0.294555,0 0.4495839,0.03617 0.2170406,0.04995 0.370347,0.180867 0.1998151,0.168809 0.2980001,0.432359 0.099908,0.261826 0.099908,0.599445 0,0.287665 -0.067179,0.509873 -0.067179,0.222208 -0.1722544,0.368624 -0.1050751,0.144694 -0.2308209,0.229099 -0.1240231,0.08268 -0.3014452,0.125745 -0.1756994,0.04306 -0.4047978,0.04306 z m 0.3341735,-0.298 h 0.5391562 q 0.2497689,0 0.3910175,-0.04651 0.1429712,-0.04651 0.2273758,-0.130913 0.1188556,-0.118856 0.1843122,-0.318671 0.067179,-0.201537 0.067179,-0.48748 0,-0.396185 -0.1309134,-0.608058 Q 2.828568,43.561546 2.6425333,43.489199 2.5081748,43.437523 2.2101747,43.437523 H 1.6796312 Z" />
    </g>
    <g
       style="font-size:3.52777px;line-height:1.25;font-family:Arial;-inkscape-font-specification:Arial;stroke-width:0.264583"
       id="text137"
       aria-label="S">
      <path
         id="path206"
         style="fill:#ffffff;stroke-width:0.264583"
         d="m 1.2317698,61.882491 0.3152255,-0.02756 q 0.022393,0.189479 0.1033526,0.31178 0.082682,0.120578 0.2549365,0.19637 0.1722544,0.07407 0.3875724,0.07407 0.1912024,0 0.3376187,-0.05684 0.1464162,-0.05684 0.2170405,-0.155029 0.072347,-0.09991 0.072347,-0.217041 0,-0.118856 -0.068902,-0.206705 -0.068902,-0.08957 -0.2273758,-0.149862 -0.1016301,-0.03962 -0.449584,-0.1223 -0.3479539,-0.0844 -0.4874799,-0.158474 -0.1808672,-0.09474 -0.2704394,-0.234266 -0.08785,-0.141249 -0.08785,-0.315226 0,-0.191202 0.1085203,-0.356566 0.1085203,-0.167087 0.3169481,-0.253214 0.2084278,-0.08613 0.4633643,-0.08613 0.2807747,0 0.4943701,0.0913 0.215318,0.08957 0.3307285,0.265272 0.1154104,0.1757 0.1240231,0.397908 l -0.3203931,0.02412 Q 2.8199553,60.664653 2.670094,60.542352 2.5219552,60.420051 2.2308453,60.420051 q -0.3031678,0 -0.4426938,0.111966 -0.1378036,0.110243 -0.1378036,0.266994 0,0.136081 0.098185,0.223931 0.096462,0.08785 0.5029829,0.180867 0.4082429,0.0913 0.5598268,0.160197 0.2204856,0.10163 0.3255608,0.258381 0.1050752,0.155029 0.1050752,0.358289 0,0.201538 -0.1154105,0.380683 -0.1154104,0.177422 -0.332451,0.277329 -0.215318,0.09819 -0.4857574,0.09819 -0.3427862,0 -0.5753296,-0.09991 Q 1.5022092,62.537058 1.3695733,62.337243 1.2386599,62.135705 1.2317698,61.882491 Z" />
    </g>
    <g
       style="font-size:3.52777px;line-height:1.25;font-family:Arial;-inkscape-font-specification:Arial;stroke-width:0.264583"
       id="text141"
       aria-label="R">
      <path
         id="path209"
         style="fill:#ffffff;stroke-width:0.264583"
         d="M 1.6320985,79.300636 V 76.775387 H 2.751752 q 0.3376186,0 0.5133181,0.0689 0.1756995,0.06718 0.2807747,0.239433 0.1050752,0.172255 0.1050752,0.380682 0,0.268717 -0.173977,0.453029 -0.1739769,0.184313 -0.5374337,0.234266 0.1326359,0.06374 0.2015377,0.125746 0.1464162,0.134359 0.2773295,0.335896 l 0.4392488,0.687295 H 3.4373245 L 3.103151,78.77526 Q 2.9567348,78.547885 2.8619948,78.427307 2.7672549,78.306728 2.691463,78.258497 2.6173936,78.210266 2.5398791,78.191318 2.4830352,78.17926 2.3538444,78.17926 H 1.966272 v 1.121376 z M 1.966272,77.889873 h 0.7183008 q 0.2290984,0 0.3582892,-0.04651 0.1291908,-0.04823 0.19637,-0.151584 0.067179,-0.105075 0.067179,-0.227376 0,-0.179144 -0.1309134,-0.294555 -0.1291908,-0.11541 -0.4099654,-0.11541 H 1.966272 Z" />
    </g>
    <text
       id="text181"
       y="105.12965"
       x="3.7998669"
       style="font-size:3.52777px;line-height:1.25;font-family:Arial;-inkscape-font-specification:Arial;stroke-width:0.264583"
       xml:space="preserve"><tspan
         style="stroke-width:0.264583"
         y="105.12965"
         x="3.7998669"
         id="tspan179"
         sodipodi:role="line" /></text>
    <g
       style="font-size:3.52777px;line-height:1.25;font-family:Arial;-inkscape-font-specification:Arial;stroke-width:0.264583"
       id="text185"
       aria-label="Gate">
      <path
         id="path212"
         style="font-size:2.82222px;fill:#ffffff;stroke-width:0.264583"
         d="m 3.6963058,105.04096 v -0.23703 l 0.8557611,-10e-4 v 0.74965 q -0.1970593,0.15709 -0.406521,0.23702 -0.2094616,0.0785 -0.4299476,0.0785 -0.297656,0 -0.5415686,-0.12678 -0.2425345,-0.12816 -0.3665578,-0.36931 -0.1240234,-0.24116 -0.1240234,-0.53882 0,-0.2949 0.1226453,-0.54983 0.1240234,-0.25632 0.3555336,-0.38034 0.2315102,-0.12403 0.5333004,-0.12403 0.2191079,0 0.3954966,0.0717 0.1777668,0.0703 0.2783636,0.19706 0.1005967,0.12678 0.1529621,0.33073 l -0.2411565,0.0662 q -0.045475,-0.15434 -0.1129991,-0.24254 -0.067524,-0.0882 -0.1929252,-0.14056 -0.1254014,-0.0537 -0.2783635,-0.0537 -0.1832789,0 -0.3169485,0.0565 -0.1336696,0.0551 -0.2163519,0.14607 -0.081304,0.091 -0.1267794,0.19982 -0.07717,0.18741 -0.07717,0.40652 0,0.27009 0.092328,0.45199 0.093707,0.1819 0.2714734,0.2701 0.1777667,0.0882 0.3775821,0.0882 0.1736327,0 0.3389972,-0.0661 0.1653644,-0.0675 0.2508027,-0.14332 v -0.3762 z" />
      <path
         id="path214"
         style="font-size:2.82222px;fill:#ffffff;stroke-width:0.264583"
         d="m 5.8680925,105.65281 q -0.1378037,0.11713 -0.2659612,0.16536 -0.1267794,0.0482 -0.2728513,0.0482 -0.2411565,0 -0.370692,-0.11713 -0.1295355,-0.11851 -0.1295355,-0.30179 0,-0.10749 0.048231,-0.19568 0.049609,-0.0896 0.1281574,-0.14332 0.079926,-0.0537 0.1791449,-0.0813 0.073036,-0.0193 0.2204859,-0.0372 0.3004121,-0.0358 0.4423499,-0.0854 0.00138,-0.051 0.00138,-0.0648 0,-0.15158 -0.07028,-0.21359 -0.095085,-0.0841 -0.2824976,-0.0841 -0.1750108,0 -0.259071,0.062 -0.082682,0.0606 -0.1226453,0.21635 l -0.2425346,-0.0331 q 0.033073,-0.15572 0.108865,-0.2508 0.075792,-0.0965 0.2191079,-0.14745 0.1433158,-0.0524 0.3321069,-0.0524 0.1874131,0 0.3045462,0.0441 0.1171332,0.0441 0.1722547,0.11162 0.055122,0.0661 0.07717,0.16812 0.012402,0.0634 0.012402,0.22875 v 0.33073 q 0,0.34589 0.015158,0.43822 0.016536,0.0909 0.06339,0.17501 h -0.259071 q -0.038585,-0.0772 -0.049609,-0.18052 z m -0.020671,-0.55398 q -0.1350476,0.0551 -0.4051429,0.0937 -0.1529621,0.0221 -0.2163518,0.0496 -0.06339,0.0276 -0.097841,0.0813 -0.034451,0.0524 -0.034451,0.11714 0,0.0992 0.074414,0.16536 0.075792,0.0661 0.220486,0.0661 0.1433158,0 0.2549368,-0.062 0.111621,-0.0634 0.1639864,-0.17226 0.039963,-0.0841 0.039963,-0.24805 z" />
      <path
         id="path216"
         style="font-size:2.82222px;fill:#ffffff;stroke-width:0.264583"
         d="m 7.0256438,105.61146 0.035829,0.21911 q -0.1047308,0.0221 -0.187413,0.0221 -0.1350477,0 -0.2094617,-0.0427 -0.074414,-0.0427 -0.1047308,-0.11162 -0.030317,-0.0703 -0.030317,-0.29352 v -0.84198 H 6.3476495 v -0.19293 h 0.1819009 v -0.36242 l 0.2466686,-0.1489 v 0.51125 h 0.2494248 v 0.19293 H 6.776219 v 0.85576 q 0,0.10611 0.012402,0.13642 0.01378,0.0303 0.042719,0.0482 0.030317,0.0179 0.085438,0.0179 0.041341,0 0.108865,-0.01 z" />
      <path
         id="path218"
         style="font-size:2.82222px;fill:#ffffff;stroke-width:0.264583"
         d="m 8.268633,105.36204 0.2563149,0.0317 q -0.060634,0.22462 -0.22462,0.34865 -0.1639864,0.12402 -0.4189233,0.12402 -0.3210827,0 -0.5098738,-0.19706 -0.187413,-0.19844 -0.187413,-0.55535 0,-0.36931 0.1901691,-0.57326 0.1901691,-0.20395 0.4933373,-0.20395 0.2935219,0 0.479557,0.19982 0.186035,0.19981 0.186035,0.56223 0,0.022 -0.00138,0.0661 H 7.4404327 q 0.01378,0.24116 0.1364257,0.36931 0.1226453,0.12816 0.3059242,0.12816 0.1364257,0 0.2328883,-0.0717 0.096463,-0.0717 0.1529621,-0.22875 z m -0.8144199,-0.40101 h 0.817176 q -0.016536,-0.18466 -0.093706,-0.27698 -0.1185112,-0.14332 -0.3073023,-0.14332 -0.1708766,0 -0.2880098,0.11438 -0.1157551,0.11437 -0.1281579,0.30592 z" />
    </g>
    <g
       style="font-size:3.52777px;line-height:1.25;font-family:Arial;-inkscape-font-specification:Arial;stroke-width:0.264583"
       id="text189"
       aria-label="Env.">
      <path
         id="path221"
         style="font-size:2.82222px;fill:#ffffff;stroke-width:0.264583"
         d="m 16.267122,105.97407 v -2.0202 h 1.46072 v 0.2384 h -1.19338 v 0.61873 h 1.117588 v 0.23703 h -1.117588 v 0.68764 h 1.240233 v 0.2384 z" />
      <path
         id="path223"
         style="font-size:2.82222px;fill:#ffffff;stroke-width:0.264583"
         d="m 18.11507,105.97407 v -1.46348 h 0.223242 v 0.20809 q 0.161231,-0.24116 0.465777,-0.24116 0.132291,0 0.242534,0.0482 0.111621,0.0468 0.166743,0.12402 0.05512,0.0772 0.07717,0.18328 0.01378,0.0689 0.01378,0.24116 v 0.89986 H 19.05627 v -0.89021 q 0,-0.15159 -0.02894,-0.226 -0.02894,-0.0758 -0.103353,-0.11989 -0.07304,-0.0455 -0.172255,-0.0455 -0.158474,0 -0.274229,0.1006 -0.114377,0.1006 -0.114377,0.38172 v 0.79926 z" />
      <path
         id="path225"
         style="font-size:2.82222px;fill:#ffffff;stroke-width:0.264583"
         d="m 20.092554,105.97407 -0.556727,-1.46348 h 0.261827 l 0.314192,0.87643 q 0.05099,0.14194 0.09371,0.2949 0.03307,-0.11575 0.09233,-0.27836 l 0.325217,-0.89297 h 0.254937 l -0.553971,1.46348 z" />
      <path
         id="path227"
         style="font-size:2.82222px;fill:#ffffff;stroke-width:0.264583"
         d="m 20.957961,105.97407 v -0.2825 h 0.282497 v 0.2825 z" />
    </g>
    <g
       id="g40"
       transform="matrix(0.01007433,0,0,0.00936186,10.49441,116.14394)"
       style="fill:#ffffff">
      <path
         style="fill:#ffffff;stroke-width:1.35211"
         d="m 436.00195,399.08312 c 0,-51.68451 0.16814,-72.82817 0.37365,-46.98591 0.20551,25.84225 0.20551,68.12957 0,93.97183 -0.20551,25.84225 -0.37365,4.69859 -0.37365,-46.98592 z m -350.289433,26.70423 -2.575761,-3.04226 3.042253,2.57576 c 2.858962,2.42058 3.65779,3.50875 2.575762,3.50875 -0.256577,0 -1.625591,-1.36901 -3.042254,-3.04225 z m 116.913733,0.67605 c -1.68185,-2.14453 -1.63403,-2.19235 0.5105,-0.5105 1.30141,1.02064 2.3662,2.08543 2.3662,2.3662 0,1.11284 -1.11034,0.39658 -2.8767,-1.8557 z M 8.0945055,422.74509 c 1.7465915,-1.85915 3.4798375,-3.38028 3.8516685,-3.38028 0.371831,0 -0.752964,1.52113 -2.4995559,3.38028 -1.7465915,1.85916 -3.4798376,3.38028 -3.8516686,3.38028 -0.371831,0 0.7529645,-1.52112 2.499556,-3.38028 z m 183.7148445,-8.4507 c -1.68186,-2.14453 -1.63403,-2.19236 0.5105,-0.5105 1.30141,1.02064 2.3662,2.08543 2.3662,2.36619 0,1.11285 -1.11034,0.39659 -2.8767,-1.85569 z m -127.730635,-8.78873 -2.575761,-3.04226 3.042254,2.57576 c 2.858961,2.42058 3.657789,3.50875 2.575761,3.50875 -0.256577,0 -1.625591,-1.36901 -3.042254,-3.04225 z m -149.279981,-0.17248 c 0,-0.28077 1.064789,-1.34555 2.366198,-2.3662 2.144526,-1.68185 2.19235,-1.63402 0.510496,0.51051 -1.766358,2.25228 -2.876694,2.96853 -2.876694,1.85569 z M 29.728307,402.4634 c 1.746592,-1.85915 3.479838,-3.38028 3.851669,-3.38028 0.371831,0 -0.752964,1.52113 -2.499556,3.38028 -1.746591,1.85916 -3.479838,3.38028 -3.851669,3.38028 -0.37183,0 0.752965,-1.52112 2.499556,-3.38028 z m -4.158679,-11.15493 -3.27794,-3.71831 3.71831,3.27794 c 3.475321,3.06374 4.338375,4.15868 3.27794,4.15868 -0.242191,0 -1.91543,-1.67324 -3.71831,-3.71831 z m 42.693889,-3.04225 c 1.346015,-1.48732 2.751522,-2.70423 3.123353,-2.70423 0.371831,0 -0.425226,1.21691 -1.77124,2.70423 -1.346015,1.48732 -2.751522,2.70422 -3.123353,2.70422 -0.371831,0 0.425226,-1.2169 1.77124,-2.70422 z m 122.366193,-9.97529 c 0,-0.28077 1.06479,-1.34556 2.3662,-2.3662 2.14453,-1.68185 2.19235,-1.63403 0.5105,0.5105 -1.76636,2.25229 -2.8767,2.96854 -2.8767,1.8557 z m -187.3960629,-7.9402 -2.57576105,-3.04226 3.04225335,2.57576 c 1.6732394,1.41667 3.0422535,2.78568 3.0422535,3.04226 0,1.08203 -1.0881668,0.2832 -3.5087458,-2.57576 z m 86.6636719,-2.3662 c 1.346015,-1.48732 2.751522,-2.70423 3.123353,-2.70423 0.371831,0 -0.425226,1.21691 -1.77124,2.70423 -1.346015,1.48732 -2.751522,2.70422 -3.123353,2.70422 -0.371831,0 0.425226,-1.2169 1.77124,-2.70422 z m 111.549291,-1.86262 c 0,-0.28076 1.06479,-1.34555 2.3662,-2.36619 2.14453,-1.68186 2.19235,-1.63403 0.5105,0.5105 -1.76636,2.25228 -2.8767,2.96854 -2.8767,1.85569 z"
         id="path54" />
      <path
         style="fill:#ffffff;stroke-width:1.35211"
         d="m -3.4983216,463.30847 c 0.00102,-16.36056 0.1962659,-22.86768 0.4338767,-14.46027 0.2376095,8.40742 0.2367725,21.79333 -0.00189,29.74648 -0.2385979,7.95315 -0.433006,1.07436 -0.4319838,-15.28621 z M -118.89734,432.09721 c 0.0649,-1.57514 0.38528,-1.89553 0.81691,-0.81691 0.39058,0.97605 0.34255,2.14226 -0.10675,2.59156 -0.4493,0.44929 -0.76887,-0.34931 -0.71016,-1.77465 z M 62.17901,394.51628 c 0,-0.28077 1.064789,-1.34556 2.366198,-2.3662 2.144531,-1.68185 2.192355,-1.63403 0.510503,0.51051 -1.766359,2.25228 -2.876701,2.96853 -2.876701,1.85569 z M 7.92203,375.08312 c -1.6818523,-2.14453 -1.6340281,-2.19236 0.5105036,-0.5105 1.3014084,1.02064 2.3661974,2.08543 2.3661974,2.36619 0,1.11285 -1.1103416,0.39659 -2.876701,-1.85569 z m 75.890782,-0.84853 c 0,-0.28077 1.064789,-1.34556 2.366197,-2.3662 2.144532,-1.68185 2.192356,-1.63403 0.510504,0.51051 -1.766359,2.25228 -2.876701,2.96853 -2.876701,1.85569 z M -3.4983216,334.85777 c 0.00102,-16.36056 0.1962659,-22.86769 0.4338767,-14.46028 0.2376095,8.40742 0.2367725,21.79334 -0.00189,29.74648 -0.2385979,7.95315 -0.433006,1.07436 -0.4319838,-15.2862 z"
         id="path52" />
      <path
         style="fill:#ffffff;stroke-width:1.35211"
         d="m 96.605556,497.78735 c 0,-34.58029 0.175098,-48.72676 0.389111,-31.43662 0.214012,17.29014 0.214012,45.5831 0,62.87324 -0.214013,17.29014 -0.389111,3.14366 -0.389111,-31.43662 z m -18.37367,-79.43662 c -1.681852,-2.14454 -1.634028,-2.19236 0.510504,-0.51051 1.301408,1.02065 2.366197,2.08543 2.366197,2.3662 0,1.11284 -1.110341,0.39659 -2.876701,-1.85569 z m 18.37417,-118.64789 c -2.84e-4,-34.95211 0.17449,-49.44472 0.388381,-32.20578 0.21389,17.23893 0.214107,45.83612 5e-4,63.54929 -0.21362,17.71318 -0.388611,3.6086 -0.388881,-31.34351 z"
         id="path50" />
      <path
         style="fill:#ffffff;stroke-width:1.35211"
         d="m 227.45919,581.2803 c 0.17733,-84.21971 0.48093,-128.4845 0.67465,-98.36619 0.92751,144.19826 0.93475,251.49327 0.017,251.49312 -0.55775,-10e-5 -0.86899,-68.90721 -0.69165,-153.12693 z M 335.62905,398.74509 c 0.1778,-89.42535 0.48145,-136.42817 0.67476,-104.4507 0.92675,153.30065 0.93358,267.04254 0.0161,267.0424 -0.55775,-8e-5 -0.86861,-73.16634 -0.6908,-162.5917 z M -4.0745081,433.72755 c 0,-0.28077 1.0647887,-1.34556 2.3661971,-2.3662 2.14452629,-1.68185 2.19235052,-1.63403 0.5104968,0.5105 -1.766358,2.25229 -2.8766939,2.96854 -2.8766939,1.8557 z M 74.175549,414.29439 c -1.681853,-2.14453 -1.634029,-2.19236 0.510503,-0.5105 1.301409,1.02064 2.366197,2.08543 2.366197,2.36619 0,1.11285 -1.110341,0.39659 -2.8767,-1.85569 z m -56.616255,-0.84853 c 0,-0.28077 1.064789,-1.34556 2.366197,-2.3662 2.144532,-1.68185 2.192356,-1.63403 0.510504,0.5105 -1.76636,2.25229 -2.876701,2.96854 -2.876701,1.8557 z m -2.156633,-30.92612 -2.575761,-3.04225 3.042253,2.57576 c 2.858961,2.42058 3.657789,3.50874 2.575761,3.50874 -0.256577,0 -1.625591,-1.36901 -3.042253,-3.04225 z m 63.677757,-3.71831 c 1.346015,-1.48732 2.751522,-2.70422 3.123353,-2.70422 0.371831,0 -0.425226,1.2169 -1.77124,2.70422 -1.346015,1.48732 -2.751522,2.70423 -3.123353,2.70423 -0.371831,0 0.425226,-1.21691 1.77124,-2.70423 z M 227.79121,200.99861 c -5e-5,-89.23943 0.16168,-125.945637 0.35938,-81.56934 0.19771,44.37631 0.19775,117.39039 8e-5,162.25353 -0.19765,44.86313 -0.35942,8.55525 -0.35946,-80.68419 z"
         id="path48" />
      <path
         style="fill:#ffffff;stroke-width:1.35211"
         d="m 210.21207,584.99861 c 6e-5,-82.54647 0.16255,-116.11661 0.36111,-74.6003 0.19856,41.51631 0.19852,109.05434 -9e-5,150.08451 -0.19861,41.03017 -0.36107,7.06227 -0.36102,-75.48421 z m -328.31474,-74.59155 c -0.49578,-0.49577 -0.90141,-17.45788 -0.90141,-37.69359 0,-33.43184 0.21611,-36.96168 2.3662,-38.64789 2.11004,-1.6548 2.17864,-1.61562 0.63376,0.36197 -1.33502,1.70895 -1.64519,10.78154 -1.35211,39.55017 0.20917,20.53288 0.32961,37.33211 0.26764,37.33162 -0.062,-4.7e-4 -0.51831,-0.4065 -1.01408,-0.90228 z m 209.223638,-80.56338 -2.575761,-3.04225 3.042253,2.57576 c 2.858961,2.42058 3.657789,3.50875 2.575761,3.50875 -0.256577,0 -1.625591,-1.36902 -3.042253,-3.04226 z M 2.686055,426.80143 c 1.7465915,-1.85915 3.4798376,-3.38028 3.8516686,-3.38028 0.3718309,0 -0.7529645,1.52113 -2.499556,3.38028 -1.7465915,1.85916 -3.4798349,3.38028 -3.85166587,3.38028 -0.37183098,0 0.75296853,-1.52112 2.49955327,-3.38028 z M 227.72296,395.70284 c -8.3e-4,-18.59155 0.18961,-26.38472 0.42318,-17.31816 0.23358,9.06658 0.23426,24.27785 0.001,33.80282 -0.23261,9.52498 -0.42372,2.10689 -0.42454,-16.48466 z m -158.235794,13.85915 -2.575761,-3.04225 3.042253,2.57576 c 2.858961,2.42058 3.657789,3.50875 2.575761,3.50875 -0.256577,0 -1.625591,-1.36902 -3.042253,-3.04226 z m -45.167309,-3.04225 c 1.746591,-1.85915 3.479838,-3.38028 3.851669,-3.38028 0.371831,0 -0.752965,1.52113 -2.499556,3.38028 -1.746592,1.85916 -3.479838,3.38028 -3.851669,3.38028 -0.371831,0 0.752964,-1.52112 2.499556,-3.38028 z M 182.34456,404.8296 c -1.68185,-2.14453 -1.63403,-2.19236 0.5105,-0.5105 1.30141,1.02064 2.3662,2.08543 2.3662,2.36619 0,1.11285 -1.11034,0.39659 -2.8767,-1.85569 z m -161.533449,-16.90141 -2.575761,-3.04225 3.042254,2.57576 c 2.858961,2.42058 3.657789,3.50874 2.575761,3.50874 -0.256577,0 -1.625591,-1.36901 -3.042254,-3.04225 z m 52.1848,-3.04225 c 1.746592,-1.85916 3.479838,-3.38028 3.851669,-3.38028 0.371831,0 -0.752964,1.52112 -2.499556,3.38028 -1.746591,1.85915 -3.479838,3.38028 -3.851669,3.38028 -0.371831,0 0.752965,-1.52113 2.499556,-3.38028 z m 108.169009,2.86978 c 0,-0.28077 1.06479,-1.34556 2.3662,-2.3662 2.14453,-1.68185 2.19235,-1.63403 0.5105,0.5105 -1.76636,2.25228 -2.8767,2.96854 -2.8767,1.8557 z m -182.6375389,-20.78528 -3.2779455,-3.71831 3.7183097,3.27795 c 3.4753215,3.06373 4.338375,4.15867 3.2779401,4.15867 -0.2421904,0 -1.91543382,-1.67323 -3.7183043,-3.71831 z m 94.7502199,-0.84853 c 0,-0.28076 1.064788,-1.34555 2.366197,-2.36619 2.144532,-1.68186 2.192356,-1.63403 0.510503,0.5105 -1.766359,2.25228 -2.8767,2.96854 -2.8767,1.85569 z M 209.23236,197.61826 c -0.19201,-87.00848 0.10721,-158.197216 0.66495,-158.197178 0.55775,3.6e-5 1.01409,71.188798 1.01409,158.197248 0,87.00845 -0.29922,158.19719 -0.66496,158.19719 -0.36572,0 -0.82205,-71.18876 -1.01408,-158.19726 z"
         id="path46" />
      <path
         style="fill:#ffffff;stroke-width:1.35211"
         d="m 556.34114,413.2803 c 1.4e-4,-53.54366 0.16781,-75.251 0.37263,-48.23855 0.20482,27.01245 0.20472,70.8209 -2.3e-4,97.35211 -0.20494,26.53121 -0.37252,4.43011 -0.3724,-49.11356 z m -470.628623,11.15493 -2.575761,-3.04225 3.042253,2.57576 c 2.858962,2.42058 3.65779,3.50875 2.575762,3.50875 -0.256577,0 -1.625591,-1.36902 -3.042254,-3.04226 z M 8.7705618,420.71692 c 1.3460142,-1.48732 2.7515222,-2.70422 3.1233532,-2.70422 0.371831,0 -0.425226,1.2169 -1.771241,2.70422 -1.3460142,1.48733 -2.7515217,2.70423 -3.1233527,2.70423 -0.371831,0 0.4252259,-1.2169 1.7712405,-2.70423 z m 55.3081532,-16.56338 -2.575761,-3.04225 3.042254,2.57576 c 2.858961,2.42058 3.657789,3.50875 2.575761,3.50875 -0.256577,0 -1.625591,-1.36902 -3.042254,-3.04226 z m -35.70252,-1.52458 c 0,-0.28077 1.064789,-1.34556 2.366197,-2.3662 2.144532,-1.68185 2.192356,-1.63403 0.510504,0.5105 -1.76636,2.25228 -2.876701,2.96854 -2.876701,1.8557 z m -2.156633,-9.29232 -2.575761,-3.04225 3.042253,2.57576 c 2.858961,2.42058 3.657789,3.50875 2.575761,3.50875 -0.256577,0 -1.625591,-1.36902 -3.042253,-3.04226 z m 40.691843,-2.3662 c 1.346014,-1.48732 2.751522,-2.70422 3.123353,-2.70422 0.371831,0 -0.425226,1.2169 -1.771241,2.70422 -1.346014,1.48733 -2.751522,2.70423 -3.123353,2.70423 -0.371831,0 0.425226,-1.2169 1.771241,-2.70423 z M 189.2776,378.29093 c 0,-0.28077 1.06479,-1.34556 2.36619,-2.3662 2.14454,-1.68185 2.19236,-1.63403 0.51051,0.5105 -1.76636,2.25229 -2.8767,2.96854 -2.8767,1.8557 z m -184.6918403,-5.23598 -2.575761,-3.04225 3.0422534,2.57576 c 2.858961,2.42058 3.6577891,3.50875 2.575761,3.50875 -0.2565769,0 -1.6255909,-1.36902 -3.0422534,-3.04226 z m 85.3115593,-3.71831 c 1.346015,-1.48732 2.751522,-2.70422 3.123353,-2.70422 0.371831,0 -0.425226,1.2169 -1.77124,2.70422 -1.346015,1.48733 -2.751522,2.70423 -3.123353,2.70423 -0.371831,0 0.425226,-1.2169 1.77124,-2.70423 z"
         id="path44" />
      <path
         style="fill:#ffffff;stroke-width:1.35211"
         d="M 45.615631,621.29216 -117.65197,509.6199 v -36.86198 -36.86199 l 22.30986,-19.85057 c 12.270422,-10.91781 22.309858,-20.07194 22.309858,-20.34252 0,-0.27059 -10.047335,-9.43174 -22.32741,-20.35814 l -22.327408,-19.86619 0.35558,-46.0244 0.35558,-46.0244 160.9014,-110.08339 c 88.49577,-60.545869 161.96619,-110.664977 163.2676,-111.3758 2.24752,-1.227587 2.36355,6.626948 2.31325,156.61433 l -0.053,157.90672 -17.49075,19.47317 -17.49076,19.47315 3.68456,4.43835 c 2.02649,2.44109 9.92384,11.40858 17.54965,19.92775 l 13.8651,15.4894 -0.34398,148.83552 -0.34392,148.83552 z M 97.333939,498.01744 v -63.3192 L 78.74239,417.29329 c -10.225352,-9.57271 -18.726489,-17.73823 -18.891434,-18.14558 -0.16493,-0.40735 8.201267,-8.63217 18.591549,-18.27738 L 97.333939,363.3336 v -63.39666 c 0,-56.21514 -0.233213,-63.30717 -2.058714,-62.60665 -1.132299,0.4345 -23.9492,15.75928 -50.704223,34.05505 l -48.6455101,33.26507 v 30.0805 30.08051 l 18.2069941,16.79782 18.207008,16.79782 -18.237052,17.57747 -18.2370542,17.57746 0.030057,29.84931 0.030047,29.84931 49.6901392,34.00377 c 27.329576,18.70208 50.146477,34.01919 50.704223,34.03803 0.557747,0.0188 1.014085,-28.45941 1.014085,-63.28497 z M 228.48886,386.93421 c 0,-190.51247 0.49273,-346.183485 1.09496,-345.935597 0.60221,0.247887 71.03038,48.279873 156.50703,106.737747 85.47664,58.45787 157.54166,107.29968 160.14448,108.53735 2.60282,1.23767 6.03876,3.30145 7.63545,4.58619 l 2.90305,2.3359 -0.73228,123.37103 -0.73229,123.37105 -159.57362,109.19233 C 307.97014,679.186 234.43555,729.4471 232.32543,730.82153 l -3.83657,2.49898 z m 159.40431,139.81745 48.82104,-33.42902 v -94.36068 -94.36069 l -48.54089,-33.20034 c -26.69747,-18.26019 -49.51437,-33.57392 -50.70422,-34.0305 -1.97565,-0.75813 -2.16334,13.27176 -2.16334,161.71269 0,138.36498 0.28012,162.43535 1.88318,161.8202 1.03575,-0.39746 23.85265,-15.7657 50.70423,-34.15166 z"
         id="path42" />
    </g>
  </g>
  <g
     style="display:none"
     inkscape:label="components"
     id="layer2"
     inkscape:groupmode="layer">
    <ellipse
       inkscape:label="attack"
       ry="2.4222417"
       rx="2.3290787"
       cy="27.576288"
       cx="19.56426"
       id="path107"
       style="fill:#ff0000;fill-rule:evenodd;stroke-width:0.264583" />
    <ellipse
       inkscape:label="attack"
       style="fill:#00ff00;fill-rule:evenodd;stroke-width:0.264583"
       id="ellipse109"
       cx="8.2915201"
       cy="27.576288"
       rx="2.3290787"
       ry="2.4222417" />
    <ellipse
       inkscape:label="decay"
       style="fill:#ff0000;fill-rule:evenodd;stroke-width:0.264583"
       id="ellipse111"
       cx="19.56426"
       cy="44.327023"
       rx="2.3290787"
       ry="2.4222417" />
    <ellipse
       inkscape:label="decay"
       ry="2.4222417"
       rx="2.3290787"
       cy="44.327023"
       cx="8.2915201"
       id="ellipse113"
       style="fill:#00ff00;fill-rule:evenodd;stroke-width:0.264583" />
    <ellipse
       inkscape:label="sustain"
       style="fill:#00ff00;fill-rule:evenodd;stroke-width:0.264583"
       id="ellipse115"
       cx="8.2915201"
       cy="61.077759"
       rx="2.3290787"
       ry="2.4222417" />
    <ellipse
       inkscape:label="sustain"
       ry="2.4222417"
       rx="2.3290787"
       cy="61.077759"
       cx="19.56426"
       id="ellipse117"
       style="fill:#ff0000;fill-rule:evenodd;stroke-width:0.264583" />
    <ellipse
       inkscape:label="release"
       style="fill:#ff0000;fill-rule:evenodd;stroke-width:0.264583"
       id="ellipse119"
       cx="19.56426"
       cy="77.828491"
       rx="2.3290787"
       ry="2.4222417" />
    <ellipse
       inkscape:label="release"
       ry="2.4222417"
       rx="2.3290787"
       cy="77.828491"
       cx="8.2915201"
       id="ellipse121"
       style="fill:#00ff00;fill-rule:evenodd;stroke-width:0.264583" />
    <ellipse
       inkscape:label="gate"
       style="fill:#00ff00;fill-rule:evenodd;stroke-width:0.264583"
       id="ellipse123"
       cx="5.6829515"
       cy="111.23679"
       rx="2.3290787"
       ry="2.4222417" />
    <ellipse
       inkscape:label="env"
       ry="2.4222417"
       rx="2.3290787"
       cy="111.23679"
       cx="18.278608"
       id="ellipse125"
       style="fill:#0000ff;fill-rule:evenodd;stroke-width:0.264583" />
  </g>
</svg>
