<?xml version="1.0" encoding="UTF-8" standalone="no"?>
<svg
   xmlns:dc="http://purl.org/dc/elements/1.1/"
   xmlns:cc="http://creativecommons.org/ns#"
   xmlns:rdf="http://www.w3.org/1999/02/22-rdf-syntax-ns#"
   xmlns:svg="http://www.w3.org/2000/svg"
   xmlns="http://www.w3.org/2000/svg"
   xmlns:sodipodi="http://sodipodi.sourceforge.net/DTD/sodipodi-0.dtd"
   xmlns:inkscape="http://www.inkscape.org/namespaces/inkscape"
   sodipodi:docname="angryarp.svg"
   inkscape:version="1.0 (4035a4fb49, 2020-05-01)"
   id="svg150"
   version="1.1"
   viewBox="0 0 101.6 128.5"
   height="128.5mm"
   width="101.6mm">
  <defs
     id="defs144">
    <rect
       x="-28.243865"
       y="61.519683"
       width="8.6030167"
       height="9.2523005"
       id="rect95" />
    <rect
       id="rect177"
       height="14.93193"
       width="45.843648"
       y="7.3349835"
       x="-70.468234" />
  </defs>
  <sodipodi:namedview
     inkscape:window-maximized="1"
     inkscape:window-y="-8"
     inkscape:window-x="-8"
     inkscape:window-height="837"
     inkscape:window-width="1600"
     showgrid="false"
     inkscape:document-rotation="0"
     inkscape:current-layer="layer3"
     inkscape:document-units="mm"
     inkscape:cy="217.06304"
     inkscape:cx="177.91005"
     inkscape:zoom="1.63"
     inkscape:pageshadow="2"
     inkscape:pageopacity="0.0"
     borderopacity="1.0"
     bordercolor="#666666"
     pagecolor="#ffffff"
     id="base" />
  <metadata
     id="metadata147">
    <rdf:RDF>
      <cc:Work
         rdf:about="">
        <dc:format>image/svg+xml</dc:format>
        <dc:type
           rdf:resource="http://purl.org/dc/dcmitype/StillImage" />
        <dc:title />
      </cc:Work>
    </rdf:RDF>
  </metadata>
  <g
     id="layer1"
     inkscape:groupmode="layer"
     inkscape:label="Layer 1">
    <rect
       y="-0.18891437"
       x="-0.2619637"
       height="129.20041"
       width="102.4278"
       id="rect152"
       style="fill:#000000;fill-rule:evenodd;stroke-width:0.265717" />
    <g
       style="font-size:3.52778px;line-height:1.25;font-family:Arial;-inkscape-font-specification:Arial;white-space:pre;shape-inside:url(#rect177)"
       id="text175"
       transform="matrix(1.8606118,0,0,1,140.50086,0)"
       aria-label="ANGRY ARP">
      <path
         id="path181"
         style="font-style:normal;font-variant:normal;font-weight:normal;font-stretch:normal;font-size:12.7px;font-family:'Crucial Noise';-inkscape-font-specification:'Crucial Noise';fill:#ffffff"
         d="m -70.46875,18.027242 c 0.2032,-0.2032 0.3937,-0.406399 0.5969,-0.609599 0.2921,-0.2921 0.4445,-0.6477 0.4572,-1.0287 0,-0.1778 0.0508,-0.3302 0.1905,-0.4572 0.1143,-0.1016 0.2286,-0.1905 0.3556,-0.2921 -0.0127,-0.0127 -0.0254,-0.0381 -0.0381,-0.0635 -0.1143,-0.1524 -0.1016,-0.2667 0.0762,-0.3683 0.0762,-0.0508 0.2032,-0.0635 0.3048,-0.0889 0.0508,-0.0254 0.127,-0.0381 0.1397,-0.0762 0.0127,-0.0254 -0.0127,-0.1016 -0.0635,-0.127 -0.1143,-0.0762 -0.1524,-0.1905 -0.1778,-0.3048 -0.0254,-0.1524 0.0762,-0.2667 0.2794,-0.3175 0.1651,-0.0381 0.3175,0.0127 0.3683,0.1524 0.0635,0.1524 0.1016,0.3175 0.1397,0.4699 0.0127,0.0508 0.0254,0.0889 0.0254,0.1397 0.1143,0 0.1143,-0.0508 0.1143,-0.1016 0,-0.127 0,-0.254 0.0127,-0.381 0.0381,-0.3302 0.1397,-0.3937 0.5461,-0.3683 0.0254,0 0.0381,0 0.0635,0 0.2286,0.0381 0.3429,0.2794 0.2032,0.4318 -0.0508,0.0635 -0.0889,0.1143 -0.1651,0.1905 0.1143,0.0254 0.1905,0.0508 0.2667,0.0635 0.1778,0.0635 0.2159,0.1016 0.2286,0.254 0.0127,0.0381 0.0127,0.0762 0,0.1143 -0.0127,0.254 -0.127,0.4826 -0.3048,0.635 0.0381,0.0381 0.0889,0.0762 0.1397,0.1016 0.2667,0.1397 0.4826,0.3429 0.6223,0.5969 0.0508,0.1016 0.1143,0.1905 0.1651,0.2921 0.2667,0.4572 0.6223,0.850899 1.0414,1.219199 0.0381,0.0254 0.0762,0.0635 0.1143,0.0762 0.0381,0.0127 0.0762,0.0127 0.1016,0 0.0254,-0.0127 0.0381,-0.0508 0.0254,-0.0762 -0.0127,-0.0381 -0.0508,-0.0762 -0.0762,-0.1143 -0.3302,-0.444499 -0.5842,-0.927099 -0.8255,-1.409699 -0.0635,-0.1397 -0.0889,-0.2794 -0.0635,-0.4191 0.0508,-0.2032 0.1905,-0.2413 0.3937,-0.1397 0.1524,0.0762 0.2159,0.2032 0.254,0.3429 0.0127,0.0254 0.0508,0.0508 0.0889,0.0762 0.0254,-0.0381 0.0635,-0.0635 0.0635,-0.1016 0.0127,-0.2286 -0.0127,-0.4445 -0.2032,-0.635 -0.2286,-0.2159 -0.3937,-0.5207 -0.4572,-0.8382 -0.0381,-0.2159 -0.0127,-0.4191 0.1397,-0.6096 0.0381,-0.0254 0.0508,-0.0762 0.0762,-0.1397 -0.1143,0.0254 -0.1778,0.0508 -0.254,0.0508 -0.1016,0.0127 -0.2032,0.0127 -0.2667,-0.0635 -0.1397,-0.1778 -0.2159,-0.3683 -0.2032,-0.5842 0,-0.0254 0.0254,-0.0508 0.0508,-0.0889 0.0508,0.0381 0.0889,0.0635 0.127,0.0889 0.0381,0.0381 0.0508,0.0889 0.0889,0.127 0.0254,0.0381 0.0762,0.0508 0.1143,0.0762 0.0127,-0.0381 0.0381,-0.0762 0.0381,-0.1143 0,-0.0381 0,-0.0635 -0.0254,-0.0889 -0.0762,-0.1524 -0.1524,-0.3048 -0.2413,-0.4445 -0.0635,-0.1143 -0.1651,-0.2286 -0.2032,-0.3556 -0.0889,-0.2667 -0.127,-0.5461 0.1778,-0.7747 0.0254,-0.0127 0.0254,-0.0381 0.0381,-0.0508 -0.0508,-0.1143 -0.1651,-0.1016 -0.2667,-0.1143 -0.3048,-0.0381 -0.4191,-0.254 -0.254,-0.4826 0,-0.0127 0.0127,-0.0254 0.0127,-0.0508 -0.0127,-0.0127 -0.0254,-0.0254 -0.0508,-0.0381 -0.3302,-0.1778 -0.5207,-0.4191 -0.4953,-0.762 0,-0.0889 -0.0127,-0.1778 -0.0508,-0.254 -0.2032,-0.6350004 -0.5842,-1.1938004 -1.0668,-1.7145004 -0.1016,-0.0889 -0.2032,-0.1905 -0.3048,-0.2794 -0.0381,-0.0381 -0.1016,-0.0762 -0.2032,-0.0254 0.0381,0.0635 0.0635,0.1397 0.1143,0.2032 0.1778,0.2413 0.3175,0.508 0.3937,0.8001 0.1651,0.6223 -0.0254,1.1303004 -0.635,1.5367004 -0.1524,0.1016 -0.3302,0.1778 -0.508,0.2667 -0.0635,0.0381 -0.127,0.0635 -0.2032,0.1016 0.0381,0.0381 0.0635,0.0762 0.0889,0.1143 0.1016,0.1778 0.1778,0.3556 0.1778,0.5461 0.0127,0.2667 -0.0889,0.3683 -0.3937,0.4191 0.0127,0.0254 0.0254,0.0508 0.0381,0.0762 0.1778,0.3048 0.0762,0.5842 -0.1651,0.8382 -0.1016,0.0889 -0.2159,0.1524 -0.3302,0.2286 -0.0381,0.0381 -0.0889,0.0635 -0.127,0.1016 -0.0254,0.0254 -0.0381,0.0762 -0.0254,0.1016 0.0127,0.0254 0.0635,0.0254 0.1016,0.0381 0.0254,0 0.0508,-0.0127 0.0762,-0.0254 0.2159,-0.0254 0.2667,0.0254 0.254,0.2032 -0.0127,0.1524 -0.0889,0.2794 -0.2032,0.381 0.0254,0.127 0.0762,0.2413 0.0381,0.3429 -0.0254,0.1016 -0.1397,0.1905 -0.2159,0.2921 0,0.0254 0.0127,0.0381 0.0127,0.0508 0.1524,0.1905 0.1143,0.3683 -0.0254,0.5461 -0.1397,0.1778 -0.3302,0.2921 -0.5461,0.3429 -0.0762,0.0127 -0.1651,0.0254 -0.1651,0.127 0,0 0.0254,0.0127 0.0381,0.0254 0.5207,0.3683 0.6731,0.8382 0.508,1.3716 -0.0762,0.2413 -0.2286,0.482599 -0.3429,0.723899 -0.0254,0.0635 -0.1016,0.1143 -0.0508,0.2032 0.0508,-0.0381 0.0889,-0.0635 0.1143,-0.1016 z m 3.1496,-5.257799 c 0.254,0.1778 0.254,0.4191 0.254,0.6604 0,0.0127 0,0.0254 0,0.0508 -0.0127,0.0889 -0.0254,0.1905 -0.1524,0.2286 -0.0889,0.0254 -0.2667,-0.0508 -0.3302,-0.1397 -0.0381,-0.0635 -0.0762,-0.127 -0.1397,-0.2286 -0.0635,0.0762 -0.0889,0.1143 -0.1143,0.1524 -0.127,0.2286 -0.4572,0.2667 -0.635,0.0635 -0.0889,-0.0889 -0.1397,-0.1905 -0.0889,-0.3175 0.0381,-0.1016 0.0635,-0.2159 0.1143,-0.3175 0.1016,-0.1905 0.2032,-0.2286 0.4445,-0.1651 0.0381,0 0.0762,0.0127 0.127,0.0381 0,-0.0508 0.0127,-0.0889 -0.0127,-0.1143 -0.2667,-0.2794 -0.1905,-0.5969 -0.0889,-0.9017 0.0508,-0.1397 0.1143,-0.2794 0.2286,-0.4064 0.3683,0.2032 0.4445,0.4572 0.2413,0.8128 0.2032,0.1651 0.3937,0.3429 0.1524,0.5842 z" />
      <path
         id="path183"
         style="font-style:normal;font-variant:normal;font-weight:normal;font-stretch:normal;font-size:12.7px;font-family:'Crucial Noise';-inkscape-font-specification:'Crucial Noise';fill:#ffffff"
         d="m -59.449119,11.283543 c -0.3429,-0.254 -0.4953,-0.5842 -0.5715,-0.9525 -0.127,-0.5207004 -0.381,-1.0160004 -0.7112,-1.4859004 -0.0254,-0.0381 -0.0508,-0.0762 -0.0889,-0.1016 -0.0254,-0.0254 -0.0889,-0.0381 -0.1016,-0.0254 -0.0381,0.0127 -0.0381,0.0508 -0.0508,0.0889 0,0.0127 0.0127,0.0381 0.0254,0.0508 0.1143,0.381 0.2286,0.7493 0.3429,1.1176 0.0762,0.2540004 0.0889,0.5080004 0.0127,0.7620004 -0.0381,0.1016 -0.0762,0.2159 -0.2159,0.2794 -0.1397,-0.0508 -0.2413,-0.1143 -0.2794,-0.2286 -0.0381,-0.1143 -0.0508,-0.2286 -0.0762,-0.3429 h -0.0508 c -0.0381,0.0254 -0.0762,0.0635 -0.0889,0.1016 -0.0635,0.2286 -0.0762,0.4572 0.0635,0.6858 0.1778,0.2921 0.2286,0.5969 0.1905,0.9144 -0.0254,0.1651 -0.0889,0.3302 -0.127,0.4826 l 0.1524,0.127 c -0.1016,0.0762 -0.1778,0.0508 -0.254,0 -0.0635,-0.0381 -0.127,-0.0889 -0.1778,-0.1524 -0.0508,-0.0508 -0.0762,-0.1143 -0.0889,-0.1905 -0.0127,-0.0635 0.0127,-0.1397 0.0127,-0.2159 -0.0508,0 -0.0889,0 -0.1143,0 -0.2159,0.0127 -0.2667,-0.0127 -0.3175,-0.1778 -0.0127,-0.0635 -0.0381,-0.1143 -0.0508,-0.1778 -0.2159,0.0762 -0.2667,0.0762 -0.4064,-0.0762 -0.1905,-0.2286 -0.3302,-0.4699 -0.3175,-0.7493 0,-0.0127 -0.0127,-0.0254 -0.0381,-0.0762 -0.0635,0.0254 -0.1143,0.0381 -0.1778,0.0635 -0.381,0.127 -0.7366,-0.0381 -0.8255,-0.3683 -0.0254,-0.0381 -0.0254,-0.0889 -0.0508,-0.1397 -0.1905,-0.3048 -0.1905,-0.6350004 -0.127,-0.9652004 0.0381,-0.1905 0.0889,-0.381 0.1397,-0.5715 0.0127,-0.0762 0.0381,-0.1524 -0.1143,-0.2032 -0.0381,0.0635 -0.0635,0.1143 -0.0889,0.1778 -0.1016,0.2159 -0.1651,0.4445 -0.2921,0.6477 -0.2413,0.381 -0.3048,0.7620004 -0.1905,1.1684004 0.0381,0.1524 0.0254,0.2921 -0.0635,0.4191 -0.0762,0.127 -0.1778,0.254 -0.2794,0.3937 0.0127,0.0127 0.0254,0.0254 0.0508,0.0508 0.1651,0.1397 0.1397,0.3556 -0.0762,0.4572 -0.0381,0.0254 -0.1016,0.0381 -0.1397,0.0508 -0.0508,0.0254 -0.1143,0.0635 -0.127,0.0889 -0.0127,0.0381 0.0508,0.0889 0.0889,0.1143 0.1905,0.1016 0.2413,0.2413 0.1778,0.4191 -0.0127,0.0508 -0.0254,0.1143 -0.0635,0.1651 -0.0508,0.0762 -0.0254,0.127 0.0127,0.2032 0.0635,0.1016 0.1143,0.2159 0.1143,0.3302 0.0127,0.3048 -0.0635,0.6096 -0.2286,0.889 -0.0381,0.0635 -0.0635,0.127 -0.1016,0.1905 -0.0254,0.0635 0.0127,0.1143 0.0889,0.1143 0.1651,-0.0127 0.2032,0.0762 0.2413,0.1778 0.1651,0.4318 0.1524,0.8763 -0.1016,1.2827 -0.1397,0.2413 -0.1143,0.4572 -0.0508,0.6985 0.0127,0.0254 0.0635,0.0508 0.127,0.1143 0.0254,-0.1524 0.0381,-0.2667 0.0889,-0.3683 0.0381,-0.127 0.1397,-0.2032 0.3175,-0.2286 0.0381,0.0635 0.1143,0.1143 0.127,0.1778 0.0635,0.2032 0.1397,0.3937 0.0762,0.5969 -0.1143,0.4445 -0.254,0.888999 -0.381,1.333499 -0.0127,0.0635 -0.0889,0.1397 0.0127,0.1905 0.1143,0.0381 0.1397,-0.0635 0.1778,-0.1143 0.3175,-0.4318 0.5715,-0.901699 0.6985,-1.409699 0.0381,-0.1143 0.0635,-0.2286 0.1016,-0.3429 0.0635,-0.2413 0.2032,-0.4699 0.4064,-0.635 0.0508,-0.0381 0.0889,-0.0762 0.1524,-0.1524 -0.0254,-0.0127 -0.0635,-0.0254 -0.0889,-0.0381 -0.3175,-0.1905 -0.4191,-0.4699 -0.4699,-0.7747 -0.0127,-0.1524 0.0381,-0.2032 0.2159,-0.2413 0.0254,-0.0127 0.0508,-0.0127 0.0889,-0.0254 -0.0381,-0.0381 -0.0508,-0.0889 -0.0889,-0.1143 -0.2032,-0.1524 -0.2032,-0.3302 -0.1016,-0.5334 0.1016,-0.2032 0.2159,-0.4064 0.3302,-0.6096 0.0254,-0.0635 0.0635,-0.127 0.1016,-0.1905 -0.1143,-0.0762 -0.1778,-0.0127 -0.254,0.0127 -0.1524,0.0508 -0.2159,0.0254 -0.254,-0.1016 -0.0381,-0.1397 -0.0381,-0.2794 0.0508,-0.4064 0.0254,-0.0254 0.0381,-0.0635 0.0635,-0.1016 -0.3048,-0.1905 -0.1524,-0.3937 -0.0254,-0.5842 -0.0381,-0.1397 -0.2286,-0.2032 -0.1651,-0.381 0.4318,0.2032 0.7366,0.4953 0.9525,0.8382 0.0127,0.0381 0,0.1016 -0.0127,0.1397 -0.0127,0.0381 -0.0381,0.0635 -0.0635,0.1143 0.1143,0.0508 0.2159,0.0889 0.3175,0.127 0.4318,0.1905 0.8509,0.4064 1.016,0.8382 0.0254,0 0.0508,0 0.0889,0 0.2159,0.0127 0.2667,0.0508 0.2667,0.2286 0.0127,0.0508 0.0127,0.1143 0.0127,0.1778 0.0127,0.2286 -0.0508,0.4318 -0.2286,0.6096 -0.0508,0.0508 -0.1651,0.1016 -0.1778,0.1524 -0.0127,0.1143 0.1397,0.0889 0.2159,0.127 0.2794,0.1016 0.3175,0.3302 0.1016,0.508 -0.0127,0.0127 -0.0127,0.0254 -0.0254,0.0508 0.0254,0.0254 0.0508,0.0508 0.0635,0.0762 0.2286,0.2159 0.3556,0.4572 0.2667,0.762 -0.1016,0.3429 -0.0381,0.6858 0.1397,1.0033 0.0762,0.152399 0.1524,0.304799 0.2286,0.444499 0.0508,0.127 0.0889,0.254 0.1524,0.381 0.0127,0.0508 0.0254,0.1143 0.1524,0.1016 0.0127,-0.0508 0.0381,-0.1016 0.0381,-0.1651 -0.0127,-0.0508 -0.0381,-0.1016 -0.0508,-0.1524 -0.1143,-0.4826 -0.254,-0.952499 0.0762,-1.422399 0.1524,-0.2159 0.3175,-0.3937 0.5715,-0.508 0.0508,-0.0254 0.1016,-0.0508 0.1905,-0.0889 -0.1016,-0.0508 -0.1778,-0.1016 -0.254,-0.1397 -0.4318,-0.2286 -0.5207,-0.6477 -0.2159,-0.9652 0.0127,-0.0127 0,-0.0254 0,-0.0127 -0.0508,-0.127 -0.1016,-0.2286 -0.1397,-0.3302 -0.0381,-0.127 0.0889,-0.2032 0.1651,-0.2921 -0.1143,-0.1524 -0.1651,-0.3048 -0.1143,-0.4699 0.0381,-0.1524 0.1016,-0.1778 0.2794,-0.1143 0.0635,0.0127 0.127,0.0762 0.2159,0.0127 0.0254,-0.1143 -0.0889,-0.1778 -0.1651,-0.254 -0.1524,-0.1651 -0.3048,-0.3302 -0.3302,-0.5588 -0.0127,-0.2159 0.0127,-0.4318 0.2286,-0.5969 0.0254,-0.0127 0.0254,-0.0254 0.0381,-0.0508 -0.2921,-0.0762 -0.3302,-0.127 -0.2794,-0.381 0.0635,-0.2794 0.2032,-0.5334 0.5207,-0.7112 -0.0254,-0.0254 -0.0254,-0.0508 -0.0381,-0.0635 z" />
      <path
         id="path185"
         style="font-style:normal;font-variant:normal;font-weight:normal;font-stretch:normal;font-size:12.7px;font-family:'Crucial Noise';-inkscape-font-specification:'Crucial Noise';fill:#ffffff"
         d="m -54.171078,18.535242 c -0.1397,-0.2921 -0.3048,-0.5715 -0.4064,-0.8763 -0.2032,-0.571499 -0.1905,-1.130299 0.3429,-1.612899 0.0254,-0.0254 0.0381,-0.0889 0.0254,-0.127 -0.0127,-0.0508 -0.0508,-0.0889 -0.0635,-0.1397 -0.1651,-0.3556 -0.1524,-0.6858 0.1778,-0.9652 0.0508,-0.0508 0.0889,-0.1016 0.127,-0.1524 0.0381,-0.0508 0.0762,-0.0889 0.0762,-0.1397 0.0127,-0.0254 -0.0254,-0.0635 -0.0381,-0.1016 l -0.3556,0.1651 c -0.0381,-0.0508 -0.0635,-0.0762 -0.0889,-0.1016 -0.2159,-0.3937 0.0889,-0.8636 0.5969,-0.9398 0.1016,-0.0127 0.2032,-0.0127 0.3556,-0.0381 -0.1651,-0.0889 -0.3556,-0.127 -0.5334,-0.1397 -0.3429,-0.0127 -0.6604,0.0254 -0.9906,0.0889 -0.2921,0.0635 -0.5842,0.0381 -0.8255,-0.1397 -0.1397,-0.0889 -0.1524,-0.0889 -0.254,0.0381 -0.1016,0.127 -0.2667,0.2159 -0.4318,0.2413 -0.1397,0.0254 -0.2794,0.0508 -0.4191,0.0762 -0.3683,0.0635 -0.6477,0.2286 -0.889,0.4572 -0.0254,0.0127 -0.0254,0.0508 -0.0508,0.1016 0.5588,-0.1143 1.0922,-0.1905 1.5621,0.1778 0.0508,-0.0381 0.0889,-0.0762 0.1397,-0.127 0.0889,-0.0889 0.2159,-0.1397 0.3429,-0.1397 0.1016,-0.0127 0.2032,-0.0127 0.254,0.0762 0.0381,0.0889 0.0254,0.1778 -0.0762,0.2413 -0.1143,0.0508 -0.2286,0.1016 -0.3556,0.1524 -0.0508,0.0127 -0.1143,0.0254 -0.1778,0.0508 0.0635,0.1016 0.1524,0.1016 0.2286,0.1143 0.1143,0.0254 0.2413,0.0381 0.3429,0.0762 0.2413,0.1016 0.3048,0.3302 0.1524,0.508 -0.1524,0.1651 -0.3556,0.1905 -0.5842,0.1651 -0.0762,-0.0127 -0.1524,-0.0254 -0.2413,-0.0381 0.0254,0.1397 0.0762,0.2667 0.0762,0.3937 0.0127,0.2413 -0.1524,0.3302 -0.4191,0.2159 -0.254,-0.1016 -0.381,-0.2667 -0.4318,-0.4826 -0.0254,-0.0635 -0.0381,-0.1143 -0.0381,-0.1778 -0.0254,-0.0762 -0.0762,-0.1143 -0.1778,-0.0889 -0.0635,0.0127 -0.127,0.0127 -0.1778,0 -0.2794,-0.0762 -0.4064,-0.3429 -0.2794,-0.5588 0.0635,-0.127 0.0381,-0.1651 -0.127,-0.1651 -0.2032,0.0127 -0.2794,-0.0381 -0.3556,-0.1778 -0.1143,-0.254 0.0381,-0.5207 0.3683,-0.5969 0.0635,-0.0127 0.1397,-0.0381 0.2413,-0.0635 -0.0889,-0.0762 -0.1524,-0.1397 -0.2159,-0.2032 -0.1905,-0.1905 -0.2921,-0.4191 -0.2413,-0.6731 0.0381,-0.1651 0.1397,-0.2794 0.3556,-0.3302 0.0508,-0.0127 0.1143,-0.0254 0.1778,-0.0508 -0.2794,-0.2794 -0.3302,-0.3683 -0.3683,-0.5588 -0.0381,-0.2159 0.0127,-0.2794 0.2794,-0.3175 0.0635,-0.0127 0.127,-0.0254 0.1905,-0.0508 -0.0508,-0.127 -0.1778,-0.2413 -0.0254,-0.3683 0.1016,0.1016 0.1143,0.1016 0.1524,0.3175 0.0381,0.2413 0.0508,0.4699 0.0762,0.7112 0,0.0635 -0.0254,0.1397 0.0889,0.1651 0.1143,-0.1016 0.1143,-0.1016 0.1143,-0.2032 -0.0127,-0.1905 -0.0381,-0.3937 -0.0381,-0.5842 0.0127,-0.1905 0.0254,-0.3937 0.0381,-0.5969 0.0254,-0.1524 0.1143,-0.2921 0.2921,-0.381 0.0635,-0.0381 0.1524,-0.0762 0.2286,-0.0127 0.1016,0.0889 0.2032,0.1778 0.2794,0.2921 0.0889,0.1016 0.0508,0.1651 -0.1016,0.2286 -0.0635,0.0254 -0.127,0.0508 -0.2286,0.0889 0.0889,0.0635 0.1524,0.127 0.2286,0.1524 0.1651,0.0762 0.3429,0.1397 0.508,0.2032 0.2286,0.1016 0.381,0.254 0.4318,0.4572 0.0381,0.1524 0.0635,0.3048 0.0762,0.4572 0.0127,0.1905 0.0127,0.381 0.0254,0.5588 0,0.0762 -0.0127,0.1651 0.0889,0.2032 0.1143,-0.0381 0.1016,-0.1143 0.1016,-0.1905 0.0127,-0.2159 0.0127,-0.4445 0.0254,-0.6731 0,-0.2032 0.0635,-0.4191 0.1905,-0.5842 0.1016,-0.127 0.2032,-0.1651 0.381,-0.1143 0.0635,0.0254 0.127,0.0508 0.1905,0.0762 0.0508,0.0127 0.1016,0.0254 0.1524,0.0381 0.0635,-0.1016 0.0127,-0.1524 -0.0508,-0.2032 -0.0635,-0.0508 -0.1397,-0.1016 -0.2159,-0.1651 -0.2413,-0.2032 -0.3937,-0.4191 -0.3175,-0.7366 0.0508,-0.1651 0.0762,-0.3429 0.0889,-0.508 0.0508,-0.4572004 -0.0762,-0.8636004 -0.3429,-1.2573004 -0.0254,-0.0381 -0.0508,-0.0762 -0.0889,-0.1016 -0.0381,-0.0254 -0.0889,-0.0254 -0.1397,-0.0508 -0.0127,0.0508 -0.0254,0.0889 -0.0254,0.127 0.0127,0.0254 0.0381,0.0635 0.0508,0.1016 0.1651,0.3048 0.1397,0.6223 0,0.9271 -0.0254,0.0635 -0.1016,0.1270004 -0.1651,0.1651004 -0.2032,0.1143 -0.4572,0 -0.4826,-0.1905004 -0.0127,-0.0508 0,-0.0889 -0.0127,-0.1397 -0.0127,-0.1143 -0.0508,-0.127 -0.1905,-0.1143 -0.1143,0.0254 -0.2286,0.0508 -0.3302,0.0508 -0.3302,-0.0127 -0.6096,-0.127 -0.8382,-0.3175 -0.1143,-0.0889 -0.2032,-0.1905 -0.3048,-0.2794 -0.0508,-0.0381 -0.1016,-0.0762 -0.1905,-0.0127 0.0381,0.0889 0.0762,0.1778 0.127,0.2667 0.1143,0.2159 0.127,0.4318 0.0127,0.6477004 -0.0254,0.0635 -0.0508,0.1143 -0.0762,0.1778 -0.1651,0.381 -0.508,0.5334 -0.9779,0.5461 -0.0508,0 -0.1016,0 -0.1524,0 -0.1016,0.0127 -0.1397,0.0635 -0.1143,0.1524 0.0254,0.0635 0.0508,0.1397 0.0381,0.2159 0,0.1651 -0.0127,0.3429 -0.0381,0.508 -0.0508,0.3429 -0.1651,0.6604 -0.508,0.9017 -0.1143,0.0889 -0.2286,0.1778 -0.3429,0.2667 -0.0381,0.0381 -0.0508,0.0889 -0.0635,0.127 0.0381,0 0.0889,0.0127 0.1397,0.0127 0.0635,0 0.127,-0.0254 0.1905,-0.0381 0.3429,-0.0381 0.6096,0.127 0.6731,0.4064 0.0508,0.2667 -0.1397,0.5461 -0.4572,0.635 -0.0889,0.0254 -0.1778,0.0508 -0.2667,0.0889 -0.0381,0.0127 -0.0508,0.0635 -0.0762,0.0889 0.0254,0.0254 0.0381,0.0381 0.0508,0.0381 0.2667,0.0508 0.3429,0.127 0.3302,0.3429 0,0.0762 -0.0127,0.1397 -0.0127,0.2159 0,0.0508 0,0.1143 0.0381,0.1397 0.2032,0.2159 0.1778,0.4572 0.1524,0.6985 0,0.1143 -0.0381,0.2286 -0.0381,0.3302 -0.0254,0.2286 -0.0381,0.4572 -0.0381,0.6731 -0.0127,0.0508 -0.0127,0.1143 0.0762,0.1143 0.0254,0 0.0635,-0.0508 0.0762,-0.0889 0.0381,-0.1016 0.0508,-0.2032 0.1016,-0.3048 0.0254,-0.0889 0.0762,-0.1651 0.1524,-0.2286 0.0762,-0.0762 0.1524,-0.0762 0.2413,0 0.1143,0.0889 0.1905,0.2032 0.1905,0.3429 -0.0127,0.2413 0.0127,0.4699 0.0254,0.7112 0.0127,0.1016 0.0381,0.1778 0.2032,0.2032 0.0254,-0.0635 0.0381,-0.127 0.0508,-0.1778 0.0254,-0.1524 0.0254,-0.3048 0.0635,-0.4445 0.0254,-0.1143 0.127,-0.1524 0.254,-0.1016 0.1016,0.0381 0.1905,0.1143 0.2667,0.2032 0.127,0.1778 0.1397,0.3937 0.1651,0.5969 0.0381,0.241299 0.0508,0.495299 0.0889,0.736599 0,0.0254 0.0381,0.0635 0.0635,0.0889 0.0381,-0.0254 0.1016,-0.0508 0.1016,-0.0889 0.0381,-0.1143 0.0508,-0.2286 0.0635,-0.3429 0,-0.228599 0.127,-0.393699 0.3429,-0.520699 0.2159,-0.1143 0.4318,-0.2159 0.6477,-0.3048 0.1524,-0.0635 0.2921,-0.1143 0.3556,-0.254 0.0254,-0.0508 0.0635,-0.0762 0.1143,-0.1397 0.0635,0.2286 -0.0254,0.3937 -0.127,0.5461 0.0381,0.0254 0.0508,0.0508 0.0762,0.0381 0.2032,-0.0127 0.3048,0.1016 0.381,0.2413 0.0508,0.1016 0.1016,0.2032 0.1524,0.317499 0.127,0.3175 0.3302,0.6096 0.5588,0.889 0.0508,0.0635 0.1016,0.1397 0.2286,0.127 0.0762,-0.0762 0,-0.1397 -0.0254,-0.2032 z" />
      <path
         id="path187"
         style="font-style:normal;font-variant:normal;font-weight:normal;font-stretch:normal;font-size:12.7px;font-family:'Crucial Noise';-inkscape-font-specification:'Crucial Noise';fill:#ffffff"
         d="m -53.509686,13.379043 c -0.0127,0.127 0,0.2667 -0.0381,0.4064 -0.0762,0.2159 -0.1778,0.4318 -0.2667,0.6477 -0.0635,0.1397 -0.0508,0.1524 0.127,0.1778 0.1143,0.0254 0.2286,0.0508 0.2921,0.1524 0.1143,0.1397 0.1016,0.3048 0.1016,0.4699 0,0.1143 -0.0889,0.1778 -0.1905,0.2413 -0.0762,0.0508 -0.0762,0.1016 0.0127,0.1524 0.2159,0.1016 0.2032,0.2667 0.1524,0.4318 -0.0508,0.1651 -0.127,0.3429 -0.1778,0.508 -0.1524,0.4191 -0.1905,0.8382 0.0254,1.244599 0.1016,0.2032 0.2159,0.3937 0.3302,0.5969 0.0254,0.0254 0.0508,0.0508 0.1143,0.1016 0,-0.2159 -0.0127,-0.381 0,-0.5461 0.0127,-0.1651 0.0381,-0.3302 0.0889,-0.495299 0.127,-0.3302 0.3937,-0.4445 0.8001,-0.3556 0.0381,0 0.1016,0 0.127,-0.0127 0.0127,-0.0254 0.0127,-0.0635 0,-0.1016 -0.0508,-0.127 -0.0889,-0.2667 -0.1524,-0.3937 -0.0889,-0.2159 -0.0127,-0.3683 0.2159,-0.4953 0.0254,0 0.0254,-0.0254 0.0381,-0.0381 -0.2794,-0.2794 -0.3556,-0.6731 0,-1.0414 -0.0254,-0.0381 -0.0635,-0.0635 -0.1016,-0.0889 -0.2921,-0.3048 -0.1143,-0.6858 0.3429,-0.762 0.0889,-0.0127 0.1778,-0.0127 0.2667,0 0.127,0 0.2286,0.0508 0.2667,0.1651 0.0635,0.127 0.0762,0.2794 0.0254,0.4191 -0.0635,0.1905 -0.127,0.381 -0.1778,0.5842 -0.0254,0.0508 -0.0254,0.1143 -0.0381,0.1905 0.0762,-0.0254 0.127,-0.0254 0.1524,-0.0508 0.1651,-0.1397 0.381,-0.1397 0.5842,-0.127 0.1143,0 0.1778,0.0635 0.2159,0.1397 0.0635,0.1397 0.0762,0.2921 0.0381,0.4445 -0.0254,0.127 -0.0635,0.254 -0.1016,0.381 -0.0889,0.3302 -0.1016,0.6604 0,0.9779 0.127,0.380999 0.2032,0.761999 0.4318,1.117599 0.0762,0.127 0.1397,0.254 0.2286,0.381 0.0127,0.0254 0.0635,0.0381 0.1016,0.0508 0.0254,-0.0254 0.0635,-0.0635 0.0635,-0.1016 0,-0.0635 -0.0381,-0.127 -0.0508,-0.2032 -0.1143,-0.3937 -0.2159,-0.8001 -0.2032,-1.206499 0.0127,-0.4445 0.2032,-0.7747 0.7366,-0.9398 0.0635,-0.0127 0.1143,-0.0508 0.1778,-0.0889 -0.0889,-0.1397 -0.1651,-0.2413 -0.2286,-0.3683 -0.1524,-0.3175 -0.2286,-0.6477 -0.1016,-1.0033 0.0127,-0.0381 0,-0.1016 0,-0.1524 -0.0635,0 -0.0889,0 -0.1143,0.0127 -0.2032,0.0254 -0.2794,0 -0.3556,-0.1524 -0.0254,-0.0762 -0.0508,-0.1651 -0.0762,-0.2413 -0.0381,-0.1143 -0.0762,-0.2413 -0.2032,-0.3175 0,0 -0.0127,0 -0.0254,0 -0.1778,0.0635 -0.2921,0.0381 -0.381,-0.0508 -0.0762,-0.0762 -0.0635,-0.1397 0.0508,-0.2794 0.0127,-0.0254 0.0127,-0.0762 0.0254,-0.1524 -0.3048,0.1016 -0.5715,0.1905 -0.8636,0.0381 0.0508,-0.0254 0.0889,-0.0508 0.127,-0.0635 0.1905,-0.1016 0.3937,-0.1905 0.5715,-0.3048 0.1143,-0.0889 0.2159,-0.1651 0.381,-0.1397 0.0889,0 0.1397,-0.0381 0.1143,-0.127 -0.0127,-0.0254 -0.0127,-0.0508 -0.0127,-0.0889 0.0254,-0.3429 0.1016,-0.4953 0.5207,-0.4318 0,0 0.0127,0 0.0127,0 0.127,0 0.1524,-0.0381 0.1143,-0.127 -0.2032,-0.4445 -0.1016,-0.8509 0.254,-1.2192 0.0254,-0.0254 0.0508,-0.0508 0.0762,-0.0762 0.0254,-0.0381 0.0508,-0.0889 0.0762,-0.1397 -0.1143,0 -0.1905,0 -0.254,0.0127 -0.1524,0.0381 -0.2921,0.0762 -0.4445,0.127 -0.254,0.0889 -0.5334,0.1016 -0.8001,0.0508 -0.3937,-0.0889 -0.635,-0.3429 -0.6223,-0.6858 0.0127,0 0.0127,-0.0127 0.0127,-0.0254 -0.0127,-0.0762 -0.0762,-0.1016 -0.1397,-0.0635 -0.0762,0.0381 -0.1397,0.0889 -0.2032,0.127 -0.2413,0.127 -0.4572,0.1143 -0.6731,-0.0381 -0.2032,-0.1524 -0.3175,-0.3302 -0.3683,-0.5461004 -0.1016,-0.4318 -0.0762,-0.8509 0.0889,-1.27 0.0127,-0.0508 0.0635,-0.1016 -0.0127,-0.1397 -0.0762,-0.0254 -0.1016,0.0254 -0.1397,0.0635 -0.0127,0.0254 -0.0381,0.0381 -0.0508,0.0635 -0.2921,0.381 -0.4826,0.8001 -0.6223,1.2319 -0.0889,0.2921004 -0.127,0.5842004 -0.0508,0.8763004 0.0254,0.1016 0.0381,0.2159 0.0127,0.3302 -0.0381,0.2159 -0.1397,0.3937 -0.4064,0.4826 -0.0254,0.0127 -0.0508,0.0381 -0.1016,0.0762 0.0635,0.0254 0.1016,0.0508 0.1397,0.0508 0.1397,0.0127 0.1524,0.1143 0.1778,0.1905 0.0381,0.0889 -0.0254,0.1397 -0.1016,0.1905 -0.0508,0.0254 -0.1143,0.0508 -0.1651,0.0635 -0.1778,0.0508 -0.1905,0.1143 -0.0381,0.2032 0.1651,0.0889 0.2159,0.2159 0.1778,0.3556 -0.0254,0.1143 -0.0635,0.2159 -0.1143,0.3429 0.1016,0.1143 0.1778,0.2286 0.1778,0.381 z m 1.3208,-1.1684 c -0.0381,-0.0381 -0.0762,-0.0762 -0.1143,-0.1143 -0.1397,-0.1778 -0.127,-0.3556 -0.0127,-0.5334 0.1016,-0.1524 0.2921,-0.2032 0.4953,-0.2159 0.0635,-0.0127 0.127,0.0127 0.1651,0.0635 0.0508,0.0508 0.0762,0.1143 0.0635,0.1778 -0.0127,0.0635 -0.0508,0.1143 -0.0635,0.1778 -0.0127,0.0381 0,0.0762 0,0.1524 0.0635,-0.0381 0.1016,-0.0508 0.1397,-0.0762 0.2159,-0.1524 0.4572,-0.1651 0.6985,-0.0762 0.1524,0.0381 0.1778,0.127 0.1143,0.254 -0.1524,0.254 -0.4699,0.3937 -0.8382,0.3556 -0.0381,-0.0127 -0.0889,0.0127 -0.127,0.0254 0.0127,0.0254 0.0254,0.0762 0.0508,0.0889 0.127,0.0381 0.2032,0.1016 0.2159,0.2159 0.0254,0.127 0.0254,0.2794 -0.0889,0.381 -0.1016,0.1016 -0.2286,0.1778 -0.3429,0.2413 -0.0635,0.0381 -0.1651,0.0381 -0.2413,0.0381 -0.2032,-0.0127 -0.2667,-0.1143 -0.2159,-0.2794 0.0254,-0.0889 0.0762,-0.1651 0.1143,-0.2794 -0.3048,-0.1905 -0.1524,-0.3937 -0.0127,-0.5969 z" />
      <path
         id="path189"
         style="font-style:normal;font-variant:normal;font-weight:normal;font-stretch:normal;font-size:12.7px;font-family:'Crucial Noise';-inkscape-font-specification:'Crucial Noise';fill:#ffffff"
         d="m -47.663519,10.800943 c -0.6985,-0.1397 -1.1557,-0.5207 -1.2827,-1.1049004 -0.0127,-0.0254 -0.0127,-0.0508 -0.0127,-0.0762 -0.0381,-0.2286 -0.0635,-0.4445 -0.0889,-0.6731 -0.0127,-0.0762 -0.0127,-0.1651 -0.1778,-0.1397 -0.0127,0.0635 -0.0127,0.1143 -0.0254,0.1778 -0.0254,0.2667 -0.0381,0.5461 -0.0762,0.8128 -0.0508,0.3556004 0.0254,0.6985004 0.2286,1.0160004 0.0889,0.1397 0.1524,0.2921 0.1016,0.4572 -0.0508,0.1397 -0.0889,0.2794 -0.1397,0.4191 0.0127,0.0127 0.0381,0.0254 0.0635,0.0381 0.2032,0.0889 0.254,0.2032 0.1524,0.3683 -0.0381,0.0635 -0.1016,0.1143 -0.1651,0.1651 -0.1524,0.1016 -0.1524,0.1651 0.0254,0.2159 0.2032,0.0508 0.2921,0.1651 0.3048,0.3302 0.0127,0.1016 0,0.2032 0,0.3175 0.254,0.1905 0.254,0.1905 0.1651,0.4953 0.0889,-0.0127 0.1524,-0.0127 0.2159,-0.0381 0.1524,-0.0254 0.2921,-0.0762 0.4318,-0.1016 0.2667,-0.0381 0.508,-0.0254 0.7366,0.1143 0.0381,0.0254 0.0762,0.0635 0.0889,0.1143 0.0381,0.1778 0.0889,0.3556 0.1143,0.5334 0.0254,0.1397 0.0508,0.2794 0.0254,0.4191 -0.0508,0.2286 -0.127,0.4445 -0.4318,0.5334 -0.0254,0.0127 -0.0635,0.0254 -0.0889,0.0381 0.0889,0.127 0.0889,0.127 0.2159,0.1778 0.3175,0.1143 0.3556,0.3429 0.1016,0.5334 -0.0127,0.0127 -0.0127,0.0254 -0.0254,0.0381 0,0 0,0.0127 0,0.0127 0.0127,0.0254 0.0254,0.0381 0.0381,0.0508 0.2413,0.254 0.3302,0.508 0.2032,0.8382 -0.1016,0.2667 -0.0889,0.5588 0.0127,0.825499 0.127,0.3302 0.3048,0.6477 0.4572,0.9652 0.0127,0.0254 0.0508,0.0508 0.1016,0.1016 0,-0.0508 0,-0.1016 0,-0.1524 -0.0381,-0.2159 -0.0762,-0.4445 -0.1016,-0.6731 -0.0508,-0.596899 0.3302,-1.117599 0.9906,-1.358899 0.0127,-0.0127 0.0381,-0.0254 0.0508,-0.0381 -0.0127,-0.1016 -0.127,-0.127 -0.1905,-0.1778 -0.4191,-0.254 -0.4826,-0.6858 -0.1524,-0.9779 0,-0.0127 0,-0.0254 0.0127,-0.0508 -0.1397,-0.2032 -0.2159,-0.4191 0.0762,-0.5969 -0.127,-0.1397 -0.127,-0.2921 -0.0889,-0.4572 0.0381,-0.1524 0.127,-0.1778 0.2921,-0.1143 0.0381,0.0254 0.0889,0.0381 0.1651,0.0762 -0.0254,-0.0508 -0.0254,-0.0762 -0.0381,-0.0889 -0.0635,-0.0762 -0.127,-0.1524 -0.1905,-0.2159 -0.2032,-0.2032 -0.1905,-0.3429 0.0889,-0.4826 0.0889,-0.0508 0.2032,-0.1016 0.3048,-0.1143 0.2032,-0.0254 0.4064,-0.0127 0.6096,-0.0254 0.0635,0 0.1397,0 0.1905,0 0,-0.1905 -0.0381,-0.3683 0.0127,-0.5334 0.0635,-0.1524 0.2159,-0.2921 0.3175,-0.4318 -0.2159,-0.0635 -0.2667,-0.1143 -0.2413,-0.254 0.0762,-0.3048 0.2159,-0.5715 0.5461,-0.7493 0.0254,-0.0127 0.0508,-0.0381 0.0762,-0.0635 -0.0127,-0.0254 -0.0127,-0.0381 -0.0254,-0.0508 -0.3175,-0.2921 -0.4064,-0.6477 -0.4445,-1.016 -0.0635,-0.5461004 -0.254,-1.0541004 -0.5334,-1.5367004 -0.0254,-0.0381 -0.0508,-0.0762 -0.0762,-0.1143 -0.0508,-0.0381 -0.127,-0.0254 -0.1397,0.0381 0,0.0254 0,0.0635 0.0127,0.0889 0.0635,0.3556 0.127,0.6985 0.1905,1.0541 0.0508,0.2794004 0.0254,0.5588004 -0.0762,0.8255004 -0.0381,0.1143 -0.0889,0.2286 -0.2413,0.2667 -0.1905,-0.0762 -0.2667,-0.2032 -0.2667,-0.3683 0,-0.0508 0.0127,-0.1016 0,-0.1397 -0.0127,-0.0381 -0.0254,-0.0635 -0.0635,-0.0635 -0.0254,-0.0127 -0.0635,0.0127 -0.0889,0.0381 -0.0127,0.0127 -0.0127,0.0508 -0.0254,0.0762 -0.0889,0.2159 -0.1016,0.4445 0,0.6731 0.127,0.2794 0.1397,0.5842 0.0635,0.8763 -0.0508,0.2286 -0.1651,0.3175 -0.4445,0.3556 -0.1651,0.0254 -0.1905,0.0254 -0.1651,0.1651 0.0381,0.2286 -0.0381,0.4191 -0.2032,0.5842 -0.1397,0.1524 -0.254,0.1651 -0.381,0.0127 -0.0635,-0.0889 -0.1016,-0.2032 -0.1397,-0.2921 -0.0635,-0.127 -0.0762,-0.1397 -0.2413,-0.1016 -0.127,0.0381 -0.254,0.0889 -0.4064,0.0762 -0.0254,-0.127 -0.0381,-0.127 -0.1524,-0.2159 -0.0635,-0.0508 -0.1016,-0.1143 -0.127,-0.1905 -0.0127,-0.0635 0,-0.1524 0.0254,-0.2159 0.0254,-0.0762 0,-0.127 -0.0889,-0.1651 -0.1778,-0.0889 -0.254,-0.2413 -0.254,-0.4064 0.0127,-0.2286 0.0762,-0.4191 0.2794,-0.5842 0.0381,-0.0254 0.0635,-0.0762 0.1143,-0.127 -0.0635,-0.0254 -0.0762,-0.0381 -0.1016,-0.0381 z" />
      <path
         id="path191"
         style="font-style:normal;font-variant:normal;font-weight:normal;font-stretch:normal;font-size:12.7px;font-family:'Crucial Noise';-inkscape-font-specification:'Crucial Noise';fill:#ffffff"
         d="m -40.430275,18.027242 c 0.2032,-0.2032 0.3937,-0.406399 0.5969,-0.609599 0.2921,-0.2921 0.4445,-0.6477 0.4572,-1.0287 0,-0.1778 0.0508,-0.3302 0.1905,-0.4572 0.1143,-0.1016 0.2286,-0.1905 0.3556,-0.2921 -0.0127,-0.0127 -0.0254,-0.0381 -0.0381,-0.0635 -0.1143,-0.1524 -0.1016,-0.2667 0.0762,-0.3683 0.0762,-0.0508 0.2032,-0.0635 0.3048,-0.0889 0.0508,-0.0254 0.127,-0.0381 0.1397,-0.0762 0.0127,-0.0254 -0.0127,-0.1016 -0.0635,-0.127 -0.1143,-0.0762 -0.1524,-0.1905 -0.1778,-0.3048 -0.0254,-0.1524 0.0762,-0.2667 0.2794,-0.3175 0.1651,-0.0381 0.3175,0.0127 0.3683,0.1524 0.0635,0.1524 0.1016,0.3175 0.1397,0.4699 0.0127,0.0508 0.0254,0.0889 0.0254,0.1397 0.1143,0 0.1143,-0.0508 0.1143,-0.1016 0,-0.127 0,-0.254 0.0127,-0.381 0.0381,-0.3302 0.1397,-0.3937 0.5461,-0.3683 0.0254,0 0.0381,0 0.0635,0 0.2286,0.0381 0.3429,0.2794 0.2032,0.4318 -0.0508,0.0635 -0.0889,0.1143 -0.1651,0.1905 0.1143,0.0254 0.1905,0.0508 0.2667,0.0635 0.1778,0.0635 0.2159,0.1016 0.2286,0.254 0.0127,0.0381 0.0127,0.0762 0,0.1143 -0.0127,0.254 -0.127,0.4826 -0.3048,0.635 0.0381,0.0381 0.0889,0.0762 0.1397,0.1016 0.2667,0.1397 0.4826,0.3429 0.6223,0.5969 0.0508,0.1016 0.1143,0.1905 0.1651,0.2921 0.2667,0.4572 0.6223,0.850899 1.0414,1.219199 0.0381,0.0254 0.0762,0.0635 0.1143,0.0762 0.0381,0.0127 0.0762,0.0127 0.1016,0 0.0254,-0.0127 0.0381,-0.0508 0.0254,-0.0762 -0.0127,-0.0381 -0.0508,-0.0762 -0.0762,-0.1143 -0.3302,-0.444499 -0.5842,-0.927099 -0.8255,-1.409699 -0.0635,-0.1397 -0.0889,-0.2794 -0.0635,-0.4191 0.0508,-0.2032 0.1905,-0.2413 0.3937,-0.1397 0.1524,0.0762 0.2159,0.2032 0.254,0.3429 0.0127,0.0254 0.0508,0.0508 0.0889,0.0762 0.0254,-0.0381 0.0635,-0.0635 0.0635,-0.1016 0.0127,-0.2286 -0.0127,-0.4445 -0.2032,-0.635 -0.2286,-0.2159 -0.3937,-0.5207 -0.4572,-0.8382 -0.0381,-0.2159 -0.0127,-0.4191 0.1397,-0.6096 0.0381,-0.0254 0.0508,-0.0762 0.0762,-0.1397 -0.1143,0.0254 -0.1778,0.0508 -0.254,0.0508 -0.1016,0.0127 -0.2032,0.0127 -0.2667,-0.0635 -0.1397,-0.1778 -0.2159,-0.3683 -0.2032,-0.5842 0,-0.0254 0.0254,-0.0508 0.0508,-0.0889 0.0508,0.0381 0.0889,0.0635 0.127,0.0889 0.0381,0.0381 0.0508,0.0889 0.0889,0.127 0.0254,0.0381 0.0762,0.0508 0.1143,0.0762 0.0127,-0.0381 0.0381,-0.0762 0.0381,-0.1143 0,-0.0381 0,-0.0635 -0.0254,-0.0889 -0.0762,-0.1524 -0.1524,-0.3048 -0.2413,-0.4445 -0.0635,-0.1143 -0.1651,-0.2286 -0.2032,-0.3556 -0.0889,-0.2667 -0.127,-0.5461 0.1778,-0.7747 0.0254,-0.0127 0.0254,-0.0381 0.0381,-0.0508 -0.0508,-0.1143 -0.1651,-0.1016 -0.2667,-0.1143 -0.3048,-0.0381 -0.4191,-0.254 -0.254,-0.4826 0,-0.0127 0.0127,-0.0254 0.0127,-0.0508 -0.0127,-0.0127 -0.0254,-0.0254 -0.0508,-0.0381 -0.3302,-0.1778 -0.5207,-0.4191 -0.4953,-0.762 0,-0.0889 -0.0127,-0.1778 -0.0508,-0.254 -0.2032,-0.6350004 -0.5842,-1.1938004 -1.0668,-1.7145004 -0.1016,-0.0889 -0.2032,-0.1905 -0.3048,-0.2794 -0.0381,-0.0381 -0.1016,-0.0762 -0.2032,-0.0254 0.0381,0.0635 0.0635,0.1397 0.1143,0.2032 0.1778,0.2413 0.3175,0.508 0.3937,0.8001 0.1651,0.6223 -0.0254,1.1303004 -0.635,1.5367004 -0.1524,0.1016 -0.3302,0.1778 -0.508,0.2667 -0.0635,0.0381 -0.127,0.0635 -0.2032,0.1016 0.0381,0.0381 0.0635,0.0762 0.0889,0.1143 0.1016,0.1778 0.1778,0.3556 0.1778,0.5461 0.0127,0.2667 -0.0889,0.3683 -0.3937,0.4191 0.0127,0.0254 0.0254,0.0508 0.0381,0.0762 0.1778,0.3048 0.0762,0.5842 -0.1651,0.8382 -0.1016,0.0889 -0.2159,0.1524 -0.3302,0.2286 -0.0381,0.0381 -0.0889,0.0635 -0.127,0.1016 -0.0254,0.0254 -0.0381,0.0762 -0.0254,0.1016 0.0127,0.0254 0.0635,0.0254 0.1016,0.0381 0.0254,0 0.0508,-0.0127 0.0762,-0.0254 0.2159,-0.0254 0.2667,0.0254 0.254,0.2032 -0.0127,0.1524 -0.0889,0.2794 -0.2032,0.381 0.0254,0.127 0.0762,0.2413 0.0381,0.3429 -0.0254,0.1016 -0.1397,0.1905 -0.2159,0.2921 0,0.0254 0.0127,0.0381 0.0127,0.0508 0.1524,0.1905 0.1143,0.3683 -0.0254,0.5461 -0.1397,0.1778 -0.3302,0.2921 -0.5461,0.3429 -0.0762,0.0127 -0.1651,0.0254 -0.1651,0.127 0,0 0.0254,0.0127 0.0381,0.0254 0.5207,0.3683 0.6731,0.8382 0.508,1.3716 -0.0762,0.2413 -0.2286,0.482599 -0.3429,0.723899 -0.0254,0.0635 -0.1016,0.1143 -0.0508,0.2032 0.0508,-0.0381 0.0889,-0.0635 0.1143,-0.1016 z m 3.1496,-5.257799 c 0.254,0.1778 0.254,0.4191 0.254,0.6604 0,0.0127 0,0.0254 0,0.0508 -0.0127,0.0889 -0.0254,0.1905 -0.1524,0.2286 -0.0889,0.0254 -0.2667,-0.0508 -0.3302,-0.1397 -0.0381,-0.0635 -0.0762,-0.127 -0.1397,-0.2286 -0.0635,0.0762 -0.0889,0.1143 -0.1143,0.1524 -0.127,0.2286 -0.4572,0.2667 -0.635,0.0635 -0.0889,-0.0889 -0.1397,-0.1905 -0.0889,-0.3175 0.0381,-0.1016 0.0635,-0.2159 0.1143,-0.3175 0.1016,-0.1905 0.2032,-0.2286 0.4445,-0.1651 0.0381,0 0.0762,0.0127 0.127,0.0381 0,-0.0508 0.0127,-0.0889 -0.0127,-0.1143 -0.2667,-0.2794 -0.1905,-0.5969 -0.0889,-0.9017 0.0508,-0.1397 0.1143,-0.2794 0.2286,-0.4064 0.3683,0.2032 0.4445,0.4572 0.2413,0.8128 0.2032,0.1651 0.3937,0.3429 0.1524,0.5842 z" />
      <path
         id="path193"
         style="font-style:normal;font-variant:normal;font-weight:normal;font-stretch:normal;font-size:12.7px;font-family:'Crucial Noise';-inkscape-font-specification:'Crucial Noise';fill:#ffffff"
         d="m -34.757344,13.379043 c -0.0127,0.127 0,0.2667 -0.0381,0.4064 -0.0762,0.2159 -0.1778,0.4318 -0.2667,0.6477 -0.0635,0.1397 -0.0508,0.1524 0.127,0.1778 0.1143,0.0254 0.2286,0.0508 0.2921,0.1524 0.1143,0.1397 0.1016,0.3048 0.1016,0.4699 0,0.1143 -0.0889,0.1778 -0.1905,0.2413 -0.0762,0.0508 -0.0762,0.1016 0.0127,0.1524 0.2159,0.1016 0.2032,0.2667 0.1524,0.4318 -0.0508,0.1651 -0.127,0.3429 -0.1778,0.508 -0.1524,0.4191 -0.1905,0.8382 0.0254,1.244599 0.1016,0.2032 0.2159,0.3937 0.3302,0.5969 0.0254,0.0254 0.0508,0.0508 0.1143,0.1016 0,-0.2159 -0.0127,-0.381 0,-0.5461 0.0127,-0.1651 0.0381,-0.3302 0.0889,-0.495299 0.127,-0.3302 0.3937,-0.4445 0.8001,-0.3556 0.0381,0 0.1016,0 0.127,-0.0127 0.0127,-0.0254 0.0127,-0.0635 0,-0.1016 -0.0508,-0.127 -0.0889,-0.2667 -0.1524,-0.3937 -0.0889,-0.2159 -0.0127,-0.3683 0.2159,-0.4953 0.0254,0 0.0254,-0.0254 0.0381,-0.0381 -0.2794,-0.2794 -0.3556,-0.6731 0,-1.0414 -0.0254,-0.0381 -0.0635,-0.0635 -0.1016,-0.0889 -0.2921,-0.3048 -0.1143,-0.6858 0.3429,-0.762 0.0889,-0.0127 0.1778,-0.0127 0.2667,0 0.127,0 0.2286,0.0508 0.2667,0.1651 0.0635,0.127 0.0762,0.2794 0.0254,0.4191 -0.0635,0.1905 -0.127,0.381 -0.1778,0.5842 -0.0254,0.0508 -0.0254,0.1143 -0.0381,0.1905 0.0762,-0.0254 0.127,-0.0254 0.1524,-0.0508 0.1651,-0.1397 0.381,-0.1397 0.5842,-0.127 0.1143,0 0.1778,0.0635 0.2159,0.1397 0.0635,0.1397 0.0762,0.2921 0.0381,0.4445 -0.0254,0.127 -0.0635,0.254 -0.1016,0.381 -0.0889,0.3302 -0.1016,0.6604 0,0.9779 0.127,0.380999 0.2032,0.761999 0.4318,1.117599 0.0762,0.127 0.1397,0.254 0.2286,0.381 0.0127,0.0254 0.0635,0.0381 0.1016,0.0508 0.0254,-0.0254 0.0635,-0.0635 0.0635,-0.1016 0,-0.0635 -0.0381,-0.127 -0.0508,-0.2032 -0.1143,-0.3937 -0.2159,-0.8001 -0.2032,-1.206499 0.0127,-0.4445 0.2032,-0.7747 0.7366,-0.9398 0.0635,-0.0127 0.1143,-0.0508 0.1778,-0.0889 -0.0889,-0.1397 -0.1651,-0.2413 -0.2286,-0.3683 -0.1524,-0.3175 -0.2286,-0.6477 -0.1016,-1.0033 0.0127,-0.0381 0,-0.1016 0,-0.1524 -0.0635,0 -0.0889,0 -0.1143,0.0127 -0.2032,0.0254 -0.2794,0 -0.3556,-0.1524 -0.0254,-0.0762 -0.0508,-0.1651 -0.0762,-0.2413 -0.0381,-0.1143 -0.0762,-0.2413 -0.2032,-0.3175 0,0 -0.0127,0 -0.0254,0 -0.1778,0.0635 -0.2921,0.0381 -0.381,-0.0508 -0.0762,-0.0762 -0.0635,-0.1397 0.0508,-0.2794 0.0127,-0.0254 0.0127,-0.0762 0.0254,-0.1524 -0.3048,0.1016 -0.5715,0.1905 -0.8636,0.0381 0.0508,-0.0254 0.0889,-0.0508 0.127,-0.0635 0.1905,-0.1016 0.3937,-0.1905 0.5715,-0.3048 0.1143,-0.0889 0.2159,-0.1651 0.381,-0.1397 0.0889,0 0.1397,-0.0381 0.1143,-0.127 -0.0127,-0.0254 -0.0127,-0.0508 -0.0127,-0.0889 0.0254,-0.3429 0.1016,-0.4953 0.5207,-0.4318 0,0 0.0127,0 0.0127,0 0.127,0 0.1524,-0.0381 0.1143,-0.127 -0.2032,-0.4445 -0.1016,-0.8509 0.254,-1.2192 0.0254,-0.0254 0.0508,-0.0508 0.0762,-0.0762 0.0254,-0.0381 0.0508,-0.0889 0.0762,-0.1397 -0.1143,0 -0.1905,0 -0.254,0.0127 -0.1524,0.0381 -0.2921,0.0762 -0.4445,0.127 -0.254,0.0889 -0.5334,0.1016 -0.8001,0.0508 -0.3937,-0.0889 -0.635,-0.3429 -0.6223,-0.6858 0.0127,0 0.0127,-0.0127 0.0127,-0.0254 -0.0127,-0.0762 -0.0762,-0.1016 -0.1397,-0.0635 -0.0762,0.0381 -0.1397,0.0889 -0.2032,0.127 -0.2413,0.127 -0.4572,0.1143 -0.6731,-0.0381 -0.2032,-0.1524 -0.3175,-0.3302 -0.3683,-0.5461004 -0.1016,-0.4318 -0.0762,-0.8509 0.0889,-1.27 0.0127,-0.0508 0.0635,-0.1016 -0.0127,-0.1397 -0.0762,-0.0254 -0.1016,0.0254 -0.1397,0.0635 -0.0127,0.0254 -0.0381,0.0381 -0.0508,0.0635 -0.2921,0.381 -0.4826,0.8001 -0.6223,1.2319 -0.0889,0.2921004 -0.127,0.5842004 -0.0508,0.8763004 0.0254,0.1016 0.0381,0.2159 0.0127,0.3302 -0.0381,0.2159 -0.1397,0.3937 -0.4064,0.4826 -0.0254,0.0127 -0.0508,0.0381 -0.1016,0.0762 0.0635,0.0254 0.1016,0.0508 0.1397,0.0508 0.1397,0.0127 0.1524,0.1143 0.1778,0.1905 0.0381,0.0889 -0.0254,0.1397 -0.1016,0.1905 -0.0508,0.0254 -0.1143,0.0508 -0.1651,0.0635 -0.1778,0.0508 -0.1905,0.1143 -0.0381,0.2032 0.1651,0.0889 0.2159,0.2159 0.1778,0.3556 -0.0254,0.1143 -0.0635,0.2159 -0.1143,0.3429 0.1016,0.1143 0.1778,0.2286 0.1778,0.381 z m 1.3208,-1.1684 c -0.0381,-0.0381 -0.0762,-0.0762 -0.1143,-0.1143 -0.1397,-0.1778 -0.127,-0.3556 -0.0127,-0.5334 0.1016,-0.1524 0.2921,-0.2032 0.4953,-0.2159 0.0635,-0.0127 0.127,0.0127 0.1651,0.0635 0.0508,0.0508 0.0762,0.1143 0.0635,0.1778 -0.0127,0.0635 -0.0508,0.1143 -0.0635,0.1778 -0.0127,0.0381 0,0.0762 0,0.1524 0.0635,-0.0381 0.1016,-0.0508 0.1397,-0.0762 0.2159,-0.1524 0.4572,-0.1651 0.6985,-0.0762 0.1524,0.0381 0.1778,0.127 0.1143,0.254 -0.1524,0.254 -0.4699,0.3937 -0.8382,0.3556 -0.0381,-0.0127 -0.0889,0.0127 -0.127,0.0254 0.0127,0.0254 0.0254,0.0762 0.0508,0.0889 0.127,0.0381 0.2032,0.1016 0.2159,0.2159 0.0254,0.127 0.0254,0.2794 -0.0889,0.381 -0.1016,0.1016 -0.2286,0.1778 -0.3429,0.2413 -0.0635,0.0381 -0.1651,0.0381 -0.2413,0.0381 -0.2032,-0.0127 -0.2667,-0.1143 -0.2159,-0.2794 0.0254,-0.0889 0.0762,-0.1651 0.1143,-0.2794 -0.3048,-0.1905 -0.1524,-0.3937 -0.0127,-0.5969 z" />
      <path
         id="path195"
         style="font-style:normal;font-variant:normal;font-weight:normal;font-stretch:normal;font-size:12.7px;font-family:'Crucial Noise';-inkscape-font-specification:'Crucial Noise';fill:#ffffff"
         d="m -28.720677,14.458543 c 0.1143,-0.1778 0.3048,-0.2921 0.5461,-0.3175 -0.1143,-0.2286 -0.1016,-0.254 0.1143,-0.381 0.0508,-0.0381 0.1016,-0.0635 0.1524,-0.0889 0.254,-0.1016 0.3683,-0.0635 0.4953,0.1397 0.0381,0.0635 0.0889,0.127 0.127,0.1778 h 0.0635 c 0,-0.0508 0.0254,-0.0889 0.0254,-0.127 -0.0127,-0.1016 -0.0508,-0.1905 -0.0635,-0.2794 -0.0381,-0.2413 0.127,-0.4826 0.4064,-0.5715 0.0508,-0.0127 0.1016,-0.0254 0.1397,-0.0381 0.0127,-0.127 0.0127,-0.2413 0.0508,-0.3429 0.0508,-0.1905 0.127,-0.2413 0.3683,-0.2286 0.0762,0.0127 0.1524,0.0127 0.254,0.0127 -0.0127,-0.0635 -0.0254,-0.1143 -0.0381,-0.1524 -0.0254,-0.0508 -0.0635,-0.1143 -0.0635,-0.1778 -0.0381,-0.3556 0,-0.6985 0.3048,-0.9779 0.0381,-0.0381 0.0762,-0.0762 0.1143,-0.1143 0.0127,-0.0381 0.0254,-0.0762 0.0381,-0.127 -0.0635,0 -0.1143,-0.0127 -0.1524,-0.0127 -0.1651,0.0381 -0.3302,0.0762 -0.4953,0.127 -0.2794,0.1016 -0.5461,0.127 -0.8382,0.0635 -0.3683,-0.0889 -0.6096,-0.3429 -0.6096,-0.6604 0,-0.0381 0,-0.0762 -0.0127,-0.1143 -0.0254,-0.0127 -0.0508,-0.0127 -0.0508,-0.0127 -0.0889,0.0381 -0.1651,0.0889 -0.2413,0.127 -0.2667,0.1524 -0.4826,0.1397 -0.7112,-0.0381 -0.2286,-0.1778 -0.3302,-0.3810004 -0.381,-0.6223004 -0.0762,-0.3937 -0.0254,-0.7874 0.1143,-1.1684 0.0127,-0.0508 0.0635,-0.1143 -0.0635,-0.1651 -0.0381,0.0381 -0.0889,0.0889 -0.127,0.1397 -0.3048,0.4064 -0.508,0.8509 -0.6477,1.3208 -0.0889,0.2667004 -0.1016,0.5334004 -0.0254,0.8128004 0.0254,0.0762 0.0254,0.1524 0.0254,0.2413 -0.0381,0.2413 -0.1397,0.4572 -0.4445,0.5588 -0.0254,0 -0.0381,0.0381 -0.0508,0.0635 0.0127,0.0127 0.0127,0.0254 0.0127,0.0254 0.0381,0.0127 0.0762,0.0254 0.1016,0.0381 0.1905,0.0508 0.2413,0.2413 0.1016,0.3429 -0.0508,0.0381 -0.1016,0.0635 -0.1651,0.0762 -0.2286,0.0889 -0.2413,0.1143 -0.0508,0.2413 0.1524,0.0889 0.2032,0.2032 0.1651,0.3556 -0.0254,0.0762 -0.0508,0.1397 -0.0889,0.2159 -0.0381,0.0635 -0.0381,0.127 0.0254,0.1905 0.1016,0.1016 0.127,0.2159 0.127,0.3429 -0.0127,0.3048 -0.0889,0.6096 -0.2413,0.8636 -0.0381,0.0635 -0.0635,0.1143 -0.0889,0.1778 -0.0381,0.1016 -0.0254,0.1143 0.1143,0.1524 0.0889,0.0127 0.1778,0.0254 0.254,0.0635 0.2413,0.1651 0.2413,0.5969 0.0127,0.7747 -0.0381,0.0254 -0.0635,0.0508 -0.0889,0.0889 0.0127,0.0254 0.0127,0.0254 0.0127,0.0254 0.0254,0.0254 0.0508,0.0508 0.0889,0.0635 0.2032,0.1524 0.3175,0.3302 0.254,0.5588 -0.0635,0.2286 -0.1143,0.4699 -0.3937,0.6096 -0.0254,0.0127 -0.0381,0.0381 -0.0508,0.0508 0,0.0254 0,0.0381 0.0127,0.0508 0.0127,0.0254 0.0381,0.0508 0.0635,0.0762 0.1905,0.1651 0.2921,0.3683 0.3302,0.5969 0.0254,0.177799 0.0762,0.368299 0.127,0.546099 0.0635,0.2032 0.1778,0.3937 0.3175,0.5588 0.0381,0.0381 0.0762,0.0889 0.1397,0.0508 0.0762,-0.0254 0.0762,-0.0762 0.0508,-0.127 -0.0127,-0.0254 -0.0254,-0.0635 -0.0381,-0.1016 -0.2159,-0.6731 -0.0889,-1.269999 0.5715,-1.752599 0.0508,-0.0381 0.0889,-0.0762 0.127,-0.1143 -0.2159,-0.2286 -0.2159,-0.2921 -0.0381,-0.5461 -0.0635,-0.0635 -0.127,-0.1397 -0.1905,-0.2032 -0.2032,-0.2286 -0.2032,-0.3048 -0.0127,-0.5461 0.0762,-0.1016 0.1651,-0.2032 0.254,-0.3175 -0.2413,-0.2286 -0.254,-0.3048 -0.1397,-0.4953 z m -0.127,-2.3241 c -0.0508,-0.0381 -0.0762,-0.0762 -0.1143,-0.1143 -0.1524,-0.1651 -0.1397,-0.3429 -0.0254,-0.5207 0.1016,-0.1651 0.2921,-0.2159 0.4826,-0.2286 0.127,-0.0127 0.2286,0.0762 0.2286,0.1905 0.0127,0.0762 -0.0254,0.1524 -0.0508,0.2286 0,0.0381 0,0.0762 0.0127,0.1143 0.0381,-0.0127 0.1016,-0.0127 0.127,-0.0381 0.1905,-0.127 0.4064,-0.1524 0.635,-0.1016 0.2413,0.0635 0.3048,0.2032 0.1524,0.3556 -0.2032,0.1905 -0.4318,0.3683 -0.8001,0.2794 -0.0508,-0.0127 -0.1016,0.0127 -0.1524,0.0127 0,0.0127 -0.0127,0.0254 -0.0127,0.0381 0.0381,0.0254 0.0762,0.0635 0.1143,0.0762 0.127,0.0381 0.1778,0.127 0.2032,0.2286 0.0381,0.2667 -0.254,0.5842 -0.5715,0.635 -0.2667,0.0508 -0.4064,-0.0889 -0.3302,-0.2921 0.0254,-0.0635 0.0635,-0.1143 0.0762,-0.1778 0,-0.0381 0,-0.1143 -0.0381,-0.127 -0.1397,-0.1143 -0.1143,-0.2413 -0.0635,-0.3683 0.0381,-0.0635 0.0762,-0.1143 0.127,-0.1905 z" />
    </g>
    <path
       id="path288"
       d="M -1.0688117,104.25834 H 101.88292"
       style="fill:#ffffff;stroke:#ffffff;stroke-width:0.301824" />
    <g
       style="font-size:3.52777px;line-height:1.25;font-family:Arial;-inkscape-font-specification:Arial;stroke-width:0.264583"
       id="text294"
       aria-label="Gate">
      <path
         id="path344"
         style="fill:#ffffff;stroke-width:0.264583"
         d="m 9.398338,111.34478 v -0.29628 l 1.0697,-0.002 v 0.93706 q -0.246324,0.19637 -0.5081506,0.29628 -0.2618267,0.0982 -0.5374337,0.0982 -0.3720695,0 -0.6769598,-0.15848 -0.3031678,-0.16019 -0.4581967,-0.46164 -0.155029,-0.30144 -0.155029,-0.67351 0,-0.36863 0.1533064,-0.6873 0.155029,-0.32039 0.4444164,-0.47542 0.2893874,-0.15503 0.6666245,-0.15503 0.2738845,0 0.4943701,0.0896 0.2222084,0.0879 0.3479534,0.24633 0.125746,0.15847 0.191203,0.41341 l -0.301445,0.0827 q -0.05684,-0.19293 -0.1412489,-0.30317 -0.084405,-0.11024 -0.2411562,-0.1757 -0.1567515,-0.0672 -0.3479539,-0.0672 -0.2290983,0 -0.3961851,0.0706 -0.1670867,0.0689 -0.2704394,0.18259 -0.1016301,0.11368 -0.158474,0.24977 -0.096462,0.23426 -0.096462,0.50815 0,0.33761 0.1154105,0.56499 0.117133,0.22738 0.3393411,0.33762 0.2222082,0.11024 0.4719771,0.11024 0.2170405,0 0.4237458,-0.0827 0.206705,-0.0844 0.313502,-0.17915 v -0.47025 z" />
      <path
         id="path346"
         style="fill:#ffffff;stroke-width:0.264583"
         d="m 12.113067,112.10959 q -0.172254,0.14642 -0.332451,0.20671 -0.158474,0.0603 -0.341063,0.0603 -0.301446,0 -0.463365,-0.14641 -0.161919,-0.14814 -0.161919,-0.37724 0,-0.13436 0.06029,-0.2446 0.06201,-0.11197 0.160197,-0.17914 0.09991,-0.0672 0.223931,-0.10163 0.09129,-0.0241 0.275607,-0.0465 0.375514,-0.0448 0.552936,-0.1068 0.0017,-0.0637 0.0017,-0.081 0,-0.18948 -0.08785,-0.267 -0.118856,-0.10507 -0.353122,-0.10507 -0.218763,0 -0.323838,0.0775 -0.103352,0.0758 -0.153306,0.27044 l -0.303168,-0.0413 q 0.04134,-0.19465 0.136081,-0.3135 0.09474,-0.12058 0.273885,-0.18431 0.179144,-0.0655 0.415133,-0.0655 0.234266,0 0.380682,0.0551 0.146416,0.0551 0.215318,0.13953 0.0689,0.0827 0.09646,0.21015 0.0155,0.0792 0.0155,0.28594 v 0.41341 q 0,0.43236 0.01895,0.54777 0.02067,0.11369 0.07924,0.21876 h -0.323838 q -0.04823,-0.0965 -0.06201,-0.22565 z m -0.02584,-0.69246 q -0.168809,0.0689 -0.506428,0.11713 -0.191202,0.0276 -0.270439,0.062 -0.07924,0.0344 -0.122301,0.10163 -0.04306,0.0655 -0.04306,0.14642 0,0.12402 0.09302,0.2067 0.09474,0.0827 0.275607,0.0827 0.179145,0 0.318671,-0.0775 0.139526,-0.0792 0.204982,-0.21532 0.04995,-0.10507 0.04995,-0.31005 z" />
      <path
         id="path348"
         style="fill:#ffffff;stroke-width:0.264583"
         d="m 13.560004,112.05791 0.04479,0.27389 q -0.130914,0.0276 -0.234266,0.0276 -0.16881,0 -0.261827,-0.0534 -0.09302,-0.0534 -0.130913,-0.13953 -0.0379,-0.0879 -0.0379,-0.3669 v -1.05247 h -0.227376 v -0.24116 h 0.227376 v -0.45303 l 0.308335,-0.18603 v 0.63906 h 0.31178 v 0.24116 h -0.31178 v 1.0697 q 0,0.13263 0.0155,0.17053 0.01722,0.0379 0.0534,0.0603 0.0379,0.0224 0.106797,0.0224 0.05168,0 0.136081,-0.0121 z" />
      <path
         id="path350"
         style="fill:#ffffff;stroke-width:0.264583"
         d="m 15.113739,111.74613 0.320393,0.0396 q -0.07579,0.28078 -0.280774,0.43581 -0.204983,0.15502 -0.523654,0.15502 -0.401352,0 -0.637341,-0.24632 -0.234266,-0.24805 -0.234266,-0.69418 0,-0.46165 0.237711,-0.71658 0.237711,-0.25494 0.616671,-0.25494 0.366902,0 0.599445,0.24977 0.232544,0.24977 0.232544,0.7028 0,0.0276 -0.0017,0.0827 H 14.07849 q 0.01723,0.30144 0.170532,0.46164 0.153306,0.1602 0.382405,0.1602 0.170532,0 0.29111,-0.0896 0.120578,-0.0896 0.191202,-0.28595 z m -1.018023,-0.50126 h 1.021468 q -0.02067,-0.23082 -0.117133,-0.34623 -0.148139,-0.17914 -0.384127,-0.17914 -0.213596,0 -0.360012,0.14297 -0.144693,0.14297 -0.160196,0.3824 z" />
    </g>
    <g
       style="font-size:3.52777px;line-height:1.25;font-family:Arial;-inkscape-font-specification:Arial;stroke-width:0.264583"
       id="text318"
       aria-label="V/oct">
      <path
         id="path353"
         style="fill:#ffffff;stroke-width:0.264583"
         d="m 26.228023,112.59721 -0.978405,-2.52525 h 0.361735 l 0.656289,1.83451 q 0.07924,0.22049 0.132636,0.41341 0.05857,-0.2067 0.136081,-0.41341 l 0.682127,-1.83451 h 0.341064 l -0.98874,2.52525 z" />
      <path
         id="path355"
         style="fill:#ffffff;stroke-width:0.264583"
         d="m 27.590556,112.64028 0.732081,-2.61138 h 0.248046 l -0.730358,2.61138 z" />
      <path
         id="path357"
         style="fill:#ffffff;stroke-width:0.264583"
         d="m 28.686094,111.68254 q 0,-0.50815 0.282497,-0.75275 0.235988,-0.20326 0.57533,-0.20326 0.377237,0 0.61667,0.24805 0.239434,0.24632 0.239434,0.68212 0,0.35313 -0.106798,0.55639 -0.105075,0.20153 -0.308335,0.3135 -0.201538,0.11196 -0.440971,0.11196 -0.384128,0 -0.621839,-0.24632 -0.235988,-0.24632 -0.235988,-0.70969 z m 0.31867,0 q 0,0.3514 0.153307,0.5271 0.153306,0.17398 0.38585,0.17398 0.23082,0 0.384127,-0.1757 0.153306,-0.1757 0.153306,-0.53571 0,-0.33934 -0.155029,-0.51332 -0.153306,-0.1757 -0.382404,-0.1757 -0.232544,0 -0.38585,0.17398 -0.153307,0.17397 -0.153307,0.52537 z" />
      <path
         id="path359"
         style="fill:#ffffff;stroke-width:0.264583"
         d="m 31.958927,111.92714 0.304891,0.0396 q -0.04995,0.31523 -0.256659,0.49437 -0.204983,0.17742 -0.504706,0.17742 -0.375514,0 -0.604613,-0.2446 -0.227376,-0.24632 -0.227376,-0.70452 0,-0.29627 0.09819,-0.51848 0.09819,-0.22221 0.298001,-0.33245 0.201537,-0.11197 0.437526,-0.11197 0.298,0 0.48748,0.15158 0.18948,0.14987 0.242878,0.4272 l -0.301445,0.0465 q -0.04306,-0.18431 -0.153306,-0.27733 -0.10852,-0.093 -0.263549,-0.093 -0.234266,0 -0.380683,0.16881 -0.146416,0.16708 -0.146416,0.53054 0,0.36862 0.141249,0.53571 0.141248,0.16709 0.368624,0.16709 0.18259,0 0.30489,-0.11197 0.122301,-0.11196 0.155029,-0.34451 z" />
      <path
         id="path361"
         style="fill:#ffffff;stroke-width:0.264583"
         d="m 33.206049,112.31988 0.04479,0.27389 q -0.130913,0.0276 -0.234266,0.0276 -0.168809,0 -0.261826,-0.0534 -0.09302,-0.0534 -0.130914,-0.13953 -0.0379,-0.0879 -0.0379,-0.3669 v -1.05247 h -0.227375 v -0.24116 h 0.227375 v -0.45303 l 0.308336,-0.18603 v 0.63906 h 0.31178 v 0.24116 h -0.31178 v 1.0697 q 0,0.13263 0.0155,0.17053 0.01723,0.0379 0.0534,0.0603 0.0379,0.0224 0.106798,0.0224 0.05168,0 0.136081,-0.0121 z" />
    </g>
    <g
       style="font-size:3.52777px;line-height:1.25;font-family:Arial;-inkscape-font-specification:Arial;stroke-width:0.264583"
       id="text324"
       aria-label="Clock">
      <path
         id="path364"
         style="fill:#ffffff;stroke-width:0.264583"
         d="m 44.189448,111.87415 0.334174,0.0844 q -0.105075,0.41169 -0.37896,0.62873 -0.272162,0.21532 -0.666625,0.21532 -0.408242,0 -0.664901,-0.16536 -0.254937,-0.16709 -0.389295,-0.48232 -0.132636,-0.31522 -0.132636,-0.67696 0,-0.39446 0.149861,-0.68729 0.151584,-0.29456 0.428913,-0.44614 0.279053,-0.15331 0.613226,-0.15331 0.37896,0 0.637341,0.19293 0.258382,0.19292 0.360012,0.5426 l -0.329006,0.0775 q -0.08785,-0.2756 -0.254936,-0.40135 -0.167087,-0.12574 -0.420301,-0.12574 -0.29111,0 -0.48748,0.13952 -0.194647,0.13953 -0.273884,0.37552 -0.07924,0.23426 -0.07924,0.48403 0,0.32212 0.09302,0.56327 0.09474,0.23944 0.292832,0.35829 0.198093,0.11886 0.428914,0.11886 0.280774,0 0.475422,-0.16192 0.194647,-0.16192 0.263549,-0.48059 z" />
      <path
         id="path366"
         style="fill:#ffffff;stroke-width:0.264583"
         d="m 44.890524,112.75954 v -2.52525 h 0.310057 v 2.52525 z" />
      <path
         id="path368"
         style="fill:#ffffff;stroke-width:0.264583"
         d="m 45.567483,111.84487 q 0,-0.50815 0.282497,-0.75276 0.235989,-0.20326 0.57533,-0.20326 0.377237,0 0.616671,0.24805 0.239434,0.24632 0.239434,0.68213 0,0.35312 -0.106798,0.55638 -0.105075,0.20154 -0.308336,0.3135 -0.201537,0.11197 -0.440971,0.11197 -0.384127,0 -0.621838,-0.24633 -0.235989,-0.24632 -0.235989,-0.70968 z m 0.318671,0 q 0,0.35139 0.153306,0.52709 0.153307,0.17398 0.38585,0.17398 0.230821,0 0.384127,-0.1757 0.153307,-0.1757 0.153307,-0.53571 0,-0.33934 -0.155029,-0.51332 -0.153306,-0.1757 -0.382405,-0.1757 -0.232543,0 -0.38585,0.17398 -0.153306,0.17398 -0.153306,0.52538 z" />
      <path
         id="path370"
         style="fill:#ffffff;stroke-width:0.264583"
         d="m 48.840317,112.08947 0.30489,0.0396 q -0.04995,0.31522 -0.256659,0.49437 -0.204983,0.17742 -0.504705,0.17742 -0.375515,0 -0.604613,-0.2446 -0.227376,-0.24633 -0.227376,-0.70452 0,-0.29628 0.09819,-0.51849 0.09819,-0.22221 0.298,-0.33245 0.201538,-0.11197 0.437526,-0.11197 0.298,0 0.48748,0.15159 0.18948,0.14986 0.242879,0.42719 l -0.301445,0.0465 q -0.04306,-0.18431 -0.153307,-0.27733 -0.10852,-0.093 -0.263549,-0.093 -0.234266,0 -0.380682,0.16881 -0.146416,0.16709 -0.146416,0.53054 0,0.36863 0.141248,0.53571 0.141249,0.16709 0.368625,0.16709 0.182589,0 0.30489,-0.11196 0.122301,-0.11197 0.155029,-0.34451 z" />
      <path
         id="path372"
         style="fill:#ffffff;stroke-width:0.264583"
         d="m 49.412202,112.75954 v -2.52525 h 0.310057 v 1.44004 l 0.733804,-0.74413 h 0.401353 l -0.699353,0.67868 0.769977,1.15066 h -0.382404 l -0.604613,-0.93534 -0.218764,0.21015 v 0.72519 z" />
    </g>
    <rect
       ry="3.6522238"
       y="115.89724"
       x="83.919983"
       height="7.3044477"
       width="7.953732"
       id="rect326"
       style="fill:#ffffff;fill-rule:evenodd;stroke-width:0.194151" />
    <g
       style="font-size:3.52777px;line-height:1.25;font-family:Arial;-inkscape-font-specification:Arial;stroke-width:0.264583"
       id="text330"
       aria-label="Out">
      <path
         id="path386"
         style="fill:#ffffff;stroke-width:0.264583"
         d="m 84.814155,111.36732 q 0,-0.62872 0.337619,-0.98357 0.337618,-0.35656 0.871607,-0.35656 0.349676,0 0.630451,0.16708 0.280775,0.16709 0.427191,0.46681 0.148139,0.298 0.148139,0.67696 0,0.38413 -0.155029,0.6873 -0.155029,0.30316 -0.439249,0.45992 -0.28422,0.15502 -0.613225,0.15502 -0.356567,0 -0.637342,-0.17225 -0.280774,-0.17225 -0.425468,-0.47025 -0.144694,-0.298 -0.144694,-0.63046 z m 0.344509,0.005 q 0,0.45648 0.244601,0.72003 0.246324,0.26182 0.616671,0.26182 0.377237,0 0.620116,-0.26527 0.244601,-0.26527 0.244601,-0.75275 0,-0.30834 -0.105075,-0.53743 -0.103353,-0.23083 -0.30489,-0.35657 -0.199816,-0.12747 -0.449584,-0.12747 -0.354844,0 -0.611503,0.2446 -0.254937,0.24288 -0.254937,0.81304 z" />
      <path
         id="path388"
         style="fill:#ffffff;stroke-width:0.264583"
         d="m 88.817347,112.59722 v -0.26872 q -0.213595,0.31006 -0.580497,0.31006 -0.161919,0 -0.303168,-0.062 -0.139526,-0.062 -0.208427,-0.15503 -0.06718,-0.0947 -0.09474,-0.23082 -0.01895,-0.0913 -0.01895,-0.28939 v -1.13343 h 0.310058 v 1.01458 q 0,0.24288 0.01895,0.32728 0.02928,0.1223 0.124023,0.19293 0.09474,0.0689 0.234266,0.0689 0.139526,0 0.261826,-0.0706 0.122301,-0.0723 0.172255,-0.19464 0.05168,-0.12403 0.05168,-0.35829 v -0.98013 h 0.310058 v 1.82934 z" />
      <path
         id="path390"
         style="fill:#ffffff;stroke-width:0.264583"
         d="m 90.259117,112.31989 0.04479,0.27389 q -0.130913,0.0276 -0.234266,0.0276 -0.168809,0 -0.261827,-0.0534 -0.09302,-0.0534 -0.130913,-0.13953 -0.0379,-0.0879 -0.0379,-0.3669 v -1.05247 h -0.227376 v -0.24116 h 0.227376 v -0.45303 l 0.308335,-0.18603 v 0.63906 h 0.311781 v 0.24116 h -0.311781 v 1.0697 q 0,0.13263 0.0155,0.17053 0.01723,0.0379 0.0534,0.0603 0.0379,0.0224 0.106798,0.0224 0.05168,0 0.136081,-0.0121 z" />
    </g>
    <g
       style="font-size:3.52777px;line-height:1.25;font-family:Arial;-inkscape-font-specification:Arial;stroke-width:0.264583"
       id="text342"
       aria-label="Steps">
      <path
         id="path375"
         style="fill:#ffffff;stroke-width:0.264583"
         d="m 59.155369,112.27286 0.315225,-0.0276 q 0.02239,0.18948 0.103353,0.31178 0.08268,0.12058 0.254937,0.19637 0.172254,0.0741 0.387572,0.0741 0.191202,0 0.337619,-0.0568 0.146416,-0.0568 0.21704,-0.15503 0.07235,-0.0999 0.07235,-0.21704 0,-0.11886 -0.0689,-0.20671 -0.0689,-0.0896 -0.227376,-0.14986 -0.10163,-0.0396 -0.449584,-0.1223 -0.347953,-0.0844 -0.48748,-0.15847 -0.180867,-0.0947 -0.270439,-0.23427 -0.08785,-0.14125 -0.08785,-0.31522 0,-0.1912 0.108521,-0.35657 0.10852,-0.16709 0.316948,-0.25321 0.208428,-0.0861 0.463364,-0.0861 0.280775,0 0.49437,0.0913 0.215318,0.0896 0.330729,0.26528 0.11541,0.1757 0.124023,0.3979 l -0.320393,0.0241 q -0.02584,-0.23943 -0.1757,-0.36173 -0.148139,-0.12231 -0.439249,-0.12231 -0.303167,0 -0.442693,0.11197 -0.137804,0.11024 -0.137804,0.26699 0,0.13609 0.09819,0.22394 0.09646,0.0878 0.502983,0.18086 0.408243,0.0913 0.559827,0.1602 0.220485,0.10163 0.325561,0.25838 0.105075,0.15503 0.105075,0.35829 0,0.20154 -0.115411,0.38068 -0.11541,0.17742 -0.332451,0.27733 -0.215318,0.0982 -0.485757,0.0982 -0.342786,0 -0.57533,-0.0999 -0.230821,-0.0999 -0.363457,-0.29972 -0.130913,-0.20154 -0.137803,-0.45476 z" />
      <path
         id="path377"
         style="fill:#ffffff;stroke-width:0.264583"
         d="m 62.262838,112.80685 0.04479,0.27389 q -0.130913,0.0276 -0.234266,0.0276 -0.168809,0 -0.261826,-0.0534 -0.09302,-0.0534 -0.130914,-0.13953 -0.0379,-0.0878 -0.0379,-0.3669 V 111.496 h -0.227376 v -0.24116 h 0.227376 v -0.45303 l 0.308336,-0.18603 v 0.63906 h 0.31178 v 0.24116 h -0.31178 v 1.0697 q 0,0.13263 0.0155,0.17053 0.01723,0.0379 0.0534,0.0603 0.0379,0.0224 0.106798,0.0224 0.05168,0 0.136081,-0.0121 z" />
      <path
         id="path379"
         style="fill:#ffffff;stroke-width:0.264583"
         d="m 63.816573,112.49507 0.320393,0.0396 q -0.07579,0.28078 -0.280775,0.4358 -0.204982,0.15503 -0.523653,0.15503 -0.401353,0 -0.637341,-0.24632 -0.234266,-0.24805 -0.234266,-0.69419 0,-0.46164 0.237711,-0.71657 0.237711,-0.25494 0.616671,-0.25494 0.366901,0 0.599445,0.24977 0.232543,0.24977 0.232543,0.7028 0,0.0276 -0.0017,0.0827 h -1.364255 q 0.01723,0.30144 0.170532,0.46164 0.153306,0.1602 0.382404,0.1602 0.170532,0 0.29111,-0.0896 0.120578,-0.0896 0.191203,-0.28595 z m -1.018024,-0.50126 h 1.021469 q -0.02067,-0.23082 -0.117133,-0.34623 -0.148139,-0.17914 -0.384127,-0.17914 -0.213596,0 -0.360012,0.14297 -0.144694,0.14297 -0.160197,0.3824 z" />
      <path
         id="path381"
         style="fill:#ffffff;stroke-width:0.264583"
         d="m 64.527984,113.78526 v -2.53042 h 0.282497 v 0.23771 q 0.09991,-0.13952 0.225653,-0.20843 0.125746,-0.0706 0.30489,-0.0706 0.234266,0 0.413411,0.12058 0.179145,0.12058 0.270439,0.34106 0.0913,0.21876 0.0913,0.48059 0,0.28078 -0.10163,0.50643 -0.09991,0.22393 -0.292832,0.34451 -0.191203,0.11885 -0.403076,0.11885 -0.155029,0 -0.279052,-0.0654 -0.1223,-0.0655 -0.201537,-0.16537 v 0.89056 z m 0.280774,-1.60541 q 0,0.35312 0.142971,0.52193 0.142972,0.16881 0.346232,0.16881 0.206705,0 0.353121,-0.17398 0.148139,-0.1757 0.148139,-0.5426 0,-0.34968 -0.144694,-0.52365 -0.142971,-0.17398 -0.342786,-0.17398 -0.198092,0 -0.351399,0.18603 -0.151584,0.18432 -0.151584,0.53744 z" />
      <path
         id="path383"
         style="fill:#ffffff;stroke-width:0.264583"
         d="m 66.36766,112.53814 0.306613,-0.0482 q 0.02584,0.18431 0.142971,0.28249 0.118856,0.0982 0.330729,0.0982 0.213595,0 0.316948,-0.0861 0.103352,-0.0878 0.103352,-0.20498 0,-0.10508 -0.09129,-0.16537 -0.06373,-0.0413 -0.316948,-0.10507 -0.341064,-0.0861 -0.4737,-0.14814 -0.130913,-0.0637 -0.199815,-0.17398 -0.06718,-0.11196 -0.06718,-0.24632 0,-0.1223 0.05512,-0.22565 0.05684,-0.10508 0.153306,-0.17398 0.07235,-0.0534 0.19637,-0.0896 0.125746,-0.0379 0.268717,-0.0379 0.215318,0 0.377237,0.062 0.163642,0.062 0.241157,0.16881 0.07751,0.10508 0.106797,0.2825 l -0.303167,0.0413 q -0.02067,-0.14125 -0.120579,-0.22049 -0.09819,-0.0792 -0.279052,-0.0792 -0.213595,0 -0.30489,0.0706 -0.0913,0.0706 -0.0913,0.16537 0,0.0603 0.0379,0.10852 0.0379,0.0499 0.118856,0.0827 0.04651,0.0172 0.273884,0.0792 0.329006,0.0878 0.458197,0.1447 0.130913,0.0551 0.204983,0.16192 0.07407,0.10679 0.07407,0.26527 0,0.15503 -0.0913,0.29283 -0.08957,0.13608 -0.260104,0.21187 -0.170532,0.0741 -0.38585,0.0741 -0.356566,0 -0.544324,-0.14813 -0.186034,-0.14814 -0.237711,-0.43925 z" />
    </g>
    <g
       id="g40"
       transform="matrix(0.00874806,0,0,0.00721252,95.487423,116.9044)"
       style="fill:#ffffff">
      <path
         style="fill:#ffffff;stroke-width:1.35211"
         d="m 436.00195,399.08312 c 0,-51.68451 0.16814,-72.82817 0.37365,-46.98591 0.20551,25.84225 0.20551,68.12957 0,93.97183 -0.20551,25.84225 -0.37365,4.69859 -0.37365,-46.98592 z m -350.289433,26.70423 -2.575761,-3.04226 3.042253,2.57576 c 2.858962,2.42058 3.65779,3.50875 2.575762,3.50875 -0.256577,0 -1.625591,-1.36901 -3.042254,-3.04225 z m 116.913733,0.67605 c -1.68185,-2.14453 -1.63403,-2.19235 0.5105,-0.5105 1.30141,1.02064 2.3662,2.08543 2.3662,2.3662 0,1.11284 -1.11034,0.39658 -2.8767,-1.8557 z M 8.0945055,422.74509 c 1.7465915,-1.85915 3.4798375,-3.38028 3.8516685,-3.38028 0.371831,0 -0.752964,1.52113 -2.4995559,3.38028 -1.7465915,1.85916 -3.4798376,3.38028 -3.8516686,3.38028 -0.371831,0 0.7529645,-1.52112 2.499556,-3.38028 z m 183.7148445,-8.4507 c -1.68186,-2.14453 -1.63403,-2.19236 0.5105,-0.5105 1.30141,1.02064 2.3662,2.08543 2.3662,2.36619 0,1.11285 -1.11034,0.39659 -2.8767,-1.85569 z m -127.730635,-8.78873 -2.575761,-3.04226 3.042254,2.57576 c 2.858961,2.42058 3.657789,3.50875 2.575761,3.50875 -0.256577,0 -1.625591,-1.36901 -3.042254,-3.04225 z m -149.279981,-0.17248 c 0,-0.28077 1.064789,-1.34555 2.366198,-2.3662 2.144526,-1.68185 2.19235,-1.63402 0.510496,0.51051 -1.766358,2.25228 -2.876694,2.96853 -2.876694,1.85569 z M 29.728307,402.4634 c 1.746592,-1.85915 3.479838,-3.38028 3.851669,-3.38028 0.371831,0 -0.752964,1.52113 -2.499556,3.38028 -1.746591,1.85916 -3.479838,3.38028 -3.851669,3.38028 -0.37183,0 0.752965,-1.52112 2.499556,-3.38028 z m -4.158679,-11.15493 -3.27794,-3.71831 3.71831,3.27794 c 3.475321,3.06374 4.338375,4.15868 3.27794,4.15868 -0.242191,0 -1.91543,-1.67324 -3.71831,-3.71831 z m 42.693889,-3.04225 c 1.346015,-1.48732 2.751522,-2.70423 3.123353,-2.70423 0.371831,0 -0.425226,1.21691 -1.77124,2.70423 -1.346015,1.48732 -2.751522,2.70422 -3.123353,2.70422 -0.371831,0 0.425226,-1.2169 1.77124,-2.70422 z m 122.366193,-9.97529 c 0,-0.28077 1.06479,-1.34556 2.3662,-2.3662 2.14453,-1.68185 2.19235,-1.63403 0.5105,0.5105 -1.76636,2.25229 -2.8767,2.96854 -2.8767,1.8557 z m -187.3960629,-7.9402 -2.57576105,-3.04226 3.04225335,2.57576 c 1.6732394,1.41667 3.0422535,2.78568 3.0422535,3.04226 0,1.08203 -1.0881668,0.2832 -3.5087458,-2.57576 z m 86.6636719,-2.3662 c 1.346015,-1.48732 2.751522,-2.70423 3.123353,-2.70423 0.371831,0 -0.425226,1.21691 -1.77124,2.70423 -1.346015,1.48732 -2.751522,2.70422 -3.123353,2.70422 -0.371831,0 0.425226,-1.2169 1.77124,-2.70422 z m 111.549291,-1.86262 c 0,-0.28076 1.06479,-1.34555 2.3662,-2.36619 2.14453,-1.68186 2.19235,-1.63403 0.5105,0.5105 -1.76636,2.25228 -2.8767,2.96854 -2.8767,1.85569 z"
         id="path54" />
      <path
         style="fill:#ffffff;stroke-width:1.35211"
         d="m -3.4983216,463.30847 c 0.00102,-16.36056 0.1962659,-22.86768 0.4338767,-14.46027 0.2376095,8.40742 0.2367725,21.79333 -0.00189,29.74648 -0.2385979,7.95315 -0.433006,1.07436 -0.4319838,-15.28621 z M -118.89734,432.09721 c 0.0649,-1.57514 0.38528,-1.89553 0.81691,-0.81691 0.39058,0.97605 0.34255,2.14226 -0.10675,2.59156 -0.4493,0.44929 -0.76887,-0.34931 -0.71016,-1.77465 z M 62.17901,394.51628 c 0,-0.28077 1.064789,-1.34556 2.366198,-2.3662 2.144531,-1.68185 2.192355,-1.63403 0.510503,0.51051 -1.766359,2.25228 -2.876701,2.96853 -2.876701,1.85569 z M 7.92203,375.08312 c -1.6818523,-2.14453 -1.6340281,-2.19236 0.5105036,-0.5105 1.3014084,1.02064 2.3661974,2.08543 2.3661974,2.36619 0,1.11285 -1.1103416,0.39659 -2.876701,-1.85569 z m 75.890782,-0.84853 c 0,-0.28077 1.064789,-1.34556 2.366197,-2.3662 2.144532,-1.68185 2.192356,-1.63403 0.510504,0.51051 -1.766359,2.25228 -2.876701,2.96853 -2.876701,1.85569 z M -3.4983216,334.85777 c 0.00102,-16.36056 0.1962659,-22.86769 0.4338767,-14.46028 0.2376095,8.40742 0.2367725,21.79334 -0.00189,29.74648 -0.2385979,7.95315 -0.433006,1.07436 -0.4319838,-15.2862 z"
         id="path52" />
      <path
         style="fill:#ffffff;stroke-width:1.35211"
         d="m 96.605556,497.78735 c 0,-34.58029 0.175098,-48.72676 0.389111,-31.43662 0.214012,17.29014 0.214012,45.5831 0,62.87324 -0.214013,17.29014 -0.389111,3.14366 -0.389111,-31.43662 z m -18.37367,-79.43662 c -1.681852,-2.14454 -1.634028,-2.19236 0.510504,-0.51051 1.301408,1.02065 2.366197,2.08543 2.366197,2.3662 0,1.11284 -1.110341,0.39659 -2.876701,-1.85569 z m 18.37417,-118.64789 c -2.84e-4,-34.95211 0.17449,-49.44472 0.388381,-32.20578 0.21389,17.23893 0.214107,45.83612 5e-4,63.54929 -0.21362,17.71318 -0.388611,3.6086 -0.388881,-31.34351 z"
         id="path50" />
      <path
         style="fill:#ffffff;stroke-width:1.35211"
         d="m 227.45919,581.2803 c 0.17733,-84.21971 0.48093,-128.4845 0.67465,-98.36619 0.92751,144.19826 0.93475,251.49327 0.017,251.49312 -0.55775,-10e-5 -0.86899,-68.90721 -0.69165,-153.12693 z M 335.62905,398.74509 c 0.1778,-89.42535 0.48145,-136.42817 0.67476,-104.4507 0.92675,153.30065 0.93358,267.04254 0.0161,267.0424 -0.55775,-8e-5 -0.86861,-73.16634 -0.6908,-162.5917 z M -4.0745081,433.72755 c 0,-0.28077 1.0647887,-1.34556 2.3661971,-2.3662 2.14452629,-1.68185 2.19235052,-1.63403 0.5104968,0.5105 -1.766358,2.25229 -2.8766939,2.96854 -2.8766939,1.8557 z M 74.175549,414.29439 c -1.681853,-2.14453 -1.634029,-2.19236 0.510503,-0.5105 1.301409,1.02064 2.366197,2.08543 2.366197,2.36619 0,1.11285 -1.110341,0.39659 -2.8767,-1.85569 z m -56.616255,-0.84853 c 0,-0.28077 1.064789,-1.34556 2.366197,-2.3662 2.144532,-1.68185 2.192356,-1.63403 0.510504,0.5105 -1.76636,2.25229 -2.876701,2.96854 -2.876701,1.8557 z m -2.156633,-30.92612 -2.575761,-3.04225 3.042253,2.57576 c 2.858961,2.42058 3.657789,3.50874 2.575761,3.50874 -0.256577,0 -1.625591,-1.36901 -3.042253,-3.04225 z m 63.677757,-3.71831 c 1.346015,-1.48732 2.751522,-2.70422 3.123353,-2.70422 0.371831,0 -0.425226,1.2169 -1.77124,2.70422 -1.346015,1.48732 -2.751522,2.70423 -3.123353,2.70423 -0.371831,0 0.425226,-1.21691 1.77124,-2.70423 z M 227.79121,200.99861 c -5e-5,-89.23943 0.16168,-125.945637 0.35938,-81.56934 0.19771,44.37631 0.19775,117.39039 8e-5,162.25353 -0.19765,44.86313 -0.35942,8.55525 -0.35946,-80.68419 z"
         id="path48" />
      <path
         style="fill:#ffffff;stroke-width:1.35211"
         d="m 210.21207,584.99861 c 6e-5,-82.54647 0.16255,-116.11661 0.36111,-74.6003 0.19856,41.51631 0.19852,109.05434 -9e-5,150.08451 -0.19861,41.03017 -0.36107,7.06227 -0.36102,-75.48421 z m -328.31474,-74.59155 c -0.49578,-0.49577 -0.90141,-17.45788 -0.90141,-37.69359 0,-33.43184 0.21611,-36.96168 2.3662,-38.64789 2.11004,-1.6548 2.17864,-1.61562 0.63376,0.36197 -1.33502,1.70895 -1.64519,10.78154 -1.35211,39.55017 0.20917,20.53288 0.32961,37.33211 0.26764,37.33162 -0.062,-4.7e-4 -0.51831,-0.4065 -1.01408,-0.90228 z m 209.223638,-80.56338 -2.575761,-3.04225 3.042253,2.57576 c 2.858961,2.42058 3.657789,3.50875 2.575761,3.50875 -0.256577,0 -1.625591,-1.36902 -3.042253,-3.04226 z M 2.686055,426.80143 c 1.7465915,-1.85915 3.4798376,-3.38028 3.8516686,-3.38028 0.3718309,0 -0.7529645,1.52113 -2.499556,3.38028 -1.7465915,1.85916 -3.4798349,3.38028 -3.85166587,3.38028 -0.37183098,0 0.75296853,-1.52112 2.49955327,-3.38028 z M 227.72296,395.70284 c -8.3e-4,-18.59155 0.18961,-26.38472 0.42318,-17.31816 0.23358,9.06658 0.23426,24.27785 0.001,33.80282 -0.23261,9.52498 -0.42372,2.10689 -0.42454,-16.48466 z m -158.235794,13.85915 -2.575761,-3.04225 3.042253,2.57576 c 2.858961,2.42058 3.657789,3.50875 2.575761,3.50875 -0.256577,0 -1.625591,-1.36902 -3.042253,-3.04226 z m -45.167309,-3.04225 c 1.746591,-1.85915 3.479838,-3.38028 3.851669,-3.38028 0.371831,0 -0.752965,1.52113 -2.499556,3.38028 -1.746592,1.85916 -3.479838,3.38028 -3.851669,3.38028 -0.371831,0 0.752964,-1.52112 2.499556,-3.38028 z M 182.34456,404.8296 c -1.68185,-2.14453 -1.63403,-2.19236 0.5105,-0.5105 1.30141,1.02064 2.3662,2.08543 2.3662,2.36619 0,1.11285 -1.11034,0.39659 -2.8767,-1.85569 z m -161.533449,-16.90141 -2.575761,-3.04225 3.042254,2.57576 c 2.858961,2.42058 3.657789,3.50874 2.575761,3.50874 -0.256577,0 -1.625591,-1.36901 -3.042254,-3.04225 z m 52.1848,-3.04225 c 1.746592,-1.85916 3.479838,-3.38028 3.851669,-3.38028 0.371831,0 -0.752964,1.52112 -2.499556,3.38028 -1.746591,1.85915 -3.479838,3.38028 -3.851669,3.38028 -0.371831,0 0.752965,-1.52113 2.499556,-3.38028 z m 108.169009,2.86978 c 0,-0.28077 1.06479,-1.34556 2.3662,-2.3662 2.14453,-1.68185 2.19235,-1.63403 0.5105,0.5105 -1.76636,2.25228 -2.8767,2.96854 -2.8767,1.8557 z m -182.6375389,-20.78528 -3.2779455,-3.71831 3.7183097,3.27795 c 3.4753215,3.06373 4.338375,4.15867 3.2779401,4.15867 -0.2421904,0 -1.91543382,-1.67323 -3.7183043,-3.71831 z m 94.7502199,-0.84853 c 0,-0.28076 1.064788,-1.34555 2.366197,-2.36619 2.144532,-1.68186 2.192356,-1.63403 0.510503,0.5105 -1.766359,2.25228 -2.8767,2.96854 -2.8767,1.85569 z M 209.23236,197.61826 c -0.19201,-87.00848 0.10721,-158.197216 0.66495,-158.197178 0.55775,3.6e-5 1.01409,71.188798 1.01409,158.197248 0,87.00845 -0.29922,158.19719 -0.66496,158.19719 -0.36572,0 -0.82205,-71.18876 -1.01408,-158.19726 z"
         id="path46" />
      <path
         style="fill:#ffffff;stroke-width:1.35211"
         d="m 556.34114,413.2803 c 1.4e-4,-53.54366 0.16781,-75.251 0.37263,-48.23855 0.20482,27.01245 0.20472,70.8209 -2.3e-4,97.35211 -0.20494,26.53121 -0.37252,4.43011 -0.3724,-49.11356 z m -470.628623,11.15493 -2.575761,-3.04225 3.042253,2.57576 c 2.858962,2.42058 3.65779,3.50875 2.575762,3.50875 -0.256577,0 -1.625591,-1.36902 -3.042254,-3.04226 z M 8.7705618,420.71692 c 1.3460142,-1.48732 2.7515222,-2.70422 3.1233532,-2.70422 0.371831,0 -0.425226,1.2169 -1.771241,2.70422 -1.3460142,1.48733 -2.7515217,2.70423 -3.1233527,2.70423 -0.371831,0 0.4252259,-1.2169 1.7712405,-2.70423 z m 55.3081532,-16.56338 -2.575761,-3.04225 3.042254,2.57576 c 2.858961,2.42058 3.657789,3.50875 2.575761,3.50875 -0.256577,0 -1.625591,-1.36902 -3.042254,-3.04226 z m -35.70252,-1.52458 c 0,-0.28077 1.064789,-1.34556 2.366197,-2.3662 2.144532,-1.68185 2.192356,-1.63403 0.510504,0.5105 -1.76636,2.25228 -2.876701,2.96854 -2.876701,1.8557 z m -2.156633,-9.29232 -2.575761,-3.04225 3.042253,2.57576 c 2.858961,2.42058 3.657789,3.50875 2.575761,3.50875 -0.256577,0 -1.625591,-1.36902 -3.042253,-3.04226 z m 40.691843,-2.3662 c 1.346014,-1.48732 2.751522,-2.70422 3.123353,-2.70422 0.371831,0 -0.425226,1.2169 -1.771241,2.70422 -1.346014,1.48733 -2.751522,2.70423 -3.123353,2.70423 -0.371831,0 0.425226,-1.2169 1.771241,-2.70423 z M 189.2776,378.29093 c 0,-0.28077 1.06479,-1.34556 2.36619,-2.3662 2.14454,-1.68185 2.19236,-1.63403 0.51051,0.5105 -1.76636,2.25229 -2.8767,2.96854 -2.8767,1.8557 z m -184.6918403,-5.23598 -2.575761,-3.04225 3.0422534,2.57576 c 2.858961,2.42058 3.6577891,3.50875 2.575761,3.50875 -0.2565769,0 -1.6255909,-1.36902 -3.0422534,-3.04226 z m 85.3115593,-3.71831 c 1.346015,-1.48732 2.751522,-2.70422 3.123353,-2.70422 0.371831,0 -0.425226,1.2169 -1.77124,2.70422 -1.346015,1.48733 -2.751522,2.70423 -3.123353,2.70423 -0.371831,0 0.425226,-1.2169 1.77124,-2.70423 z"
         id="path44" />
      <path
         style="fill:#ffffff;stroke-width:1.35211"
         d="M 45.615631,621.29216 -117.65197,509.6199 v -36.86198 -36.86199 l 22.30986,-19.85057 c 12.270422,-10.91781 22.309858,-20.07194 22.309858,-20.34252 0,-0.27059 -10.047335,-9.43174 -22.32741,-20.35814 l -22.327408,-19.86619 0.35558,-46.0244 0.35558,-46.0244 160.9014,-110.08339 c 88.49577,-60.545869 161.96619,-110.664977 163.2676,-111.3758 2.24752,-1.227587 2.36355,6.626948 2.31325,156.61433 l -0.053,157.90672 -17.49075,19.47317 -17.49076,19.47315 3.68456,4.43835 c 2.02649,2.44109 9.92384,11.40858 17.54965,19.92775 l 13.8651,15.4894 -0.34398,148.83552 -0.34392,148.83552 z M 97.333939,498.01744 v -63.3192 L 78.74239,417.29329 c -10.225352,-9.57271 -18.726489,-17.73823 -18.891434,-18.14558 -0.16493,-0.40735 8.201267,-8.63217 18.591549,-18.27738 L 97.333939,363.3336 v -63.39666 c 0,-56.21514 -0.233213,-63.30717 -2.058714,-62.60665 -1.132299,0.4345 -23.9492,15.75928 -50.704223,34.05505 l -48.6455101,33.26507 v 30.0805 30.08051 l 18.2069941,16.79782 18.207008,16.79782 -18.237052,17.57747 -18.2370542,17.57746 0.030057,29.84931 0.030047,29.84931 49.6901392,34.00377 c 27.329576,18.70208 50.146477,34.01919 50.704223,34.03803 0.557747,0.0188 1.014085,-28.45941 1.014085,-63.28497 z M 228.48886,386.93421 c 0,-190.51247 0.49273,-346.183485 1.09496,-345.935597 0.60221,0.247887 71.03038,48.279873 156.50703,106.737747 85.47664,58.45787 157.54166,107.29968 160.14448,108.53735 2.60282,1.23767 6.03876,3.30145 7.63545,4.58619 l 2.90305,2.3359 -0.73228,123.37103 -0.73229,123.37105 -159.57362,109.19233 C 307.97014,679.186 234.43555,729.4471 232.32543,730.82153 l -3.83657,2.49898 z m 159.40431,139.81745 48.82104,-33.42902 v -94.36068 -94.36069 l -48.54089,-33.20034 c -26.69747,-18.26019 -49.51437,-33.57392 -50.70422,-34.0305 -1.97565,-0.75813 -2.16334,13.27176 -2.16334,161.71269 0,138.36498 0.28012,162.43535 1.88318,161.8202 1.03575,-0.39746 23.85265,-15.7657 50.70423,-34.15166 z"
         id="path42" />
    </g>
    <g
       aria-label="Gate Out"
       transform="translate(100.63906,43.826687)"
       id="text93"
       style="font-size:3.52778px;line-height:1.25;font-family:Arial;-inkscape-font-specification:Arial;text-align:center;text-anchor:middle;white-space:pre;shape-inside:url(#rect95)">
      <path
         d="m -26.31261,63.706729 v -0.296278 l 1.069703,-0.0017 v 0.937067 q -0.246325,0.19637 -0.508152,0.296278 -0.261828,0.09819 -0.537435,0.09819 -0.372071,0 -0.676962,-0.158474 -0.303169,-0.160197 -0.458198,-0.461643 -0.155029,-0.301446 -0.155029,-0.673517 0,-0.368625 0.153306,-0.687297 0.15503,-0.320394 0.444418,-0.475423 0.289388,-0.15503 0.666626,-0.15503 0.273886,0 0.494372,0.08957 0.222209,0.08785 0.347955,0.246324 0.125746,0.158475 0.191203,0.413412 l -0.301446,0.08268 q -0.05684,-0.192925 -0.141249,-0.303168 -0.08441,-0.110243 -0.241157,-0.1757 -0.156752,-0.06718 -0.347955,-0.06718 -0.229099,0 -0.396186,0.07062 -0.167088,0.0689 -0.27044,0.18259 -0.101631,0.113688 -0.158475,0.24977 -0.09646,0.234266 -0.09646,0.508152 0,0.337619 0.115411,0.564996 0.117133,0.227376 0.339342,0.337619 0.222209,0.110243 0.471979,0.110243 0.217041,0 0.423747,-0.08268 0.206705,-0.0844 0.313504,-0.179145 v -0.470256 z"
         style="text-align:center;text-anchor:middle;fill:#ffffff"
         id="path114" />
      <path
         d="m -23.597873,64.471541 q -0.172255,0.146416 -0.332452,0.206706 -0.158474,0.06029 -0.341065,0.06029 -0.301446,0 -0.463365,-0.146417 -0.16192,-0.148139 -0.16192,-0.377238 0,-0.134359 0.06029,-0.244602 0.06201,-0.111966 0.160197,-0.179145 0.09991,-0.06718 0.223932,-0.10163 0.09129,-0.02412 0.275608,-0.04651 0.375515,-0.04479 0.552938,-0.106798 0.0017,-0.06373 0.0017,-0.08096 0,-0.18948 -0.08785,-0.266995 -0.118855,-0.105076 -0.353122,-0.105076 -0.218764,0 -0.323839,0.07751 -0.103353,0.07579 -0.153307,0.27044 l -0.303169,-0.04134 q 0.04134,-0.194648 0.136082,-0.313504 0.09474,-0.120578 0.273885,-0.184312 0.179145,-0.06546 0.415134,-0.06546 0.234267,0 0.380683,0.05512 0.146417,0.05512 0.215319,0.139527 0.0689,0.08268 0.09646,0.210151 0.0155,0.07924 0.0155,0.285943 v 0.413411 q 0,0.43236 0.01895,0.547771 0.02067,0.113688 0.07924,0.218764 h -0.323839 q -0.04823,-0.09646 -0.06201,-0.225654 z m -0.02584,-0.692465 q -0.16881,0.0689 -0.50643,0.117134 -0.191202,0.02756 -0.27044,0.06201 -0.07924,0.03445 -0.122301,0.101631 -0.04306,0.06546 -0.04306,0.146416 0,0.124024 0.09302,0.206706 0.09474,0.08268 0.275608,0.08268 0.179145,0 0.318672,-0.07751 0.139526,-0.07924 0.204983,-0.215319 0.04995,-0.105075 0.04995,-0.310059 z"
         style="text-align:center;text-anchor:middle;fill:#ffffff"
         id="path116" />
      <path
         d="m -22.150932,64.419864 0.04479,0.273886 q -0.130913,0.02756 -0.234266,0.02756 -0.16881,0 -0.261828,-0.0534 -0.09302,-0.0534 -0.130913,-0.139526 -0.0379,-0.08785 -0.0379,-0.366903 v -1.052477 h -0.227377 v -0.241157 h 0.227377 v -0.45303 l 0.308336,-0.186036 v 0.639066 h 0.311781 v 0.241157 h -0.311781 v 1.069703 q 0,0.132636 0.0155,0.170532 0.01722,0.0379 0.0534,0.06029 0.0379,0.02239 0.106798,0.02239 0.05168,0 0.136081,-0.01206 z"
         style="text-align:center;text-anchor:middle;fill:#ffffff"
         id="path118" />
      <path
         d="m -20.597193,64.108083 0.320394,0.03962 q -0.07579,0.280775 -0.280775,0.435805 -0.204984,0.155029 -0.523655,0.155029 -0.401354,0 -0.637343,-0.246325 -0.234267,-0.248047 -0.234267,-0.694187 0,-0.461643 0.237712,-0.71658 0.237711,-0.254937 0.616672,-0.254937 0.366903,0 0.599447,0.249769 0.232544,0.24977 0.232544,0.7028 0,0.02756 -0.0017,0.08268 h -1.364259 q 0.01723,0.301446 0.170532,0.461643 0.153307,0.160197 0.382406,0.160197 0.170533,0 0.291111,-0.08957 0.120578,-0.08957 0.191203,-0.285943 z m -1.018026,-0.501262 h 1.021471 q -0.02067,-0.230821 -0.117133,-0.346232 -0.14814,-0.179145 -0.384129,-0.179145 -0.213596,0 -0.360012,0.142971 -0.144695,0.142972 -0.160197,0.382406 z"
         style="text-align:center;text-anchor:middle;fill:#ffffff"
         id="path120" />
      <path
         d="m -26.614056,67.877024 q 0,-0.62873 0.337619,-0.983576 0.33762,-0.356567 0.87161,-0.356567 0.349678,0 0.630453,0.167087 0.280776,0.167087 0.427192,0.466811 0.148139,0.298001 0.148139,0.676962 0,0.384128 -0.155029,0.687297 -0.155029,0.303168 -0.43925,0.45992 -0.284221,0.155029 -0.613227,0.155029 -0.356568,0 -0.637343,-0.172254 -0.280776,-0.172255 -0.42547,-0.470256 -0.144694,-0.298001 -0.144694,-0.630453 z m 0.34451,0.0052 q 0,0.456475 0.244602,0.720025 0.246324,0.261827 0.616672,0.261827 0.377238,0 0.620118,-0.265272 0.244602,-0.265273 0.244602,-0.752754 0,-0.308336 -0.105076,-0.537435 -0.103353,-0.230822 -0.304891,-0.356568 -0.199816,-0.127468 -0.449585,-0.127468 -0.354845,0 -0.611505,0.244601 -0.254937,0.24288 -0.254937,0.813044 z"
         style="text-align:center;text-anchor:middle;fill:#ffffff"
         id="path122" />
      <path
         d="m -22.610852,69.106924 v -0.268718 q -0.213596,0.310059 -0.580499,0.310059 -0.16192,0 -0.303169,-0.06201 -0.139526,-0.06201 -0.208428,-0.155029 -0.06718,-0.09474 -0.09474,-0.230822 -0.01895,-0.0913 -0.01895,-0.289388 v -1.133437 h 0.310059 v 1.014581 q 0,0.24288 0.01895,0.327284 0.02928,0.122301 0.124024,0.192926 0.09474,0.0689 0.234266,0.0689 0.139527,0 0.261828,-0.07063 0.122301,-0.07235 0.172255,-0.194648 0.05168,-0.124023 0.05168,-0.35829 v -0.98013 h 0.310059 v 1.829347 z"
         style="text-align:center;text-anchor:middle;fill:#ffffff"
         id="path124" />
      <path
         d="m -21.169079,68.829593 0.04479,0.273886 q -0.130913,0.02756 -0.234266,0.02756 -0.16881,0 -0.261828,-0.0534 -0.09302,-0.0534 -0.130913,-0.139526 -0.0379,-0.08785 -0.0379,-0.366903 v -1.052477 h -0.227376 v -0.241157 h 0.227376 v -0.45303 l 0.308337,-0.186036 v 0.639066 h 0.311781 v 0.241157 h -0.311781 v 1.069703 q 0,0.132636 0.0155,0.170532 0.01722,0.0379 0.0534,0.06029 0.0379,0.02239 0.106798,0.02239 0.05168,0 0.136081,-0.01206 z"
         style="text-align:center;text-anchor:middle;fill:#ffffff"
         id="path126" />
    </g>
  </g>
  <g
     style="display:none;opacity:0.961"
     inkscape:label="components"
     id="layer3"
     inkscape:groupmode="layer">
    <ellipse
       inkscape:label="step1"
       ry="2.2266915"
       rx="2.3576734"
       cy="33.400372"
       cx="20.433168"
       id="path252"
       style="fill:#ff0000;fill-rule:evenodd;stroke-width:0.264583" />
    <ellipse
       inkscape:label="step2"
       style="fill:#ff0000;fill-rule:evenodd;stroke-width:0.264583"
       id="ellipse254"
       cx="40.49435"
       cy="33.400372"
       rx="2.3576734"
       ry="2.2266915" />
    <ellipse
       inkscape:label="step3"
       ry="2.2266915"
       rx="2.3576734"
       cy="33.400372"
       cx="60.555531"
       id="ellipse256"
       style="fill:#ff0000;fill-rule:evenodd;stroke-width:0.264583" />
    <ellipse
       inkscape:label="step4"
       style="fill:#ff0000;fill-rule:evenodd;stroke-width:0.264583"
       id="ellipse258"
       cx="80.616707"
       cy="33.400372"
       rx="2.3576734"
       ry="2.2266915" />
    <ellipse
       inkscape:label="step5"
       style="fill:#ff0000;fill-rule:evenodd;stroke-width:0.264583"
       id="ellipse260"
       cx="20.433168"
       cy="53.199589"
       rx="2.3576734"
       ry="2.2266915" />
    <ellipse
       inkscape:label="step6"
       ry="2.2266915"
       rx="2.3576734"
       cy="53.199589"
       cx="40.49435"
       id="ellipse262"
       style="fill:#ff0000;fill-rule:evenodd;stroke-width:0.264583" />
    <ellipse
       inkscape:label="step7"
       style="fill:#ff0000;fill-rule:evenodd;stroke-width:0.264583"
       id="ellipse264"
       cx="60.555531"
       cy="53.199589"
       rx="2.3576734"
       ry="2.2266915" />
    <ellipse
       inkscape:label="step8"
       ry="2.2266915"
       rx="2.3576734"
       cy="53.199589"
       cx="80.616707"
       id="ellipse266"
       style="fill:#ff0000;fill-rule:evenodd;stroke-width:0.264583" />
    <ellipse
       inkscape:label="step9"
       style="fill:#ff0000;fill-rule:evenodd;stroke-width:0.264583"
       id="ellipse268"
       cx="20.433168"
       cy="72.998802"
       rx="2.3576734"
       ry="2.2266915" />
    <ellipse
       inkscape:label="step10"
       ry="2.2266915"
       rx="2.3576734"
       cy="72.998802"
       cx="40.49435"
       id="ellipse270"
       style="fill:#ff0000;fill-rule:evenodd;stroke-width:0.264583" />
    <ellipse
       inkscape:label="step11"
       style="fill:#ff0000;fill-rule:evenodd;stroke-width:0.264583"
       id="ellipse272"
       cx="60.555531"
       cy="72.998802"
       rx="2.3576734"
       ry="2.2266915" />
    <ellipse
       inkscape:label="step12"
       ry="2.2266915"
       rx="2.3576734"
       cy="72.998802"
       cx="80.616707"
       id="ellipse274"
       style="fill:#ff0000;fill-rule:evenodd;stroke-width:0.264583" />
    <ellipse
       inkscape:label="step13"
       ry="2.2266915"
       rx="2.3576734"
       cy="92.798019"
       cx="20.433168"
       id="ellipse276"
       style="fill:#ff0000;fill-rule:evenodd;stroke-width:0.264583" />
    <ellipse
       inkscape:label="step14"
       style="fill:#ff0000;fill-rule:evenodd;stroke-width:0.264583"
       id="ellipse278"
       cx="40.49435"
       cy="92.798019"
       rx="2.3576734"
       ry="2.2266915" />
    <ellipse
       inkscape:label="step15"
       ry="2.2266915"
       rx="2.3576734"
       cy="92.798019"
       cx="60.555531"
       id="ellipse280"
       style="fill:#ff0000;fill-rule:evenodd;stroke-width:0.264583" />
    <ellipse
       inkscape:label="step16"
       style="fill:#ff0000;fill-rule:evenodd;stroke-width:0.264583"
       id="ellipse282"
       cx="80.616707"
       cy="92.798019"
       rx="2.3576734"
       ry="2.2266915" />
    <ellipse
       inkscape:label="gate"
       style="fill:#00ff00;fill-rule:evenodd;stroke-width:0.264583"
       id="ellipse290"
       cx="11.526402"
       cy="119.25636"
       rx="2.3576734"
       ry="2.2266915" />
    <ellipse
       inkscape:label="voct"
       ry="2.2266915"
       rx="2.3576734"
       cy="119.25636"
       cx="29.077971"
       id="ellipse314"
       style="fill:#00ff00;fill-rule:evenodd;stroke-width:0.264583" />
    <ellipse
       inkscape:label="clock"
       style="fill:#00ff00;fill-rule:evenodd;stroke-width:0.264583"
       id="ellipse320"
       cx="46.284004"
       cy="119.41869"
       rx="2.3576734"
       ry="2.2266915" />
    <ellipse
       inkscape:label="out"
       ry="2.2266915"
       rx="2.3576734"
       cy="119.581"
       cx="87.817299"
       id="ellipse336"
       style="fill:#0000ff;fill-rule:evenodd;stroke-width:0.264583" />
    <ellipse
       ry="2.2266915"
       rx="2.3576734"
       cy="119.41867"
       cx="63.897636"
       id="ellipse338"
       style="fill:#ff0000;fill-rule:evenodd;stroke-width:0.264583"
       inkscape:label="steps" />
    <ellipse
       style="fill:#0000ff;fill-rule:evenodd;stroke-width:0.264583"
       id="ellipse85"
       cx="76.941788"
       cy="119.41868"
       rx="2.3576734"
       ry="2.2266915"
       inkscape:label="gateout" />
    <ellipse
       style="fill:#ff00ff;fill-rule:evenodd;stroke-width:0.264583"
       id="ellipse95"
       cx="20.433168"
       cy="24.148071"
       rx="2.3576734"
       ry="2.2266915"
       inkscape:label="light1" />
    <ellipse
       ry="2.2266915"
       rx="2.3576734"
       cy="24.148071"
       cx="40.49435"
       id="ellipse97"
       style="fill:#ff00ff;fill-rule:evenodd;stroke-width:0.264583"
       inkscape:label="light2" />
    <ellipse
       style="fill:#ff00ff;fill-rule:evenodd;stroke-width:0.264583"
       id="ellipse99"
       cx="60.555531"
       cy="24.148071"
       rx="2.3576734"
       ry="2.2266915"
       inkscape:label="light3" />
    <ellipse
       ry="2.2266915"
       rx="2.3576734"
       cy="24.148071"
       cx="80.616707"
       id="ellipse101"
       style="fill:#ff00ff;fill-rule:evenodd;stroke-width:0.264583"
       inkscape:label="light4" />
    <ellipse
       ry="2.2266915"
       rx="2.3576734"
       cy="43.947289"
       cx="20.433168"
       id="ellipse103"
       style="fill:#ff00ff;fill-rule:evenodd;stroke-width:0.264583"
       inkscape:label="light5" />
    <ellipse
       style="fill:#ff00ff;fill-rule:evenodd;stroke-width:0.264583"
       id="ellipse105"
       cx="40.49435"
       cy="43.947289"
       rx="2.3576734"
       ry="2.2266915"
       inkscape:label="light6" />
    <ellipse
       ry="2.2266915"
       rx="2.3576734"
       cy="43.947289"
       cx="60.555531"
       id="ellipse107"
       style="fill:#ff00ff;fill-rule:evenodd;stroke-width:0.264583"
       inkscape:label="light7" />
    <ellipse
       style="fill:#ff00ff;fill-rule:evenodd;stroke-width:0.264583"
       id="ellipse109"
       cx="80.616707"
       cy="43.947289"
       rx="2.3576734"
       ry="2.2266915"
       inkscape:label="light8" />
    <ellipse
       ry="2.2266915"
       rx="2.3576734"
       cy="63.746502"
       cx="20.433168"
       id="ellipse111"
       style="fill:#ff00ff;fill-rule:evenodd;stroke-width:0.264583"
       inkscape:label="light9" />
    <ellipse
       style="fill:#ff00ff;fill-rule:evenodd;stroke-width:0.264583"
       id="ellipse113"
       cx="40.49435"
       cy="63.746502"
       rx="2.3576734"
       ry="2.2266915"
       inkscape:label="light10" />
    <ellipse
       ry="2.2266915"
       rx="2.3576734"
       cy="63.746502"
       cx="60.555531"
       id="ellipse115"
       style="fill:#ff00ff;fill-rule:evenodd;stroke-width:0.264583"
       inkscape:label="light11" />
    <ellipse
       style="fill:#ff00ff;fill-rule:evenodd;stroke-width:0.264583"
       id="ellipse117"
       cx="80.616707"
       cy="63.746502"
       rx="2.3576734"
       ry="2.2266915"
       inkscape:label="light12" />
    <ellipse
       style="fill:#ff00ff;fill-rule:evenodd;stroke-width:0.264583"
       id="ellipse119"
       cx="20.433168"
       cy="83.545715"
       rx="2.3576734"
       ry="2.2266915"
       inkscape:label="light13" />
    <ellipse
       ry="2.2266915"
       rx="2.3576734"
       cy="83.545715"
       cx="40.49435"
       id="ellipse121"
       style="fill:#ff00ff;fill-rule:evenodd;stroke-width:0.264583"
       inkscape:label="light14" />
    <ellipse
       style="fill:#ff00ff;fill-rule:evenodd;stroke-width:0.264583"
       id="ellipse123"
       cx="60.555531"
       cy="83.545715"
       rx="2.3576734"
       ry="2.2266915"
       inkscape:label="light15" />
    <ellipse
       ry="2.2266915"
       rx="2.3576734"
       cy="83.545715"
       cx="80.616707"
       id="ellipse125"
       style="fill:#ff00ff;fill-rule:evenodd;stroke-width:0.264583"
       inkscape:label="light16" />
  </g>
</svg>
