<?xml version="1.0" encoding="UTF-8" standalone="no"?>
<svg
   xmlns:dc="http://purl.org/dc/elements/1.1/"
   xmlns:cc="http://creativecommons.org/ns#"
   xmlns:rdf="http://www.w3.org/1999/02/22-rdf-syntax-ns#"
   xmlns:svg="http://www.w3.org/2000/svg"
   xmlns="http://www.w3.org/2000/svg"
   xmlns:sodipodi="http://sodipodi.sourceforge.net/DTD/sodipodi-0.dtd"
   xmlns:inkscape="http://www.inkscape.org/namespaces/inkscape"
   sodipodi:docname="blank.svg"
   inkscape:version="1.0 (4035a4fb49, 2020-05-01)"
   id="svg39"
   version="1.1"
   viewBox="0 0 40.639999 128.5"
   height="128.5mm"
   width="40.639999mm">
  <defs
     id="defs33" />
  <sodipodi:namedview
     inkscape:window-maximized="1"
     inkscape:window-y="-8"
     inkscape:window-x="-8"
     inkscape:window-height="837"
     inkscape:window-width="1600"
     showgrid="false"
     inkscape:document-rotation="0"
     inkscape:current-layer="layer2"
     inkscape:document-units="mm"
     inkscape:cy="217.14286"
     inkscape:cx="400"
     inkscape:zoom="1.01"
     inkscape:pageshadow="2"
     inkscape:pageopacity="0.0"
     borderopacity="1.0"
     bordercolor="#666666"
     pagecolor="#ffffff"
     id="base" />
  <metadata
     id="metadata36">
    <rdf:RDF>
      <cc:Work
         rdf:about="">
        <dc:format>image/svg+xml</dc:format>
        <dc:type
           rdf:resource="http://purl.org/dc/dcmitype/StillImage" />
        <dc:title></dc:title>
      </cc:Work>
    </rdf:RDF>
  </metadata>
  <g
     id="layer1"
     inkscape:groupmode="layer"
     inkscape:label="Layer 1">
    <rect
       y="0"
       x="0"
       height="129.1481"
       width="41.390263"
       id="rect41"
       style="fill:#000000;fill-rule:evenodd;stroke-width:0.264583" />
    <g
       id="g22"
       transform="matrix(0.19876877,0,0,0.37183058,3.3653156,2.0303489)"
       style="display:inline;fill:#ffffff">
      <path
         style="fill:#ffffff;fill-opacity:1;stroke-width:1.33333"
         d="m 26.416667,240.42252 c 0.9625,-0.38516 2.1125,-0.3378 2.555556,0.1052 0.443055,0.44306 -0.344445,0.75819 -1.75,0.7003 -1.553257,-0.064 -1.8692,-0.37992 -0.805556,-0.80555 z m 117.333333,0 c 0.9625,-0.38516 2.1125,-0.3378 2.55556,0.1052 0.44306,0.44306 -0.34445,0.75819 -1.75,0.7003 -1.55326,-0.064 -1.8692,-0.37992 -0.80556,-0.80555 z M 84.80401,229.55556 c -0.377688,-0.61112 0.160509,-1.11112 1.195992,-1.11112 1.035482,0 1.57368,0.5 1.195992,1.11112 -0.377687,0.61111 -0.915884,1.11111 -1.195992,1.11111 -0.280108,0 -0.818306,-0.5 -1.195992,-1.11111 z M 12.105263,225.8889 c 0.06398,-1.55327 0.379921,-1.8692 0.805556,-0.80556 0.385161,0.96249 0.337792,2.11249 -0.105263,2.55556 -0.443055,0.44305 -0.758187,-0.34446 -0.700293,-1.75 z m 146.666677,0 c 0.064,-1.55327 0.37992,-1.8692 0.80554,-0.80556 0.38516,0.96249 0.3378,2.11249 -0.1052,2.55556 -0.44306,0.44305 -0.75818,-0.34446 -0.70029,-1.75 z M 23.390274,168.09214 c -0.421908,-0.68267 -0.257318,-1.55627 0.365754,-1.94135 0.623074,-0.38508 1.132862,0.17345 1.132862,1.2412 0,2.24823 -0.42045,2.44465 -1.498616,0.70015 z m 123.720836,-0.70015 c 0,-1.06775 0.50979,-1.62628 1.13287,-1.2412 0.62306,0.38508 0.78766,1.25868 0.36574,1.94135 -1.07816,1.7445 -1.49861,1.54808 -1.49861,-0.70015 z M 12.105263,108.55556 c 0.06398,-1.55326 0.379921,-1.8692 0.805556,-0.80556 0.385161,0.9625 0.337792,2.1125 -0.105263,2.55556 -0.443055,0.44305 -0.758187,-0.34445 -0.700293,-1.75 z m 146.666677,0 c 0.064,-1.55326 0.37992,-1.8692 0.80554,-0.80556 0.38516,0.9625 0.3378,2.1125 -0.1052,2.55556 -0.44306,0.44305 -0.75818,-0.34445 -0.70029,-1.75 z m -73.954489,-3.4662 c 0.38508,-0.62307 1.258687,-0.78766 1.941348,-0.36575 1.744509,1.07817 1.548077,1.49861 -0.700145,1.49861 -1.067743,0 -1.626283,-0.50978 -1.241203,-1.13286 z M 26.416667,93.75585 c 0.9625,-0.385161 2.1125,-0.337792 2.555556,0.105267 0.443055,0.443056 -0.344445,0.758188 -1.75,0.700293 -1.553257,-0.06397 -1.8692,-0.379921 -0.805556,-0.805556 z m 117.333333,0 c 0.9625,-0.385161 2.1125,-0.337792 2.55556,0.105267 0.44306,0.443056 -0.34445,0.758188 -1.75,0.700293 -1.55326,-0.06397 -1.8692,-0.379921 -0.80556,-0.805556 z"
         id="path36" />
      <path
         style="fill:#ffffff;fill-opacity:1;stroke-width:1.33333"
         d="m 37.083334,289.75586 c 0.9625,-0.38516 2.1125,-0.3378 2.555556,0.1052 0.443055,0.44305 -0.344445,0.75819 -1.75,0.70029 -1.553257,-0.064 -1.8692,-0.37992 -0.805556,-0.80554 z m 96.000006,0 c 0.96249,-0.38516 2.11249,-0.3378 2.55556,0.1052 0.44305,0.44305 -0.34446,0.75819 -1.75,0.70029 -1.55327,-0.064 -1.86921,-0.37992 -0.80556,-0.80554 z M 37.083334,44.422516 c 0.9625,-0.385162 2.1125,-0.337792 2.555556,0.105266 0.443055,0.443056 -0.344445,0.758188 -1.75,0.700294 -1.553257,-0.06397 -1.8692,-0.379922 -0.805556,-0.805556 z m 96.000006,0 c 0.96249,-0.385162 2.11249,-0.337792 2.55556,0.105266 0.44305,0.443056 -0.34446,0.758188 -1.75,0.700294 -1.55327,-0.06397 -1.86921,-0.379922 -0.80556,-0.805556 z"
         id="path34" />
      <path
         style="fill:#ffffff;fill-opacity:1;stroke-width:1.33333"
         d="m 48.000001,234.66667 c -1.201723,-0.77661 -1.366177,-1.30065 -0.412023,-1.31292 0.873388,-0.0107 1.958798,0.57959 2.412023,1.31292 1.023073,1.65537 0.561497,1.65537 -2,0 z m 74.311109,-0.16545 c 0.90445,-0.91123 1.98032,-1.3209 2.39084,-0.91038 0.41052,0.41052 -0.32948,1.15607 -1.64444,1.65678 -1.90027,0.72357 -2.05342,0.57042 -0.7464,-0.7464 z M 18.085724,204.39084 c -0.72358,-1.90026 -0.570428,-2.05341 0.746394,-0.7464 0.911224,0.90446 1.320894,1.98032 0.910378,2.39084 -0.410516,0.41052 -1.156064,-0.32948 -1.656772,-1.64444 z M 152,205.41203 c 0,-0.69005 0.59314,-1.62123 1.31807,-2.06925 0.75581,-0.46712 0.97933,0.0681 0.52401,1.25464 C 152.9557,206.90731 152,207.32994 152,205.41203 Z M 18.085724,130.27583 c 0.500708,-1.31496 1.246256,-2.05496 1.656772,-1.64444 0.410516,0.41051 8.46e-4,1.48639 -0.910378,2.39084 -1.316822,1.30702 -1.469974,1.15387 -0.746394,-0.7464 z m 134.526116,0.30213 c -0.48337,-0.78212 -0.5929,-1.708 -0.2434,-2.0575 0.3495,-0.34951 0.99075,0.29041 1.425,1.42204 0.90158,2.34947 0.1332,2.76274 -1.1816,0.63546 z M 46.666668,100.80932 c 0,-0.28821 0.931162,-0.881335 2.06925,-1.318061 1.186567,-0.455328 1.721763,-0.231798 1.254644,0.524011 -0.78301,1.26694 -3.323894,1.87393 -3.323894,0.79405 z m 75.342772,-0.79405 c -0.46712,-0.755809 0.0681,-0.979339 1.25465,-0.524011 2.30988,0.886391 2.73251,1.842081 0.8146,1.842081 -0.69005,0 -1.62122,-0.59313 -2.06925,-1.31807 z"
         id="path32" />
      <path
         style="fill:#ffffff;fill-opacity:1;stroke-width:1.33333"
         d="m 23.206651,229 -2.539984,-3 3,2.53999 c 2.81926,2.38696 3.606988,3.46001 2.539984,3.46001 -0.253009,0 -1.603009,-1.35 -3,-3 z m 124.126689,0.33334 c 1.32732,-1.46667 2.7133,-2.66667 3.07997,-2.66667 0.36667,0 -0.41932,1.2 -1.74664,2.66667 C 147.33935,230.8 145.95336,232 145.5867,232 c -0.36667,0 0.41932,-1.2 1.74664,-2.66666 z m -124.000006,-124 c 1.327314,-1.46667 2.7133,-2.66667 3.079967,-2.66667 0.366666,0 -0.419319,1.2 -1.746634,2.66667 C 23.339352,106.8 21.953367,108 21.5867,108 c -0.366666,0 0.419319,-1.2 1.746634,-2.66666 z M 147.20666,105 l -2.53999,-3 3,2.53999 c 2.81925,2.38695 3.60699,3.46001 2.53999,3.46001 -0.25302,0 -1.60302,-1.35 -3,-3 z"
         id="path30" />
      <path
         style="fill:#ffffff;fill-opacity:1;stroke-width:1.33333"
         d="m 49.000001,217.78363 c 0.916667,-0.36988 2.416667,-0.36988 3.333333,0 0.916667,0.36988 0.166667,0.67252 -1.666666,0.67252 -1.833334,0 -2.583334,-0.30264 -1.666667,-0.67252 z m 70.666669,0 c 0.91667,-0.36988 2.41667,-0.36988 3.33333,0 0.91667,0.36988 0.16667,0.67252 -1.66666,0.67252 -1.83334,0 -2.58334,-0.30264 -1.66667,-0.67252 z M 34.877194,202.66667 c 0,-1.83333 0.302631,-2.58333 0.672515,-1.66667 0.369882,0.91667 0.369882,2.41667 0,3.33334 -0.369884,0.91666 -0.672515,0.16666 -0.672515,-1.66667 z m 101.333326,0 c 0,-1.83333 0.30264,-2.58333 0.67252,-1.66667 0.36988,0.91667 0.36988,2.41667 0,3.33334 -0.36988,0.91666 -0.67252,0.16666 -0.67252,-1.66667 z M 34.877194,132 c 0,-1.83333 0.302631,-2.58333 0.672515,-1.66666 0.369882,0.91666 0.369882,2.41666 0,3.33333 -0.369884,0.91667 -0.672515,0.16667 -0.672515,-1.66667 z m 101.333326,0 c 0,-1.83333 0.30264,-2.58333 0.67252,-1.66666 0.36988,0.91666 0.36988,2.41666 0,3.33333 -0.36988,0.91667 -0.67252,0.16667 -0.67252,-1.66667 z M 49.000001,116.45029 c 0.916667,-0.36988 2.416667,-0.36988 3.333333,0 0.916667,0.36989 0.166667,0.67252 -1.666666,0.67252 -1.833334,0 -2.583334,-0.30263 -1.666667,-0.67252 z m 70.666669,0 c 0.91667,-0.36988 2.41667,-0.36988 3.33333,0 0.91667,0.36989 0.16667,0.67252 -1.66666,0.67252 -1.83334,0 -2.58334,-0.30263 -1.66667,-0.67252 z"
         id="path28" />
      <path
         style="fill:#ffffff;fill-opacity:1;stroke-width:1.33333"
         d="m 79.587979,316.41203 c -1.462093,-2.36572 1.16398,-3.95274 6.662376,-4.02632 5.356133,-0.0716 8.694823,2.46075 5.691415,4.31695 -0.701306,0.43344 -1.275102,0.11724 -1.275102,-0.70265 0,-0.8199 -0.558541,-1.14552 -1.241202,-0.72362 -0.682662,0.42192 -1.636078,0.12814 -2.118703,-0.65272 -0.610205,-0.98733 -1.450564,-0.94422 -2.758799,0.14152 -1.034712,0.85874 -1.890484,1.03787 -1.901713,0.39807 -0.0112,-0.63979 -0.536229,-0.3492 -1.166667,0.64576 -0.630437,0.99496 -1.48166,1.26632 -1.891605,0.60301 z m -9.254644,-22.6284 c 0.916666,-0.36988 2.416666,-0.36988 3.333333,0 0.916667,0.36988 0.166667,0.67252 -1.666667,0.67252 -1.833333,0 -2.583333,-0.30264 -1.666666,-0.67252 z m 28,0 c 0.916667,-0.36988 2.416665,-0.36988 3.333335,0 0.91667,0.36988 0.16667,0.67252 -1.66667,0.67252 -1.833331,0 -2.583331,-0.30264 -1.666665,-0.67252 z M 66.666668,257.33334 c -1.617279,-1.04516 -1.425917,-1.2964 1,-1.31292 1.65,-0.0112 3,0.57959 3,1.31292 0,1.67056 -1.414988,1.67056 -4,0 z m 13.083334,0.42252 c 0.9625,-0.38516 2.1125,-0.3378 2.555556,0.1052 0.443054,0.44305 -0.344446,0.75819 -1.75,0.70029 -1.553258,-0.064 -1.8692,-0.37992 -0.805556,-0.80554 z m 10.666666,0 c 0.9625,-0.38516 2.1125,-0.3378 2.555556,0.1052 0.443055,0.44305 -0.344445,0.75819 -1.75,0.70029 -1.553257,-0.064 -1.8692,-0.37992 -0.805556,-0.80554 z m 10.916672,-0.42252 c 0,-0.73333 1.35,-1.32415 3,-1.31292 2.42591,0.0165 2.61727,0.26776 1,1.31292 -2.58502,1.67056 -4,1.67056 -4,0 z M 41.083334,232.42252 c 0.9625,-0.38516 2.1125,-0.3378 2.555556,0.1052 0.443055,0.44306 -0.344445,0.75819 -1.75,0.7003 -1.553257,-0.064 -1.8692,-0.37992 -0.805556,-0.80555 z m 88.000006,0 c 0.9625,-0.38516 2.1125,-0.3378 2.55555,0.1052 0.44306,0.44306 -0.34444,0.75819 -1.75,0.7003 -1.55326,-0.064 -1.8692,-0.37992 -0.80555,-0.80555 z m -49.083338,-3.08918 c 0,-3.09975 1.683822,-3.4575 3.870772,-0.82238 1.18471,1.42748 1.046298,2.03014 -0.612458,2.66667 -3.096973,1.18841 -3.258314,1.09709 -3.258314,-1.84429 z m 8.277682,1.76508 c -1.322566,-0.53067 -1.362041,-1.12518 -0.170073,-2.56142 2.20688,-2.65912 3.892391,-2.31429 3.892391,0.79634 0,2.70588 -0.6314,3.00528 -3.722318,1.76508 z M 20.105263,211.22223 c 0.06397,-1.55327 0.379921,-1.8692 0.805556,-0.80556 0.385161,0.96249 0.337792,2.11249 -0.105267,2.55556 -0.443056,0.44305 -0.758188,-0.34445 -0.700293,-1.75 z m 130.666677,0 c 0.064,-1.55327 0.37992,-1.8692 0.80554,-0.80556 0.38516,0.96249 0.3378,2.11249 -0.1052,2.55556 -0.44306,0.44305 -0.75818,-0.34445 -0.70029,-1.75 z M 21.857348,171.22428 c 0.445126,-1.15997 0.809319,-2.43344 0.809319,-2.82992 0,-0.39648 0.9,0.026 2,0.93898 2.819276,2.33978 2.483367,4 -0.809319,4 -2.01394,0 -2.580182,-0.59712 -2,-2.10906 z m 123.475992,0.93898 c 0,-0.64354 0.82993,-1.85886 1.84429,-2.7007 1.42748,-1.1847 2.03013,-1.04629 2.66667,0.61246 1.18841,3.09697 1.09709,3.25832 -1.8443,3.25832 -1.46666,0 -2.66666,-0.52654 -2.66666,-1.17008 z m -123.177629,-7.5716 c -1.18842,-3.09698 -1.097097,-3.25832 1.844289,-3.25832 3.099749,0 3.457491,1.68382 0.822378,3.87077 -1.42749,1.18471 -2.030143,1.04629 -2.666667,-0.61245 z m 124.770199,0.46758 c -2.34357,-2.34357 -1.94507,-3.7259 1.07409,-3.7259 2.84418,0 3.26859,0.98785 1.57215,3.65924 -0.81679,1.28621 -1.41171,1.3012 -2.64624,0.0667 z M 20.105263,123.22223 c 0.06397,-1.55326 0.379921,-1.8692 0.805556,-0.80556 0.385161,0.9625 0.337792,2.1125 -0.105267,2.55556 -0.443056,0.44305 -0.758188,-0.34445 -0.700293,-1.75 z m 130.666677,0 c 0.064,-1.55326 0.37992,-1.8692 0.80554,-0.80556 0.38516,0.9625 0.3378,2.1125 -0.1052,2.55556 -0.44306,0.44305 -0.75818,-0.34445 -0.70029,-1.75 z M 80.000002,105.33334 c 0,-2.94139 0.161341,-3.03271 3.258314,-1.84429 1.658756,0.63652 1.797168,1.23917 0.612458,2.66666 -2.18695,2.63512 -3.870772,2.27737 -3.870772,-0.82237 z m 8.129228,0.82237 c -1.184711,-1.42749 -1.046299,-2.03014 0.612457,-2.66666 3.096973,-1.18842 3.258315,-1.0971 3.258315,1.84429 0,3.09974 -1.683823,3.45749 -3.870772,0.82237 z m -47.045896,-4.39986 c 0.9625,-0.38516 2.1125,-0.33779 2.555556,0.10527 0.443055,0.44305 -0.344445,0.75818 -1.75,0.70029 -1.553257,-0.064 -1.8692,-0.37992 -0.805556,-0.80556 z m 88.000006,0 c 0.9625,-0.38516 2.1125,-0.33779 2.55555,0.10527 0.44306,0.44305 -0.34444,0.75818 -1.75,0.70029 -1.55326,-0.064 -1.8692,-0.37992 -0.80555,-0.80556 z M 66.666668,77.333335 c 2.585012,-1.670563 4,-1.670563 4,0 0,0.733333 -1.35,1.324145 -3,1.312916 -2.425917,-0.01651 -2.617279,-0.267751 -1,-1.312916 z m 34.666672,0 c 0,-1.670563 1.41498,-1.670563 4,0 1.61727,1.045165 1.42591,1.296407 -1,1.312916 -1.65,0.01123 -3,-0.579583 -3,-1.312916 z M 79.750002,76.422516 c 0.9625,-0.385161 2.1125,-0.337792 2.555556,0.105267 0.443054,0.443056 -0.344446,0.758188 -1.75,0.700293 -1.553258,-0.06397 -1.8692,-0.379921 -0.805556,-0.805556 z m 10.666666,0 c 0.9625,-0.385161 2.1125,-0.337792 2.555556,0.105267 0.443055,0.443056 -0.344445,0.758188 -1.75,0.700293 -1.553257,-0.06397 -1.8692,-0.379921 -0.805556,-0.805556 z M 70.333335,40.450293 c 0.916666,-0.369883 2.416666,-0.369883 3.333333,0 0.916667,0.369884 0.166667,0.672514 -1.666667,0.672514 -1.833333,0 -2.583333,-0.30263 -1.666666,-0.672514 z m 28,0 c 0.916667,-0.369883 2.416665,-0.369883 3.333335,0 0.91667,0.369884 0.16667,0.672514 -1.66667,0.672514 -1.833331,0 -2.583331,-0.30263 -1.666665,-0.672514 z M 79.461126,20.518891 c -0.372896,-0.971753 -0.1042,-2.121449 0.597108,-2.55488 0.701305,-0.433431 1.275101,-0.05264 1.275101,0.846189 0,0.898835 0.394795,1.239451 0.877321,0.756924 0.482527,-0.482526 1.62911,-0.253392 2.547963,0.509188 1.159303,0.962136 1.939223,0.951939 2.548144,-0.03332 0.482625,-0.780904 1.436041,-1.074629 2.118703,-0.652721 0.682661,0.421911 1.241202,0.09629 1.241202,-0.723604 0,-0.819892 0.573796,-1.136087 1.275102,-0.702656 3.0225,1.868008 -0.351006,4.321704 -5.941768,4.321704 -3.635912,0 -6.11827,-0.67074 -6.538876,-1.766824 z"
         id="path26" />
      <path
         style="fill:#ffffff;fill-opacity:1;stroke-width:1.33333"
         d="m 82.74795,328.76461 c -1.236526,-1.48992 -2.449422,-1.59848 -5.597612,-0.50102 -2.889321,1.00723 -4.440391,0.9797 -5.518022,-0.098 -1.109753,-1.10969 -0.806551,-1.49892 1.167685,-1.49892 3.373715,0 5.871703,-2.43544 4.953155,-4.82914 -1.060531,-2.7637 -9.405135,-2.24388 -16.113951,1.0038 -8.716337,4.2195 -18.411751,2.91748 -28.050987,-3.76707 -4.02444,-2.79084 -8.278152,-5.48208 -9.452691,-5.98053 -1.337327,-0.56755 -1.489099,-0.94132 -0.406055,-1 0.95121,-0.0516 6.102397,2.30628 11.447082,5.23961 10.238012,5.61895 18.846091,7.37704 15.320556,3.12903 -1.006176,-1.21236 -3.629642,-2.98888 -5.829926,-3.94782 -3.121734,-1.3605 -3.403443,-1.75496 -1.282439,-1.79569 1.494943,-0.0287 5.071808,1.14781 7.948589,2.61448 2.876782,1.46667 6.003647,2.66667 6.94859,2.66667 3.605245,0 1.390774,-2.11686 -5.313347,-5.07912 -5.652172,-2.49746 -6.552445,-3.31478 -4.765728,-4.32656 1.526689,-0.86455 3.982271,-0.43999 8,1.38317 11.452782,5.197 19.87917,1.99959 9.797152,-3.71756 -2.510242,-1.42348 -2.46213,-1.51456 0.820188,-1.55272 1.917771,-0.0223 5.140711,1.26037 7.162088,2.85039 4.113161,3.23541 7.713107,2.19349 8.409751,-2.434 0.616819,-4.09726 -3.706318,-6.93086 -11.074856,-7.25902 -6.755468,-0.30086 -11.786722,1.53939 -19.983838,7.30942 -2.2,1.54858 -4,2.62578 -4,2.39374 0,-0.23202 -1.68906,0.22031 -3.753466,1.00519 -2.064406,0.78489 -6.264406,1.36133 -9.333334,1.28097 l -5.579867,-0.14608 5.814159,-1.14289 c 3.197787,-0.6286 8.816994,-3.06981 12.487124,-5.42493 l 6.672967,-4.28203 -3.734583,-2.72045 c -4.375684,-3.18747 -5.340332,-3.47131 -15.906333,-4.68038 l -8,-0.91542 6.210357,-1.07048 c 7.557903,-1.30275 13.401414,-0.19878 20.48406,3.86993 4.784164,2.74832 5.716804,2.88281 8.666667,1.24987 1.818071,-1.00644 6.455583,-1.85115 10.305583,-1.87712 5.993228,-0.0404 7,-0.4148 7,-2.60282 0,-1.803 -1.668701,-3.14622 -5.666667,-4.5614 l -5.666666,-2.00585 7.228345,-0.1052 c 4.4782,-0.0652 8.083311,-0.879 9.475491,-2.13891 2.013981,-1.82262 2.422267,-1.82262 3.934913,0 1.123299,1.3535 4.19727,2.06884 9.191178,2.13891 l 7.503408,0.1052 -5.666668,2.00585 c -3.997965,1.41518 -5.666667,2.7584 -5.666667,4.5614 0,2.18802 1.006772,2.56236 7.000005,2.60282 3.85,0.026 8.48751,0.87068 10.30558,1.87712 2.94986,1.63294 3.8825,1.49845 8.66666,-1.24987 7.08265,-4.06871 12.92616,-5.17268 20.48406,-3.86993 l 6.21036,1.07048 -8,0.91542 c -10.566,1.20907 -11.53065,1.49291 -15.90633,4.68038 l -3.73458,2.72045 6.67296,4.28203 c 3.67013,2.35512 9.28934,4.79633 12.48713,5.42493 l 5.81416,1.14289 -5.57987,0.14608 c -3.06893,0.0804 -7.26893,-0.49608 -9.33333,-1.28097 -2.06441,-0.78488 -4.05347,-1.45084 -4.42014,-1.47989 -0.36666,-0.0291 -2.16666,-1.10624 -4,-2.39376 -7.52974,-5.28796 -12.73045,-7.12806 -19.31717,-6.8347 -7.368536,0.32816 -11.691674,3.16176 -11.074855,7.25902 0.696644,4.62749 4.296591,5.66941 8.409751,2.434 2.021374,-1.59002 5.244314,-2.8727 7.162084,-2.85039 3.28232,0.0381 3.33043,0.1292 0.82019,1.55272 -2.78499,1.57927 -4.6115,3.70473 -4.64625,5.40673 -0.0395,1.93523 8.71163,0.91178 14.4434,-1.68917 4.01773,-1.82316 6.47332,-2.24772 8,-1.38317 1.78672,1.01178 0.88645,1.8291 -4.76572,4.32656 -6.70413,2.96226 -8.9186,5.07912 -5.31335,5.07912 0.94494,0 4.07181,-1.2 6.94859,-2.66667 2.87678,-1.46667 6.45365,-2.64319 7.94859,-2.61448 2.121,0.0408 1.83929,0.43519 -1.28244,1.79569 -2.20028,0.95894 -4.82375,2.73546 -5.82993,3.94782 -3.52553,4.24801 5.08255,2.48992 15.32057,-3.12903 5.34468,-2.93333 10.49586,-5.29116 11.44708,-5.23961 1.08304,0.0587 0.93126,0.43245 -0.40606,1 -1.17454,0.49845 -5.42825,3.18969 -9.45269,5.98053 -9.63924,6.68455 -19.33465,7.98657 -28.05099,3.76707 -6.70882,-3.24768 -15.053422,-3.7675 -16.113953,-1.0038 -0.918548,2.3937 1.57944,4.82914 4.953155,4.82914 1.974238,0 2.277438,0.38923 1.167688,1.49899 -1.077633,1.07763 -2.628704,1.10516 -5.518024,0.098 -3.148191,-1.09747 -4.361087,-0.98891 -5.597612,0.50101 -0.868214,1.04607 -2.331638,1.902 -3.252052,1.902 -0.920415,0 -2.383839,-0.85593 -3.252052,-1.90206 z m 8.199512,-9.62811 c 1.124916,-2.30825 1.67193,-4.76751 1.215588,-5.46499 -1.090735,-1.6671 -11.252567,-1.64132 -12.345466,0.0313 -0.466996,0.71472 0.671731,4.2308 2.530503,7.8135 3.699877,7.13135 4.005353,7.04682 8.599375,-2.37985 z m -1.614127,-23.90368 c 0,-0.97571 -0.711292,-3.33512 -1.580648,-5.24315 l -1.580647,-3.46914 -1.705438,3.07308 c -2.156495,3.88584 -2.232734,6.7736 -0.231659,8.77468 1.821449,1.82144 5.098392,-0.19384 5.098392,-3.13547 z m -53.333334,9.32277 c -4.012446,-2.22644 -9.617906,-2.37164 -18.448242,-0.47786 -4.359242,0.93488 -8.0933453,0.97546 -11.0656283,0.12026 L 2,302.90718 6.1214256,302.78691 c 2.266784,-0.0661 7.0667844,-1.01376 10.6666664,-2.10582 9.134863,-2.77115 17.016486,-2.50843 23.466715,0.78222 4.149483,2.11692 5.027787,3.08419 3.61355,3.97959 -2.412274,1.52729 -3.798519,1.37097 -7.868356,-0.88732 z m 92.131649,0.88732 c -1.41424,-0.8954 -0.53594,-1.86266 3.61355,-3.97958 6.45023,-3.29066 14.33184,-3.55338 23.46671,-0.78223 3.59988,1.09207 8.39988,2.03968 10.66667,2.10583 l 4.12142,0.12026 -4.48613,1.2908 c -2.97228,0.85522 -6.70639,0.81463 -11.06563,-0.12026 -8.9982,-1.92978 -14.41646,-1.75888 -18.93398,0.59716 -4.42439,2.30748 -4.87681,2.35454 -7.38261,0.76802 z M 83.165264,259.37615 c -0.572342,-1.4915 -2.14864,-1.76564 -6.624821,-1.1521 -3.968032,0.54388 -5.873775,0.31369 -5.873775,-0.70948 0,-0.833 0.939445,-1.51456 2.087655,-1.51456 3.641664,0 7.186901,-2.60174 6.386709,-4.687 -0.51569,-1.34389 -2.747884,-1.99899 -6.950349,-2.03981 -3.404875,-0.0331 -7.990682,-0.84746 -10.190682,-1.80974 -3.594692,-1.57231 -4.560345,-1.42639 -9.530064,1.44012 -6.37668,3.67803 -16.960003,5.27797 -21.80327,3.29612 -3.001352,-1.22815 -2.702568,-1.38901 3,-1.61517 8.167298,-0.32392 7.416674,-0.11627 14.062353,-3.89129 l 5.72902,-3.25437 -3.062354,-2.47953 c -1.684293,-1.36374 -6.062352,-3.94435 -9.729019,-5.73468 l -6.666666,-3.25518 6,0.78831 c 3.3,0.43356 9.3,2.74859 13.333333,5.14451 9.926989,5.89692 11.716621,6.48732 18.666667,6.15812 9.301822,-0.44059 13.318193,-5.5872 8.508078,-10.90232 -2.064275,-2.281 -2.346493,-2.2419 -6.459188,0.89501 -2.408858,1.83732 -6.004752,3.24305 -8.174744,3.19571 l -3.874146,-0.0845 3.295694,-1.31524 c 3.543412,-1.41409 5.317949,-3.48456 5.350556,-6.24281 0.02713,-2.2947 -8.191314,-0.90403 -15.060681,2.54844 -3.506966,1.76257 -5.76378,2.17166 -7.284714,1.3205 -1.795079,-1.00457 -0.976667,-1.80689 4.41443,-4.3276 8.439102,-3.94586 8.212998,-3.74984 5.94322,-5.15264 -1.226588,-0.75808 -2.67158,-0.58249 -3.961386,0.48135 -2.820356,2.32625 -9.039732,4.86736 -11.759856,4.80484 -1.320051,-0.0304 -0.59585,-0.78208 1.72992,-1.79569 2.200284,-0.95894 4.82375,-2.73546 5.829926,-3.94782 4.098946,-4.93893 -8.74048,-1.77304 -17.830443,4.39655 -6.224593,4.2248 -8.391871,3.20945 -2.40559,-1.12699 8.25762,-5.9818 12.502957,-7.68874 19.944863,-8.01937 4.796506,-0.21311 8.506153,0.52803 12.280216,2.45341 10.420231,5.31602 20.424564,2.21667 12.447789,-3.85632 l -3.60061,-2.74126 3.333333,0.3786 c 1.833333,0.20822 4.01535,0.8068 4.848924,1.33016 0.833575,0.52336 2.257043,0.0581 3.16326,-1.03376 2.09834,-2.52835 4.543959,-2.52835 6.642299,0 0.906217,1.09192 2.329685,1.55712 3.16326,1.03376 0.833575,-0.52336 3.015591,-1.12194 4.848924,-1.33016 l 3.333335,-0.3786 -3.600612,2.74126 c -7.976775,6.07299 2.027559,9.17234 12.447792,3.85632 3.77406,-1.92538 7.48371,-2.66652 12.28021,-2.45341 7.44191,0.33063 11.68725,2.03757 19.94486,8.01937 5.98628,4.33644 3.819,5.35179 -2.40558,1.12699 -5.70555,-3.87249 -12.45368,-6.60085 -16.3261,-6.60085 -2.94949,0 -3.12289,0.25408 -1.50435,2.2043 1.00618,1.21236 3.62965,2.98888 5.82993,3.94782 2.32577,1.01361 3.04997,1.76534 1.72992,1.79569 -2.72012,0.0625 -8.9395,-2.47859 -11.75986,-4.80484 -1.2898,-1.06384 -2.7348,-1.23943 -3.96138,-0.48135 -2.26978,1.4028 -2.49588,1.20678 5.94322,5.15264 5.39109,2.52071 6.20951,3.32303 4.41443,4.3276 -1.52094,0.85116 -3.77775,0.44207 -7.28472,-1.3205 -6.86936,-3.45247 -15.08781,-4.84314 -15.06068,-2.54844 0.0326,2.75825 1.80715,4.82872 5.35056,6.24281 l 3.29569,1.31524 -3.87414,0.0845 c -2.17,0.0473 -5.76589,-1.35838 -8.174747,-3.1957 -4.112695,-3.13691 -4.394914,-3.17602 -6.459189,-0.89502 -4.810114,5.31512 -0.793744,10.46174 8.508076,10.90232 6.95005,0.3292 8.73968,-0.2612 18.66667,-6.15812 C 122.7,235.5064 128.7,233.19138 132,232.75782 l 6,-0.78831 -6.66666,3.25517 c -3.66667,1.79034 -8.04473,4.37095 -9.72902,5.73468 l -3.06236,2.47954 5.72902,3.25437 c 6.64568,3.77507 5.89506,3.56736 14.06236,3.89128 5.70257,0.22616 6.00134,0.38703 3,1.61518 -4.84327,1.98185 -15.42659,0.3819 -21.80327,-3.29613 -4.96972,-2.8665 -5.93538,-3.01242 -9.53007,-1.44012 -2.2,0.96228 -6.7858,1.77667 -10.190679,1.80975 -4.202466,0.0408 -6.434659,0.69592 -6.95035,2.0398 -0.800192,2.08524 2.745046,4.68698 6.38671,4.68698 1.148209,0 2.087659,0.68156 2.087659,1.51456 0,1.02317 -1.905747,1.25336 -5.873779,0.70948 -4.476182,-0.61354 -6.052479,-0.3394 -6.624822,1.1521 -0.413075,1.07646 -1.688707,1.95719 -2.834737,1.95719 -1.146031,0 -2.421663,-0.88073 -2.834738,-1.95719 z M 88.563103,247.077 c -3.335317,-5.28757 -7.150116,0.0107 -4.541731,6.30793 l 1.808834,4.36692 2.02975,-4.28587 c 1.4209,-3.00027 1.631819,-4.91672 0.703147,-6.38898 z m 2.7591,-20.27193 C 90.602012,222.96612 87.17074,216 86.000002,216 c -1.170739,0 -4.602011,6.96612 -5.322202,10.80507 l -0.849506,4.52827 h 6.171708 6.171708 z m -71.249559,17.1406 c -7.746051,-1.60603 -9.106067,-3.16688 -10.8151585,-12.4122 -1.5420429,-8.34168 -0.8186165,-14.13308 2.4720855,-19.79029 1.820635,-3.12995 2.284297,-3.32216 3.617077,-1.49948 1.188868,1.62588 0.9664,3.16513 -1.000652,6.92349 -1.973226,3.77016 -2.353739,6.42599 -1.730527,12.07833 0.43938,3.98504 1.422635,7.99711 2.185013,8.91572 0.762377,0.9186 4.63377,2.07596 8.603097,2.5719 5.738667,0.717 8.283404,0.37406 12.42332,-1.6742 4.025742,-1.99179 5.676568,-2.23208 7.279895,-1.05971 1.793356,1.31133 1.558244,1.82059 -1.740024,3.76893 -4.834603,2.85587 -13.666469,3.759 -21.294126,2.17751 z m 115.885316,0.18952 c -1.85645,-0.59515 -4.66184,-1.88551 -6.2342,-2.86747 -2.51563,-1.57102 -2.61056,-1.96692 -0.79078,-3.29757 1.59661,-1.16747 3.16981,-0.93557 6.90088,1.01719 3.77016,1.97322 6.42598,2.35374 12.07833,1.73053 3.98504,-0.43939 7.99711,-1.42264 8.91572,-2.18501 0.9186,-0.76238 2.07596,-4.63378 2.57189,-8.6031 0.717,-5.73866 0.37407,-8.28341 -1.6742,-12.42332 -1.99178,-4.02574 -2.23208,-5.67657 -1.0597,-7.27989 1.30448,-1.78399 1.87465,-1.47909 4.08306,2.18329 1.90583,3.16058 2.5196,6.48875 2.38332,12.9235 -0.22296,10.52801 -2.06873,15.66164 -6.19512,17.23049 -4.84322,1.84139 -17.24042,2.76995 -20.9792,1.57136 z M 29.083334,232.42252 c 0.9625,-0.38516 2.1125,-0.3378 2.555556,0.1052 0.443055,0.44306 -0.344445,0.75819 -1.75,0.7003 -1.553257,-0.064 -1.8692,-0.37992 -0.805556,-0.80555 z m 112.000006,0 c 0.96249,-0.38516 2.11249,-0.3378 2.55556,0.1052 0.44305,0.44306 -0.34446,0.75819 -1.75,0.7003 -1.55327,-0.064 -1.8692,-0.37992 -0.80556,-0.80555 z M 22.675452,226.53339 c 0.0048,-1.02669 1.230492,-3.66672 2.72369,-5.86672 3.872496,-5.70555 6.600859,-12.45368 6.600859,-16.32609 0,-2.9495 -0.25408,-3.1229 -2.204304,-1.50435 -1.212368,1.00617 -2.988883,3.62964 -3.947811,5.82992 -1.013619,2.32577 -1.765355,3.04997 -1.795696,1.72992 -0.06252,-2.72012 2.478589,-8.93949 4.804839,-11.75985 1.063841,-1.2898 1.239422,-2.7348 0.481349,-3.96139 -1.4028,-2.26977 -1.206773,-2.49588 -5.152639,5.94323 -2.520712,5.39109 -3.323028,6.2095 -4.327604,4.41442 -0.851157,-1.52093 -0.442065,-3.77774 1.320503,-7.28472 3.452474,-6.86936 4.843133,-15.0878 2.548446,-15.06068 -2.758262,0.0327 -4.828721,1.80715 -6.242817,5.35056 l -1.315236,3.2957 -0.08452,-3.87415 c -0.04733,-2.16999 1.358387,-5.76588 3.195712,-8.17475 3.136905,-4.11269 3.176011,-4.3949 0.895012,-6.45918 -5.315117,-4.81011 -10.4617305,-0.79375 -10.9023244,8.50808 -0.3291988,6.95005 0.2611995,8.73968 6.1581214,18.66666 2.395919,4.03334 4.71095,10.03334 5.144514,13.33334 l 0.788298,6 -3.255162,-6.66667 C 16.318342,209 13.737731,204.62195 12.37399,202.93766 l -2.4795295,-3.06236 -3.2543653,5.72902 c -3.7750693,6.64567 -3.5673597,5.89506 -3.8912769,14.06235 -0.2261655,5.70257 -0.3870279,6.00135 -1.6151741,3 -1.98185396,-4.84327 -0.38191663,-15.42659 3.2961166,-21.80327 2.866506,-4.96972 3.0124284,-5.93537 1.4401132,-9.53006 -0.9622782,-2.2 -1.7766591,-6.78582 -1.8097354,-10.19068 C 4.0190361,176.91154 3.3669303,174.70904 2,174.1845 c -3.3238111,-1.27547 -2.41153547,-4.56004 1.0810915,-3.89239 4.1343029,0.79033 7.0797495,-2.61215 4.2757853,-4.93924 C 6.25174,164.4357 4.1443411,163.99991 2.6737686,164.38448 -0.50175873,165.2149 -1.1126748,161.67662 2,160.48218 c 1.3669303,-0.52455 2.0190361,-2.72704 2.0601386,-6.95816 0.033076,-3.40487 0.8474572,-7.99068 1.8097354,-10.19068 1.5723152,-3.5947 1.4263928,-4.56035 -1.4401132,-9.53007 -3.67803323,-6.37668 -5.27797056,-16.96 -3.2961166,-21.80327 1.2281462,-3.00135 1.3890086,-2.70257 1.6151741,3 0.3239172,8.1673 0.116208,7.41668 3.8912809,14.06235 l 3.2543653,5.72903 2.4795295,-3.06236 c 1.363741,-1.68429 3.944352,-6.06235 5.734692,-9.72902 l 3.255162,-6.66666 -0.788298,6 c -0.433564,3.3 -2.748595,9.3 -5.144514,13.33333 -5.8969219,9.92699 -6.4873202,11.71661 -6.1581214,18.66667 0.4405939,9.30182 5.5872074,13.31818 10.9023244,8.50808 2.280999,-2.06428 2.241893,-2.3465 -0.895012,-6.45919 -1.837325,-2.40887 -3.243051,-6.00476 -3.195712,-8.17475 l 0.08452,-3.87414 1.315236,3.29569 c 1.414096,3.54341 3.484555,5.31795 6.242817,5.35056 2.294687,0.0271 0.904028,-8.19132 -2.548446,-15.06068 -1.762568,-3.50697 -2.17166,-5.76378 -1.320503,-7.28472 1.004576,-1.79508 1.806892,-0.97667 4.327604,4.41443 3.945866,8.4391 3.749839,8.213 5.152639,5.94322 0.758073,-1.22658 0.582492,-2.67158 -0.481349,-3.96138 -2.32625,-2.82036 -4.867361,-9.03974 -4.804839,-11.75986 0.03035,-1.32005 0.782077,-0.59585 1.795696,1.72992 0.958928,2.20028 2.735443,4.82375 3.947811,5.82993 4.938928,4.09894 1.773036,-8.74048 -4.396555,-17.83045 -4.224792,-6.22459 -3.209443,-8.39187 1.126996,-2.40559 5.981791,8.25762 7.688743,12.50296 8.019373,19.94486 0.2131,4.79651 -0.528037,8.50616 -2.45342,12.28023 -5.316005,10.42022 -2.21666,20.42456 3.85633,12.44778 L 38.689687,152.66667 38.311082,156 c -0.208232,1.83334 -0.806805,4.01535 -1.330161,4.84892 -0.523358,0.83358 -0.05816,2.25704 1.03376,3.16327 2.528345,2.09833 2.528345,4.54396 0,6.64229 -1.091926,0.90623 -1.557118,2.3297 -1.03376,3.16327 0.523356,0.83357 1.121929,3.01559 1.330161,4.84892 L 38.689687,182 35.948421,178.39939 c -6.07299,-7.97677 -9.172335,2.02756 -3.85633,12.44779 3.193916,6.2606 3.29544,16.84761 0.2208,23.02502 -2.982186,5.99168 -9.64726,14.74792 -9.637439,12.66119 z m 11.519481,-56.78372 c 1.72612,-1.131 3.138401,-2.21835 3.138401,-2.41633 0,-1.17074 -6.966127,-4.60202 -10.805068,-5.3222 L 22,161.16163 v 6.17171 6.1717 l 4.528266,-0.8495 c 2.490545,-0.46723 5.940545,-1.77487 7.666667,-2.90587 z M 144.4836,221.559 c -5.99233,-8.9184 -6.6932,-10.75557 -7.03153,-18.4316 -0.21125,-4.79302 0.53187,-8.5089 2.45584,-12.28022 5.31601,-10.42023 2.21667,-20.42456 -3.85632,-12.44779 L 133.31032,182 l 0.3786,-3.33333 c 0.20823,-1.83333 0.8068,-4.01535 1.33016,-4.84892 0.52336,-0.83357 0.0581,-2.25704 -1.03376,-3.16327 C 132.8934,169.74827 132,168.25375 132,167.33334 c 0,-0.92042 0.8934,-2.41494 1.98532,-3.32115 1.09192,-0.90623 1.55712,-2.32969 1.03376,-3.16327 -0.52336,-0.83357 -1.12193,-3.01558 -1.33016,-4.84892 l -0.3786,-3.33333 2.74127,3.60061 c 6.07299,7.97678 9.17233,-2.02756 3.85632,-12.44778 -1.92539,-3.77407 -2.66652,-7.48372 -2.45341,-12.28023 0.33062,-7.4419 2.03757,-11.68724 8.01937,-19.94486 4.33644,-5.98628 5.35179,-3.819 1.12699,2.40559 -3.8725,5.70554 -6.60086,12.45368 -6.60086,16.32609 0,2.9495 0.25408,3.1229 2.20431,1.50436 1.21236,-1.00618 2.98888,-3.62965 3.94781,-5.82993 1.01362,-2.32577 1.76535,-3.04997 1.7957,-1.72992 0.0625,2.72012 -2.47859,8.9395 -4.80484,11.75986 -1.06384,1.2898 -1.23943,2.7348 -0.48135,3.96138 1.4028,2.26978 1.20677,2.49588 5.15264,-5.94322 2.52071,-5.3911 3.32303,-6.20951 4.3276,-4.41443 0.85116,1.52094 0.44207,3.77775 -1.32051,7.28472 -3.45246,6.86936 -4.84313,15.0878 -2.54844,15.06068 2.75826,-0.0327 4.82872,-1.80715 6.24282,-5.35056 l 1.31524,-3.29569 0.0845,3.87414 c 0.0473,2.16999 -1.35839,5.76588 -3.19571,8.17475 -3.1369,4.11269 -3.17601,4.39491 -0.89501,6.45919 5.31512,4.8101 10.46173,0.79374 10.90232,-8.50808 0.3292,-6.95006 -0.2612,-8.73968 -6.15812,-18.66667 -2.39592,-4.03333 -4.69589,-10.03333 -5.11104,-13.33333 l -0.75484,-6 L 152.785,120 c 1.14504,2.56667 3.63891,6.94619 5.54192,9.73228 l 3.46004,5.0656 3.54866,-5.69982 c 2.39812,-3.85186 3.64728,-7.86157 3.85288,-12.36751 0.47304,-10.367 1.47897,-8.96736 1.47137,2.04723 -0.005,8.04163 -0.59783,10.86524 -3.17059,15.11557 -2.90872,4.80535 -3.01565,5.58115 -1.3265,9.62384 1.01049,2.41844 1.83725,7.11644 1.83725,10.43999 0,3.32356 0.6,6.04282 1.33333,6.04282 0.73334,0 1.33334,0.9 1.33334,2 0,1.1 -1.12654,2 -2.50342,2 -3.54698,0 -5.88242,3.08083 -3.86486,5.09839 0.86253,0.86256 2.64825,1.56828 3.96825,1.56828 1.32,0 2.4,0.9 2.4,2 0,1.1 -0.6,2 -1.33333,2 -0.73334,0 -1.33334,2.71927 -1.33334,6.04283 0,3.32354 -0.82676,8.02154 -1.83725,10.43998 -1.68915,4.0427 -1.58221,4.8185 1.32651,9.62384 2.57276,4.25034 3.16502,7.07394 3.17058,15.11558 0.008,11.01458 -0.99833,12.41422 -1.47137,2.04722 -0.2056,-4.50593 -1.45476,-8.51565 -3.85288,-12.36752 l -3.54865,-5.69981 -3.46004,5.0656 c -1.90302,2.78609 -4.39688,7.16561 -5.54192,9.73228 l -2.0819,4.66667 0.75484,-6 c 0.41515,-3.3 2.71512,-9.3 5.11104,-13.33334 5.89692,-9.92698 6.48732,-11.71661 6.15812,-18.66666 -0.44058,-9.30183 -5.5872,-13.31819 -10.90232,-8.50808 -2.281,2.06428 -2.24189,2.34649 0.89502,6.45918 1.83732,2.40887 3.24305,6.00476 3.1957,8.17475 l -0.0845,3.87415 -1.31524,-3.2957 c -1.41409,-3.54341 -3.48456,-5.31794 -6.24281,-5.35056 -2.2947,-0.0271 -0.90403,8.19132 2.54844,15.06068 1.76257,3.50698 2.17166,5.76379 1.3205,7.28472 -1.00457,1.79508 -1.80689,0.97667 -4.3276,-4.41442 -3.94586,-8.43911 -3.74984,-8.213 -5.15264,-5.94323 -0.75808,1.22659 -0.58249,2.67159 0.48135,3.96139 2.32625,2.82036 4.86736,9.03973 4.80484,11.75985 -0.0304,1.32005 -0.78208,0.59585 -1.79569,-1.72992 -0.95894,-2.20028 -2.73546,-4.82375 -3.94782,-5.82992 C 140.25116,201.21527 140,201.39808 140,204.44067 c 0,4.02091 2.00546,8.96145 6.42418,15.82627 4.72264,7.33698 2.92517,8.53376 -1.94058,1.29206 z M 150,167.24748 v -6.08585 l -4.52826,0.84951 c -2.49055,0.46722 -5.99618,1.81132 -7.7903,2.98686 l -3.26202,2.13736 3.12362,2.3726 c 2.93582,2.22995 5.77286,3.21854 10.45696,3.6438 1.51219,0.13728 2,-1.30282 2,-5.90428 z M 20.105263,223.22223 c 0.06397,-1.55327 0.379921,-1.8692 0.805556,-0.80556 0.385161,0.96249 0.337792,2.11249 -0.105267,2.55556 -0.443056,0.44305 -0.758188,-0.34445 -0.700293,-1.75 z m 130.666677,0 c 0.064,-1.55327 0.37992,-1.8692 0.80554,-0.80556 0.38516,0.96249 0.3378,2.11249 -0.1052,2.55556 -0.44306,0.44305 -0.75818,-0.34445 -0.70029,-1.75 z M 11.251039,122.25683 C 9.3452167,119.09626 8.7314431,115.76809 8.8677192,109.33334 9.2026234,93.519667 12.186332,90.535958 28.000001,90.201054 c 6.43475,-0.136276 9.762922,0.477497 12.923496,2.38332 3.680377,2.219264 3.973713,2.773883 2.166144,4.095609 -1.625875,1.188868 -3.165135,0.9664 -6.923495,-1.000652 -3.770159,-1.973226 -6.425979,-2.35374 -12.078332,-1.730526 -3.985035,0.439378 -7.997108,1.422634 -8.915716,2.185012 -0.918608,0.762377 -2.075962,4.633773 -2.571897,8.603093 -0.716999,5.73867 -0.374062,8.28341 1.674205,12.42332 1.991778,4.02575 2.232081,5.67657 1.0597,7.2799 -1.304475,1.78398 -1.87465,1.47909 -4.083067,-2.1833 z m 145.313591,2.15592 c -0.99213,-1.57285 -0.67051,-3.55077 1.18828,-7.30771 2.01996,-4.08272 2.36156,-6.6481 1.64689,-12.36813 -0.49593,-3.96932 -1.65329,-7.840716 -2.57189,-8.603093 -0.91861,-0.762378 -4.93068,-1.745634 -8.91572,-2.185012 -5.65235,-0.623214 -8.30817,-0.2427 -12.07833,1.730526 -3.75836,1.967052 -5.29762,2.18952 -6.9235,1.000652 -1.80757,-1.321726 -1.51423,-1.876345 2.16615,-4.095609 3.16057,-1.905823 6.48875,-2.519596 12.92349,-2.38332 15.81391,0.334909 18.79022,3.311637 19.14104,19.143746 0.14758,6.65992 -0.4366,9.67191 -2.5119,12.95131 -2.32966,3.68134 -2.8926,3.9745 -4.06451,2.11664 z m -73.885778,-5.06473 c -0.906217,-1.09193 -2.329685,-1.55712 -3.16326,-1.03376 -0.833574,0.52335 -3.015591,1.12193 -4.848924,1.33016 l -3.333333,0.3786 3.60061,-2.74126 c 7.976775,-6.07299 -2.027558,-9.17234 -12.447789,-3.85633 -3.774063,1.92538 -7.48371,2.66652 -12.280216,2.45342 -7.441906,-0.33063 -11.687243,-2.03759 -19.944863,-8.01938 -5.986281,-4.33644 -3.819003,-5.35179 2.40559,-1.12699 5.70554,3.87249 12.453677,6.60086 16.326093,6.60086 2.949493,0 3.122893,-0.25408 1.50435,-2.20431 -1.006176,-1.21237 -3.629642,-2.98888 -5.829926,-3.94781 -2.32577,-1.01362 -3.049971,-1.76535 -1.72992,-1.7957 2.720124,-0.0625 8.9395,2.47859 11.759856,4.80484 1.289806,1.06384 2.734798,1.23943 3.961386,0.48135 2.269778,-1.4028 2.495882,-1.20677 -5.94322,-5.15264 -5.391097,-2.52071 -6.209509,-3.32302 -4.41443,-4.3276 1.520934,-0.85116 3.777748,-0.44207 7.284714,1.3205 6.869367,3.45248 15.087809,4.84314 15.060681,2.54845 -0.03261,-2.75826 -1.807144,-4.82872 -5.350556,-6.242818 l -3.295694,-1.315236 3.874146,-0.08452 c 2.169992,-0.04733 5.765886,1.358387 8.174744,3.195714 4.112695,3.1369 4.394913,3.17601 6.459188,0.89501 4.810115,-5.315113 0.793744,-10.461727 -8.508078,-10.90232 -6.950046,-0.329199 -8.739678,0.261198 -18.666667,6.158121 -4.033333,2.395919 -10.033333,4.710949 -13.333333,5.144509 l -6,0.7883 6.666666,-3.255159 c 3.666667,-1.79034 8.044726,-4.370951 9.729019,-5.734692 l 3.062354,-2.47953 -5.72902,-3.254365 c -6.645679,-3.775074 -5.895055,-3.567363 -14.062353,-3.89128 -5.702568,-0.226166 -6.001352,-0.387028 -3,-1.615175 4.843267,-1.981853 15.42659,-0.381916 21.80327,3.296116 4.969719,2.866507 5.935372,3.012429 9.530064,1.440113 2.2,-0.962277 6.785807,-1.776658 10.190682,-1.809734 4.202465,-0.04083 6.434659,-0.695932 6.950349,-2.0398 0.800192,-2.085267 -2.745045,-4.687006 -6.386709,-4.687006 -1.14821,0 -2.087655,-0.681554 -2.087655,-1.514565 0,-1.023165 1.905743,-1.253355 5.873775,-0.709475 4.476181,0.61353 6.052479,0.3394 6.624821,-1.152101 0.970886,-2.530088 4.69859,-2.530088 5.669475,0 0.572343,1.491501 2.14864,1.765631 6.624822,1.152101 3.968032,-0.54388 5.873779,-0.31369 5.873779,0.709475 0,0.833011 -0.93945,1.514565 -2.087659,1.514565 -3.641664,0 -7.186902,2.601739 -6.38671,4.687006 0.515691,1.343868 2.747884,1.998976 6.95035,2.0398 C 103.2142,85.426554 107.8,86.240931 110,87.203208 c 3.59469,1.572316 4.56035,1.426394 9.53007,-1.440113 6.37668,-3.678032 16.96,-5.277969 21.80327,-3.296116 3.00134,1.228147 2.70257,1.389009 -3,1.615175 -8.1673,0.323917 -7.41668,0.116213 -14.06236,3.89128 l -5.72902,3.254365 3.06236,2.47953 c 1.68429,1.363741 6.06235,3.944352 9.72902,5.734692 L 138,102.69718 l -6,-0.7883 c -3.3,-0.43356 -9.3,-2.74859 -13.33333,-5.144509 C 108.73968,90.867448 106.95005,90.277051 100,90.60625 c -9.30182,0.440593 -13.31819,5.587207 -8.508076,10.90232 2.064275,2.281 2.346494,2.2419 6.459189,-0.89501 2.408857,-1.837323 6.004747,-3.243049 8.174747,-3.19571 L 110,97.50237 l -3.29569,1.315236 c -3.54341,1.414094 -5.31795,3.484554 -5.35056,6.242814 -0.0271,2.29469 8.19132,0.90403 15.06068,-2.54845 3.50697,-1.76257 5.76378,-2.17166 7.28472,-1.3205 1.79508,1.00458 0.97666,1.80689 -4.41443,4.3276 -8.4391,3.94587 -8.213,3.74984 -5.94322,5.15264 1.22658,0.75808 2.67158,0.58249 3.96138,-0.48135 2.82036,-2.32625 9.03974,-4.86736 11.75986,-4.80484 1.32005,0.0303 0.59585,0.78208 -1.72992,1.7957 -2.20028,0.95893 -4.82375,2.73544 -5.82993,3.94781 -4.09894,4.93893 8.74048,1.77304 17.83045,-4.39655 6.22458,-4.2248 8.39186,-3.20945 2.40558,1.12699 -8.25761,5.98179 -12.50295,7.68875 -19.94486,8.01938 -4.7965,0.2131 -8.50615,-0.52804 -12.28021,-2.45342 -10.420233,-5.31601 -20.424567,-2.21666 -12.447792,3.85633 l 3.600612,2.74126 -3.333335,-0.3786 c -1.833333,-0.20823 -4.015349,-0.80681 -4.848924,-1.33016 -0.833575,-0.52336 -2.257043,-0.0582 -3.16326,1.03376 -0.906217,1.09192 -2.400735,1.98532 -3.321149,1.98532 -0.920415,0 -2.414932,-0.8934 -3.32115,-1.98532 z m 5.737483,-3.81975 c 1.130997,-1.72612 2.438639,-5.17612 2.905868,-7.66667 l 0.849507,-4.52826 h -6.171708 -6.171708 l 0.849506,4.52826 c 0.720191,3.83894 4.151463,10.80507 5.322202,10.80507 0.197985,0 1.285336,-1.41228 2.416333,-3.1384 z m 0.917,-29.628791 c 0,-0.975701 -0.711292,-3.335117 -1.580648,-5.243147 L 86.17204,77.18719 84.466602,80.260262 c -2.156495,3.885842 -2.232734,6.773606 -0.231659,8.774681 1.821449,1.821449 5.098392,-0.19384 5.098392,-3.135464 z M 20.105263,111.22222 c 0.06397,-1.55325 0.379921,-1.8692 0.805556,-0.80555 0.385161,0.9625 0.337792,2.1125 -0.105267,2.55555 -0.443056,0.44306 -0.758188,-0.34444 -0.700293,-1.75 z m 130.666677,0 c 0.064,-1.55325 0.37992,-1.8692 0.80554,-0.80555 0.38516,0.9625 0.3378,2.1125 -0.1052,2.55555 -0.44306,0.44306 -0.75818,-0.34444 -0.70029,-1.75 z M 29.083334,101.75585 c 0.9625,-0.38516 2.1125,-0.33779 2.555556,0.10527 0.443055,0.44305 -0.344445,0.75818 -1.75,0.70029 -1.553257,-0.064 -1.8692,-0.37992 -0.805556,-0.80556 z m 112.000006,0 c 0.96249,-0.38516 2.11249,-0.33779 2.55556,0.10527 0.44305,0.44305 -0.34446,0.75818 -1.75,0.70029 -1.55327,-0.064 -1.8692,-0.37992 -0.80556,-0.80556 z M 84.027919,51.366972 c -1.123299,-1.353491 -4.197269,-2.068843 -9.191178,-2.1389 l -7.503406,-0.105264 5.666666,-2.005848 c 3.997966,-1.415172 5.666667,-2.758399 5.666667,-4.561403 0,-2.188004 -1.006772,-2.562351 -7,-2.602803 -3.85,-0.02599 -8.487512,-0.870691 -10.305583,-1.877123 -2.949863,-1.632957 -3.882503,-1.498456 -8.666667,1.24986 -7.082646,4.068705 -12.926157,5.172686 -20.48406,3.869937 l -6.210357,-1.070474 8,-0.915435 C 44.566002,40.000459 45.53065,39.716617 49.906334,36.529153 L 53.640917,33.808698 46.96795,29.526667 C 43.29782,27.17155 37.678613,24.730332 34.480826,24.101739 l -5.814159,-1.142897 5.579867,-0.146087 c 3.068928,-0.08035 6.968928,0.382032 8.666667,1.027511 1.69774,0.64548 3.3868,1.097813 3.753467,1.005186 0.366666,-0.09263 2.466666,1.098623 4.666666,2.647221 8.197116,5.770017 13.22837,7.61028 19.983838,7.309414 7.368538,-0.328169 11.691675,-3.16177 11.074856,-7.259017 -0.696644,-4.627499 -4.29659,-5.66942 -8.409751,-2.434008 -2.021377,1.590016 -5.244317,2.872693 -7.162088,2.850393 -3.282318,-0.03817 -3.33043,-0.129253 -0.820188,-1.552714 2.784996,-1.579273 4.6115,-3.704735 4.64625,-5.406741 0.03951,-1.935229 -8.711624,-0.911769 -14.443402,1.68918 -4.017729,1.823154 -6.473311,2.247715 -8,1.383171 -1.786717,-1.011793 -0.886444,-1.829107 4.765728,-4.326564 6.704121,-2.962268 8.918592,-5.07912 5.313347,-5.07912 -0.944943,0 -4.071808,1.2 -6.94859,2.666667 -2.876781,1.466666 -6.453646,2.643181 -7.948589,2.614477 -2.121004,-0.04072 -1.839295,-0.43518 1.282439,-1.795696 2.200284,-0.958928 4.82375,-2.735443 5.829926,-3.947811 3.525535,-4.2480087 -5.082544,-2.489918 -15.320556,3.12903 -5.344685,2.933333 -10.495872,5.291162 -11.447082,5.23962 -1.083044,-0.05869 -0.931272,-0.432459 0.406055,-1 1.174539,-0.498458 5.428251,-3.1897 9.452691,-5.98054 9.639236,-6.684545 19.33465,-7.9865786 28.050987,-3.767072 6.708816,3.247682 15.05342,3.767498 16.113951,1.003798 0.918548,-2.393696 -1.57944,-4.8291398 -4.953155,-4.8291398 -1.974236,0 -2.277438,-0.3892283 -1.167685,-1.4989821 1.077631,-1.0776304 2.628701,-1.1051597 5.518022,-0.097937 3.14819,1.097465 4.361086,0.9889039 5.597612,-0.501018 0.868213,-1.0461344 2.331637,-1.9020627 3.252052,-1.9020627 0.920414,0 2.383838,0.8559283 3.252052,1.9020627 1.236525,1.4899219 2.449421,1.598483 5.597612,0.501018 2.88932,-1.0072224 4.440391,-0.9796931 5.518024,0.097937 1.10975,1.1097538 0.80655,1.4989821 -1.167688,1.4989821 -3.373715,0 -5.871703,2.4354438 -4.953155,4.8291398 1.060531,2.7637 9.405133,2.243884 16.113953,-1.003798 8.71634,-4.2195066 18.41175,-2.917473 28.05099,3.767072 4.02444,2.79084 8.27815,5.482082 9.45269,5.98054 1.33732,0.567541 1.4891,0.941313 0.40606,1 -0.95122,0.05154 -6.1024,-2.306287 -11.44708,-5.23962 -10.23802,-5.618948 -18.8461,-7.3770387 -15.32057,-3.12903 1.00618,1.212368 3.62965,2.988883 5.82993,3.947811 3.12173,1.360516 3.40344,1.754972 1.28244,1.795696 -1.49494,0.0287 -5.07181,-1.147811 -7.94859,-2.614477 -2.87678,-1.466667 -6.00365,-2.666667 -6.94859,-2.666667 -3.60525,0 -1.39078,2.116852 5.31335,5.07912 5.65217,2.497457 6.55244,3.314771 4.76572,4.326564 -1.52668,0.864544 -3.98227,0.439983 -8,-1.383171 C 104.34437,17.492171 95.917985,20.68959 106,26.406741 c 2.51024,1.423468 2.46213,1.514548 -0.82019,1.552714 -1.91777,0.02229 -5.14071,-1.260377 -7.162084,-2.850393 -4.11316,-3.235412 -7.713107,-2.193491 -8.409751,2.434008 -0.616819,4.097247 3.706319,6.930848 11.074855,7.259017 6.58672,0.29335 11.78743,-1.54674 19.31717,-6.834705 1.83334,-1.287508 3.93334,-2.478757 4.66667,-2.64722 0.73333,-0.168463 2.72239,-0.834416 4.42013,-1.479896 1.69774,-0.645479 5.59774,-1.107859 8.66667,-1.027511 l 5.57987,0.146087 -5.81416,1.142897 c -3.19779,0.628593 -8.817,3.069811 -12.48713,5.424928 l -6.67296,4.282031 3.73458,2.720455 c 4.37568,3.187464 5.34033,3.471306 15.90633,4.680366 l 8,0.915435 -6.21036,1.070474 c -7.5579,1.302749 -13.40141,0.198768 -20.48406,-3.869937 -4.78416,-2.748316 -5.7168,-2.882817 -8.66666,-1.24986 -1.81807,1.006432 -6.45558,1.851136 -10.30558,1.877123 -5.993233,0.04045 -7.000005,0.414799 -7.000005,2.602803 0,1.803004 1.668702,3.146231 5.666667,4.561403 l 5.666668,2.005848 -7.228347,0.105266 c -4.4782,0.06521 -8.083311,0.878995 -9.475491,2.1389 -2.013981,1.822628 -2.422266,1.822628 -3.934913,0 z m 4.535184,-13.623306 c -3.335317,-5.287575 -7.150116,0.01067 -4.541731,6.307927 l 1.808834,4.366911 2.02975,-4.285867 c 1.4209,-3.000264 1.631819,-4.91672 0.703147,-6.388971 z M 92.16305,20.96663 C 92.968906,19.762655 90.536891,13.752106 87.314918,8.9848246 85.902215,6.8945687 85.364507,7.336306 82.425088,13.001908 c -1.816422,3.501075 -3.078409,7.038124 -2.804414,7.860108 0.59586,1.78758 11.355845,1.877327 12.542376,0.104614 z M 16.666667,33.962665 C 13.733334,32.995915 9.2333335,32.104714 6.6666668,31.982218 L 2,31.759498 6.4861307,30.468699 c 2.972283,-0.855217 6.7063863,-0.814638 11.0656283,0.120254 9.082851,1.947922 13.956508,1.769505 19.163898,-0.701563 3.124918,-1.482871 5.143426,-1.725671 6.771551,-0.814527 1.991782,1.114658 1.53997,1.695798 -3.197378,4.112612 -6.295251,3.211596 -15.334314,3.508978 -23.623163,0.77719 z M 131.43502,33.123711 c -4.51236,-2.379182 -4.91343,-2.936514 -2.91716,-4.053684 1.6218,-0.907605 3.64689,-0.662984 6.76649,0.817362 5.20739,2.471068 10.08104,2.649485 19.16389,0.701562 4.35924,-0.93489 8.09335,-0.975469 11.06563,-0.120253 L 170,31.759497 165.87858,31.87975 c -2.26679,0.06613 -7.06679,1.013756 -10.66667,2.105819 -9.03325,2.740333 -17.52903,2.432381 -23.77689,-0.861858 z"
         id="path24" />
    </g>
    <g
       style="display:inline;fill:#ffffff"
       transform="matrix(0.02919015,0,0,0.02099449,14.138802,55.491064)"
       id="g40">
      <path
         id="path54"
         d="m 436.00195,399.08312 c 0,-51.68451 0.16814,-72.82817 0.37365,-46.98591 0.20551,25.84225 0.20551,68.12957 0,93.97183 -0.20551,25.84225 -0.37365,4.69859 -0.37365,-46.98592 z m -350.289433,26.70423 -2.575761,-3.04226 3.042253,2.57576 c 2.858962,2.42058 3.65779,3.50875 2.575762,3.50875 -0.256577,0 -1.625591,-1.36901 -3.042254,-3.04225 z m 116.913733,0.67605 c -1.68185,-2.14453 -1.63403,-2.19235 0.5105,-0.5105 1.30141,1.02064 2.3662,2.08543 2.3662,2.3662 0,1.11284 -1.11034,0.39658 -2.8767,-1.8557 z M 8.0945055,422.74509 c 1.7465915,-1.85915 3.4798375,-3.38028 3.8516685,-3.38028 0.371831,0 -0.752964,1.52113 -2.4995559,3.38028 -1.7465915,1.85916 -3.4798376,3.38028 -3.8516686,3.38028 -0.371831,0 0.7529645,-1.52112 2.499556,-3.38028 z m 183.7148445,-8.4507 c -1.68186,-2.14453 -1.63403,-2.19236 0.5105,-0.5105 1.30141,1.02064 2.3662,2.08543 2.3662,2.36619 0,1.11285 -1.11034,0.39659 -2.8767,-1.85569 z m -127.730635,-8.78873 -2.575761,-3.04226 3.042254,2.57576 c 2.858961,2.42058 3.657789,3.50875 2.575761,3.50875 -0.256577,0 -1.625591,-1.36901 -3.042254,-3.04225 z m -149.279981,-0.17248 c 0,-0.28077 1.064789,-1.34555 2.366198,-2.3662 2.144526,-1.68185 2.19235,-1.63402 0.510496,0.51051 -1.766358,2.25228 -2.876694,2.96853 -2.876694,1.85569 z M 29.728307,402.4634 c 1.746592,-1.85915 3.479838,-3.38028 3.851669,-3.38028 0.371831,0 -0.752964,1.52113 -2.499556,3.38028 -1.746591,1.85916 -3.479838,3.38028 -3.851669,3.38028 -0.37183,0 0.752965,-1.52112 2.499556,-3.38028 z m -4.158679,-11.15493 -3.27794,-3.71831 3.71831,3.27794 c 3.475321,3.06374 4.338375,4.15868 3.27794,4.15868 -0.242191,0 -1.91543,-1.67324 -3.71831,-3.71831 z m 42.693889,-3.04225 c 1.346015,-1.48732 2.751522,-2.70423 3.123353,-2.70423 0.371831,0 -0.425226,1.21691 -1.77124,2.70423 -1.346015,1.48732 -2.751522,2.70422 -3.123353,2.70422 -0.371831,0 0.425226,-1.2169 1.77124,-2.70422 z m 122.366193,-9.97529 c 0,-0.28077 1.06479,-1.34556 2.3662,-2.3662 2.14453,-1.68185 2.19235,-1.63403 0.5105,0.5105 -1.76636,2.25229 -2.8767,2.96854 -2.8767,1.8557 z m -187.3960629,-7.9402 -2.57576105,-3.04226 3.04225335,2.57576 c 1.6732394,1.41667 3.0422535,2.78568 3.0422535,3.04226 0,1.08203 -1.0881668,0.2832 -3.5087458,-2.57576 z m 86.6636719,-2.3662 c 1.346015,-1.48732 2.751522,-2.70423 3.123353,-2.70423 0.371831,0 -0.425226,1.21691 -1.77124,2.70423 -1.346015,1.48732 -2.751522,2.70422 -3.123353,2.70422 -0.371831,0 0.425226,-1.2169 1.77124,-2.70422 z m 111.549291,-1.86262 c 0,-0.28076 1.06479,-1.34555 2.3662,-2.36619 2.14453,-1.68186 2.19235,-1.63403 0.5105,0.5105 -1.76636,2.25228 -2.8767,2.96854 -2.8767,1.85569 z"
         style="fill:#ffffff;stroke-width:1.35211" />
      <path
         id="path52"
         d="m -3.4983216,463.30847 c 0.00102,-16.36056 0.1962659,-22.86768 0.4338767,-14.46027 0.2376095,8.40742 0.2367725,21.79333 -0.00189,29.74648 -0.2385979,7.95315 -0.433006,1.07436 -0.4319838,-15.28621 z M -118.89734,432.09721 c 0.0649,-1.57514 0.38528,-1.89553 0.81691,-0.81691 0.39058,0.97605 0.34255,2.14226 -0.10675,2.59156 -0.4493,0.44929 -0.76887,-0.34931 -0.71016,-1.77465 z M 62.17901,394.51628 c 0,-0.28077 1.064789,-1.34556 2.366198,-2.3662 2.144531,-1.68185 2.192355,-1.63403 0.510503,0.51051 -1.766359,2.25228 -2.876701,2.96853 -2.876701,1.85569 z M 7.92203,375.08312 c -1.6818523,-2.14453 -1.6340281,-2.19236 0.5105036,-0.5105 1.3014084,1.02064 2.3661974,2.08543 2.3661974,2.36619 0,1.11285 -1.1103416,0.39659 -2.876701,-1.85569 z m 75.890782,-0.84853 c 0,-0.28077 1.064789,-1.34556 2.366197,-2.3662 2.144532,-1.68185 2.192356,-1.63403 0.510504,0.51051 -1.766359,2.25228 -2.876701,2.96853 -2.876701,1.85569 z M -3.4983216,334.85777 c 0.00102,-16.36056 0.1962659,-22.86769 0.4338767,-14.46028 0.2376095,8.40742 0.2367725,21.79334 -0.00189,29.74648 -0.2385979,7.95315 -0.433006,1.07436 -0.4319838,-15.2862 z"
         style="fill:#ffffff;stroke-width:1.35211" />
      <path
         id="path50"
         d="m 96.605556,497.78735 c 0,-34.58029 0.175098,-48.72676 0.389111,-31.43662 0.214012,17.29014 0.214012,45.5831 0,62.87324 -0.214013,17.29014 -0.389111,3.14366 -0.389111,-31.43662 z m -18.37367,-79.43662 c -1.681852,-2.14454 -1.634028,-2.19236 0.510504,-0.51051 1.301408,1.02065 2.366197,2.08543 2.366197,2.3662 0,1.11284 -1.110341,0.39659 -2.876701,-1.85569 z m 18.37417,-118.64789 c -2.84e-4,-34.95211 0.17449,-49.44472 0.388381,-32.20578 0.21389,17.23893 0.214107,45.83612 5e-4,63.54929 -0.21362,17.71318 -0.388611,3.6086 -0.388881,-31.34351 z"
         style="fill:#ffffff;stroke-width:1.35211" />
      <path
         id="path48"
         d="m 227.45919,581.2803 c 0.17733,-84.21971 0.48093,-128.4845 0.67465,-98.36619 0.92751,144.19826 0.93475,251.49327 0.017,251.49312 -0.55775,-10e-5 -0.86899,-68.90721 -0.69165,-153.12693 z M 335.62905,398.74509 c 0.1778,-89.42535 0.48145,-136.42817 0.67476,-104.4507 0.92675,153.30065 0.93358,267.04254 0.0161,267.0424 -0.55775,-8e-5 -0.86861,-73.16634 -0.6908,-162.5917 z M -4.0745081,433.72755 c 0,-0.28077 1.0647887,-1.34556 2.3661971,-2.3662 2.14452629,-1.68185 2.19235052,-1.63403 0.5104968,0.5105 -1.766358,2.25229 -2.8766939,2.96854 -2.8766939,1.8557 z M 74.175549,414.29439 c -1.681853,-2.14453 -1.634029,-2.19236 0.510503,-0.5105 1.301409,1.02064 2.366197,2.08543 2.366197,2.36619 0,1.11285 -1.110341,0.39659 -2.8767,-1.85569 z m -56.616255,-0.84853 c 0,-0.28077 1.064789,-1.34556 2.366197,-2.3662 2.144532,-1.68185 2.192356,-1.63403 0.510504,0.5105 -1.76636,2.25229 -2.876701,2.96854 -2.876701,1.8557 z m -2.156633,-30.92612 -2.575761,-3.04225 3.042253,2.57576 c 2.858961,2.42058 3.657789,3.50874 2.575761,3.50874 -0.256577,0 -1.625591,-1.36901 -3.042253,-3.04225 z m 63.677757,-3.71831 c 1.346015,-1.48732 2.751522,-2.70422 3.123353,-2.70422 0.371831,0 -0.425226,1.2169 -1.77124,2.70422 -1.346015,1.48732 -2.751522,2.70423 -3.123353,2.70423 -0.371831,0 0.425226,-1.21691 1.77124,-2.70423 z M 227.79121,200.99861 c -5e-5,-89.23943 0.16168,-125.945637 0.35938,-81.56934 0.19771,44.37631 0.19775,117.39039 8e-5,162.25353 -0.19765,44.86313 -0.35942,8.55525 -0.35946,-80.68419 z"
         style="fill:#ffffff;stroke-width:1.35211" />
      <path
         id="path46"
         d="m 210.21207,584.99861 c 6e-5,-82.54647 0.16255,-116.11661 0.36111,-74.6003 0.19856,41.51631 0.19852,109.05434 -9e-5,150.08451 -0.19861,41.03017 -0.36107,7.06227 -0.36102,-75.48421 z m -328.31474,-74.59155 c -0.49578,-0.49577 -0.90141,-17.45788 -0.90141,-37.69359 0,-33.43184 0.21611,-36.96168 2.3662,-38.64789 2.11004,-1.6548 2.17864,-1.61562 0.63376,0.36197 -1.33502,1.70895 -1.64519,10.78154 -1.35211,39.55017 0.20917,20.53288 0.32961,37.33211 0.26764,37.33162 -0.062,-4.7e-4 -0.51831,-0.4065 -1.01408,-0.90228 z m 209.223638,-80.56338 -2.575761,-3.04225 3.042253,2.57576 c 2.858961,2.42058 3.657789,3.50875 2.575761,3.50875 -0.256577,0 -1.625591,-1.36902 -3.042253,-3.04226 z M 2.686055,426.80143 c 1.7465915,-1.85915 3.4798376,-3.38028 3.8516686,-3.38028 0.3718309,0 -0.7529645,1.52113 -2.499556,3.38028 -1.7465915,1.85916 -3.4798349,3.38028 -3.85166587,3.38028 -0.37183098,0 0.75296853,-1.52112 2.49955327,-3.38028 z M 227.72296,395.70284 c -8.3e-4,-18.59155 0.18961,-26.38472 0.42318,-17.31816 0.23358,9.06658 0.23426,24.27785 0.001,33.80282 -0.23261,9.52498 -0.42372,2.10689 -0.42454,-16.48466 z m -158.235794,13.85915 -2.575761,-3.04225 3.042253,2.57576 c 2.858961,2.42058 3.657789,3.50875 2.575761,3.50875 -0.256577,0 -1.625591,-1.36902 -3.042253,-3.04226 z m -45.167309,-3.04225 c 1.746591,-1.85915 3.479838,-3.38028 3.851669,-3.38028 0.371831,0 -0.752965,1.52113 -2.499556,3.38028 -1.746592,1.85916 -3.479838,3.38028 -3.851669,3.38028 -0.371831,0 0.752964,-1.52112 2.499556,-3.38028 z M 182.34456,404.8296 c -1.68185,-2.14453 -1.63403,-2.19236 0.5105,-0.5105 1.30141,1.02064 2.3662,2.08543 2.3662,2.36619 0,1.11285 -1.11034,0.39659 -2.8767,-1.85569 z m -161.533449,-16.90141 -2.575761,-3.04225 3.042254,2.57576 c 2.858961,2.42058 3.657789,3.50874 2.575761,3.50874 -0.256577,0 -1.625591,-1.36901 -3.042254,-3.04225 z m 52.1848,-3.04225 c 1.746592,-1.85916 3.479838,-3.38028 3.851669,-3.38028 0.371831,0 -0.752964,1.52112 -2.499556,3.38028 -1.746591,1.85915 -3.479838,3.38028 -3.851669,3.38028 -0.371831,0 0.752965,-1.52113 2.499556,-3.38028 z m 108.169009,2.86978 c 0,-0.28077 1.06479,-1.34556 2.3662,-2.3662 2.14453,-1.68185 2.19235,-1.63403 0.5105,0.5105 -1.76636,2.25228 -2.8767,2.96854 -2.8767,1.8557 z m -182.6375389,-20.78528 -3.2779455,-3.71831 3.7183097,3.27795 c 3.4753215,3.06373 4.338375,4.15867 3.2779401,4.15867 -0.2421904,0 -1.91543382,-1.67323 -3.7183043,-3.71831 z m 94.7502199,-0.84853 c 0,-0.28076 1.064788,-1.34555 2.366197,-2.36619 2.144532,-1.68186 2.192356,-1.63403 0.510503,0.5105 -1.766359,2.25228 -2.8767,2.96854 -2.8767,1.85569 z M 209.23236,197.61826 c -0.19201,-87.00848 0.10721,-158.197216 0.66495,-158.197178 0.55775,3.6e-5 1.01409,71.188798 1.01409,158.197248 0,87.00845 -0.29922,158.19719 -0.66496,158.19719 -0.36572,0 -0.82205,-71.18876 -1.01408,-158.19726 z"
         style="fill:#ffffff;stroke-width:1.35211" />
      <path
         id="path44"
         d="m 556.34114,413.2803 c 1.4e-4,-53.54366 0.16781,-75.251 0.37263,-48.23855 0.20482,27.01245 0.20472,70.8209 -2.3e-4,97.35211 -0.20494,26.53121 -0.37252,4.43011 -0.3724,-49.11356 z m -470.628623,11.15493 -2.575761,-3.04225 3.042253,2.57576 c 2.858962,2.42058 3.65779,3.50875 2.575762,3.50875 -0.256577,0 -1.625591,-1.36902 -3.042254,-3.04226 z M 8.7705618,420.71692 c 1.3460142,-1.48732 2.7515222,-2.70422 3.1233532,-2.70422 0.371831,0 -0.425226,1.2169 -1.771241,2.70422 -1.3460142,1.48733 -2.7515217,2.70423 -3.1233527,2.70423 -0.371831,0 0.4252259,-1.2169 1.7712405,-2.70423 z m 55.3081532,-16.56338 -2.575761,-3.04225 3.042254,2.57576 c 2.858961,2.42058 3.657789,3.50875 2.575761,3.50875 -0.256577,0 -1.625591,-1.36902 -3.042254,-3.04226 z m -35.70252,-1.52458 c 0,-0.28077 1.064789,-1.34556 2.366197,-2.3662 2.144532,-1.68185 2.192356,-1.63403 0.510504,0.5105 -1.76636,2.25228 -2.876701,2.96854 -2.876701,1.8557 z m -2.156633,-9.29232 -2.575761,-3.04225 3.042253,2.57576 c 2.858961,2.42058 3.657789,3.50875 2.575761,3.50875 -0.256577,0 -1.625591,-1.36902 -3.042253,-3.04226 z m 40.691843,-2.3662 c 1.346014,-1.48732 2.751522,-2.70422 3.123353,-2.70422 0.371831,0 -0.425226,1.2169 -1.771241,2.70422 -1.346014,1.48733 -2.751522,2.70423 -3.123353,2.70423 -0.371831,0 0.425226,-1.2169 1.771241,-2.70423 z M 189.2776,378.29093 c 0,-0.28077 1.06479,-1.34556 2.36619,-2.3662 2.14454,-1.68185 2.19236,-1.63403 0.51051,0.5105 -1.76636,2.25229 -2.8767,2.96854 -2.8767,1.8557 z m -184.6918403,-5.23598 -2.575761,-3.04225 3.0422534,2.57576 c 2.858961,2.42058 3.6577891,3.50875 2.575761,3.50875 -0.2565769,0 -1.6255909,-1.36902 -3.0422534,-3.04226 z m 85.3115593,-3.71831 c 1.346015,-1.48732 2.751522,-2.70422 3.123353,-2.70422 0.371831,0 -0.425226,1.2169 -1.77124,2.70422 -1.346015,1.48733 -2.751522,2.70423 -3.123353,2.70423 -0.371831,0 0.425226,-1.2169 1.77124,-2.70423 z"
         style="fill:#ffffff;stroke-width:1.35211" />
      <path
         id="path42"
         d="M 45.615631,621.29216 -117.65197,509.6199 v -36.86198 -36.86199 l 22.30986,-19.85057 c 12.270422,-10.91781 22.309858,-20.07194 22.309858,-20.34252 0,-0.27059 -10.047335,-9.43174 -22.32741,-20.35814 l -22.327408,-19.86619 0.35558,-46.0244 0.35558,-46.0244 160.9014,-110.08339 c 88.49577,-60.545869 161.96619,-110.664977 163.2676,-111.3758 2.24752,-1.227587 2.36355,6.626948 2.31325,156.61433 l -0.053,157.90672 -17.49075,19.47317 -17.49076,19.47315 3.68456,4.43835 c 2.02649,2.44109 9.92384,11.40858 17.54965,19.92775 l 13.8651,15.4894 -0.34398,148.83552 -0.34392,148.83552 z M 97.333939,498.01744 v -63.3192 L 78.74239,417.29329 c -10.225352,-9.57271 -18.726489,-17.73823 -18.891434,-18.14558 -0.16493,-0.40735 8.201267,-8.63217 18.591549,-18.27738 L 97.333939,363.3336 v -63.39666 c 0,-56.21514 -0.233213,-63.30717 -2.058714,-62.60665 -1.132299,0.4345 -23.9492,15.75928 -50.704223,34.05505 l -48.6455101,33.26507 v 30.0805 30.08051 l 18.2069941,16.79782 18.207008,16.79782 -18.237052,17.57747 -18.2370542,17.57746 0.030057,29.84931 0.030047,29.84931 49.6901392,34.00377 c 27.329576,18.70208 50.146477,34.01919 50.704223,34.03803 0.557747,0.0188 1.014085,-28.45941 1.014085,-63.28497 z M 228.48886,386.93421 c 0,-190.51247 0.49273,-346.183485 1.09496,-345.935597 0.60221,0.247887 71.03038,48.279873 156.50703,106.737747 85.47664,58.45787 157.54166,107.29968 160.14448,108.53735 2.60282,1.23767 6.03876,3.30145 7.63545,4.58619 l 2.90305,2.3359 -0.73228,123.37103 -0.73229,123.37105 -159.57362,109.19233 C 307.97014,679.186 234.43555,729.4471 232.32543,730.82153 l -3.83657,2.49898 z m 159.40431,139.81745 48.82104,-33.42902 v -94.36068 -94.36069 l -48.54089,-33.20034 c -26.69747,-18.26019 -49.51437,-33.57392 -50.70422,-34.0305 -1.97565,-0.75813 -2.16334,13.27176 -2.16334,161.71269 0,138.36498 0.28012,162.43535 1.88318,161.8202 1.03575,-0.39746 23.85265,-15.7657 50.70423,-34.15166 z"
         style="fill:#ffffff;stroke-width:1.35211" />
    </g>
  </g>
  <g
     style="display:none"
     inkscape:label="components"
     id="layer2"
     inkscape:groupmode="layer" />
</svg>
