<?xml version="1.0" encoding="UTF-8" standalone="no"?>
<svg
   xmlns:dc="http://purl.org/dc/elements/1.1/"
   xmlns:cc="http://creativecommons.org/ns#"
   xmlns:rdf="http://www.w3.org/1999/02/22-rdf-syntax-ns#"
   xmlns:svg="http://www.w3.org/2000/svg"
   xmlns="http://www.w3.org/2000/svg"
   xmlns:sodipodi="http://sodipodi.sourceforge.net/DTD/sodipodi-0.dtd"
   xmlns:inkscape="http://www.inkscape.org/namespaces/inkscape"
   width="40.639999mm"
   height="128.5mm"
   viewBox="0 0 40.64 128.5"
   version="1.1"
   id="svg8"
   inkscape:version="1.0 (4035a4fb49, 2020-05-01)"
   sodipodi:docname="bullet.svg">
  <defs
     id="defs2" />
  <sodipodi:namedview
     id="base"
     pagecolor="#ffffff"
     bordercolor="#666666"
     borderopacity="1.0"
     inkscape:pageopacity="0.0"
     inkscape:pageshadow="2"
     inkscape:zoom="1.332703"
     inkscape:cx="351.68282"
     inkscape:cy="237.5357"
     inkscape:document-units="mm"
     inkscape:current-layer="layer2"
     inkscape:document-rotation="0"
     showgrid="false"
     inkscape:snap-global="false"
     inkscape:window-width="1600"
     inkscape:window-height="837"
     inkscape:window-x="-8"
     inkscape:window-y="-8"
     inkscape:window-maximized="1" />
  <metadata
     id="metadata5">
    <rdf:RDF>
      <cc:Work
         rdf:about="">
        <dc:format>image/svg+xml</dc:format>
        <dc:type
           rdf:resource="http://purl.org/dc/dcmitype/StillImage" />
        <dc:title />
      </cc:Work>
    </rdf:RDF>
  </metadata>
  <g
     inkscape:label="Layer 1"
     inkscape:groupmode="layer"
     id="layer1">
    <rect
       style="fill:#000000;fill-rule:evenodd;stroke-width:0.264583"
       id="rect31"
       width="40.500401"
       height="128.84685"
       x="0"
       y="-0.19853134" />
    <g
       aria-label="Bullet"
       transform="matrix(1.183243,0,0,0.84513491,-0.61529259,0)"
       id="text35"
       style="font-size:11.6878px;line-height:1.25;font-family:Arial;-inkscape-font-specification:Arial;stroke-width:0.313066">
      <path
         d="m 4.9430334,7.2828243 c -0.3339375,0.42744 -0.5476575,0.90831 -0.69459,1.4025375 -0.093503,0.2805075 -0.10686,0.561015 -0.026715,0.8415225 0.026715,0.080145 0.026715,0.16029 0.026715,0.2537925 -0.040072,0.2537922 -0.133575,0.4808702 -0.4675125,0.5877302 -0.026715,0.01336 -0.040072,0.04007 -0.066787,0.08014 0.040072,0.02672 0.080145,0.05343 0.10686,0.05343 0.16029,0 0.187005,0.10686 0.21372,0.200362 0.040072,0.10686 -0.05343,0.16029 -0.133575,0.200363 -0.040072,0.02672 -0.10686,0.04007 -0.1469325,0.06679 -0.05343,0.02672 -0.1202175,0.05343 -0.1469325,0.10686 -0.013358,0.01336 0.05343,0.08014 0.093503,0.10686 0.2003625,0.10686 0.240435,0.240435 0.187005,0.42744 -0.026715,0.06679 -0.040072,0.133575 -0.080145,0.200363 -0.040072,0.06679 -0.026715,0.120217 0.026715,0.173647 0.093503,0.120218 0.133575,0.240435 0.133575,0.37401 0,0.32058 -0.093503,0.64116 -0.2537925,0.90831 -0.026715,0.06679 -0.066788,0.120218 -0.093503,0.187005 -0.040072,0.120218 -0.026715,0.120218 0.10686,0.16029 0.10686,0.01336 0.21372,0.04007 0.2805075,0.08014 0.2537925,0.187005 0.240435,0.627803 0,0.814808 -0.026715,0.02671 -0.05343,0.05343 -0.080145,0.08014 0.013357,0.02671 0.026715,0.05343 0.040072,0.06679 0.240435,0.120218 0.26715,0.293865 0.187005,0.494228 -0.05343,0.16029 -0.1202175,0.333937 -0.187005,0.507585 -0.10686,0.32058 -0.16029,0.654517 -0.093503,0.988455 0.066787,0.333937 0.2805075,0.627802 0.454155,0.921667 0.026715,0.04007 0.05343,0.06679 0.080145,0.10686 l 0.05343,-0.01336 c 0,-0.16029 0,-0.32058 0,-0.48087 0,-0.240435 0.05343,-0.48087 0.1736475,-0.707948 0.066788,-0.120217 0.16029,-0.187005 0.3072225,-0.227077 0.16029,-0.04007 0.32058,-0.08014 0.48087,0 0.026715,0.01336 0.080145,0 0.1469325,0 -0.026715,-0.08014 -0.05343,-0.120218 -0.066787,-0.173648 -0.040072,-0.187005 -0.093503,-0.360652 -0.1202175,-0.5343 -0.013358,-0.133575 0.05343,-0.173647 0.2003625,-0.146932 0.21372,0.04007 0.37401,0.10686 0.48087,0.26715 0.1202175,0.187005 0.187005,0.37401 0.187005,0.58773 0,0.16029 0.05343,0.187005 0.2270775,0.10686 0.42744,-0.227078 0.80145,-0.200363 1.202175,0.05343 0.05343,0.04007 0.1202175,0.08015 0.187005,0.120217 0.080145,0.06679 0.133575,0.01336 0.1736475,-0.02671 -0.040072,-0.0935 -0.093502,-0.16029 -0.1202175,-0.227077 -0.2003625,-0.561015 -0.080145,-1.108673 0.2003625,-1.616258 0.05343,-0.08014 0.10686,-0.146932 0.1736475,-0.187005 0.1736475,-0.133575 0.347295,-0.0935 0.454155,0.06679 0.013358,0.04007 0.040073,0.08014 0.05343,0.133575 0.040073,-0.02672 0.066788,-0.04007 0.080145,-0.05343 0.2003625,-0.347295 0.32058,-0.707948 0.133575,-1.095315 -0.066788,-0.133575 -0.1469325,-0.253793 -0.2270775,-0.37401 -0.3072225,-0.494228 -0.37401,-0.988455 -0.133575,-1.49604 0.040073,-0.10686 0.10686,-0.187005 0.1469325,-0.293865 0.026715,-0.05343 0.05343,-0.10686 -0.026715,-0.16029 -0.1469325,0 -0.2270775,0.10686 -0.3072225,0.173647 -0.2003625,0.187005 -0.42744,0.32058 -0.6812325,0.42744 -0.16029,0.06679 -0.3072225,0.133575 -0.4675125,0.200363 -0.040072,0.01336 -0.093502,0.02671 -0.1736475,0.05343 0.133575,-0.187005 0.240435,-0.347295 0.3606525,-0.494228 0.16029,-0.200362 0.3072225,-0.240435 0.6010875,-0.200362 0.05343,0.01336 0.1202175,0 0.187005,0 -0.013357,-0.04007 -0.013357,-0.06679 -0.026715,-0.08014 -0.16029,-0.0935 -0.1736475,-0.240435 -0.16029,-0.387368 0.026715,-0.0935 0.040072,-0.187005 0.066788,-0.293865 0.066788,-0.26715 0.2270775,-0.494227 0.4407975,-0.6945897 0.040072,-0.040072 0.040072,-0.093502 0.05343,-0.1469325 -0.05343,0 -0.1202175,-0.013358 -0.16029,-0.013358 -0.187005,0.040073 -0.3606525,0.080145 -0.5476575,0.1469325 -0.2805075,0.093503 -0.58773,0.10686 -0.881595,0.026715 -0.3873675,-0.10686 -0.58773,-0.347295 -0.58773,-0.6812325 0,-0.05343 -0.026715,-0.093502 -0.05343,-0.1736475 -0.1202175,0.080145 -0.21372,0.1469325 -0.3072225,0.2003625 -0.2537925,0.133575 -0.48087,0.1202175 -0.69459,-0.040072 -0.2537925,-0.1736475 -0.37401,-0.4140825 -0.42744,-0.667875 -0.080145,-0.42744 -0.026715,-0.828165 0.1202175,-1.2422475 0.013357,-0.040072 0.026715,-0.093502 0.026715,-0.133575 -0.1469325,-0.040073 -0.1736475,0.040072 -0.2137205,0.10686 z m 0.64116,7.2397647 c -0.080145,0.04007 -0.1736475,0.05343 -0.26715,0.08014 -0.066788,-0.10686 -0.05343,-0.187005 -0.040072,-0.280507 0.040072,-0.173648 0.066787,-0.360653 0.080145,-0.547658 0,-0.26715 0.1202175,-0.494227 0.400725,-0.64116 0.187005,-0.10686 0.3873675,-0.200362 0.6010875,-0.26715 0.2805075,-0.0935 0.3606525,-0.05343 0.42744,0.187005 0.05343,0.173648 0.05343,0.360653 0.080145,0.5343 0.026715,0.133575 0.026715,0.133575 0.1202175,0.240435 0.1202175,-0.02671 0.10686,-0.10686 0.1202175,-0.187005 0.026715,-0.21372 0.066787,-0.42744 0.093502,-0.64116 0.013357,-0.08014 0.05343,-0.146932 0.16029,-0.173647 0.1202175,-0.04007 0.2270775,-0.01336 0.26715,0.08015 0.093503,0.21372 0.187005,0.42744 0.2270775,0.64116 0.05343,0.240435 -0.1469325,0.414082 -0.32058,0.58773 -0.066788,0.06679 -0.1736475,0.02671 -0.26715,0 -0.093503,-0.02672 -0.1736475,-0.0935 -0.293865,-0.02672 0,0.02672 -0.013357,0.06679 0.013358,0.0935 0.10686,0.120218 0.066787,0.253793 0,0.387368 -0.093503,0.16029 -0.187005,0.333937 -0.293865,0.520942 -0.2805075,-0.293865 -0.5343,-0.574372 -0.454155,-0.96174 0.013357,-0.08014 0.080145,-0.187005 -0.080145,-0.26715 -0.1469325,0.253793 -0.2537925,0.520943 -0.5743725,0.64116 z m -0.240435,-3.41952 c -0.080145,-0.10686 -0.1736475,-0.227077 -0.2003625,-0.347295 -0.066788,-0.32058 0.16029,-0.5343 0.5209425,-0.574372 0.2003625,-0.01336 0.32058,0.06679 0.3072225,0.240435 -0.013357,0.0935 -0.05343,0.200362 -0.093503,0.293865 0.093503,0.06679 0.133575,0.02671 0.187005,-0.02672 0.1469325,-0.146933 0.6010875,-0.146933 0.7613775,-0.06679 0.1202175,0.06679 0.16029,0.120218 0.10686,0.227078 -0.1202175,0.200362 -0.3072225,0.347295 -0.561015,0.414082 -0.093502,0.02672 -0.2003625,0 -0.3072225,0 -0.066787,-0.01336 -0.133575,-0.04007 -0.2003625,0.05343 0.040072,0.02671 0.080145,0.06679 0.1202175,0.08014 0.133575,0.04007 0.187005,0.120218 0.21372,0.227078 0.040072,0.280507 -0.2537925,0.627802 -0.58773,0.681232 -0.2805075,0.04007 -0.4407975,-0.0935 -0.3606525,-0.307222 0.026715,-0.0935 0.066788,-0.173648 0.10686,-0.26715 -0.187005,-0.187005 -0.26715,-0.253793 -0.013358,-0.627803 z"
         style="font-style:normal;font-variant:normal;font-weight:normal;font-stretch:normal;font-size:13.3575px;font-family:'Crucial Noise';-inkscape-font-specification:'Crucial Noise';fill:#ffffff;stroke-width:0.313066"
         id="path37" />
      <path
         d="m 9.6799369,15.203822 c 0.013357,0.0935 -0.133575,0.133575 -0.05343,0.253792 0.066787,0 0.133575,-0.01336 0.21372,-0.02671 0.3740101,-0.04007 0.6010871,0.120218 0.6411601,0.42744 0,0.06679 0,0.120218 0,0.187005 0,0.04007 0,0.08015 0.01336,0.10686 0.02671,0.02671 0.05343,0.04007 0.08014,0.04007 0.02671,0 0.05343,-0.02671 0.05343,-0.04007 0.01336,-0.05343 0.01336,-0.10686 0.01336,-0.16029 0.02672,-0.146932 0.04007,-0.293865 0.173647,-0.414082 0.16029,0.01336 0.240435,0.08014 0.26715,0.200362 0.02672,0.200363 0.06679,0.400725 0.0935,0.614445 0.02672,0.0935 0.04007,0.187005 0.05343,0.26715 0.01336,0.02671 0.05343,0.04007 0.08014,0.04007 0.01336,0 0.05343,-0.02671 0.05343,-0.04007 0,-0.04007 0.01336,-0.0935 0.01336,-0.133575 0.01336,-0.307222 0.04007,-0.614445 0.08014,-0.921667 0.01336,-0.146933 0.08014,-0.187005 0.26715,-0.16029 0.08014,0.01336 0.146933,0.04007 0.240435,0.05343 0,-0.05343 -0.01336,-0.0935 -0.02672,-0.146933 -0.01336,-0.06679 -0.01336,-0.120217 0.05343,-0.16029 0.06679,-0.04007 0.16029,-0.02672 0.21372,0.02671 0.08014,0.05343 0.146933,0.133575 0.200363,0.21372 0.0935,0.173648 0.10686,0.360653 0.10686,0.547658 -0.01336,0.08014 -0.04007,0.16029 -0.04007,0.240435 0,0.04007 0.04007,0.06679 0.05343,0.10686 0.04007,-0.02671 0.08014,-0.05343 0.10686,-0.06679 0.01336,-0.01336 0.02671,-0.04007 0.02671,-0.05343 0.16029,-0.333937 0.227078,-0.681232 0.146933,-1.028527 -0.02672,-0.133575 -0.04007,-0.253793 -0.06679,-0.387368 -0.02671,-0.146932 0.05343,-0.240435 0.187005,-0.32058 0.02672,-0.02671 0.05343,-0.04007 0.08014,-0.05343 0.10686,-0.06679 0.10686,-0.0935 0.01336,-0.16029 -0.146933,-0.10686 -0.187005,-0.227077 -0.146933,-0.37401 0.02671,-0.10686 0.08014,-0.200362 0.120218,-0.293865 0.04007,-0.0935 0.08014,-0.187005 0.120217,-0.26715 -0.387367,-0.187005 -0.454155,-0.400725 -0.293865,-0.85488 -0.173647,-0.280507 -0.173647,-0.307222 0.08014,-0.5343 0.02671,-0.02671 0.05343,-0.05343 0.08014,-0.08014 0.0935,-0.0935 0.16029,-0.200362 0.173648,-0.32058 -0.333938,-0.133575 -0.400725,-0.21372 -0.414083,-0.520942 0,-0.16029 0.04007,-0.32058 0.146933,-0.440798 0.05343,-0.08014 0.05343,-0.146932 -0.02672,-0.200362 -0.187005,-0.133575 -0.187005,-0.293865 -0.146933,-0.4675127 0.10686,-0.3606525 0.21372,-0.7346625 0.347295,-1.095315 0.06679,-0.187005 0.16029,-0.3606525 0.240435,-0.5343 0.04007,-0.066788 0.05343,-0.1202175 -0.06679,-0.16029 -0.04007,0.066788 -0.0935,0.1202175 -0.133575,0.1736475 -0.187005,0.3072225 -0.37401,0.6278025 -0.58773,0.9216675 -0.10686,0.16029 -0.253793,0.293865 -0.387368,0.4407975 -0.05343,0.05343 -0.10686,0.080145 -0.173647,0.10686 -0.133575,0.080145 -0.227078,0.066787 -0.333938,-0.040073 -0.06679,-0.05343 -0.120217,-0.1202175 -0.173647,-0.16029 -0.10686,0.040072 -0.08014,0.093502 -0.05343,0.133575 0.08014,0.1202175 0.173647,0.240435 0.253792,0.3606532 0.04007,0.06679 0.08014,0.133575 0.10686,0.21372 0.06679,0.187005 0.01336,0.360652 -0.187005,0.494227 0.187005,0.133575 0.146933,0.26715 0.06679,0.400725 0.187005,0.120218 0.253792,0.26715 0.240435,0.454155 -0.02671,0.187005 -0.10686,0.32058 -0.360653,0.360653 -0.0935,0.02672 -0.0935,0.0935 -0.01336,0.120217 0.253792,0.10686 0.347295,0.280508 0.387367,0.494228 0.04007,0.253792 0,0.32058 -0.280507,0.440797 0.04007,0.06679 0.0935,0.133575 0.133575,0.187005 0.16029,0.253793 0.06679,0.48087 -0.240435,0.574373 -0.01336,0 -0.01336,0.01336 0,0.01336 0,0.133575 0.04007,0.26715 0.02672,0.387368 -0.05343,0.293865 -0.280508,0.387367 -0.614445,0.26715 -0.187005,0.08014 -0.293865,0.0935 -0.400725,0.01336 -0.10686,-0.0935 -0.120218,-0.227077 -0.04007,-0.37401 0.02672,-0.04007 0.05343,-0.0935 0.10686,-0.173647 -0.187005,-0.02671 -0.253792,-0.120218 -0.26715,-0.227078 -0.02671,-0.0935 -0.04007,-0.200362 -0.01336,-0.293865 0.04007,-0.133575 0.120217,-0.253792 0.187005,-0.387367 0.06679,-0.120218 0.133575,-0.240435 0.200362,-0.37401 0.01336,-0.04007 0,-0.08014 -0.01336,-0.120218 -0.04007,0 -0.05343,-0.01336 -0.06679,0 -0.200362,0.08014 -0.240435,0.06679 -0.32058,-0.0935 -0.04007,-0.08014 -0.0935,-0.173648 -0.0935,-0.26715 0,-0.120218 0.02672,-0.240435 0.05343,-0.347295 0.04007,-0.120218 0.187005,-0.120218 0.307222,-0.173648 -0.04007,-0.05343 -0.06679,-0.0935 -0.0935,-0.133575 -0.187005,-0.240435 -0.21372,-0.520942 -0.173648,-0.788092 0.04007,-0.16029 0.08014,-0.32058 0.253793,-0.42744 0.06679,-0.04007 0.02671,-0.0935 -0.01336,-0.133575 -0.05343,-0.05343 -0.120217,-0.120218 -0.146932,-0.1870057 -0.08014,-0.1736475 -0.06679,-0.3606525 0.02671,-0.5343 0.02671,-0.040072 0.05343,-0.080145 0.08014,-0.1202175 0.02671,-0.080145 -0.02671,-0.133575 -0.120218,-0.1202175 -0.04007,0 -0.08014,0.026715 -0.120217,0.026715 C 10.04054,9.2731023 9.8401779,9.2463873 9.6531729,9.1528843 9.4127869,9.0326568 9.3059269,8.8322943 9.2257819,8.6319318 9.1723519,8.4582843 9.1456369,8.2712793 9.1055644,8.0842743 9.0922069,8.0575593 9.0788494,8.0174868 9.0654919,7.9907718 h -0.05343 c -0.013358,0.040072 -0.026715,0.093503 -0.040073,0.133575 -0.066788,0.26715 -0.026715,0.5343 0.05343,0.80145 0.080145,0.2537925 0.16029,0.507585 0.21372,0.774735 0.066788,0.2805075 0.080145,0.5610152 -0.187005,0.7880922 -0.093502,0.08014 -0.080145,0.120218 0.040073,0.16029 0.2537925,0.0935 0.32058,0.26715 0.3339375,0.48087 0.040072,0.400725 -0.1202175,0.761378 -0.400725,1.095315 -0.066788,0.0935 -0.1202175,0.187005 -0.1736475,0.280508 -0.013357,0.04007 0,0.0935 0,0.173647 0.080145,-0.04007 0.1202175,-0.05343 0.16029,-0.08014 0.1202175,-0.05343 0.2003625,-0.05343 0.293865,0.02671 0.05343,0.05343 0.093503,0.120218 0.10686,0.200363 0.040072,0.133575 -0.05343,0.227077 -0.187005,0.293865 -0.066788,0.04007 -0.10686,0.10686 -0.026715,0.146932 0.2270775,0.10686 0.21372,0.280508 0.187005,0.454155 -0.040072,0.280508 -0.1469325,0.547658 -0.293865,0.80145 -0.1736475,0.32058 -0.240435,0.654518 -0.1202175,1.001813 0.013357,0.02671 0.05343,0.05343 0.093502,0.10686 0.093502,-0.280508 0.066788,-0.614445 0.561015,-0.681233 0.026715,0.10686 0.05343,0.173648 0.05343,0.253793 z"
         style="font-style:normal;font-variant:normal;font-weight:normal;font-stretch:normal;font-size:13.3575px;font-family:'Crucial Noise';-inkscape-font-specification:'Crucial Noise';fill:#ffffff;stroke-width:0.313066"
         id="path39" />
      <path
         d="m 14.58694,16.846794 c -0.04007,-0.21372 -0.0935,-0.42744 -0.133575,-0.627802 -0.06679,-0.240435 -0.01336,-0.48087 0.120217,-0.69459 0.06679,-0.0935 0.146933,-0.173648 0.240435,-0.240435 0.187005,-0.120218 0.440798,-0.08014 0.58773,0.08014 0.0935,0.120217 0.146933,0.26715 0.146933,0.414082 0,0.05343 0.01336,0.10686 0.02672,0.173648 0.120217,-0.02671 0.0935,-0.0935 0.10686,-0.146933 0.04007,-0.146932 0.05343,-0.293865 0.10686,-0.440797 0.08014,-0.173648 0.21372,-0.200363 0.400725,-0.0935 0.06679,0.04007 0.133575,0.0935 0.200362,0.146933 0.293865,0.307222 0.333938,0.654517 0.146933,1.01517 -0.08014,0.16029 -0.21372,0.293865 -0.32058,0.440797 -0.04007,0.05343 -0.120218,0.0935 -0.0935,0.187005 0.200363,-0.05343 0.333938,-0.16029 0.454155,-0.280507 0.387368,-0.333938 0.601088,-0.734663 0.48087,-1.215533 -0.06679,-0.200362 0.01336,-0.387367 0.173648,-0.547657 0.05343,-0.04007 0.0935,-0.0935 0.173647,-0.16029 -0.333937,-0.02671 -0.387367,-0.21372 -0.400725,-0.400725 -0.01336,-0.146933 0.01336,-0.32058 0.05343,-0.467513 0.06679,-0.253792 0.21372,-0.48087 0.400725,-0.681232 0.06679,-0.06679 0.146933,-0.133575 0.120218,-0.227078 -0.120218,-0.01336 -0.133575,-0.02671 -0.187005,0.02671 -0.0935,0.06679 -0.187005,0.146933 -0.253793,0.227078 -0.200362,0.253792 -0.400725,0.520942 -0.601087,0.774735 -0.08014,0.133575 -0.173648,0.240435 -0.347295,0.32058 -0.16029,0.06679 -0.347295,0 -0.37401,-0.16029 -0.01336,-0.06679 0,-0.120218 0,-0.187005 0,-0.04007 0,-0.06679 0,-0.120218 -0.04007,0.02671 -0.08014,0.04007 -0.0935,0.06679 -0.05343,0.06679 -0.10686,0.146932 -0.173647,0.21372 -0.04007,0.05343 -0.10686,0.08014 -0.173648,0.10686 -0.200362,0.02672 -0.414082,-0.06679 -0.507585,-0.21372 -0.05343,-0.0935 -0.06679,-0.173648 0,-0.26715 0.0935,-0.120218 0.16029,-0.253793 0.347295,-0.307223 0.02672,-0.01336 0.05343,-0.05343 0.05343,-0.08014 0,-0.01336 -0.04007,-0.04007 -0.06679,-0.05343 -0.04007,-0.01336 -0.06679,-0.01336 -0.10686,-0.01336 -0.0935,-0.01336 -0.146933,-0.05343 -0.187005,-0.16029 0.02671,-0.01336 0.06679,-0.01336 0.08014,-0.04007 0.133575,-0.133575 0.26715,-0.26715 0.400725,-0.400725 0.04007,-0.04007 0.05343,-0.0935 -0.05343,-0.120217 -0.02672,0.01336 -0.06679,0.04007 -0.10686,0.06679 -0.173648,0.10686 -0.333938,0.10686 -0.48087,0.01336 -0.16029,-0.0935 -0.187005,-0.200363 -0.120218,-0.37401 0.01336,-0.05343 0.02671,-0.0935 0.05343,-0.173648 -0.06679,0.01336 -0.120217,0.01336 -0.146932,0.02671 -0.08014,0.04007 -0.146933,0.05343 -0.187005,-0.02671 -0.05343,-0.08014 0.02671,-0.10686 0.10686,-0.146932 0.16029,-0.05343 0.347295,-0.08014 0.5343,-0.05343 0.05343,0.01336 0.133575,0.04007 0.187005,-0.04007 -0.01336,-0.01336 -0.02672,-0.04007 -0.02672,-0.05343 -0.16029,-0.200362 -0.146933,-0.32058 0.08014,-0.467512 0.08014,-0.05343 0.16029,-0.0935 0.26715,-0.16029 -0.146933,-0.120218 -0.08014,-0.240435 -0.01336,-0.347295 0.06679,-0.133575 0.16029,-0.240435 0.26715,-0.333938 0.0935,-0.0935 0.227078,-0.16029 0.360653,-0.240435 -0.01336,-0.02672 -0.01336,-0.05343 -0.02671,-0.08014 -0.10686,-0.16029 -0.146933,-0.3472947 -0.146933,-0.5342997 0,-0.5343 -0.16029,-1.01517 -0.58773,-1.4292525 -0.05343,-0.066788 -0.10686,-0.133575 -0.173647,-0.2003625 -0.120218,-0.1202175 -0.253793,-0.240435 -0.387368,-0.3606525 -0.04007,-0.026715 -0.08014,-0.066787 -0.146932,0.013358 0.08014,0.093502 0.173647,0.2003625 0.253792,0.3072225 0.280508,0.3606525 0.42744,0.774735 0.400725,1.2155325 0,0.16029 -0.06679,0.32058 -0.133575,0.4675125 -0.05343,0.1202175 -0.200362,0.133575 -0.307222,0.026715 -0.10686,-0.10686 -0.146933,-0.21372 -0.120218,-0.347295 0.01336,-0.05343 0.06679,-0.1202175 -0.01336,-0.1736475 -0.01336,0 -0.02672,0 -0.04007,0 -0.02671,0.013358 -0.04007,0.026715 -0.06679,0.05343 -0.10686,0.187005 -0.200363,0.37401 -0.133575,0.6010875 0.02672,0.066787 0.04007,0.1469317 0.05343,0.2137197 0.04007,0.347295 -0.05343,0.64116 -0.37401,0.881595 -0.120218,0.08014 -0.21372,0.187005 -0.37401,0.21372 -0.02671,0.01336 -0.05343,0.04007 -0.06679,0.06679 -0.01336,0.02671 0.02671,0.05343 0.05343,0.06679 0.05343,0.02671 0.0935,0.04007 0.146933,0.05343 -0.05343,0.146932 -0.06679,0.173647 -0.146933,0.200362 -0.200362,0.06679 -0.400725,0.120218 -0.614445,0.04007 -0.05343,-0.02671 -0.120217,-0.04007 -0.173647,0 -0.05343,0.05343 -0.04007,0.10686 0,0.16029 0.05343,0.08014 0.120217,0.16029 0.173647,0.240435 0.133575,0.173647 0.227078,0.360652 0.05343,0.561015 -0.01336,0.01336 0,0.04007 0,0.08014 0.240435,0.01336 0.387368,0.146932 0.5343,0.293865 0.133575,0.146932 0.253793,0.293865 0.21372,0.494227 l -0.21372,0.06679 c 0.04007,0.05343 0.08014,0.08014 0.10686,0.120217 0.04007,0.04007 0.0935,0.08014 0.10686,0.133575 0.04007,0.16029 0,0.333938 -0.06679,0.494228 -0.04007,0.120217 -0.16029,0.173647 -0.293865,0.227077 -0.01336,0 -0.02671,0 -0.04007,0.01336 -0.01336,0.01336 -0.05343,0.05343 -0.05343,0.06679 0.01336,0.02672 0.05343,0.05343 0.08014,0.06679 0.200363,0.02671 0.26715,0.146932 0.293865,0.280507 0.01336,0.133575 0.02671,0.26715 0.02671,0.400725 0.01336,0.280508 0.01336,0.574373 0.187005,0.841523 0.06679,0.0935 0.10686,0.200362 0.16029,0.293865 0.08014,0.173647 0.200363,0.333937 0.347295,0.454155 0,-0.04007 -0.01336,-0.08015 -0.01336,-0.120218 z"
         style="font-style:normal;font-variant:normal;font-weight:normal;font-stretch:normal;font-size:13.3575px;font-family:'Crucial Noise';-inkscape-font-specification:'Crucial Noise';fill:#ffffff;stroke-width:0.313066"
         id="path41" />
      <path
         d="m 18.761159,16.846794 c -0.04007,-0.21372 -0.0935,-0.42744 -0.133575,-0.627802 -0.06679,-0.240435 -0.01336,-0.48087 0.120217,-0.69459 0.06679,-0.0935 0.146933,-0.173648 0.240435,-0.240435 0.187005,-0.120218 0.440798,-0.08014 0.58773,0.08014 0.0935,0.120217 0.146933,0.26715 0.146933,0.414082 0,0.05343 0.01336,0.10686 0.02671,0.173648 0.120217,-0.02671 0.0935,-0.0935 0.10686,-0.146933 0.04007,-0.146932 0.05343,-0.293865 0.10686,-0.440797 0.08015,-0.173648 0.21372,-0.200363 0.400725,-0.0935 0.06679,0.04007 0.133575,0.0935 0.200362,0.146933 0.293865,0.307222 0.333938,0.654517 0.146933,1.01517 -0.08015,0.16029 -0.21372,0.293865 -0.32058,0.440797 -0.04007,0.05343 -0.120218,0.0935 -0.0935,0.187005 0.200363,-0.05343 0.333938,-0.16029 0.454155,-0.280507 0.387368,-0.333938 0.601088,-0.734663 0.48087,-1.215533 -0.06679,-0.200362 0.01336,-0.387367 0.173648,-0.547657 0.05343,-0.04007 0.0935,-0.0935 0.173647,-0.16029 -0.333937,-0.02671 -0.387367,-0.21372 -0.400725,-0.400725 -0.01336,-0.146933 0.01336,-0.32058 0.05343,-0.467513 0.06679,-0.253792 0.21372,-0.48087 0.400725,-0.681232 0.06679,-0.06679 0.146933,-0.133575 0.120218,-0.227078 -0.120218,-0.01336 -0.133575,-0.02671 -0.187005,0.02671 -0.0935,0.06679 -0.187005,0.146933 -0.253793,0.227078 -0.200362,0.253792 -0.400725,0.520942 -0.601087,0.774735 -0.08015,0.133575 -0.173648,0.240435 -0.347295,0.32058 -0.16029,0.06679 -0.347295,0 -0.37401,-0.16029 -0.01336,-0.06679 0,-0.120218 0,-0.187005 0,-0.04007 0,-0.06679 0,-0.120218 -0.04007,0.02671 -0.08014,0.04007 -0.0935,0.06679 -0.05343,0.06679 -0.10686,0.146932 -0.173647,0.21372 -0.04007,0.05343 -0.10686,0.08014 -0.173648,0.10686 -0.200362,0.02672 -0.414082,-0.06679 -0.507585,-0.21372 -0.05343,-0.0935 -0.06679,-0.173648 0,-0.26715 0.0935,-0.120218 0.16029,-0.253793 0.347295,-0.307223 0.02672,-0.01336 0.05343,-0.05343 0.05343,-0.08014 0,-0.01336 -0.04007,-0.04007 -0.06679,-0.05343 -0.04007,-0.01336 -0.06679,-0.01336 -0.10686,-0.01336 -0.0935,-0.01336 -0.146933,-0.05343 -0.187005,-0.16029 0.02671,-0.01336 0.06679,-0.01336 0.08015,-0.04007 0.133575,-0.133575 0.26715,-0.26715 0.400725,-0.400725 0.04007,-0.04007 0.05343,-0.0935 -0.05343,-0.120217 -0.02671,0.01336 -0.06679,0.04007 -0.10686,0.06679 -0.173648,0.10686 -0.333938,0.10686 -0.48087,0.01336 -0.16029,-0.0935 -0.187005,-0.200363 -0.120218,-0.37401 0.01336,-0.05343 0.02671,-0.0935 0.05343,-0.173648 -0.06679,0.01336 -0.120217,0.01336 -0.146932,0.02671 -0.08015,0.04007 -0.146933,0.05343 -0.187005,-0.02671 -0.05343,-0.08014 0.02671,-0.10686 0.10686,-0.146932 0.16029,-0.05343 0.347295,-0.08014 0.5343,-0.05343 0.05343,0.01336 0.133575,0.04007 0.187005,-0.04007 -0.01336,-0.01336 -0.02671,-0.04007 -0.02671,-0.05343 -0.16029,-0.200362 -0.146933,-0.32058 0.08014,-0.467512 0.08015,-0.05343 0.16029,-0.0935 0.26715,-0.16029 -0.146933,-0.120218 -0.08014,-0.240435 -0.01336,-0.347295 0.06679,-0.133575 0.16029,-0.240435 0.26715,-0.333938 0.0935,-0.0935 0.227078,-0.16029 0.360653,-0.240435 -0.01336,-0.02672 -0.01336,-0.05343 -0.02671,-0.08014 -0.10686,-0.16029 -0.146933,-0.3472947 -0.146933,-0.5342997 0,-0.5343 -0.16029,-1.01517 -0.58773,-1.4292525 -0.05343,-0.066788 -0.10686,-0.133575 -0.173647,-0.2003625 -0.120218,-0.1202175 -0.253793,-0.240435 -0.387368,-0.3606525 -0.04007,-0.026715 -0.08015,-0.066787 -0.146932,0.013358 0.08014,0.093502 0.173647,0.2003625 0.253792,0.3072225 0.280508,0.3606525 0.42744,0.774735 0.400725,1.2155325 0,0.16029 -0.06679,0.32058 -0.133575,0.4675125 -0.05343,0.1202175 -0.200362,0.133575 -0.307222,0.026715 -0.10686,-0.10686 -0.146933,-0.21372 -0.120218,-0.347295 0.01336,-0.05343 0.06679,-0.1202175 -0.01336,-0.1736475 -0.01336,0 -0.02671,0 -0.04007,0 -0.02671,0.013358 -0.04007,0.026715 -0.06679,0.05343 -0.10686,0.187005 -0.200363,0.37401 -0.133575,0.6010875 0.02671,0.066787 0.04007,0.1469317 0.05343,0.2137197 0.04007,0.347295 -0.05343,0.64116 -0.37401,0.881595 -0.120218,0.08014 -0.21372,0.187005 -0.37401,0.21372 -0.02671,0.01336 -0.05343,0.04007 -0.06679,0.06679 -0.01336,0.02671 0.02671,0.05343 0.05343,0.06679 0.05343,0.02671 0.0935,0.04007 0.146933,0.05343 -0.05343,0.146932 -0.06679,0.173647 -0.146933,0.200362 -0.200362,0.06679 -0.400725,0.120218 -0.614445,0.04007 -0.05343,-0.02671 -0.120217,-0.04007 -0.173647,0 -0.05343,0.05343 -0.04007,0.10686 0,0.16029 0.05343,0.08014 0.120217,0.16029 0.173647,0.240435 0.133575,0.173647 0.227078,0.360652 0.05343,0.561015 -0.01336,0.01336 0,0.04007 0,0.08014 0.240435,0.01336 0.387368,0.146932 0.5343,0.293865 0.133575,0.146932 0.253793,0.293865 0.21372,0.494227 l -0.21372,0.06679 c 0.04007,0.05343 0.08014,0.08014 0.10686,0.120217 0.04007,0.04007 0.0935,0.08014 0.10686,0.133575 0.04007,0.16029 0,0.333938 -0.06679,0.494228 -0.04007,0.120217 -0.16029,0.173647 -0.293865,0.227077 -0.01336,0 -0.02671,0 -0.04007,0.01336 -0.01336,0.01336 -0.05343,0.05343 -0.05343,0.06679 0.01336,0.02672 0.05343,0.05343 0.08015,0.06679 0.200363,0.02671 0.26715,0.146932 0.293865,0.280507 0.01336,0.133575 0.02671,0.26715 0.02671,0.400725 0.01336,0.280508 0.01336,0.574373 0.187005,0.841523 0.06679,0.0935 0.10686,0.200362 0.16029,0.293865 0.08015,0.173647 0.200363,0.333937 0.347295,0.454155 0,-0.04007 -0.01336,-0.08015 -0.01336,-0.120218 z"
         style="font-style:normal;font-variant:normal;font-weight:normal;font-stretch:normal;font-size:13.3575px;font-family:'Crucial Noise';-inkscape-font-specification:'Crucial Noise';fill:#ffffff;stroke-width:0.313066"
         id="path43" />
      <path
         d="m 22.374361,15.110319 c 0.02671,-0.10686 0.04007,-0.200362 0.08014,-0.293865 0.02672,-0.06679 0.08015,-0.133575 0.133575,-0.187005 0.08015,-0.08014 0.146932,-0.06679 0.227077,0 0.10686,0.0935 0.173648,0.187005 0.173648,0.32058 0,0.21372 0.01336,0.414083 0.01336,0.627803 0.01336,0.0935 0.02671,0.200362 0.200363,0.21372 0.02671,-0.05343 0.04007,-0.10686 0.05343,-0.173648 0.01336,-0.120217 0.02671,-0.240435 0.04007,-0.37401 0.02671,-0.133575 0.120218,-0.173647 0.26715,-0.10686 0.187005,0.08014 0.280508,0.21372 0.32058,0.37401 0.04007,0.173648 0.05343,0.37401 0.08014,0.561015 0.02672,0.146933 0.02672,0.293865 0.05343,0.454155 0,0.02671 0.04007,0.0935 0.08014,0.0935 0.08015,0.01336 0.08015,-0.05343 0.0935,-0.0935 0.02671,-0.120217 0.04007,-0.227077 0.05343,-0.333937 0.01336,-0.187005 0.133575,-0.32058 0.307223,-0.440798 0.200362,-0.120217 0.414082,-0.240435 0.667875,-0.307222 0.133575,-0.04007 0.21372,-0.10686 0.253792,-0.200363 0.02671,-0.05343 0.06679,-0.0935 0.0935,-0.146932 0.0935,-0.200363 0.240435,-0.37401 0.494227,-0.440798 -0.08014,-0.360652 -0.06679,-0.360652 0.120218,-0.69459 0.08014,-0.120217 0.133575,-0.240435 0.187005,-0.360652 0.0935,-0.21372 0.06679,-0.440798 -0.02671,-0.654518 0,-0.01336 -0.02671,-0.01336 -0.05343,-0.02671 -0.01336,0.05343 -0.01336,0.0935 -0.02671,0.133575 -0.02671,0.120218 -0.05343,0.240435 -0.0935,0.360653 -0.06679,0.173647 -0.187005,0.293865 -0.440797,0.280507 -0.04007,0.16029 -0.0935,0.32058 -0.293865,0.400725 -0.200363,0.08014 -0.387368,0.01336 -0.601088,-0.01336 0.02671,0.10686 0.05343,0.187005 0.08015,0.280507 0.01336,0.04007 0.01336,0.0935 0.01336,0.133575 -0.02671,0.187005 -0.173648,0.253793 -0.37401,0.173648 -0.213721,-0.08014 -0.347296,-0.227078 -0.414083,-0.414083 -0.02671,-0.06679 -0.02671,-0.133575 -0.05343,-0.200362 -0.01336,-0.08014 -0.06679,-0.133575 -0.173648,-0.0935 -0.120217,0.04007 -0.21372,-0.01336 -0.280507,-0.08014 -0.08014,-0.06679 -0.173648,-0.146932 -0.227078,-0.240435 -0.05343,-0.0935 -0.120217,-0.146932 -0.253792,-0.187005 -0.21372,-0.05343 -0.280508,-0.187005 -0.21372,-0.37401 0.02671,-0.08014 0.10686,-0.173647 0.16029,-0.26715 -0.02672,-0.01336 -0.05343,-0.02672 -0.08015,-0.05343 -0.10686,-0.0935 -0.21372,-0.187005 -0.307223,-0.280507 -0.02671,-0.02671 -0.04007,-0.0935 -0.01336,-0.120218 0.02671,-0.02672 0.0935,-0.04007 0.146932,-0.04007 0.06679,0.01336 0.133575,0.02671 0.200363,0.05343 0.146932,0.05343 0.280507,0.05343 0.414082,-0.02672 0.06679,-0.04007 0.146933,-0.06679 0.21372,-0.10686 0.16029,-0.06679 0.26715,-0.02672 0.333938,0.10686 0.04007,0.0935 0.06679,0.187005 0.0935,0.280507 0.02672,0.21372 0.05343,0.42744 0.08015,0.64116 0,0.05343 0,0.120218 0.120218,0.120218 0.02672,-0.04007 0.04007,-0.08014 0.04007,-0.120218 0.02671,-0.10686 0.02671,-0.227077 0.05343,-0.333937 0.02671,-0.16029 0.133575,-0.26715 0.293865,-0.333938 0.173647,-0.08014 0.333937,-0.16029 0.507585,-0.21372 0.173647,-0.06679 0.293865,-0.173647 0.387367,-0.307222 0.04007,-0.06679 0.08014,-0.120218 0.120218,-0.187005 0.04007,-0.04007 0.10686,-0.0935 0.02671,-0.146933 -0.05343,-0.04007 -0.10686,0.01336 -0.16029,0.04007 -0.10686,0.08014 -0.253793,0.0935 -0.387368,0.0935 -0.280507,-0.02671 -0.467512,-0.146932 -0.627802,-0.32058 -0.133575,-0.16029 -0.187006,-0.32058 -0.01336,-0.507585 -0.173648,-0.05343 -0.32058,-0.10686 -0.48087,-0.146932 -0.21372,-0.08014 -0.400725,-0.173648 -0.387368,-0.414083 -0.26715,0.06679 -0.494227,0.01336 -0.707947,-0.08014 -0.06679,-0.04007 -0.146933,-0.10686 -0.200363,-0.173647 -0.01336,-0.02672 0,-0.0935 0.04007,-0.120218 0.02671,-0.02671 0.10686,-0.01336 0.146932,0 0.05343,0.01336 0.0935,0.05343 0.173648,0.10686 0.05343,-0.16029 0.0935,-0.3072222 0.173647,-0.4274397 0.08015,-0.133575 0.21372,-0.2537925 0.37401,-0.3606525 0.06679,0.066788 0.120218,0.10686 0.173648,0.16029 0.08014,0.080145 0.16029,0.1469325 0.21372,0.21372 0.08014,0.1202175 0.05343,0.1736475 -0.0935,0.2404352 -0.05343,0.01336 -0.10686,0.04007 -0.16029,0.05343 0,0.10686 0.08015,0.133575 0.146933,0.16029 0.16029,0.06679 0.307222,0.120217 0.454155,0.187005 0.253793,0.0935 0.400725,0.253792 0.454155,0.467512 0.02671,0.146933 0.05343,0.280508 0.06679,0.414083 0.01336,0.0935 0.06679,0.120217 0.173647,0.08014 0,-0.04007 0,-0.0935 0.01336,-0.133575 0.02671,-0.16029 0.05343,-0.307223 0.120217,-0.454155 0.133575,-0.307223 0.227078,-0.333938 0.58773,-0.200363 0.02672,0.01336 0.06679,0.02671 0.0935,0.04007 0.04007,0 0.06679,-0.01336 0.133575,-0.02671 -0.05343,-0.06679 -0.08015,-0.120218 -0.120218,-0.173648 -0.05343,-0.04007 -0.120217,-0.08014 -0.173647,-0.120217 -0.240435,-0.187005 -0.387368,-0.4140827 -0.307223,-0.6945902 0.02671,-0.10686 0.04007,-0.21372 0.05343,-0.3072225 0.08015,-0.4407975 0.01336,-0.8682375 -0.240435,-1.2689625 -0.04007,-0.05343 -0.0935,-0.1202175 -0.146932,-0.1736475 -0.02671,-0.013357 -0.08015,-0.013357 -0.120218,-0.026715 -0.01336,0.026715 -0.02671,0.066787 -0.01336,0.10686 0,0.026715 0.02671,0.066787 0.05343,0.10686 0.146932,0.293865 0.10686,0.5743725 -0.02671,0.85488 -0.05343,0.133575 -0.227078,0.2003625 -0.360653,0.187005 -0.146932,-0.026715 -0.21372,-0.093502 -0.240435,-0.2537925 0,-0.026715 0,-0.040073 0,-0.05343 -0.02671,-0.16029 -0.04007,-0.1736475 -0.21372,-0.133575 -0.227078,0.066787 -0.440798,0.040072 -0.654518,-0.040073 -0.26715,-0.093502 -0.454155,-0.2537925 -0.627802,-0.42744 -0.05343,-0.040072 -0.0935,-0.1469325 -0.200363,-0.080145 -0.08014,0.040073 0,0.1202175 0.04007,0.16029 0.173647,0.2805075 0.16029,0.5476575 0.01336,0.828165 -0.200362,0.3873675 -0.440797,0.5343 -0.975097,0.5476575 -0.05343,0 -0.120218,0.013357 -0.173648,0.026715 -0.01336,0.1736475 0,0.3205797 -0.02671,0.4541547 -0.02671,0.120217 -0.08015,0.240435 -0.10686,0.347296 -0.04007,0.120217 -0.0935,0.227077 -0.0935,0.347295 -0.01336,0.10686 0.01336,0.227077 0.04007,0.333937 0,0.02672 0.06679,0.05343 0.10686,0.06679 0.01336,0 0.05343,-0.04007 0.06679,-0.08014 0.01336,-0.01336 0.01336,-0.04007 0.01336,-0.06679 0.01336,-0.133575 0.0935,-0.253792 0.200363,-0.37401 0.05343,-0.05343 0.120217,-0.08014 0.200362,-0.06679 0.26715,0.01336 0.467513,0.0935 0.547658,0.307222 0.02671,0.08015 0.06679,0.146933 0.10686,0.227078 0.04007,-0.01336 0.08014,-0.02671 0.120217,-0.05343 0.227078,-0.133575 0.37401,-0.133575 0.574373,0.01336 0.10686,0.08014 0.133575,0.187005 0.120217,0.307223 -0.02671,0.10686 -0.133575,0.120217 -0.240435,0.146932 -0.187005,0.05343 -0.347295,0 -0.520942,-0.06679 -0.173648,-0.06679 -0.173648,-0.06679 -0.307223,0.05343 -0.227077,-0.04007 -0.454155,-0.04007 -0.614445,-0.21372 -0.01336,-0.02672 -0.08014,-0.02672 -0.16029,-0.04007 0.02671,0.133575 0.04007,0.227078 0.06679,0.333938 0.0935,0.307222 0.0935,0.64116 -0.01336,0.935025 -0.05343,0.146932 -0.08015,0.280507 -0.10686,0.42744 -0.01336,0.04007 -0.01336,0.0935 0.06679,0.10686 0.04007,-0.02672 0.08015,-0.05343 0.120217,-0.08014 0.120218,-0.0935 0.200363,-0.08014 0.240435,0.05343 0.01336,0.01336 0.02671,0.04007 0.02671,0.06679 0.02671,0.21372 0.05343,0.42744 0.0935,0.654518 0.08015,0.360652 0.146932,0.734662 0.08015,1.108672 -0.01336,0.06679 -0.01336,0.120218 -0.01336,0.173648 0.01336,0.02671 0.01336,0.05343 0.02671,0.0935 0.120218,0 0.133575,-0.05343 0.146933,-0.10686 z"
         style="font-style:normal;font-variant:normal;font-weight:normal;font-stretch:normal;font-size:13.3575px;font-family:'Crucial Noise';-inkscape-font-specification:'Crucial Noise';fill:#ffffff;stroke-width:0.313066"
         id="path45" />
      <path
         d="m 26.736421,9.2597343 c -0.133575,0.133575 -0.146933,0.133575 -0.32058,0.040073 -0.146933,-0.080145 -0.307223,-0.093503 -0.48087,-0.05343 -0.494228,0.1202175 -0.96174,0.3606525 -1.33575,0.7079475 -0.04007,0.026715 -0.08015,0.066788 -0.10686,0.1068592 -0.01336,0.02671 0,0.06679 0,0.0935 0.02671,0.01336 0.06679,0.01336 0.0935,0.01336 0.04007,-0.02671 0.06679,-0.05343 0.10686,-0.08014 0.414083,-0.3339367 1.108673,-0.4274392 1.576185,0.05343 0.01336,0.01336 0.02671,0.02671 0.04007,0.02671 0.04007,-0.02671 0.08015,-0.05343 0.120217,-0.06679 0.146933,-0.05343 0.280508,-0.1202182 0.42744,-0.1469332 0.146933,-0.026715 0.21372,0.040073 0.227078,0.1870042 0,0.06679 0,0.120218 0,0.187005 0,0.133575 -0.01336,0.280508 -0.01336,0.414083 0.01336,0.04007 0.04007,0.08014 0.05343,0.133575 0.10686,-0.06679 0.08014,-0.146933 0.0935,-0.227078 0.01336,-0.120217 0.02671,-0.26715 0.06679,-0.387367 0.05343,-0.187005 0.253793,-0.253793 0.440798,-0.16029 l -0.21372,0.307222 c 0.187005,0.200363 0.173647,0.400725 -0.01336,0.520943 -0.02671,0.02671 -0.06679,0.02671 -0.0935,0.05343 -0.05343,0.02672 -0.10686,0.04007 -0.133575,0.0935 -0.02672,0.06679 0.05343,0.0935 0.0935,0.120218 0.146933,0.0935 0.173648,0.227077 0.133575,0.387367 -0.01336,0.06679 -0.02671,0.133575 -0.05343,0.200363 -0.04007,0.06679 -0.02671,0.120217 0.01336,0.187005 0.0935,0.133575 0.133575,0.280507 0.146932,0.440797 0.02671,0.26715 -0.05343,0.494228 -0.173647,0.721305 -0.05343,0.10686 -0.10686,0.21372 -0.16029,0.333938 0.293865,0.04007 0.360652,0.10686 0.37401,0.387367 0,0.02672 0,0.06679 0,0.0935 0,0.400725 -0.04007,0.80145 -0.227078,1.162102 -0.01336,0.02671 -0.01336,0.04007 -0.01336,0.05343 -0.06679,0.187005 0,0.360653 0.02672,0.547658 0.01336,0.02672 0.04007,0.04007 0.06679,0.04007 0.02671,0 0.05343,-0.04007 0.05343,-0.05343 0.01336,-0.05343 0,-0.10686 0.01336,-0.16029 0.02672,-0.16029 0.0935,-0.280507 0.26715,-0.347295 0.10686,0.08014 0.133575,0.173648 0.16029,0.293865 0.06679,0.240435 0.05343,0.494228 0,0.734663 -0.0935,0.387367 -0.187005,0.761377 -0.280508,1.135387 -0.02672,0.08014 -0.04007,0.146933 0.06679,0.16029 0.02671,-0.01336 0.04007,-0.04007 0.05343,-0.05343 0.253792,-0.42744 0.454155,-0.868237 0.574372,-1.349107 0.04007,-0.16029 0.08015,-0.307223 0.10686,-0.467513 0.05343,-0.240435 0.173648,-0.467512 0.347295,-0.654517 0.02671,-0.04007 0.06679,-0.08014 0.0935,-0.120218 -0.01336,-0.01336 -0.02672,-0.04007 -0.04007,-0.05343 -0.253792,-0.187005 -0.347295,-0.48087 -0.387367,-0.774735 -0.01336,-0.10686 0,-0.200362 0.10686,-0.240435 0.04007,-0.01336 0.08015,-0.02672 0.146932,-0.04007 -0.05343,-0.06679 -0.0935,-0.133575 -0.146932,-0.187005 -0.06679,-0.0935 -0.0935,-0.187004 -0.06679,-0.293865 0.04007,-0.10686 0.02671,-0.227078 -0.02671,-0.333938 -0.05343,-0.10686 -0.01336,-0.21372 0.08014,-0.307222 0.05343,-0.05343 0.10686,-0.106859 0.16029,-0.173648 0.04007,-0.05343 0.08014,-0.106859 0.05343,-0.187004 -0.04007,0.02671 -0.06679,0.04007 -0.10686,0.05343 -0.200362,0.06679 -0.293865,0 -0.26715,-0.21372 0.01336,-0.120217 0.05343,-0.240435 0.0935,-0.347296 0.01336,-0.06679 0.04007,-0.120217 -0.01336,-0.173647 -0.06679,-0.0935 -0.04007,-0.200363 0,-0.307223 0.01336,-0.06679 0.05343,-0.120217 0.08014,-0.173647 -0.280507,-0.227078 -0.280507,-0.280508 -0.120217,-0.601088 0.01336,-0.05343 0.02671,-0.0935 -0.02672,-0.133575 -0.02671,-0.02672 -0.06679,-0.05343 -0.0935,-0.06679 0.05343,-0.173648 0.08014,-0.200363 0.146933,-0.240435 0.16029,-0.06679 0.21372,0.08014 0.307222,0.146932 l 0.120218,-0.133575 c 0.16029,0.05343 0.187005,0.200363 0.21372,0.333938 0.01336,0.0935 0.01336,0.187005 0.01336,0.280507 0,0.05343 0.01336,0.0935 0.0935,0.0935 0.04007,-0.0935 0.02671,-0.200363 0.02671,-0.307223 -0.01336,-0.08014 -0.01336,-0.16029 -0.01336,-0.240435 0,-0.06679 0.01336,-0.133575 0.0935,-0.146932 0.06679,-0.01336 0.10686,0.04007 0.133575,0.10686 0.04007,0.06679 0.06679,0.133575 0.0935,0.21372 0.02671,-0.01336 0.04007,0 0.05343,-0.01336 0.01336,-0.01336 0.02671,-0.02671 0.04007,-0.04007 0.200362,-0.253793 0.494227,-0.4140822 0.814807,-0.4675122 0.360653,-0.05343 0.721305,-0.040072 1.0686,0.026715 0.06679,0.013357 0.133575,0.026715 0.200363,0.040072 -0.01336,-0.1202175 -0.01336,-0.1202175 -0.0935,-0.16029 -0.454155,-0.2003625 -0.935025,-0.347295 -1.429252,-0.37401 -0.414083,-0.026715 -0.761378,-0.1469325 -0.975098,-0.5343 -0.02671,-0.040072 -0.06679,-0.05343 -0.133575,-0.10686 -0.02671,0.1202175 -0.04007,0.21372 -0.05343,0.293865 -0.02672,0.133575 -0.0935,0.187005 -0.227077,0.133575 -0.05343,-0.026715 -0.10686,-0.066788 -0.146933,-0.1202175 -0.04007,-0.040073 -0.05343,-0.093502 -0.06679,-0.133575 -0.240435,-0.013357 -0.347295,-0.080145 -0.400725,-0.2805075 -0.02671,-0.093503 -0.02671,-0.187005 -0.02671,-0.2805075 0.02671,-0.2537925 0.01336,-0.507585 0.120217,-0.74802 0,-0.026715 0,-0.05343 0,-0.080145 -0.120217,0.080145 -0.16029,0.133575 -0.21372,0.2805075 -0.08014,0.2537925 -0.146932,0.507585 -0.21372,0.7613775 -0.02671,0.1202175 -0.04007,0.2537925 -0.0935,0.37401 -0.06679,0.21372 -0.16029,0.2537925 -0.360653,0.2003625 -0.146932,0.2537925 -0.414082,0.26715 -0.654517,0 -0.02672,0.026715 -0.05343,0.05343 -0.08015,0.066788 z"
         style="font-style:normal;font-variant:normal;font-weight:normal;font-stretch:normal;font-size:13.3575px;font-family:'Crucial Noise';-inkscape-font-specification:'Crucial Noise';fill:#ffffff;stroke-width:0.313066"
         id="path47" />
    </g>
    <rect
       y="45.594761"
       x="5.4914284"
       height="13.039438"
       width="14.032093"
       id="rect87"
       style="fill:none;fill-rule:evenodd;stroke:#ffffff;stroke-width:0.129684" />
    <rect
       style="fill:none;fill-rule:evenodd;stroke:#ffffff;stroke-width:0.129684"
       id="rect89"
       width="14.032093"
       height="13.039438"
       x="21.175406"
       y="45.594761" />
    <rect
       y="67.23468"
       x="13.234151"
       height="13.039438"
       width="14.032093"
       id="rect95"
       style="fill:none;fill-rule:evenodd;stroke:#ffffff;stroke-width:0.129684" />
    <g
       aria-label="Velocity"
       id="text101"
       style="font-size:3.52777px;line-height:1.25;font-family:Arial;-inkscape-font-specification:Arial;fill:#ffffff;stroke-width:0.264583">
      <path
         d="m 7.5454463,43.478367 -0.9784049,-2.52525 h 0.3617342 l 0.6562892,1.83451 q 0.079237,0.220485 0.1326359,0.41341 0.058567,-0.206705 0.136081,-0.41341 l 0.6821274,-1.83451 h 0.3410637 l -0.9887402,2.52525 z"
         style="fill:#ffffff;stroke-width:0.264583"
         id="path174" />
      <path
         d="m 10.199887,42.889257 0.320393,0.03962 q -0.07579,0.280775 -0.280775,0.435804 -0.204983,0.155029 -0.5236532,0.155029 -0.4013527,0 -0.6373412,-0.246324 -0.234266,-0.248046 -0.234266,-0.694185 0,-0.461642 0.2377111,-0.716578 0.237711,-0.254937 0.6166707,-0.254937 0.3669016,0 0.5994456,0.249769 0.232543,0.249769 0.232543,0.702798 0,0.02756 -0.0017,0.08268 H 9.1646378 q 0.017225,0.301445 0.1705318,0.461642 0.1533064,0.160196 0.3824048,0.160196 0.1705318,0 0.2911096,-0.08957 0.120578,-0.08957 0.191203,-0.285942 z m -1.0180238,-0.50126 h 1.0214688 q -0.02067,-0.230821 -0.117133,-0.346232 -0.148139,-0.179144 -0.3841275,-0.179144 -0.2135955,0 -0.3600117,0.142971 -0.1446937,0.142971 -0.1601966,0.382405 z"
         style="fill:#ffffff;stroke-width:0.264583"
         id="path176" />
      <path
         d="m 10.904407,43.478367 v -2.52525 h 0.310058 v 2.52525 z"
         style="fill:#ffffff;stroke-width:0.264583"
         id="path178" />
      <path
         d="m 11.581367,42.563696 q 0,-0.50815 0.282497,-0.752752 0.235989,-0.20326 0.57533,-0.20326 0.377237,0 0.61667,0.248046 0.239434,0.246324 0.239434,0.682128 0,0.353121 -0.106798,0.556382 -0.105075,0.201537 -0.308335,0.313503 -0.201538,0.111965 -0.440971,0.111965 -0.384128,0 -0.621839,-0.246324 -0.235988,-0.246324 -0.235988,-0.709688 z m 0.31867,0 q 0,0.351399 0.153307,0.527098 0.153306,0.173977 0.38585,0.173977 0.230821,0 0.384127,-0.175699 0.153306,-0.1757 0.153306,-0.535711 0,-0.339341 -0.155028,-0.513318 -0.153307,-0.1757 -0.382405,-0.1757 -0.232544,0 -0.38585,0.173977 -0.153307,0.173977 -0.153307,0.525376 z"
         style="fill:#ffffff;stroke-width:0.264583"
         id="path180" />
      <path
         d="m 14.854201,42.808297 0.30489,0.03962 q -0.04995,0.315225 -0.256659,0.49437 -0.204983,0.177422 -0.504706,0.177422 -0.375514,0 -0.604613,-0.244601 -0.227375,-0.246324 -0.227375,-0.704521 0,-0.296277 0.09819,-0.518486 0.09818,-0.222208 0.298,-0.332451 0.201537,-0.111965 0.437526,-0.111965 0.298,0 0.48748,0.151584 0.18948,0.149861 0.242879,0.427191 l -0.301446,0.04651 q -0.04306,-0.184313 -0.153306,-0.27733 -0.10852,-0.09302 -0.263549,-0.09302 -0.234266,0 -0.380682,0.168809 -0.146417,0.167087 -0.146417,0.530543 0,0.368625 0.141249,0.535712 0.141249,0.167086 0.368624,0.167086 0.18259,0 0.304891,-0.111965 0.1223,-0.111965 0.155029,-0.344509 z"
         style="fill:#ffffff;stroke-width:0.264583"
         id="path182" />
      <path
         d="m 15.426085,41.309684 v -0.356567 h 0.310058 v 0.356567 z m 0,2.168683 v -1.829342 h 0.310058 v 1.829342 z"
         style="fill:#ffffff;stroke-width:0.264583"
         id="path184" />
      <path
         d="m 16.886802,43.201037 0.04479,0.273885 q -0.130913,0.02756 -0.234266,0.02756 -0.168809,0 -0.261827,-0.0534 -0.09302,-0.0534 -0.130913,-0.139526 -0.0379,-0.08785 -0.0379,-0.366902 V 41.890181 H 16.03931 v -0.241156 h 0.227376 v -0.453029 l 0.308335,-0.186035 v 0.639064 h 0.311781 v 0.241156 h -0.311781 v 1.0697 q 0,0.132636 0.0155,0.170532 0.01723,0.0379 0.0534,0.06029 0.0379,0.02239 0.106798,0.02239 0.05168,0 0.136081,-0.01206 z"
         style="fill:#ffffff;stroke-width:0.264583"
         id="path186" />
      <path
         d="m 17.174467,44.182887 -0.03445,-0.29111 q 0.10163,0.02756 0.177422,0.02756 0.103353,0 0.165364,-0.03445 0.06201,-0.03445 0.10163,-0.09646 0.02928,-0.04651 0.09474,-0.230821 0.0086,-0.02584 0.02756,-0.07579 l -0.694185,-1.832787 h 0.334173 l 0.380682,1.059365 q 0.07407,0.201537 0.132636,0.423746 0.0534,-0.213596 0.127469,-0.416856 l 0.391017,-1.066255 h 0.310058 l -0.695908,1.860348 q -0.111965,0.301445 -0.173977,0.415133 -0.08268,0.153306 -0.18948,0.22393 -0.106797,0.07235 -0.254936,0.07235 -0.08957,0 -0.199815,-0.0379 z"
         style="fill:#ffffff;stroke-width:0.264583"
         id="path188" />
    </g>
    <g
       aria-label="Gravity"
       id="text105"
       style="font-size:3.52777px;line-height:1.25;font-family:Arial;-inkscape-font-specification:Arial;fill:#ffffff;stroke-width:0.264583">
      <path
         d="m 24.284937,42.487904 v -0.296277 l 1.0697,-0.0017 v 0.937064 q -0.246324,0.19637 -0.508151,0.296277 -0.261826,0.09819 -0.537433,0.09819 -0.37207,0 -0.67696,-0.158474 -0.303168,-0.160196 -0.458197,-0.461641 -0.155029,-0.301446 -0.155029,-0.673515 0,-0.368624 0.153307,-0.687295 0.155029,-0.320393 0.444416,-0.475422 0.289387,-0.155029 0.666625,-0.155029 0.273884,0 0.49437,0.08957 0.222208,0.08785 0.347954,0.246324 0.125745,0.158474 0.191202,0.41341 l -0.301445,0.08268 q -0.05684,-0.192925 -0.141249,-0.303168 -0.08441,-0.110243 -0.241156,-0.1757 -0.156752,-0.06718 -0.347954,-0.06718 -0.229098,0 -0.396185,0.07062 -0.167087,0.0689 -0.270439,0.18259 -0.101631,0.113688 -0.158474,0.249769 -0.09646,0.234266 -0.09646,0.50815 0,0.337619 0.115411,0.564995 0.117133,0.227376 0.339341,0.337618 0.222208,0.110243 0.471977,0.110243 0.21704,0 0.423746,-0.08268 0.206705,-0.08441 0.313503,-0.179144 v -0.470255 z"
         style="fill:#ffffff;stroke-width:0.264583"
         id="path191" />
      <path
         d="m 25.802498,43.478367 v -1.829342 h 0.279052 v 0.27733 q 0.106798,-0.194648 0.196371,-0.256659 0.09129,-0.06201 0.199815,-0.06201 0.156751,0 0.31867,0.09991 l -0.106797,0.287664 q -0.113688,-0.06718 -0.227376,-0.06718 -0.10163,0 -0.18259,0.06201 -0.08096,0.06029 -0.11541,0.168809 -0.05168,0.165364 -0.05168,0.361734 v 0.957735 z"
         style="fill:#ffffff;stroke-width:0.264583"
         id="path193" />
      <path
         d="m 28.177886,43.252714 q -0.172254,0.146416 -0.332451,0.206705 -0.158474,0.06029 -0.341063,0.06029 -0.301445,0 -0.463365,-0.146416 -0.161919,-0.148139 -0.161919,-0.377237 0,-0.134359 0.06029,-0.244602 0.06201,-0.111965 0.160197,-0.179144 0.09991,-0.06718 0.223931,-0.10163 0.09129,-0.02412 0.275607,-0.04651 0.375514,-0.04479 0.552936,-0.106798 0.0017,-0.06373 0.0017,-0.08096 0,-0.18948 -0.08785,-0.266995 -0.118855,-0.105075 -0.353121,-0.105075 -0.218763,0 -0.323839,0.07752 -0.103352,0.07579 -0.153306,0.270439 l -0.303168,-0.04134 q 0.04134,-0.194647 0.136081,-0.313503 0.09474,-0.120578 0.273885,-0.184312 0.179144,-0.06546 0.415133,-0.06546 0.234266,0 0.380682,0.05512 0.146416,0.05512 0.215318,0.139526 0.0689,0.08268 0.09646,0.21015 0.0155,0.07924 0.0155,0.285942 v 0.413411 q 0,0.432358 0.01895,0.547769 0.02067,0.113688 0.07924,0.218763 h -0.323838 q -0.04823,-0.09646 -0.06201,-0.225653 z m -0.02584,-0.692463 q -0.168809,0.0689 -0.506428,0.117133 -0.191202,0.02756 -0.270439,0.06201 -0.07924,0.03445 -0.122301,0.101631 -0.04306,0.06546 -0.04306,0.146416 0,0.124023 0.09302,0.206705 0.09474,0.08268 0.275607,0.08268 0.179145,0 0.318671,-0.07751 0.139526,-0.07924 0.204983,-0.215318 0.04995,-0.105075 0.04995,-0.310058 z"
         style="fill:#ffffff;stroke-width:0.264583"
         id="path195" />
      <path
         d="m 29.456014,43.478367 -0.695908,-1.829342 h 0.327284 l 0.39274,1.095538 q 0.06373,0.177422 0.117133,0.368625 0.04134,-0.144694 0.11541,-0.347954 l 0.40652,-1.116209 h 0.318671 l -0.692463,1.829342 z"
         style="fill:#ffffff;stroke-width:0.264583"
         id="path197" />
      <path
         d="m 30.713471,41.309684 v -0.356567 h 0.310058 v 0.356567 z m 0,2.168683 v -1.829342 h 0.310058 v 1.829342 z"
         style="fill:#ffffff;stroke-width:0.264583"
         id="path199" />
      <path
         d="m 32.174189,43.201037 0.04479,0.273885 q -0.130913,0.02756 -0.234266,0.02756 -0.168809,0 -0.261827,-0.0534 -0.09302,-0.0534 -0.130913,-0.139526 -0.0379,-0.08785 -0.0379,-0.366902 v -1.052475 h -0.227376 v -0.241156 h 0.227376 v -0.453029 l 0.308335,-0.186035 v 0.639064 h 0.311781 v 0.241156 h -0.311781 v 1.0697 q 0,0.132636 0.0155,0.170532 0.01723,0.0379 0.0534,0.06029 0.0379,0.02239 0.106798,0.02239 0.05168,0 0.136081,-0.01206 z"
         style="fill:#ffffff;stroke-width:0.264583"
         id="path201" />
      <path
         d="m 32.461854,44.182887 -0.03445,-0.29111 q 0.10163,0.02756 0.177422,0.02756 0.103353,0 0.165364,-0.03445 0.06201,-0.03445 0.10163,-0.09646 0.02928,-0.04651 0.09474,-0.230821 0.0086,-0.02584 0.02756,-0.07579 l -0.694185,-1.832787 h 0.334173 l 0.380682,1.059365 q 0.07407,0.201537 0.132636,0.423746 0.0534,-0.213596 0.127468,-0.416856 l 0.391018,-1.066255 h 0.310058 l -0.695908,1.860348 q -0.111965,0.301445 -0.173977,0.415133 -0.08268,0.153306 -0.18948,0.22393 -0.106797,0.07235 -0.254936,0.07235 -0.08957,0 -0.199815,-0.0379 z"
         style="fill:#ffffff;stroke-width:0.264583"
         id="path203" />
    </g>
    <g
       aria-label="Angle"
       id="text109"
       style="font-size:3.52777px;line-height:1.25;font-family:Arial;-inkscape-font-specification:Arial;fill:#ffffff;stroke-width:0.264583">
      <path
         d="m 15.678813,64.125626 0.969793,-2.52525 h 0.360011 l 1.033527,2.52525 h -0.380683 l -0.294555,-0.76481 h -1.055919 l -0.27733,0.76481 z m 0.728636,-1.036972 h 0.856105 l -0.263549,-0.699353 q -0.120579,-0.31867 -0.179145,-0.523653 -0.04823,0.242879 -0.136081,0.482312 z"
         style="fill:#ffffff;stroke-width:0.264583"
         id="path206" />
      <path
         d="m 18.272964,64.125626 v -1.829342 h 0.279053 v 0.260104 q 0.201537,-0.301445 0.582219,-0.301445 0.165365,0 0.303168,0.06029 0.139526,0.05857 0.208428,0.155029 0.0689,0.09646 0.09646,0.229098 0.01723,0.08613 0.01723,0.301445 v 1.124822 h -0.310058 v -1.112764 q 0,-0.18948 -0.03617,-0.282497 -0.03617,-0.09474 -0.129191,-0.149861 -0.09129,-0.05684 -0.215318,-0.05684 -0.198093,0 -0.342786,0.125745 -0.142972,0.125746 -0.142972,0.477145 v 0.999076 z"
         style="fill:#ffffff;stroke-width:0.264583"
         id="path208" />
      <path
         d="m 20.179821,64.277209 0.301445,0.04479 q 0.01895,0.139526 0.105075,0.20326 0.115411,0.08613 0.315226,0.08613 0.215318,0 0.332451,-0.08613 0.117133,-0.08613 0.158474,-0.241156 0.02411,-0.09474 0.02239,-0.397908 -0.20326,0.239434 -0.506428,0.239434 -0.377237,0 -0.583943,-0.272162 -0.206705,-0.272162 -0.206705,-0.652844 0,-0.261827 0.09474,-0.482313 0.09474,-0.222208 0.273885,-0.342786 0.180867,-0.120578 0.423745,-0.120578 0.323839,0 0.533989,0.261827 v -0.220486 h 0.285942 v 1.581295 q 0,0.427191 -0.08785,0.604613 -0.08613,0.179145 -0.275607,0.282497 -0.187758,0.103353 -0.463365,0.103353 -0.327283,0 -0.528821,-0.148139 -0.201537,-0.146416 -0.194647,-0.442694 z m 0.256659,-1.098983 q 0,0.360012 0.142971,0.525376 0.142971,0.165365 0.358289,0.165365 0.213596,0 0.358289,-0.163642 0.144694,-0.165364 0.144694,-0.516763 0,-0.335896 -0.149861,-0.506428 -0.148139,-0.170532 -0.358289,-0.170532 -0.206706,0 -0.351399,0.168809 -0.144694,0.167087 -0.144694,0.497815 z"
         style="fill:#ffffff;stroke-width:0.264583"
         id="path210" />
      <path
         d="m 22.193474,64.125626 v -2.52525 h 0.310058 v 2.52525 z"
         style="fill:#ffffff;stroke-width:0.264583"
         id="path212" />
      <path
         d="m 24.238135,63.536516 0.320393,0.03962 q -0.07579,0.280775 -0.280775,0.435804 -0.204983,0.155029 -0.523653,0.155029 -0.401353,0 -0.637342,-0.246324 -0.234266,-0.248046 -0.234266,-0.694185 0,-0.461642 0.237711,-0.716579 0.237712,-0.254936 0.616671,-0.254936 0.366902,0 0.599446,0.249769 0.232543,0.249769 0.232543,0.702798 0,0.02756 -0.0017,0.08268 h -1.364254 q 0.01722,0.301445 0.170531,0.461642 0.153307,0.160196 0.382405,0.160196 0.170532,0 0.29111,-0.08957 0.120578,-0.08957 0.191203,-0.285942 z m -1.018024,-0.501261 h 1.021469 q -0.02067,-0.230821 -0.117133,-0.346231 -0.148139,-0.179145 -0.384128,-0.179145 -0.213595,0 -0.360011,0.142972 -0.144694,0.142971 -0.160197,0.382404 z"
         style="fill:#ffffff;stroke-width:0.264583"
         id="path214" />
    </g>
    <g
       aria-label="Trigger"
       id="text113"
       style="font-size:3.52777px;line-height:1.25;font-family:Arial;-inkscape-font-specification:Arial;fill:#ffffff;stroke-width:0.264583">
      <path
         d="m 15.605994,86.758202 v -2.22725 h -0.831989 v -0.298 h 2.001596 v 0.298 h -0.835433 v 2.22725 z"
         style="fill:#ffffff;stroke-width:0.264583"
         id="path217" />
      <path
         d="M 16.946133,86.758202 V 84.92886 h 0.279053 v 0.277329 q 0.106797,-0.194647 0.19637,-0.256659 0.09129,-0.06201 0.199815,-0.06201 0.156751,0 0.31867,0.09991 l -0.106797,0.287665 q -0.113688,-0.06718 -0.227376,-0.06718 -0.10163,0 -0.18259,0.06201 -0.08096,0.06029 -0.11541,0.168809 -0.05168,0.165364 -0.05168,0.361734 v 0.957735 z"
         style="fill:#ffffff;stroke-width:0.264583"
         id="path219" />
      <path
         d="m 18.129521,84.589519 v -0.356567 h 0.310058 v 0.356567 z m 0,2.168683 V 84.92886 h 0.310058 v 1.829342 z"
         style="fill:#ffffff;stroke-width:0.264583"
         id="path221" />
      <path
         d="m 18.856435,86.909785 0.301445,0.04479 q 0.01895,0.139526 0.105075,0.20326 0.11541,0.08613 0.315226,0.08613 0.215318,0 0.332451,-0.08613 0.117132,-0.08613 0.158474,-0.241156 0.02411,-0.09474 0.02239,-0.397908 -0.203261,0.239434 -0.506428,0.239434 -0.377237,0 -0.583943,-0.272162 -0.206705,-0.272162 -0.206705,-0.652845 0,-0.261826 0.09474,-0.482312 0.09474,-0.222208 0.273884,-0.342786 0.180868,-0.120578 0.423746,-0.120578 0.323839,0 0.533989,0.261827 V 84.92886 h 0.285942 v 1.581295 q 0,0.427191 -0.08785,0.604613 -0.08613,0.179145 -0.275607,0.282497 -0.187757,0.103353 -0.463364,0.103353 -0.327283,0 -0.528821,-0.148139 -0.201538,-0.146416 -0.194647,-0.442694 z m 0.256659,-1.098983 q 0,0.360012 0.142971,0.525376 0.142971,0.165365 0.358289,0.165365 0.213595,0 0.358289,-0.163642 0.144694,-0.165364 0.144694,-0.516763 0,-0.335896 -0.149862,-0.506428 -0.148138,-0.170532 -0.358289,-0.170532 -0.206705,0 -0.351399,0.168809 -0.144693,0.167087 -0.144693,0.497815 z"
         style="fill:#ffffff;stroke-width:0.264583"
         id="path223" />
      <path
         d="m 20.820135,86.909785 0.301445,0.04479 q 0.01895,0.139526 0.105075,0.20326 0.115411,0.08613 0.315226,0.08613 0.215318,0 0.332451,-0.08613 0.117133,-0.08613 0.158474,-0.241156 0.02411,-0.09474 0.02239,-0.397908 -0.20326,0.239434 -0.506428,0.239434 -0.377237,0 -0.583942,-0.272162 -0.206706,-0.272162 -0.206706,-0.652845 0,-0.261826 0.09474,-0.482312 0.09474,-0.222208 0.273885,-0.342786 0.180867,-0.120578 0.423746,-0.120578 0.323838,0 0.533988,0.261827 V 84.92886 h 0.285942 v 1.581295 q 0,0.427191 -0.08785,0.604613 -0.08613,0.179145 -0.275607,0.282497 -0.187758,0.103353 -0.463365,0.103353 -0.327283,0 -0.528821,-0.148139 -0.201537,-0.146416 -0.194647,-0.442694 z m 0.256659,-1.098983 q 0,0.360012 0.142971,0.525376 0.142971,0.165365 0.358289,0.165365 0.213596,0 0.358289,-0.163642 0.144694,-0.165364 0.144694,-0.516763 0,-0.335896 -0.149861,-0.506428 -0.148139,-0.170532 -0.358289,-0.170532 -0.206706,0 -0.351399,0.168809 -0.144694,0.167087 -0.144694,0.497815 z"
         style="fill:#ffffff;stroke-width:0.264583"
         id="path225" />
      <path
         d="m 24.092968,86.169092 0.320393,0.03962 q -0.07579,0.280775 -0.280774,0.435804 -0.204983,0.155029 -0.523654,0.155029 -0.401352,0 -0.637341,-0.246324 -0.234266,-0.248046 -0.234266,-0.694185 0,-0.461642 0.237711,-0.716579 0.237711,-0.254936 0.616671,-0.254936 0.366902,0 0.599445,0.249769 0.232544,0.249769 0.232544,0.702798 0,0.02756 -0.0017,0.08268 h -1.364255 q 0.01723,0.301445 0.170532,0.461642 0.153306,0.160196 0.382405,0.160196 0.170532,0 0.29111,-0.08957 0.120578,-0.08957 0.191202,-0.285942 z m -1.018023,-0.501261 h 1.021468 Q 24.075743,85.43701 23.97928,85.3216 q -0.148139,-0.179145 -0.384127,-0.179145 -0.213596,0 -0.360012,0.142972 -0.144693,0.142971 -0.160196,0.382404 z"
         style="fill:#ffffff;stroke-width:0.264583"
         id="path227" />
      <path
         d="M 24.800934,86.758202 V 84.92886 h 0.279052 v 0.277329 q 0.106798,-0.194647 0.19637,-0.256659 0.09129,-0.06201 0.199815,-0.06201 0.156752,0 0.318671,0.09991 l -0.106798,0.287665 q -0.113688,-0.06718 -0.227376,-0.06718 -0.10163,0 -0.182589,0.06201 -0.08096,0.06029 -0.115411,0.168809 -0.05168,0.165364 -0.05168,0.361734 v 0.957735 z"
         style="fill:#ffffff;stroke-width:0.264583"
         id="path229" />
    </g>
    <g
       aria-label="Trigger"
       id="text133"
       style="font-size:2.82222px;line-height:1.25;font-family:Arial;-inkscape-font-specification:Arial;fill:#ffffff;stroke-width:0.264583">
      <path
         d="m 3.709711,103.23631 v -1.7818 H 3.044119 v -0.2384 h 1.6012792 v 0.2384 h -0.668348 v 1.7818 z"
         style="font-size:2.82222px;fill:#ffffff;stroke-width:0.264583"
         id="path232" />
      <path
         d="m 4.7818239,103.23631 v -1.46347 h 0.223242 v 0.22186 q 0.085438,-0.15572 0.1570963,-0.20533 0.073036,-0.0496 0.1598523,-0.0496 0.1254013,0 0.2549368,0.0799 l -0.085438,0.23013 q -0.09095,-0.0537 -0.1819009,-0.0537 -0.081304,0 -0.1460719,0.0496 -0.064768,0.0482 -0.092328,0.13505 -0.041341,0.13229 -0.041341,0.28938 v 0.76619 z"
         style="font-size:2.82222px;fill:#ffffff;stroke-width:0.264583"
         id="path234" />
      <path
         d="m 5.7285355,101.50136 v -0.28525 h 0.2480467 v 0.28525 z m 0,1.73495 v -1.46347 h 0.2480467 v 1.46347 z"
         style="font-size:2.82222px;fill:#ffffff;stroke-width:0.264583"
         id="path236" />
      <path
         d="m 6.3100671,103.35758 0.2411565,0.0358 q 0.015158,0.11162 0.08406,0.16261 0.092328,0.0689 0.2521808,0.0689 0.1722547,0 0.2659612,-0.0689 0.093706,-0.0689 0.1267794,-0.19293 0.019292,-0.0758 0.017914,-0.31832 -0.1626084,0.19154 -0.4051429,0.19154 -0.3017902,0 -0.4671546,-0.21773 -0.1653645,-0.21773 -0.1653645,-0.52227 0,-0.20946 0.075792,-0.38585 0.075792,-0.17777 0.2191079,-0.27423 0.1446939,-0.0965 0.3389971,-0.0965 0.259071,0 0.4271915,0.20947 v -0.17639 h 0.2287542 v 1.26504 q 0,0.34175 -0.07028,0.48369 -0.068902,0.14331 -0.2204859,0.22599 -0.1502061,0.0827 -0.370692,0.0827 -0.2618271,0 -0.4230574,-0.11851 -0.1612304,-0.11714 -0.1557182,-0.35416 z m 0.2053275,-0.87919 q 0,0.28801 0.1143771,0.4203 0.1143771,0.1323 0.2866317,0.1323 0.1708766,0 0.2866317,-0.13092 0.1157551,-0.13229 0.1157551,-0.41341 0,-0.26872 -0.1198892,-0.40514 -0.1185112,-0.13643 -0.2866317,-0.13643 -0.1653645,0 -0.2811196,0.13505 -0.1157551,0.13367 -0.1157551,0.39825 z"
         style="font-size:2.82222px;fill:#ffffff;stroke-width:0.264583"
         id="path238" />
      <path
         d="m 7.8810295,103.35758 0.2411565,0.0358 q 0.015158,0.11162 0.08406,0.16261 0.092328,0.0689 0.2521808,0.0689 0.1722546,0 0.2659611,-0.0689 0.093706,-0.0689 0.1267794,-0.19293 0.019293,-0.0758 0.017914,-0.31832 -0.1626084,0.19154 -0.4051429,0.19154 -0.3017901,0 -0.4671546,-0.21773 -0.1653645,-0.21773 -0.1653645,-0.52227 0,-0.20946 0.075792,-0.38585 0.075792,-0.17777 0.2191079,-0.27423 0.1446939,-0.0965 0.3389971,-0.0965 0.259071,0 0.4271916,0.20947 v -0.17639 H 9.121262 v 1.26504 q 0,0.34175 -0.07028,0.48369 -0.068902,0.14331 -0.2204859,0.22599 -0.1502061,0.0827 -0.370692,0.0827 -0.2618271,0 -0.4230574,-0.11851 -0.1612304,-0.11714 -0.1557182,-0.35416 z m 0.2053275,-0.87919 q 0,0.28801 0.1143771,0.4203 0.1143771,0.1323 0.2866317,0.1323 0.1708766,0 0.2866318,-0.13092 0.1157551,-0.13229 0.1157551,-0.41341 0,-0.26872 -0.1198893,-0.40514 -0.1185111,-0.13643 -0.2866317,-0.13643 -0.1653644,0 -0.2811196,0.13505 -0.1157551,0.13367 -0.1157551,0.39825 z"
         style="font-size:2.82222px;fill:#ffffff;stroke-width:0.264583"
         id="path240" />
      <path
         d="m 10.4993,102.76502 0.256315,0.0317 q -0.06063,0.22462 -0.22462,0.34864 -0.163986,0.12403 -0.418923,0.12403 -0.3210829,0 -0.509874,-0.19706 -0.1874131,-0.19844 -0.1874131,-0.55535 0,-0.36932 0.1901691,-0.57327 0.1901692,-0.20395 0.493337,-0.20395 0.293522,0 0.479557,0.19982 0.186035,0.19982 0.186035,0.56224 0,0.0221 -0.0014,0.0661 H 9.6710998 q 0.01378,0.24116 0.1364257,0.36932 0.1226453,0.12816 0.3059245,0.12816 0.136425,0 0.232888,-0.0717 0.09646,-0.0717 0.152962,-0.22876 z m -0.8144198,-0.401 h 0.8171758 q -0.01654,-0.18466 -0.09371,-0.27699 -0.118511,-0.14332 -0.307303,-0.14332 -0.1708762,0 -0.2880094,0.11438 -0.1157551,0.11438 -0.1281574,0.30593 z"
         style="font-size:2.82222px;fill:#ffffff;stroke-width:0.264583"
         id="path242" />
      <path
         d="m 11.065673,103.23631 v -1.46347 h 0.223242 v 0.22186 q 0.08544,-0.15572 0.157096,-0.20533 0.07304,-0.0496 0.159853,-0.0496 0.125401,0 0.254936,0.0799 l -0.08544,0.23013 q -0.09095,-0.0537 -0.181901,-0.0537 -0.0813,0 -0.146072,0.0496 -0.06477,0.0482 -0.09233,0.13505 -0.04134,0.13229 -0.04134,0.28938 v 0.76619 z"
         style="font-size:2.82222px;fill:#ffffff;stroke-width:0.264583"
         id="path244" />
    </g>
    <g
       style="fill:#ffffff"
       transform="matrix(0.01337615,0,0,0.01267124,17.391538,115.50658)"
       id="g40">
      <path
         id="path54"
         d="m 436.00195,399.08312 c 0,-51.68451 0.16814,-72.82817 0.37365,-46.98591 0.20551,25.84225 0.20551,68.12957 0,93.97183 -0.20551,25.84225 -0.37365,4.69859 -0.37365,-46.98592 z m -350.289433,26.70423 -2.575761,-3.04226 3.042253,2.57576 c 2.858962,2.42058 3.65779,3.50875 2.575762,3.50875 -0.256577,0 -1.625591,-1.36901 -3.042254,-3.04225 z m 116.913733,0.67605 c -1.68185,-2.14453 -1.63403,-2.19235 0.5105,-0.5105 1.30141,1.02064 2.3662,2.08543 2.3662,2.3662 0,1.11284 -1.11034,0.39658 -2.8767,-1.8557 z M 8.0945055,422.74509 c 1.7465915,-1.85915 3.4798375,-3.38028 3.8516685,-3.38028 0.371831,0 -0.752964,1.52113 -2.4995559,3.38028 -1.7465915,1.85916 -3.4798376,3.38028 -3.8516686,3.38028 -0.371831,0 0.7529645,-1.52112 2.499556,-3.38028 z m 183.7148445,-8.4507 c -1.68186,-2.14453 -1.63403,-2.19236 0.5105,-0.5105 1.30141,1.02064 2.3662,2.08543 2.3662,2.36619 0,1.11285 -1.11034,0.39659 -2.8767,-1.85569 z m -127.730635,-8.78873 -2.575761,-3.04226 3.042254,2.57576 c 2.858961,2.42058 3.657789,3.50875 2.575761,3.50875 -0.256577,0 -1.625591,-1.36901 -3.042254,-3.04225 z m -149.279981,-0.17248 c 0,-0.28077 1.064789,-1.34555 2.366198,-2.3662 2.144526,-1.68185 2.19235,-1.63402 0.510496,0.51051 -1.766358,2.25228 -2.876694,2.96853 -2.876694,1.85569 z M 29.728307,402.4634 c 1.746592,-1.85915 3.479838,-3.38028 3.851669,-3.38028 0.371831,0 -0.752964,1.52113 -2.499556,3.38028 -1.746591,1.85916 -3.479838,3.38028 -3.851669,3.38028 -0.37183,0 0.752965,-1.52112 2.499556,-3.38028 z m -4.158679,-11.15493 -3.27794,-3.71831 3.71831,3.27794 c 3.475321,3.06374 4.338375,4.15868 3.27794,4.15868 -0.242191,0 -1.91543,-1.67324 -3.71831,-3.71831 z m 42.693889,-3.04225 c 1.346015,-1.48732 2.751522,-2.70423 3.123353,-2.70423 0.371831,0 -0.425226,1.21691 -1.77124,2.70423 -1.346015,1.48732 -2.751522,2.70422 -3.123353,2.70422 -0.371831,0 0.425226,-1.2169 1.77124,-2.70422 z m 122.366193,-9.97529 c 0,-0.28077 1.06479,-1.34556 2.3662,-2.3662 2.14453,-1.68185 2.19235,-1.63403 0.5105,0.5105 -1.76636,2.25229 -2.8767,2.96854 -2.8767,1.8557 z m -187.3960629,-7.9402 -2.57576105,-3.04226 3.04225335,2.57576 c 1.6732394,1.41667 3.0422535,2.78568 3.0422535,3.04226 0,1.08203 -1.0881668,0.2832 -3.5087458,-2.57576 z m 86.6636719,-2.3662 c 1.346015,-1.48732 2.751522,-2.70423 3.123353,-2.70423 0.371831,0 -0.425226,1.21691 -1.77124,2.70423 -1.346015,1.48732 -2.751522,2.70422 -3.123353,2.70422 -0.371831,0 0.425226,-1.2169 1.77124,-2.70422 z m 111.549291,-1.86262 c 0,-0.28076 1.06479,-1.34555 2.3662,-2.36619 2.14453,-1.68186 2.19235,-1.63403 0.5105,0.5105 -1.76636,2.25228 -2.8767,2.96854 -2.8767,1.85569 z"
         style="fill:#ffffff;stroke-width:1.35211" />
      <path
         id="path52"
         d="m -3.4983216,463.30847 c 0.00102,-16.36056 0.1962659,-22.86768 0.4338767,-14.46027 0.2376095,8.40742 0.2367725,21.79333 -0.00189,29.74648 -0.2385979,7.95315 -0.433006,1.07436 -0.4319838,-15.28621 z M -118.89734,432.09721 c 0.0649,-1.57514 0.38528,-1.89553 0.81691,-0.81691 0.39058,0.97605 0.34255,2.14226 -0.10675,2.59156 -0.4493,0.44929 -0.76887,-0.34931 -0.71016,-1.77465 z M 62.17901,394.51628 c 0,-0.28077 1.064789,-1.34556 2.366198,-2.3662 2.144531,-1.68185 2.192355,-1.63403 0.510503,0.51051 -1.766359,2.25228 -2.876701,2.96853 -2.876701,1.85569 z M 7.92203,375.08312 c -1.6818523,-2.14453 -1.6340281,-2.19236 0.5105036,-0.5105 1.3014084,1.02064 2.3661974,2.08543 2.3661974,2.36619 0,1.11285 -1.1103416,0.39659 -2.876701,-1.85569 z m 75.890782,-0.84853 c 0,-0.28077 1.064789,-1.34556 2.366197,-2.3662 2.144532,-1.68185 2.192356,-1.63403 0.510504,0.51051 -1.766359,2.25228 -2.876701,2.96853 -2.876701,1.85569 z M -3.4983216,334.85777 c 0.00102,-16.36056 0.1962659,-22.86769 0.4338767,-14.46028 0.2376095,8.40742 0.2367725,21.79334 -0.00189,29.74648 -0.2385979,7.95315 -0.433006,1.07436 -0.4319838,-15.2862 z"
         style="fill:#ffffff;stroke-width:1.35211" />
      <path
         id="path50"
         d="m 96.605556,497.78735 c 0,-34.58029 0.175098,-48.72676 0.389111,-31.43662 0.214012,17.29014 0.214012,45.5831 0,62.87324 -0.214013,17.29014 -0.389111,3.14366 -0.389111,-31.43662 z m -18.37367,-79.43662 c -1.681852,-2.14454 -1.634028,-2.19236 0.510504,-0.51051 1.301408,1.02065 2.366197,2.08543 2.366197,2.3662 0,1.11284 -1.110341,0.39659 -2.876701,-1.85569 z m 18.37417,-118.64789 c -2.84e-4,-34.95211 0.17449,-49.44472 0.388381,-32.20578 0.21389,17.23893 0.214107,45.83612 5e-4,63.54929 -0.21362,17.71318 -0.388611,3.6086 -0.388881,-31.34351 z"
         style="fill:#ffffff;stroke-width:1.35211" />
      <path
         id="path48"
         d="m 227.45919,581.2803 c 0.17733,-84.21971 0.48093,-128.4845 0.67465,-98.36619 0.92751,144.19826 0.93475,251.49327 0.017,251.49312 -0.55775,-10e-5 -0.86899,-68.90721 -0.69165,-153.12693 z M 335.62905,398.74509 c 0.1778,-89.42535 0.48145,-136.42817 0.67476,-104.4507 0.92675,153.30065 0.93358,267.04254 0.0161,267.0424 -0.55775,-8e-5 -0.86861,-73.16634 -0.6908,-162.5917 z M -4.0745081,433.72755 c 0,-0.28077 1.0647887,-1.34556 2.3661971,-2.3662 2.14452629,-1.68185 2.19235052,-1.63403 0.5104968,0.5105 -1.766358,2.25229 -2.8766939,2.96854 -2.8766939,1.8557 z M 74.175549,414.29439 c -1.681853,-2.14453 -1.634029,-2.19236 0.510503,-0.5105 1.301409,1.02064 2.366197,2.08543 2.366197,2.36619 0,1.11285 -1.110341,0.39659 -2.8767,-1.85569 z m -56.616255,-0.84853 c 0,-0.28077 1.064789,-1.34556 2.366197,-2.3662 2.144532,-1.68185 2.192356,-1.63403 0.510504,0.5105 -1.76636,2.25229 -2.876701,2.96854 -2.876701,1.8557 z m -2.156633,-30.92612 -2.575761,-3.04225 3.042253,2.57576 c 2.858961,2.42058 3.657789,3.50874 2.575761,3.50874 -0.256577,0 -1.625591,-1.36901 -3.042253,-3.04225 z m 63.677757,-3.71831 c 1.346015,-1.48732 2.751522,-2.70422 3.123353,-2.70422 0.371831,0 -0.425226,1.2169 -1.77124,2.70422 -1.346015,1.48732 -2.751522,2.70423 -3.123353,2.70423 -0.371831,0 0.425226,-1.21691 1.77124,-2.70423 z M 227.79121,200.99861 c -5e-5,-89.23943 0.16168,-125.945637 0.35938,-81.56934 0.19771,44.37631 0.19775,117.39039 8e-5,162.25353 -0.19765,44.86313 -0.35942,8.55525 -0.35946,-80.68419 z"
         style="fill:#ffffff;stroke-width:1.35211" />
      <path
         id="path46"
         d="m 210.21207,584.99861 c 6e-5,-82.54647 0.16255,-116.11661 0.36111,-74.6003 0.19856,41.51631 0.19852,109.05434 -9e-5,150.08451 -0.19861,41.03017 -0.36107,7.06227 -0.36102,-75.48421 z m -328.31474,-74.59155 c -0.49578,-0.49577 -0.90141,-17.45788 -0.90141,-37.69359 0,-33.43184 0.21611,-36.96168 2.3662,-38.64789 2.11004,-1.6548 2.17864,-1.61562 0.63376,0.36197 -1.33502,1.70895 -1.64519,10.78154 -1.35211,39.55017 0.20917,20.53288 0.32961,37.33211 0.26764,37.33162 -0.062,-4.7e-4 -0.51831,-0.4065 -1.01408,-0.90228 z m 209.223638,-80.56338 -2.575761,-3.04225 3.042253,2.57576 c 2.858961,2.42058 3.657789,3.50875 2.575761,3.50875 -0.256577,0 -1.625591,-1.36902 -3.042253,-3.04226 z M 2.686055,426.80143 c 1.7465915,-1.85915 3.4798376,-3.38028 3.8516686,-3.38028 0.3718309,0 -0.7529645,1.52113 -2.499556,3.38028 -1.7465915,1.85916 -3.4798349,3.38028 -3.85166587,3.38028 -0.37183098,0 0.75296853,-1.52112 2.49955327,-3.38028 z M 227.72296,395.70284 c -8.3e-4,-18.59155 0.18961,-26.38472 0.42318,-17.31816 0.23358,9.06658 0.23426,24.27785 0.001,33.80282 -0.23261,9.52498 -0.42372,2.10689 -0.42454,-16.48466 z m -158.235794,13.85915 -2.575761,-3.04225 3.042253,2.57576 c 2.858961,2.42058 3.657789,3.50875 2.575761,3.50875 -0.256577,0 -1.625591,-1.36902 -3.042253,-3.04226 z m -45.167309,-3.04225 c 1.746591,-1.85915 3.479838,-3.38028 3.851669,-3.38028 0.371831,0 -0.752965,1.52113 -2.499556,3.38028 -1.746592,1.85916 -3.479838,3.38028 -3.851669,3.38028 -0.371831,0 0.752964,-1.52112 2.499556,-3.38028 z M 182.34456,404.8296 c -1.68185,-2.14453 -1.63403,-2.19236 0.5105,-0.5105 1.30141,1.02064 2.3662,2.08543 2.3662,2.36619 0,1.11285 -1.11034,0.39659 -2.8767,-1.85569 z m -161.533449,-16.90141 -2.575761,-3.04225 3.042254,2.57576 c 2.858961,2.42058 3.657789,3.50874 2.575761,3.50874 -0.256577,0 -1.625591,-1.36901 -3.042254,-3.04225 z m 52.1848,-3.04225 c 1.746592,-1.85916 3.479838,-3.38028 3.851669,-3.38028 0.371831,0 -0.752964,1.52112 -2.499556,3.38028 -1.746591,1.85915 -3.479838,3.38028 -3.851669,3.38028 -0.371831,0 0.752965,-1.52113 2.499556,-3.38028 z m 108.169009,2.86978 c 0,-0.28077 1.06479,-1.34556 2.3662,-2.3662 2.14453,-1.68185 2.19235,-1.63403 0.5105,0.5105 -1.76636,2.25228 -2.8767,2.96854 -2.8767,1.8557 z m -182.6375389,-20.78528 -3.2779455,-3.71831 3.7183097,3.27795 c 3.4753215,3.06373 4.338375,4.15867 3.2779401,4.15867 -0.2421904,0 -1.91543382,-1.67323 -3.7183043,-3.71831 z m 94.7502199,-0.84853 c 0,-0.28076 1.064788,-1.34555 2.366197,-2.36619 2.144532,-1.68186 2.192356,-1.63403 0.510503,0.5105 -1.766359,2.25228 -2.8767,2.96854 -2.8767,1.85569 z M 209.23236,197.61826 c -0.19201,-87.00848 0.10721,-158.197216 0.66495,-158.197178 0.55775,3.6e-5 1.01409,71.188798 1.01409,158.197248 0,87.00845 -0.29922,158.19719 -0.66496,158.19719 -0.36572,0 -0.82205,-71.18876 -1.01408,-158.19726 z"
         style="fill:#ffffff;stroke-width:1.35211" />
      <path
         id="path44"
         d="m 556.34114,413.2803 c 1.4e-4,-53.54366 0.16781,-75.251 0.37263,-48.23855 0.20482,27.01245 0.20472,70.8209 -2.3e-4,97.35211 -0.20494,26.53121 -0.37252,4.43011 -0.3724,-49.11356 z m -470.628623,11.15493 -2.575761,-3.04225 3.042253,2.57576 c 2.858962,2.42058 3.65779,3.50875 2.575762,3.50875 -0.256577,0 -1.625591,-1.36902 -3.042254,-3.04226 z M 8.7705618,420.71692 c 1.3460142,-1.48732 2.7515222,-2.70422 3.1233532,-2.70422 0.371831,0 -0.425226,1.2169 -1.771241,2.70422 -1.3460142,1.48733 -2.7515217,2.70423 -3.1233527,2.70423 -0.371831,0 0.4252259,-1.2169 1.7712405,-2.70423 z m 55.3081532,-16.56338 -2.575761,-3.04225 3.042254,2.57576 c 2.858961,2.42058 3.657789,3.50875 2.575761,3.50875 -0.256577,0 -1.625591,-1.36902 -3.042254,-3.04226 z m -35.70252,-1.52458 c 0,-0.28077 1.064789,-1.34556 2.366197,-2.3662 2.144532,-1.68185 2.192356,-1.63403 0.510504,0.5105 -1.76636,2.25228 -2.876701,2.96854 -2.876701,1.8557 z m -2.156633,-9.29232 -2.575761,-3.04225 3.042253,2.57576 c 2.858961,2.42058 3.657789,3.50875 2.575761,3.50875 -0.256577,0 -1.625591,-1.36902 -3.042253,-3.04226 z m 40.691843,-2.3662 c 1.346014,-1.48732 2.751522,-2.70422 3.123353,-2.70422 0.371831,0 -0.425226,1.2169 -1.771241,2.70422 -1.346014,1.48733 -2.751522,2.70423 -3.123353,2.70423 -0.371831,0 0.425226,-1.2169 1.771241,-2.70423 z M 189.2776,378.29093 c 0,-0.28077 1.06479,-1.34556 2.36619,-2.3662 2.14454,-1.68185 2.19236,-1.63403 0.51051,0.5105 -1.76636,2.25229 -2.8767,2.96854 -2.8767,1.8557 z m -184.6918403,-5.23598 -2.575761,-3.04225 3.0422534,2.57576 c 2.858961,2.42058 3.6577891,3.50875 2.575761,3.50875 -0.2565769,0 -1.6255909,-1.36902 -3.0422534,-3.04226 z m 85.3115593,-3.71831 c 1.346015,-1.48732 2.751522,-2.70422 3.123353,-2.70422 0.371831,0 -0.425226,1.2169 -1.77124,2.70422 -1.346015,1.48733 -2.751522,2.70423 -3.123353,2.70423 -0.371831,0 0.425226,-1.2169 1.77124,-2.70423 z"
         style="fill:#ffffff;stroke-width:1.35211" />
      <path
         id="path42"
         d="M 45.615631,621.29216 -117.65197,509.6199 v -36.86198 -36.86199 l 22.30986,-19.85057 c 12.270422,-10.91781 22.309858,-20.07194 22.309858,-20.34252 0,-0.27059 -10.047335,-9.43174 -22.32741,-20.35814 l -22.327408,-19.86619 0.35558,-46.0244 0.35558,-46.0244 160.9014,-110.08339 c 88.49577,-60.545869 161.96619,-110.664977 163.2676,-111.3758 2.24752,-1.227587 2.36355,6.626948 2.31325,156.61433 l -0.053,157.90672 -17.49075,19.47317 -17.49076,19.47315 3.68456,4.43835 c 2.02649,2.44109 9.92384,11.40858 17.54965,19.92775 l 13.8651,15.4894 -0.34398,148.83552 -0.34392,148.83552 z M 97.333939,498.01744 v -63.3192 L 78.74239,417.29329 c -10.225352,-9.57271 -18.726489,-17.73823 -18.891434,-18.14558 -0.16493,-0.40735 8.201267,-8.63217 18.591549,-18.27738 L 97.333939,363.3336 v -63.39666 c 0,-56.21514 -0.233213,-63.30717 -2.058714,-62.60665 -1.132299,0.4345 -23.9492,15.75928 -50.704223,34.05505 l -48.6455101,33.26507 v 30.0805 30.08051 l 18.2069941,16.79782 18.207008,16.79782 -18.237052,17.57747 -18.2370542,17.57746 0.030057,29.84931 0.030047,29.84931 49.6901392,34.00377 c 27.329576,18.70208 50.146477,34.01919 50.704223,34.03803 0.557747,0.0188 1.014085,-28.45941 1.014085,-63.28497 z M 228.48886,386.93421 c 0,-190.51247 0.49273,-346.183485 1.09496,-345.935597 0.60221,0.247887 71.03038,48.279873 156.50703,106.737747 85.47664,58.45787 157.54166,107.29968 160.14448,108.53735 2.60282,1.23767 6.03876,3.30145 7.63545,4.58619 l 2.90305,2.3359 -0.73228,123.37103 -0.73229,123.37105 -159.57362,109.19233 C 307.97014,679.186 234.43555,729.4471 232.32543,730.82153 l -3.83657,2.49898 z m 159.40431,139.81745 48.82104,-33.42902 v -94.36068 -94.36069 l -48.54089,-33.20034 c -26.69747,-18.26019 -49.51437,-33.57392 -50.70422,-34.0305 -1.97565,-0.75813 -2.16334,13.27176 -2.16334,161.71269 0,138.36498 0.28012,162.43535 1.88318,161.8202 1.03575,-0.39746 23.85265,-15.7657 50.70423,-34.15166 z"
         style="fill:#ffffff;stroke-width:1.35211" />
    </g>
    <g
       style="font-size:3.52777px;line-height:1.25;font-family:Arial;-inkscape-font-specification:Arial;stroke-width:0.264583"
       id="text116"
       aria-label="Traj">
      <path
         id="path127"
         style="fill:#ffffff;stroke-width:0.264583"
         d="m 31.289968,103.63337 v -2.22725 H 30.45798 v -0.298 h 2.001596 v 0.298 h -0.835434 v 2.22725 z" />
      <path
         id="path129"
         style="fill:#ffffff;stroke-width:0.264583"
         d="m 32.630108,103.63337 v -1.82934 h 0.279052 v 0.27733 q 0.106798,-0.19465 0.19637,-0.25666 0.09129,-0.062 0.199815,-0.062 0.156751,0 0.318671,0.0999 l -0.106798,0.28767 q -0.113688,-0.0672 -0.227376,-0.0672 -0.10163,0 -0.18259,0.062 -0.08096,0.0603 -0.11541,0.16881 -0.05168,0.16536 -0.05168,0.36174 v 0.95773 z" />
      <path
         id="path131"
         style="fill:#ffffff;stroke-width:0.264583"
         d="m 35.005496,103.40772 q -0.172255,0.14641 -0.332451,0.2067 -0.158474,0.0603 -0.341064,0.0603 -0.301445,0 -0.463364,-0.14642 -0.161919,-0.14813 -0.161919,-0.37723 0,-0.13436 0.06029,-0.2446 0.06201,-0.11197 0.160196,-0.17915 0.09991,-0.0672 0.223931,-0.10163 0.0913,-0.0241 0.275607,-0.0465 0.375515,-0.0448 0.552937,-0.1068 0.0017,-0.0637 0.0017,-0.081 0,-0.18948 -0.08785,-0.267 -0.118855,-0.10507 -0.353121,-0.10507 -0.218763,0 -0.323838,0.0775 -0.103353,0.0758 -0.153307,0.27044 l -0.303168,-0.0413 q 0.04134,-0.19465 0.136081,-0.3135 0.09474,-0.12058 0.273885,-0.18432 0.179145,-0.0654 0.415133,-0.0654 0.234266,0 0.380682,0.0551 0.146416,0.0551 0.215318,0.13952 0.0689,0.0827 0.09646,0.21015 0.0155,0.0792 0.0155,0.28595 v 0.41341 q 0,0.43236 0.01895,0.54777 0.02067,0.11368 0.07924,0.21876 h -0.323839 q -0.04823,-0.0965 -0.06201,-0.22565 z m -0.02584,-0.69247 q -0.16881,0.0689 -0.506428,0.11714 -0.191203,0.0276 -0.27044,0.062 -0.07924,0.0344 -0.1223,0.10163 -0.04306,0.0654 -0.04306,0.14641 0,0.12403 0.09302,0.20671 0.09474,0.0827 0.275607,0.0827 0.179145,0 0.318671,-0.0775 0.139526,-0.0792 0.204983,-0.21532 0.04995,-0.10508 0.04995,-0.31006 z" />
      <path
         id="path133"
         style="fill:#ffffff;stroke-width:0.264583"
         d="m 35.773751,101.46813 v -0.36001 h 0.310057 v 0.36001 z m -0.39274,2.87493 0.05857,-0.26355 q 0.09302,0.0241 0.146416,0.0241 0.09474,0 0.141249,-0.0637 0.04651,-0.062 0.04651,-0.3135 v -1.92236 h 0.310057 v 1.92925 q 0,0.33762 -0.08785,0.47025 -0.111966,0.17226 -0.37207,0.17226 -0.125745,0 -0.242878,-0.0327 z" />
    </g>
    <g
       style="font-size:2.82222px;line-height:1.25;font-family:Arial;-inkscape-font-specification:Arial;stroke-width:0.264583"
       id="text138"
       aria-label="Ground Position">
      <path
         id="path142"
         style="font-size:2.82222px;fill:#ffffff;stroke-width:0.264583"
         d="m 11.379983,18.465168 v -0.237022 l 0.855761,-0.0014 v 0.749652 q -0.197059,0.157096 -0.406521,0.237023 -0.209461,0.07855 -0.429947,0.07855 -0.297656,0 -0.541569,-0.12678 -0.242534,-0.128157 -0.366558,-0.369314 -0.124023,-0.241156 -0.124023,-0.538812 0,-0.2949 0.122645,-0.549837 0.124024,-0.256315 0.355534,-0.380338 0.23151,-0.124024 0.5333,-0.124024 0.219108,0 0.395497,0.07166 0.177767,0.07028 0.278363,0.19706 0.100597,0.126779 0.152963,0.330729 l -0.241157,0.06614 q -0.04547,-0.15434 -0.112999,-0.242534 -0.06752,-0.08819 -0.192925,-0.14056 -0.125402,-0.05374 -0.278364,-0.05374 -0.183279,0 -0.316948,0.0565 -0.13367,0.05512 -0.216352,0.146072 -0.0813,0.09095 -0.12678,0.199815 -0.07717,0.187413 -0.07717,0.406521 0,0.270096 0.09233,0.451997 0.09371,0.1819 0.271473,0.270095 0.177767,0.08819 0.377582,0.08819 0.173633,0 0.338998,-0.06615 0.165364,-0.06752 0.250802,-0.143315 v -0.376205 z" />
      <path
         id="path144"
         style="font-size:2.82222px;fill:#ffffff;stroke-width:0.264583"
         d="m 12.594034,19.25754 v -1.463476 h 0.223242 v 0.221864 q 0.08544,-0.155718 0.157096,-0.205327 0.07304,-0.04961 0.159853,-0.04961 0.125401,0 0.254937,0.07993 l -0.08544,0.230132 q -0.09095,-0.05374 -0.181901,-0.05374 -0.0813,0 -0.146072,0.04961 -0.06477,0.04823 -0.09233,0.135047 -0.04134,0.132292 -0.04134,0.289388 v 0.766189 z" />
      <path
         id="path146"
         style="font-size:2.82222px;fill:#ffffff;stroke-width:0.264583"
         d="m 13.447039,18.525802 q 0,-0.406521 0.225998,-0.602202 0.188791,-0.162609 0.460265,-0.162609 0.30179,0 0.493337,0.198438 0.191547,0.197059 0.191547,0.545702 0,0.282498 -0.08544,0.445106 -0.08406,0.161231 -0.246669,0.250803 -0.16123,0.08957 -0.352777,0.08957 -0.307303,0 -0.497472,-0.19706 -0.188791,-0.197059 -0.188791,-0.567751 z m 0.254937,0 q 0,0.28112 0.122645,0.421679 0.122646,0.139182 0.308681,0.139182 0.184657,0 0.307302,-0.14056 0.122645,-0.140559 0.122645,-0.428569 0,-0.271474 -0.124023,-0.410655 -0.122646,-0.14056 -0.305924,-0.14056 -0.186035,0 -0.308681,0.139182 -0.122645,0.139181 -0.122645,0.420301 z" />
      <path
         id="path148"
         style="font-size:2.82222px;fill:#ffffff;stroke-width:0.264583"
         d="m 16.069444,19.25754 v -0.214974 q -0.170877,0.248047 -0.464399,0.248047 -0.129535,0 -0.242534,-0.04961 -0.111621,-0.04961 -0.166743,-0.124023 -0.05374,-0.07579 -0.07579,-0.184657 -0.01516,-0.07304 -0.01516,-0.23151 v -0.906749 h 0.248047 v 0.811664 q 0,0.194303 0.01516,0.261827 0.02343,0.09784 0.09922,0.15434 0.07579,0.05512 0.187413,0.05512 0.111621,0 0.209461,-0.0565 0.09784,-0.05788 0.137804,-0.155718 0.04134,-0.09922 0.04134,-0.286632 v -0.784103 h 0.248047 v 1.463476 z" />
      <path
         id="path150"
         style="font-size:2.82222px;fill:#ffffff;stroke-width:0.264583"
         d="m 16.681292,19.25754 v -1.463476 h 0.223242 v 0.208084 q 0.161231,-0.241157 0.465777,-0.241157 0.132292,0 0.242535,0.04823 0.111621,0.04685 0.166742,0.124023 0.05512,0.07717 0.07717,0.183279 0.01378,0.0689 0.01378,0.241156 v 0.899859 h -0.248046 v -0.890212 q 0,-0.151584 -0.02894,-0.225998 -0.02894,-0.07579 -0.103353,-0.11989 -0.07304,-0.04547 -0.172254,-0.04547 -0.158475,0 -0.27423,0.100597 -0.114377,0.100597 -0.114377,0.381716 v 0.799262 z" />
      <path
         id="path152"
         style="font-size:2.82222px;fill:#ffffff;stroke-width:0.264583"
         d="m 19.201722,19.25754 v -0.184657 q -0.139182,0.21773 -0.409277,0.21773 -0.175011,0 -0.322461,-0.09646 -0.146072,-0.09646 -0.227376,-0.268717 -0.07993,-0.173633 -0.07993,-0.398253 0,-0.219108 0.07304,-0.396875 0.07304,-0.179144 0.219108,-0.274229 0.146072,-0.09509 0.326595,-0.09509 0.132291,0 0.235644,0.0565 0.103353,0.05512 0.16812,0.144694 v -0.724848 h 0.246669 v 2.020203 z m -0.784103,-0.73036 q 0,0.28112 0.118511,0.420301 0.118511,0.139182 0.279742,0.139182 0.162608,0 0.275607,-0.132291 0.114377,-0.13367 0.114377,-0.406521 0,-0.300412 -0.115755,-0.440972 -0.115755,-0.14056 -0.285254,-0.14056 -0.165364,0 -0.276985,0.135048 -0.110243,0.135047 -0.110243,0.425813 z" />
      <path
         id="path154"
         style="font-size:2.82222px;fill:#ffffff;stroke-width:0.264583"
         d="m 20.637636,19.25754 v -2.020203 h 0.762055 q 0.201193,0 0.307302,0.01929 0.148828,0.0248 0.249425,0.09508 0.100597,0.0689 0.16123,0.194304 0.06201,0.125401 0.06201,0.275607 0,0.257693 -0.163986,0.436838 -0.163987,0.177767 -0.592556,0.177767 h -0.518142 v 0.82131 z m 0.26734,-1.059711 h 0.522276 q 0.259071,0 0.367936,-0.09646 0.108865,-0.09646 0.108865,-0.271474 0,-0.126779 -0.06477,-0.216352 -0.06339,-0.09095 -0.168121,-0.119889 -0.06752,-0.01791 -0.249424,-0.01791 h -0.516764 z" />
      <path
         id="path156"
         style="font-size:2.82222px;fill:#ffffff;stroke-width:0.264583"
         d="m 22.398768,18.525802 q 0,-0.406521 0.225998,-0.602202 0.188791,-0.162609 0.460264,-0.162609 0.301791,0 0.493338,0.198438 0.191547,0.197059 0.191547,0.545702 0,0.282498 -0.08544,0.445106 -0.08406,0.161231 -0.246669,0.250803 -0.16123,0.08957 -0.352778,0.08957 -0.307302,0 -0.497471,-0.19706 -0.188791,-0.197059 -0.188791,-0.567751 z m 0.254937,0 q 0,0.28112 0.122645,0.421679 0.122645,0.139182 0.30868,0.139182 0.184657,0 0.307303,-0.14056 0.122645,-0.140559 0.122645,-0.428569 0,-0.271474 -0.124023,-0.410655 -0.122646,-0.14056 -0.305925,-0.14056 -0.186035,0 -0.30868,0.139182 -0.122645,0.139181 -0.122645,0.420301 z" />
      <path
         id="path158"
         style="font-size:2.82222px;fill:#ffffff;stroke-width:0.264583"
         d="m 23.962841,18.820702 0.24529,-0.03859 q 0.02067,0.14745 0.114377,0.225998 0.09509,0.07855 0.264583,0.07855 0.170877,0 0.253559,-0.0689 0.08268,-0.07028 0.08268,-0.163986 0,-0.08406 -0.07303,-0.132292 -0.05099,-0.03307 -0.253559,-0.08406 -0.272852,-0.0689 -0.378961,-0.118511 -0.10473,-0.05099 -0.159852,-0.139182 -0.05374,-0.08957 -0.05374,-0.197059 0,-0.09784 0.0441,-0.180523 0.04547,-0.08406 0.122645,-0.139182 0.05788,-0.04272 0.157096,-0.07166 0.100597,-0.03032 0.214974,-0.03032 0.172255,0 0.30179,0.04961 0.130914,0.04961 0.192926,0.135047 0.06201,0.08406 0.08544,0.225998 l -0.242535,0.03307 q -0.01654,-0.112999 -0.09646,-0.176388 -0.07855,-0.06339 -0.223242,-0.06339 -0.170877,0 -0.243913,0.0565 -0.07304,0.0565 -0.07304,0.132292 0,0.04823 0.03032,0.08682 0.03032,0.03996 0.09508,0.06615 0.03721,0.01378 0.219107,0.06339 0.263206,0.07028 0.366558,0.115755 0.104731,0.0441 0.163987,0.129535 0.05926,0.08544 0.05926,0.212218 0,0.124024 -0.07304,0.234266 -0.07166,0.108865 -0.208083,0.169499 -0.136426,0.05926 -0.308681,0.05926 -0.285253,0 -0.435459,-0.118512 -0.148828,-0.118511 -0.190169,-0.351399 z" />
      <path
         id="path160"
         style="font-size:2.82222px;fill:#ffffff;stroke-width:0.264583"
         d="m 25.474547,17.522591 v -0.285254 h 0.248047 v 0.285254 z m 0,1.734949 v -1.463476 h 0.248047 v 1.463476 z" />
      <path
         id="path162"
         style="font-size:2.82222px;fill:#ffffff;stroke-width:0.264583"
         d="m 26.643122,19.035676 0.03583,0.219108 q -0.10473,0.02205 -0.187413,0.02205 -0.135047,0 -0.209461,-0.04272 -0.07441,-0.04272 -0.104731,-0.111621 -0.03032,-0.07028 -0.03032,-0.293522 V 17.98699 h -0.181901 v -0.192925 h 0.181901 v -0.362423 l 0.246669,-0.148828 v 0.511251 h 0.249424 v 0.192925 h -0.249424 v 0.855762 q 0,0.106108 0.0124,0.136425 0.01378,0.03032 0.04272,0.04823 0.03032,0.01791 0.08544,0.01791 0.04134,0 0.108865,-0.0096 z" />
      <path
         id="path164"
         style="font-size:2.82222px;fill:#ffffff;stroke-width:0.264583"
         d="m 26.885658,17.522591 v -0.285254 h 0.248047 v 0.285254 z m 0,1.734949 v -1.463476 h 0.248047 v 1.463476 z" />
      <path
         id="path166"
         style="font-size:2.82222px;fill:#ffffff;stroke-width:0.264583"
         d="m 27.420335,18.525802 q 0,-0.406521 0.225998,-0.602202 0.188791,-0.162609 0.460265,-0.162609 0.30179,0 0.493337,0.198438 0.191547,0.197059 0.191547,0.545702 0,0.282498 -0.08544,0.445106 -0.08406,0.161231 -0.246669,0.250803 -0.16123,0.08957 -0.352777,0.08957 -0.307303,0 -0.497472,-0.19706 -0.188791,-0.197059 -0.188791,-0.567751 z m 0.254937,0 q 0,0.28112 0.122645,0.421679 0.122646,0.139182 0.308681,0.139182 0.184657,0 0.307302,-0.14056 0.122645,-0.140559 0.122645,-0.428569 0,-0.271474 -0.124023,-0.410655 -0.122645,-0.14056 -0.305924,-0.14056 -0.186035,0 -0.308681,0.139182 -0.122645,0.139181 -0.122645,0.420301 z" />
      <path
         id="path168"
         style="font-size:2.82222px;fill:#ffffff;stroke-width:0.264583"
         d="m 29.083627,19.25754 v -1.463476 h 0.223242 v 0.208084 q 0.16123,-0.241157 0.465776,-0.241157 0.132292,0 0.242535,0.04823 0.111621,0.04685 0.166742,0.124023 0.05512,0.07717 0.07717,0.183279 0.01378,0.0689 0.01378,0.241156 v 0.899859 h -0.248047 v -0.890212 q 0,-0.151584 -0.02894,-0.225998 -0.02894,-0.07579 -0.103353,-0.11989 -0.07304,-0.04547 -0.172254,-0.04547 -0.158475,0 -0.27423,0.100597 -0.114377,0.100597 -0.114377,0.381716 v 0.799262 z" />
    </g>
    <rect
       y="21.770998"
       x="13.234151"
       height="13.039438"
       width="14.032093"
       id="rect140"
       style="fill:none;fill-rule:evenodd;stroke:#ffffff;stroke-width:0.129684" />
  </g>
  <g
     inkscape:groupmode="layer"
     id="layer2"
     inkscape:label="components"
     style="display:none;opacity:0.975">
    <ellipse
       ry="2.481642"
       rx="2.5809078"
       cy="28.489246"
       cx="20.32"
       id="ellipse55"
       style="fill:#ff0000;fill-rule:evenodd;stroke-width:0.264583"
       inkscape:label="inity" />
    <ellipse
       inkscape:label="vel"
       ry="2.481642"
       rx="2.5809078"
       cy="52.173771"
       cx="12.447425"
       id="ellipse69"
       style="fill:#ff0000;fill-rule:evenodd;stroke-width:0.264583" />
    <ellipse
       style="fill:#ff0000;fill-rule:evenodd;stroke-width:0.264583"
       id="ellipse71"
       cx="28.192574"
       cy="52.173771"
       rx="2.5809078"
       ry="2.481642"
       inkscape:label="grav" />
    <ellipse
       style="fill:#ff0000;fill-rule:evenodd;stroke-width:0.264583"
       id="ellipse73"
       cx="20.32"
       cy="73.952927"
       rx="2.5809078"
       ry="2.481642"
       inkscape:label="angle" />
    <ellipse
       inkscape:label="trig"
       ry="2.481642"
       rx="2.5809078"
       cy="93.468292"
       cx="20.32"
       id="ellipse75"
       style="fill:#ff0000;fill-rule:evenodd;stroke-width:0.264583" />
    <ellipse
       style="fill:#00ff00;fill-rule:evenodd;stroke-width:0.264583"
       id="ellipse117"
       cx="7.2206845"
       cy="109.74786"
       rx="2.5809078"
       ry="2.481642"
       inkscape:label="trig" />
    <ellipse
       style="fill:#0000ff;fill-rule:evenodd;stroke-width:0.264583"
       id="ellipse121"
       cx="33.419315"
       cy="109.74786"
       rx="2.5809078"
       ry="2.481642"
       inkscape:label="y" />
  </g>
</svg>
