<?xml version="1.0" encoding="UTF-8" standalone="no"?>
<svg
   xmlns:dc="http://purl.org/dc/elements/1.1/"
   xmlns:cc="http://creativecommons.org/ns#"
   xmlns:rdf="http://www.w3.org/1999/02/22-rdf-syntax-ns#"
   xmlns:svg="http://www.w3.org/2000/svg"
   xmlns="http://www.w3.org/2000/svg"
   xmlns:sodipodi="http://sodipodi.sourceforge.net/DTD/sodipodi-0.dtd"
   xmlns:inkscape="http://www.inkscape.org/namespaces/inkscape"
   width="15.24mm"
   height="128.5mm"
   viewBox="0 0 15.24 128.5"
   version="1.1"
   id="svg8"
   inkscape:version="1.0 (4035a4fb49, 2020-05-01)"
   sodipodi:docname="kaos.svg">
  <defs
     id="defs2" />
  <sodipodi:namedview
     id="base"
     pagecolor="#ffffff"
     bordercolor="#666666"
     borderopacity="1.0"
     inkscape:pageopacity="0.0"
     inkscape:pageshadow="2"
     inkscape:zoom="2.3156645"
     inkscape:cx="212.77745"
     inkscape:cy="47.943972"
     inkscape:document-units="mm"
     inkscape:current-layer="layer2"
     inkscape:document-rotation="0"
     showgrid="false"
     inkscape:window-width="1600"
     inkscape:window-height="837"
     inkscape:window-x="-8"
     inkscape:window-y="-8"
     inkscape:window-maximized="1" />
  <metadata
     id="metadata5">
    <rdf:RDF>
      <cc:Work
         rdf:about="">
        <dc:format>image/svg+xml</dc:format>
        <dc:type
           rdf:resource="http://purl.org/dc/dcmitype/StillImage" />
        <dc:title />
      </cc:Work>
    </rdf:RDF>
  </metadata>
  <g
     inkscape:label="Layer 1"
     inkscape:groupmode="layer"
     id="layer1">
    <rect
       style="fill:#000000;fill-rule:evenodd;stroke-width:0.264583"
       id="rect10"
       width="15.033143"
       height="128.98438"
       x="0"
       y="0" />
    <g
       aria-label="Kaos"
       transform="matrix(0.00592525,-0.88414453,1.130986,0.00757951,-0.06898562,-7.9980642)"
       id="text14"
       style="font-size:3.98995px;line-height:1.25;font-family:Arial;-inkscape-font-specification:Arial;stroke-width:0.299246">
      <path
         d="m -35.713193,5.2207655 c 0.143639,0.5841299 0.09576,1.1682598 -0.134063,1.7236621 -0.0383,0.1053349 -0.02873,0.1723662 0.02873,0.2585493 0.07661,0.1244867 0.143639,0.2489734 0.181942,0.3926119 0.05746,0.2106698 0.02873,0.4309155 -0.06703,0.6415853 -0.16279,0.3543083 -0.229822,0.7181925 -0.181942,1.1012285 0.0096,0.1436385 0.02873,0.287277 0.0383,0.4404914 0.0383,0.344732 0.134063,0.679889 0.296853,0.986318 0.01915,0.0383 0.0383,0.06703 0.06703,0.09576 -0.07661,-0.9288626 0.08618,-1.75239 0.900134,-2.3365199 -0.02873,-0.04788 -0.05746,-0.086183 -0.07661,-0.1244867 -0.153214,-0.2968529 -0.239397,-0.6128576 -0.220246,-0.9480141 0.0096,-0.1340626 0.01915,-0.2681252 0.162791,-0.3351565 0.153214,-0.067031 0.277701,0 0.402187,0.086183 0.0383,0.028728 0.06703,0.067031 0.09576,0.095759 0.143639,0.191518 0.220246,0.4117637 0.181943,0.6511612 -0.0096,0.057455 -0.01915,0.1149108 -0.02873,0.1819421 0.363884,0.076607 0.58413,0.3064288 0.737344,0.6224335 0.124487,0.2489734 0.268125,0.4883709 0.42134,0.7277684 0.181942,0.2777011 0.440491,0.5075227 0.737344,0.660737 0.05746,0.02873 0.124487,0.0383 0.191518,0.05746 0.0096,-0.0096 0.01915,-0.01915 0.02873,-0.02873 -0.526675,-0.6798891 -0.804376,-1.4363852 -0.63201,-2.3077921 -0.04788,-0.00958 -0.07661,-0.028728 -0.105335,-0.038304 -0.201093,-0.047879 -0.344732,-0.1627903 -0.459643,-0.3351565 -0.06703,-0.095759 -0.143638,-0.191518 -0.229821,-0.2777011 -0.201094,-0.2202457 -0.392612,-0.4404914 -0.670313,-0.5841299 0.04788,-0.1149108 0.09576,-0.2202458 0.134062,-0.3255807 0.09576,-0.287277 0.239398,-0.5458263 0.42134,-0.7756479 0.07661,-0.1053349 0.172366,-0.1723662 0.296853,-0.1819421 0.124486,0 0.248973,0.019152 0.37346,0.028728 0.04788,0.00958 0.08618,0.019152 0.172366,0.047879 -0.0383,-0.1053349 -0.05745,-0.1723662 -0.07661,-0.2393975 -0.114911,-0.3064288 -0.09576,-0.5937058 0.05746,-0.8809828 0.05746,-0.095759 0.114911,-0.191518 0.181942,-0.287277 0.134063,-0.2010939 0.316005,-0.3638842 0.497947,-0.5075227 0.04788,-0.038304 0.124487,-0.067031 0.124487,-0.1627903 -0.0383,0 -0.07661,0 -0.105335,0.00958 -0.555402,0.076607 -1.00547,0.3447324 -1.33105,0.8043756 -0.09576,0.1340626 -0.191518,0.2681252 -0.287277,0.4021878 -0.09576,0.1244867 -0.239398,0.2106698 -0.402188,0.2298216 -0.06703,0.00958 -0.143638,0.028728 -0.191518,0.038304 0,0.2393975 0.01915,0.4500673 0,0.6607371 -0.01915,0.2010939 -0.08618,0.383036 -0.220246,0.5362504 -0.08618,0.095759 -0.191518,0.1532144 -0.316004,0.1149108 -0.134063,-0.047879 -0.162791,-0.1723662 -0.172367,-0.287277 -0.0096,-0.095759 0,-0.191518 0.0096,-0.287277 0.01915,-0.2489734 0.0383,-0.4883709 0.191518,-0.6607371 -0.105335,-0.2489734 -0.201094,-0.478795 -0.277701,-0.7086166 -0.114911,-0.3255806 -0.220245,-0.6511612 -0.411763,-0.9480141 -0.05746,-0.1053349 -0.124487,-0.2010939 -0.277702,-0.2681252 0.220246,0.6511612 0.248974,1.244867 -0.268125,1.723662 0.07661,0.191518 0.172366,0.3447324 0.21067,0.5170986 z"
         style="font-style:normal;font-variant:normal;font-weight:normal;font-stretch:normal;font-size:9.5759px;font-family:'Deicide Remain';-inkscape-font-specification:'Deicide Remain';fill:#ffffff;stroke-width:0.299246"
         id="path16" />
      <path
         d="m -30.0085,9.7310145 c 0.181942,0.00958 0.37346,-0.038304 0.53625,-0.1244867 0.469219,-0.2489734 0.7948,-0.6128576 0.928862,-1.1395321 0.105335,-0.383036 0.277702,-0.7277684 0.603282,-0.9863177 0.0383,-0.028728 0.06703,-0.067031 0.114911,-0.1244867 -0.08618,-0.028728 -0.153214,-0.057455 -0.21067,-0.076607 -0.316005,-0.1149108 -0.612857,-0.2777011 -0.813951,-0.5554022 -0.162791,-0.2298216 -0.229822,-0.4787951 -0.153215,-0.7564962 0.02873,-0.095759 0.05746,-0.191518 0.07661,-0.287277 -0.09576,-0.086183 -0.191518,-0.1723662 -0.277701,-0.2585493 -0.335156,-0.3447324 -0.459643,-0.7469202 -0.37346,-1.2161393 0.06703,-0.3734601 0.239398,-0.6990407 0.469219,-0.9958936 0.0383,-0.04788 0.07661,-0.1053349 0.124487,-0.1627903 -0.0383,0 -0.04788,-0.00958 -0.05745,-0.00958 -0.84268,0.383036 -1.407658,0.9671659 -1.503417,1.9247559 -0.02873,0.287277 -0.04788,0.574554 -0.11491,0.8426792 -0.105335,0.4596432 -0.335157,0.8426793 -0.766072,1.062925 -0.02873,0.019152 -0.05746,0.038304 -0.08618,0.067031 0.05746,0.038304 0.09576,0.076607 0.124487,0.1053349 0.21067,0.1723662 0.287277,0.4021878 0.220246,0.6607371 -0.04788,0.1723662 -0.134063,0.3255806 -0.21067,0.478795 -0.07661,0.1244867 -0.181942,0.2393975 -0.258549,0.3543083 -0.09576,0.1436385 -0.191518,0.287277 -0.25855,0.4404914 -0.16279,0.3638842 -0.172366,0.7277684 -0.02873,1.1012288 0.143638,0.363884 0.392612,0.632009 0.708616,0.842679 0.0383,0.02873 0.08618,0.04788 0.134063,0.06703 -0.07661,-0.11491 -0.124487,-0.201094 -0.172366,-0.277701 -0.07661,-0.143638 -0.162791,-0.287277 -0.229822,-0.430915 -0.08618,-0.21067 -0.105335,-0.4500677 -0.05746,-0.6703134 0.01915,-0.095759 0.07661,-0.1819421 0.153214,-0.2298216 0.239398,-0.1436385 0.478795,-0.1819421 0.737344,-0.057455 0.05746,0.028728 0.105335,0.057455 0.191518,0.095759 -0.01915,-0.076607 -0.01915,-0.1053349 -0.02873,-0.1436385 -0.02873,-0.191518 -0.06703,-0.383036 -0.08618,-0.574554 -0.02873,-0.2202457 0.0383,-0.4117637 0.191518,-0.574554 0.05746,-0.057455 0.105335,-0.1244867 0.153214,-0.1723662 -0.05745,-0.1340626 -0.105335,-0.2393975 -0.143638,-0.3543083 -0.06703,-0.2010939 0,-0.3543083 0.201093,-0.4404914 0.201094,-0.086183 0.411764,-0.086183 0.612858,-0.038304 0.114911,0.028728 0.21067,0.095759 0.268125,0.2010939 0.124487,0.2202457 0.21067,0.4596432 0.172366,0.7181925 -0.11491,0.6320094 -0.354308,1.1874116 -0.852255,1.6087512 -0.01915,0.019152 -0.05746,0.019152 -0.08618,0.028728 z m -0.172366,-3.2270783 0.258549,-0.9192865 c 0.105335,0.095759 0.143638,0.2202457 0.143638,0.3543083 0.0096,0.1627903 0,0.3255806 0,0.4883709 z"
         style="font-style:normal;font-variant:normal;font-weight:normal;font-stretch:normal;font-size:9.5759px;font-family:'Deicide Remain';-inkscape-font-specification:'Deicide Remain';fill:#ffffff;stroke-width:0.299246"
         id="path18" />
      <path
         d="m -27.944595,10.410903 c 0.02873,-0.0383 0.04788,-0.06703 0.07661,-0.105335 0.172366,-0.229821 0.335156,-0.4596427 0.507522,-0.6798884 0.181942,-0.2106698 0.42134,-0.2393975 0.679889,-0.1723662 0.06703,0.019152 0.134063,0.047879 0.201094,0.067031 0.21067,-0.2968529 0.411764,-0.3638842 0.699041,-0.2298216 0.06703,0.028728 0.124487,0.067031 0.181942,0.1053349 0.105335,0.095759 0.21067,0.2010939 0.306429,0.3064288 0.191518,0.1819421 0.37346,0.3734605 0.564978,0.5554025 0.09576,0.09576 0.220246,0.16279 0.344732,0.201094 -0.134062,-0.268125 -0.268125,-0.517099 -0.383036,-0.7660724 -0.201094,-0.4117637 -0.239397,-0.8426792 -0.06703,-1.2831706 0.0096,-0.019152 0.0096,-0.04788 0.01915,-0.067031 0.05746,-0.1532144 0.05746,-0.3160047 0,-0.4596432 -0.02873,-0.076607 -0.04788,-0.1436385 -0.07661,-0.2202457 -0.114911,-0.287277 -0.172367,-0.6032817 -0.191518,-0.9192864 -0.0096,-0.2777011 0.02873,-0.5362505 0.201093,-0.775648 0.01915,-0.038304 0.04788,-0.076607 0.06703,-0.1244867 -0.277701,-0.3351565 -0.392612,-0.7181925 -0.354309,-1.1299562 0.02873,-0.3160047 0.153215,-0.6032817 0.316005,-0.8714069 0.09576,-0.1532144 0.201094,-0.3160047 0.296853,-0.478795 0.04788,-0.095759 0.09576,-0.191518 0.134063,-0.287277 0.01915,-0.057455 0.02873,-0.1149108 -0.0383,-0.1436385 -0.191518,0.1532144 -0.37346,0.3064288 -0.555402,0.4500673 -0.21067,0.1627903 -0.478795,0.2298216 -0.737344,0.1819421 -0.134063,-0.028728 -0.268126,-0.076607 -0.42134,-0.1244867 -0.06703,0.057455 -0.143639,0.1149108 -0.220246,0.1723662 -0.181942,0.1532144 -0.392612,0.1723662 -0.612857,0.1149108 -0.124487,-0.028728 -0.248974,-0.086183 -0.354309,-0.1627903 -0.181942,-0.1149108 -0.344732,-0.2585493 -0.507522,-0.3926119 -0.134063,-0.1053349 -0.268126,-0.2106698 -0.42134,-0.2489734 0.124487,0.191518 0.258549,0.3734601 0.383036,0.5649781 0.124487,0.1819421 0.153214,0.3926119 0.105335,0.6128576 -0.02873,0.1244867 0,0.2393975 0.0383,0.3543083 0.04788,0.1053349 0.09576,0.2202457 0.124486,0.3351565 0.08618,0.2585493 0.05746,0.5075227 -0.05746,0.7469202 -0.05746,0.1053349 -0.114911,0.2106698 -0.172366,0.3255806 0.296853,0.1149108 0.344732,0.3543083 0.32558,0.6224336 -0.01915,0.1244867 -0.0383,0.2489734 -0.08618,0.3638842 -0.06703,0.2202457 -0.09576,0.4404914 -0.05746,0.670313 0.0383,0.2489734 0.06703,0.4883709 0.105335,0.7277684 0.04788,0.4309155 0.0383,0.861831 -0.143639,1.2640188 -0.05746,0.1627903 -0.114911,0.3160047 -0.16279,0.4883709 -0.0383,0.1244863 -0.06703,0.2585493 -0.09576,0.3926123 z m 1.627903,-1.9917868 c -0.05746,0.1053349 -0.172366,0.1532144 -0.306428,0.1244867 -0.114911,-0.019152 -0.162791,-0.086183 -0.172367,-0.2298216 0,-0.04788 0,-0.1053349 0.0096,-0.1532144 0.05746,-0.3255806 0.0383,-0.6511612 -0.01915,-0.9767418 -0.09576,-0.5554022 -0.0096,-0.8522552 0.383036,-1.2640189 -0.07661,-0.076607 -0.143639,-0.1627903 -0.220246,-0.2298216 -0.37346,-0.3638842 -0.181942,-0.9480141 0.229821,-1.1682598 0.134063,-0.067031 0.25855,-0.00958 0.363885,0.076607 0.153214,0.1340626 0.220245,0.3064288 0.172366,0.5075227 -0.0383,0.1819421 -0.124487,0.3543083 -0.191518,0.5554022 0.01915,0.028728 0.0383,0.067031 0.05746,0.095759 0.162791,0.2106698 0.21067,0.4500673 0.143639,0.7086167 -0.07661,0.3255806 -0.04788,0.6511612 0.04788,0.9671659 0.0383,0.1340626 0.08618,0.2681252 0.134063,0.3926119 0.07661,0.2010939 0.105335,0.4021878 0.09576,0.6128576 -0.0096,0.2010939 -0.124487,0.2681252 -0.296853,0.1627903 -0.124487,-0.086183 -0.229822,-0.191518 -0.363884,-0.2968529 -0.02873,0.038304 -0.0383,0.076607 -0.06703,0.1149108 z"
         style="font-style:normal;font-variant:normal;font-weight:normal;font-stretch:normal;font-size:9.5759px;font-family:'Deicide Remain';-inkscape-font-specification:'Deicide Remain';fill:#ffffff;stroke-width:0.299246"
         id="path20" />
      <path
         d="m -23.300732,7.1359456 c 0.239398,-0.3351565 0.488371,-0.3926119 0.842679,-0.191518 0.153215,0.076607 0.296853,0.1723662 0.430916,0.2777011 0.440491,0.3255806 0.545826,0.8426792 0.277701,1.3023224 -0.114911,0.2010939 -0.248974,0.2585493 -0.469219,0.2010939 -0.07661,-0.019152 -0.153215,-0.04788 -0.239398,-0.067031 -0.01915,0.057455 -0.0383,0.1053349 -0.05746,0.1532144 -0.229822,0.4213396 -0.813952,0.5075227 -1.082077,0.067031 -0.335156,-0.5649781 -0.641585,-1.1395321 -0.766072,-1.8002692 -0.0096,-0.038304 -0.02873,-0.067031 -0.05746,-0.1149108 -0.105335,0.4979468 -0.04788,0.9671659 0.07661,1.4268091 0.16279,0.6128576 0.42134,1.1969875 0.775648,1.7332375 0.16279,0.239398 0.37346,0.440492 0.564978,0.660737 0.01915,0.01915 0.04788,0.02873 0.09576,0.05746 0,-0.08618 0.0096,-0.143639 0,-0.201094 -0.09576,-0.430916 0.335156,-0.9671659 0.833103,-0.9767418 0.220246,-0.00958 0.430916,0.028728 0.63201,0.1340626 0.105335,0.057455 0.220245,0.1053349 0.335156,0.1436385 0.0383,0.00958 0.08618,0 0.143639,0 -0.134063,-0.4404914 -0.134063,-0.8331033 0.134062,-1.2257152 0.181942,-0.2681252 0.21067,-0.5841299 0.06703,-0.9192864 -0.124487,-0.2681252 -0.162791,-0.574554 -0.220246,-0.8714069 -0.02873,-0.1244867 0,-0.2489734 0.0096,-0.3734601 0,-0.047879 0.0096,-0.086183 0.0096,-0.1436386 -0.574554,0.1819422 -1.110805,0.076607 -1.599176,-0.2202457 -0.344732,-0.2106698 -0.507522,-0.5266745 -0.526674,-0.9192864 -0.0096,-0.3638842 0.316005,-0.6320094 0.679889,-0.5841299 0.21067,0.038304 0.383036,0.1436385 0.545826,0.2777011 0.363884,0.2968529 0.74692,0.5649781 1.158684,0.7852238 0.02873,0.00958 0.06703,0.00958 0.09576,0.00958 -0.316005,-0.3447324 -0.58413,-0.7373443 -0.7948,-1.1586839 -0.220245,-0.4213396 -0.287277,-0.8809828 -0.287277,-1.3597778 -0.05746,0.04788 -0.105335,0.095759 -0.153214,0.1532144 -0.277701,0.3064288 -0.593706,0.5075227 -1.034197,0.4021878 -0.21067,-0.04788 -0.363885,-0.1819421 -0.526675,-0.3064288 -0.08618,-0.067031 -0.16279,-0.1340626 -0.277701,-0.2202457 0.01915,0.057455 0.01915,0.086183 0.01915,0.1053349 0.0096,0.028728 0.0096,0.057455 0.01915,0.076607 0.05746,0.3734601 -0.0096,0.7181925 -0.220246,1.053349 -0.172366,0.2681252 -0.306429,0.5649781 -0.450067,0.861831 -0.08618,0.1819421 -0.134063,0.3638842 -0.143639,0.5649781 0.07661,-0.047879 0.143639,-0.086183 0.21067,-0.1244867 0.258549,-0.1244867 0.478795,-0.038304 0.58413,0.2298216 0.02873,0.076607 0.04788,0.1627903 0.05745,0.2585493 0.01915,0.1244867 0.01915,0.2489735 0.0383,0.3734602 0.01915,0.191518 0.07661,0.383036 0.201094,0.5458263 0.02873,-0.028728 0.04788,-0.057455 0.06703,-0.076607 z"
         style="font-style:normal;font-variant:normal;font-weight:normal;font-stretch:normal;font-size:9.5759px;font-family:'Deicide Remain';-inkscape-font-specification:'Deicide Remain';fill:#ffffff;stroke-width:0.299246"
         id="path22" />
    </g>
    <g
       style="fill:#ffffff"
       transform="matrix(0.01603374,0,0,0.01342446,4.1097072,101.08818)"
       id="g40">
      <path
         id="path54"
         d="m 436.00195,399.08312 c 0,-51.68451 0.16814,-72.82817 0.37365,-46.98591 0.20551,25.84225 0.20551,68.12957 0,93.97183 -0.20551,25.84225 -0.37365,4.69859 -0.37365,-46.98592 z m -350.289433,26.70423 -2.575761,-3.04226 3.042253,2.57576 c 2.858962,2.42058 3.65779,3.50875 2.575762,3.50875 -0.256577,0 -1.625591,-1.36901 -3.042254,-3.04225 z m 116.913733,0.67605 c -1.68185,-2.14453 -1.63403,-2.19235 0.5105,-0.5105 1.30141,1.02064 2.3662,2.08543 2.3662,2.3662 0,1.11284 -1.11034,0.39658 -2.8767,-1.8557 z M 8.0945055,422.74509 c 1.7465915,-1.85915 3.4798375,-3.38028 3.8516685,-3.38028 0.371831,0 -0.752964,1.52113 -2.4995559,3.38028 -1.7465915,1.85916 -3.4798376,3.38028 -3.8516686,3.38028 -0.371831,0 0.7529645,-1.52112 2.499556,-3.38028 z m 183.7148445,-8.4507 c -1.68186,-2.14453 -1.63403,-2.19236 0.5105,-0.5105 1.30141,1.02064 2.3662,2.08543 2.3662,2.36619 0,1.11285 -1.11034,0.39659 -2.8767,-1.85569 z m -127.730635,-8.78873 -2.575761,-3.04226 3.042254,2.57576 c 2.858961,2.42058 3.657789,3.50875 2.575761,3.50875 -0.256577,0 -1.625591,-1.36901 -3.042254,-3.04225 z m -149.279981,-0.17248 c 0,-0.28077 1.064789,-1.34555 2.366198,-2.3662 2.144526,-1.68185 2.19235,-1.63402 0.510496,0.51051 -1.766358,2.25228 -2.876694,2.96853 -2.876694,1.85569 z M 29.728307,402.4634 c 1.746592,-1.85915 3.479838,-3.38028 3.851669,-3.38028 0.371831,0 -0.752964,1.52113 -2.499556,3.38028 -1.746591,1.85916 -3.479838,3.38028 -3.851669,3.38028 -0.37183,0 0.752965,-1.52112 2.499556,-3.38028 z m -4.158679,-11.15493 -3.27794,-3.71831 3.71831,3.27794 c 3.475321,3.06374 4.338375,4.15868 3.27794,4.15868 -0.242191,0 -1.91543,-1.67324 -3.71831,-3.71831 z m 42.693889,-3.04225 c 1.346015,-1.48732 2.751522,-2.70423 3.123353,-2.70423 0.371831,0 -0.425226,1.21691 -1.77124,2.70423 -1.346015,1.48732 -2.751522,2.70422 -3.123353,2.70422 -0.371831,0 0.425226,-1.2169 1.77124,-2.70422 z m 122.366193,-9.97529 c 0,-0.28077 1.06479,-1.34556 2.3662,-2.3662 2.14453,-1.68185 2.19235,-1.63403 0.5105,0.5105 -1.76636,2.25229 -2.8767,2.96854 -2.8767,1.8557 z m -187.3960629,-7.9402 -2.57576105,-3.04226 3.04225335,2.57576 c 1.6732394,1.41667 3.0422535,2.78568 3.0422535,3.04226 0,1.08203 -1.0881668,0.2832 -3.5087458,-2.57576 z m 86.6636719,-2.3662 c 1.346015,-1.48732 2.751522,-2.70423 3.123353,-2.70423 0.371831,0 -0.425226,1.21691 -1.77124,2.70423 -1.346015,1.48732 -2.751522,2.70422 -3.123353,2.70422 -0.371831,0 0.425226,-1.2169 1.77124,-2.70422 z m 111.549291,-1.86262 c 0,-0.28076 1.06479,-1.34555 2.3662,-2.36619 2.14453,-1.68186 2.19235,-1.63403 0.5105,0.5105 -1.76636,2.25228 -2.8767,2.96854 -2.8767,1.85569 z"
         style="fill:#ffffff;stroke-width:1.35211" />
      <path
         id="path52"
         d="m -3.4983216,463.30847 c 0.00102,-16.36056 0.1962659,-22.86768 0.4338767,-14.46027 0.2376095,8.40742 0.2367725,21.79333 -0.00189,29.74648 -0.2385979,7.95315 -0.433006,1.07436 -0.4319838,-15.28621 z M -118.89734,432.09721 c 0.0649,-1.57514 0.38528,-1.89553 0.81691,-0.81691 0.39058,0.97605 0.34255,2.14226 -0.10675,2.59156 -0.4493,0.44929 -0.76887,-0.34931 -0.71016,-1.77465 z M 62.17901,394.51628 c 0,-0.28077 1.064789,-1.34556 2.366198,-2.3662 2.144531,-1.68185 2.192355,-1.63403 0.510503,0.51051 -1.766359,2.25228 -2.876701,2.96853 -2.876701,1.85569 z M 7.92203,375.08312 c -1.6818523,-2.14453 -1.6340281,-2.19236 0.5105036,-0.5105 1.3014084,1.02064 2.3661974,2.08543 2.3661974,2.36619 0,1.11285 -1.1103416,0.39659 -2.876701,-1.85569 z m 75.890782,-0.84853 c 0,-0.28077 1.064789,-1.34556 2.366197,-2.3662 2.144532,-1.68185 2.192356,-1.63403 0.510504,0.51051 -1.766359,2.25228 -2.876701,2.96853 -2.876701,1.85569 z M -3.4983216,334.85777 c 0.00102,-16.36056 0.1962659,-22.86769 0.4338767,-14.46028 0.2376095,8.40742 0.2367725,21.79334 -0.00189,29.74648 -0.2385979,7.95315 -0.433006,1.07436 -0.4319838,-15.2862 z"
         style="fill:#ffffff;stroke-width:1.35211" />
      <path
         id="path50"
         d="m 96.605556,497.78735 c 0,-34.58029 0.175098,-48.72676 0.389111,-31.43662 0.214012,17.29014 0.214012,45.5831 0,62.87324 -0.214013,17.29014 -0.389111,3.14366 -0.389111,-31.43662 z m -18.37367,-79.43662 c -1.681852,-2.14454 -1.634028,-2.19236 0.510504,-0.51051 1.301408,1.02065 2.366197,2.08543 2.366197,2.3662 0,1.11284 -1.110341,0.39659 -2.876701,-1.85569 z m 18.37417,-118.64789 c -2.84e-4,-34.95211 0.17449,-49.44472 0.388381,-32.20578 0.21389,17.23893 0.214107,45.83612 5e-4,63.54929 -0.21362,17.71318 -0.388611,3.6086 -0.388881,-31.34351 z"
         style="fill:#ffffff;stroke-width:1.35211" />
      <path
         id="path48"
         d="m 227.45919,581.2803 c 0.17733,-84.21971 0.48093,-128.4845 0.67465,-98.36619 0.92751,144.19826 0.93475,251.49327 0.017,251.49312 -0.55775,-10e-5 -0.86899,-68.90721 -0.69165,-153.12693 z M 335.62905,398.74509 c 0.1778,-89.42535 0.48145,-136.42817 0.67476,-104.4507 0.92675,153.30065 0.93358,267.04254 0.0161,267.0424 -0.55775,-8e-5 -0.86861,-73.16634 -0.6908,-162.5917 z M -4.0745081,433.72755 c 0,-0.28077 1.0647887,-1.34556 2.3661971,-2.3662 2.14452629,-1.68185 2.19235052,-1.63403 0.5104968,0.5105 -1.766358,2.25229 -2.8766939,2.96854 -2.8766939,1.8557 z M 74.175549,414.29439 c -1.681853,-2.14453 -1.634029,-2.19236 0.510503,-0.5105 1.301409,1.02064 2.366197,2.08543 2.366197,2.36619 0,1.11285 -1.110341,0.39659 -2.8767,-1.85569 z m -56.616255,-0.84853 c 0,-0.28077 1.064789,-1.34556 2.366197,-2.3662 2.144532,-1.68185 2.192356,-1.63403 0.510504,0.5105 -1.76636,2.25229 -2.876701,2.96854 -2.876701,1.8557 z m -2.156633,-30.92612 -2.575761,-3.04225 3.042253,2.57576 c 2.858961,2.42058 3.657789,3.50874 2.575761,3.50874 -0.256577,0 -1.625591,-1.36901 -3.042253,-3.04225 z m 63.677757,-3.71831 c 1.346015,-1.48732 2.751522,-2.70422 3.123353,-2.70422 0.371831,0 -0.425226,1.2169 -1.77124,2.70422 -1.346015,1.48732 -2.751522,2.70423 -3.123353,2.70423 -0.371831,0 0.425226,-1.21691 1.77124,-2.70423 z M 227.79121,200.99861 c -5e-5,-89.23943 0.16168,-125.945637 0.35938,-81.56934 0.19771,44.37631 0.19775,117.39039 8e-5,162.25353 -0.19765,44.86313 -0.35942,8.55525 -0.35946,-80.68419 z"
         style="fill:#ffffff;stroke-width:1.35211" />
      <path
         id="path46"
         d="m 210.21207,584.99861 c 6e-5,-82.54647 0.16255,-116.11661 0.36111,-74.6003 0.19856,41.51631 0.19852,109.05434 -9e-5,150.08451 -0.19861,41.03017 -0.36107,7.06227 -0.36102,-75.48421 z m -328.31474,-74.59155 c -0.49578,-0.49577 -0.90141,-17.45788 -0.90141,-37.69359 0,-33.43184 0.21611,-36.96168 2.3662,-38.64789 2.11004,-1.6548 2.17864,-1.61562 0.63376,0.36197 -1.33502,1.70895 -1.64519,10.78154 -1.35211,39.55017 0.20917,20.53288 0.32961,37.33211 0.26764,37.33162 -0.062,-4.7e-4 -0.51831,-0.4065 -1.01408,-0.90228 z m 209.223638,-80.56338 -2.575761,-3.04225 3.042253,2.57576 c 2.858961,2.42058 3.657789,3.50875 2.575761,3.50875 -0.256577,0 -1.625591,-1.36902 -3.042253,-3.04226 z M 2.686055,426.80143 c 1.7465915,-1.85915 3.4798376,-3.38028 3.8516686,-3.38028 0.3718309,0 -0.7529645,1.52113 -2.499556,3.38028 -1.7465915,1.85916 -3.4798349,3.38028 -3.85166587,3.38028 -0.37183098,0 0.75296853,-1.52112 2.49955327,-3.38028 z M 227.72296,395.70284 c -8.3e-4,-18.59155 0.18961,-26.38472 0.42318,-17.31816 0.23358,9.06658 0.23426,24.27785 0.001,33.80282 -0.23261,9.52498 -0.42372,2.10689 -0.42454,-16.48466 z m -158.235794,13.85915 -2.575761,-3.04225 3.042253,2.57576 c 2.858961,2.42058 3.657789,3.50875 2.575761,3.50875 -0.256577,0 -1.625591,-1.36902 -3.042253,-3.04226 z m -45.167309,-3.04225 c 1.746591,-1.85915 3.479838,-3.38028 3.851669,-3.38028 0.371831,0 -0.752965,1.52113 -2.499556,3.38028 -1.746592,1.85916 -3.479838,3.38028 -3.851669,3.38028 -0.371831,0 0.752964,-1.52112 2.499556,-3.38028 z M 182.34456,404.8296 c -1.68185,-2.14453 -1.63403,-2.19236 0.5105,-0.5105 1.30141,1.02064 2.3662,2.08543 2.3662,2.36619 0,1.11285 -1.11034,0.39659 -2.8767,-1.85569 z m -161.533449,-16.90141 -2.575761,-3.04225 3.042254,2.57576 c 2.858961,2.42058 3.657789,3.50874 2.575761,3.50874 -0.256577,0 -1.625591,-1.36901 -3.042254,-3.04225 z m 52.1848,-3.04225 c 1.746592,-1.85916 3.479838,-3.38028 3.851669,-3.38028 0.371831,0 -0.752964,1.52112 -2.499556,3.38028 -1.746591,1.85915 -3.479838,3.38028 -3.851669,3.38028 -0.371831,0 0.752965,-1.52113 2.499556,-3.38028 z m 108.169009,2.86978 c 0,-0.28077 1.06479,-1.34556 2.3662,-2.3662 2.14453,-1.68185 2.19235,-1.63403 0.5105,0.5105 -1.76636,2.25228 -2.8767,2.96854 -2.8767,1.8557 z m -182.6375389,-20.78528 -3.2779455,-3.71831 3.7183097,3.27795 c 3.4753215,3.06373 4.338375,4.15867 3.2779401,4.15867 -0.2421904,0 -1.91543382,-1.67323 -3.7183043,-3.71831 z m 94.7502199,-0.84853 c 0,-0.28076 1.064788,-1.34555 2.366197,-2.36619 2.144532,-1.68186 2.192356,-1.63403 0.510503,0.5105 -1.766359,2.25228 -2.8767,2.96854 -2.8767,1.85569 z M 209.23236,197.61826 c -0.19201,-87.00848 0.10721,-158.197216 0.66495,-158.197178 0.55775,3.6e-5 1.01409,71.188798 1.01409,158.197248 0,87.00845 -0.29922,158.19719 -0.66496,158.19719 -0.36572,0 -0.82205,-71.18876 -1.01408,-158.19726 z"
         style="fill:#ffffff;stroke-width:1.35211" />
      <path
         id="path44"
         d="m 556.34114,413.2803 c 1.4e-4,-53.54366 0.16781,-75.251 0.37263,-48.23855 0.20482,27.01245 0.20472,70.8209 -2.3e-4,97.35211 -0.20494,26.53121 -0.37252,4.43011 -0.3724,-49.11356 z m -470.628623,11.15493 -2.575761,-3.04225 3.042253,2.57576 c 2.858962,2.42058 3.65779,3.50875 2.575762,3.50875 -0.256577,0 -1.625591,-1.36902 -3.042254,-3.04226 z M 8.7705618,420.71692 c 1.3460142,-1.48732 2.7515222,-2.70422 3.1233532,-2.70422 0.371831,0 -0.425226,1.2169 -1.771241,2.70422 -1.3460142,1.48733 -2.7515217,2.70423 -3.1233527,2.70423 -0.371831,0 0.4252259,-1.2169 1.7712405,-2.70423 z m 55.3081532,-16.56338 -2.575761,-3.04225 3.042254,2.57576 c 2.858961,2.42058 3.657789,3.50875 2.575761,3.50875 -0.256577,0 -1.625591,-1.36902 -3.042254,-3.04226 z m -35.70252,-1.52458 c 0,-0.28077 1.064789,-1.34556 2.366197,-2.3662 2.144532,-1.68185 2.192356,-1.63403 0.510504,0.5105 -1.76636,2.25228 -2.876701,2.96854 -2.876701,1.8557 z m -2.156633,-9.29232 -2.575761,-3.04225 3.042253,2.57576 c 2.858961,2.42058 3.657789,3.50875 2.575761,3.50875 -0.256577,0 -1.625591,-1.36902 -3.042253,-3.04226 z m 40.691843,-2.3662 c 1.346014,-1.48732 2.751522,-2.70422 3.123353,-2.70422 0.371831,0 -0.425226,1.2169 -1.771241,2.70422 -1.346014,1.48733 -2.751522,2.70423 -3.123353,2.70423 -0.371831,0 0.425226,-1.2169 1.771241,-2.70423 z M 189.2776,378.29093 c 0,-0.28077 1.06479,-1.34556 2.36619,-2.3662 2.14454,-1.68185 2.19236,-1.63403 0.51051,0.5105 -1.76636,2.25229 -2.8767,2.96854 -2.8767,1.8557 z m -184.6918403,-5.23598 -2.575761,-3.04225 3.0422534,2.57576 c 2.858961,2.42058 3.6577891,3.50875 2.575761,3.50875 -0.2565769,0 -1.6255909,-1.36902 -3.0422534,-3.04226 z m 85.3115593,-3.71831 c 1.346015,-1.48732 2.751522,-2.70422 3.123353,-2.70422 0.371831,0 -0.425226,1.2169 -1.77124,2.70422 -1.346015,1.48733 -2.751522,2.70423 -3.123353,2.70423 -0.371831,0 0.425226,-1.2169 1.77124,-2.70423 z"
         style="fill:#ffffff;stroke-width:1.35211" />
      <path
         id="path42"
         d="M 45.615631,621.29216 -117.65197,509.6199 v -36.86198 -36.86199 l 22.30986,-19.85057 c 12.270422,-10.91781 22.309858,-20.07194 22.309858,-20.34252 0,-0.27059 -10.047335,-9.43174 -22.32741,-20.35814 l -22.327408,-19.86619 0.35558,-46.0244 0.35558,-46.0244 160.9014,-110.08339 c 88.49577,-60.545869 161.96619,-110.664977 163.2676,-111.3758 2.24752,-1.227587 2.36355,6.626948 2.31325,156.61433 l -0.053,157.90672 -17.49075,19.47317 -17.49076,19.47315 3.68456,4.43835 c 2.02649,2.44109 9.92384,11.40858 17.54965,19.92775 l 13.8651,15.4894 -0.34398,148.83552 -0.34392,148.83552 z M 97.333939,498.01744 v -63.3192 L 78.74239,417.29329 c -10.225352,-9.57271 -18.726489,-17.73823 -18.891434,-18.14558 -0.16493,-0.40735 8.201267,-8.63217 18.591549,-18.27738 L 97.333939,363.3336 v -63.39666 c 0,-56.21514 -0.233213,-63.30717 -2.058714,-62.60665 -1.132299,0.4345 -23.9492,15.75928 -50.704223,34.05505 l -48.6455101,33.26507 v 30.0805 30.08051 l 18.2069941,16.79782 18.207008,16.79782 -18.237052,17.57747 -18.2370542,17.57746 0.030057,29.84931 0.030047,29.84931 49.6901392,34.00377 c 27.329576,18.70208 50.146477,34.01919 50.704223,34.03803 0.557747,0.0188 1.014085,-28.45941 1.014085,-63.28497 z M 228.48886,386.93421 c 0,-190.51247 0.49273,-346.183485 1.09496,-345.935597 0.60221,0.247887 71.03038,48.279873 156.50703,106.737747 85.47664,58.45787 157.54166,107.29968 160.14448,108.53735 2.60282,1.23767 6.03876,3.30145 7.63545,4.58619 l 2.90305,2.3359 -0.73228,123.37103 -0.73229,123.37105 -159.57362,109.19233 C 307.97014,679.186 234.43555,729.4471 232.32543,730.82153 l -3.83657,2.49898 z m 159.40431,139.81745 48.82104,-33.42902 v -94.36068 -94.36069 l -48.54089,-33.20034 c -26.69747,-18.26019 -49.51437,-33.57392 -50.70422,-34.0305 -1.97565,-0.75813 -2.16334,13.27176 -2.16334,161.71269 0,138.36498 0.28012,162.43535 1.88318,161.8202 1.03575,-0.39746 23.85265,-15.7657 50.70423,-34.15166 z"
         style="fill:#ffffff;stroke-width:1.35211" />
    </g>
    <g
       aria-label="Gate"
       id="text89"
       style="font-size:3.52777px;line-height:1.25;font-family:Arial;-inkscape-font-specification:Arial;stroke-width:0.264583">
      <path
         d="m 5.7079733,43.30395 v -0.237023 l 0.8557611,-0.0014 v 0.749653 q -0.1970593,0.157096 -0.406521,0.237022 -0.2094616,0.07855 -0.4299476,0.07855 -0.297656,0 -0.5415686,-0.126779 Q 4.9431627,43.875835 4.8191393,43.634679 4.695116,43.393522 4.695116,43.095866 q 0,-0.2949 0.1226453,-0.549837 0.1240234,-0.256315 0.3555336,-0.380338 0.2315102,-0.124023 0.5333004,-0.124023 0.2191079,0 0.3954966,0.07166 0.1777668,0.07028 0.2783635,0.197059 0.1005968,0.126779 0.1529622,0.330729 l -0.2411565,0.06615 q -0.045475,-0.154341 -0.1129991,-0.242535 -0.067524,-0.08819 -0.1929252,-0.14056 -0.1254014,-0.05374 -0.2783635,-0.05374 -0.1832789,0 -0.3169485,0.0565 -0.1336696,0.05512 -0.2163519,0.146072 -0.081304,0.09095 -0.1267794,0.199816 -0.07717,0.187413 -0.07717,0.406521 0,0.270095 0.092328,0.451996 0.093707,0.181901 0.2714733,0.270095 0.1777668,0.08819 0.3775822,0.08819 0.1736327,0 0.3389972,-0.06615 0.1653644,-0.06752 0.2508027,-0.143316 V 43.30395 Z"
         style="font-size:2.82222px;fill:#ffffff;stroke-width:0.264583"
         id="path99" />
      <path
         d="m 7.87976,43.915798 q -0.1378037,0.117133 -0.2659612,0.165365 -0.1267794,0.04823 -0.2728514,0.04823 -0.2411565,0 -0.3706919,-0.117133 Q 6.84072,43.89375 6.84072,43.710471 q 0,-0.107487 0.048231,-0.195682 0.049609,-0.08957 0.1281574,-0.143315 0.079926,-0.05374 0.1791448,-0.08131 0.073036,-0.01929 0.220486,-0.03721 0.3004121,-0.03583 0.4423499,-0.08544 0.00138,-0.05099 0.00138,-0.06477 0,-0.151584 -0.07028,-0.213595 -0.095085,-0.08406 -0.2824977,-0.08406 -0.1750107,0 -0.2590709,0.06201 -0.082682,0.06063 -0.1226453,0.216352 l -0.2425346,-0.03307 q 0.033073,-0.155718 0.1088649,-0.250803 0.075792,-0.09646 0.219108,-0.14745 0.1433158,-0.05237 0.3321069,-0.05237 0.1874131,0 0.3045462,0.0441 0.1171332,0.0441 0.1722547,0.111621 0.055121,0.06615 0.07717,0.16812 0.012402,0.06339 0.012402,0.228755 v 0.330729 q 0,0.345887 0.015158,0.438215 0.016536,0.09095 0.06339,0.175011 H 7.9293693 Q 7.8907843,44.019151 7.87976,43.915798 Z M 7.859089,43.361827 q -0.1350476,0.05512 -0.4051429,0.09371 -0.1529621,0.02205 -0.2163518,0.04961 -0.06339,0.02756 -0.097841,0.0813 -0.034451,0.05237 -0.034451,0.117134 0,0.09922 0.074414,0.165364 0.075792,0.06615 0.2204859,0.06615 0.1433159,0 0.2549369,-0.06201 0.111621,-0.06339 0.1639864,-0.172255 0.039963,-0.08406 0.039963,-0.248046 z"
         style="font-size:2.82222px;fill:#ffffff;stroke-width:0.264583"
         id="path101" />
      <path
         d="m 9.0373113,43.874457 0.035829,0.219108 q -0.1047308,0.02205 -0.187413,0.02205 -0.1350477,0 -0.2094617,-0.04272 -0.074414,-0.04272 -0.1047308,-0.111621 -0.030317,-0.07028 -0.030317,-0.293521 V 42.825771 H 8.359317 v -0.192925 h 0.1819009 v -0.362424 l 0.2466686,-0.148828 v 0.511252 h 0.2494248 v 0.192925 H 8.7878865 v 0.855761 q 0,0.106109 0.012402,0.136426 0.01378,0.03032 0.042719,0.04823 0.030317,0.01791 0.085438,0.01791 0.041341,0 0.108865,-0.0096 z"
         style="font-size:2.82222px;fill:#ffffff;stroke-width:0.264583"
         id="path103" />
      <path
         d="m 10.280301,43.625032 0.256314,0.03169 q -0.06063,0.22462 -0.22462,0.348644 -0.163986,0.124023 -0.4189229,0.124023 -0.3210827,0 -0.5098738,-0.197059 -0.187413,-0.198438 -0.187413,-0.555349 0,-0.369314 0.1901691,-0.573264 0.1901691,-0.203949 0.4933373,-0.203949 0.2935223,0 0.4795573,0.199815 0.186035,0.199816 0.186035,0.562239 0,0.02205 -0.0014,0.06615 H 9.4521002 q 0.01378,0.241157 0.1364257,0.369314 0.1226453,0.128157 0.3059242,0.128157 0.1364259,0 0.2328879,-0.07166 0.09646,-0.07166 0.152963,-0.228755 z M 9.4658806,43.224024 h 0.8171764 q -0.01654,-0.184657 -0.09371,-0.276986 -0.118511,-0.143316 -0.3073022,-0.143316 -0.1708766,0 -0.2880098,0.114377 -0.1157551,0.114377 -0.1281574,0.305925 z"
         style="font-size:2.82222px;fill:#ffffff;stroke-width:0.264583"
         id="path105" />
    </g>
    <g
       aria-label="Out"
       id="text93"
       style="font-size:3.52777px;line-height:1.25;font-family:Arial;-inkscape-font-specification:Arial;stroke-width:0.264583"
       inkscape:transform-center-x="-1.4853548"
       inkscape:transform-center-y="-13.482451">
      <path
         d="m 5.4240977,69.163237 q 0,-0.502983 0.2700953,-0.786859 0.2700953,-0.285254 0.6972868,-0.285254 0.2797415,0 0.5043616,0.13367 0.2246201,0.13367 0.3417532,0.373448 0.1185112,0.2384 0.1185112,0.541569 0,0.307302 -0.1240233,0.549836 -0.1240234,0.242535 -0.3513995,0.367936 -0.2273761,0.124024 -0.4905812,0.124024 -0.2852537,0 -0.5098738,-0.137804 Q 5.655608,69.905999 5.5398528,69.667599 5.4240977,69.429198 5.4240977,69.163237 Z m 0.2756075,0.0041 q 0,0.36518 0.1956812,0.57602 0.1970593,0.209462 0.4933373,0.209462 0.3017902,0 0.4960934,-0.212218 0.1956813,-0.212218 0.1956813,-0.602202 0,-0.246669 -0.08406,-0.429948 -0.082682,-0.184657 -0.2439126,-0.285254 -0.1598523,-0.101974 -0.3596677,-0.101974 -0.2838756,0 -0.4892032,0.195681 -0.2039494,0.194303 -0.2039497,0.650433 z"
         style="font-size:2.82222px;fill:#ffffff;stroke-width:0.264583"
         id="path108" />
      <path
         d="m 8.6266562,70.147156 v -0.214974 q -0.1708766,0.248047 -0.4643985,0.248047 -0.1295355,0 -0.2425346,-0.04961 -0.111621,-0.04961 -0.1667425,-0.124023 -0.053743,-0.07579 -0.075792,-0.184657 -0.015158,-0.07304 -0.015158,-0.23151 V 68.68368 h 0.2480467 v 0.811664 q 0,0.194303 0.015158,0.261827 0.023427,0.09784 0.099219,0.15434 0.075792,0.05512 0.1874131,0.05512 0.111621,0 0.2094616,-0.0565 0.097841,-0.05788 0.1378038,-0.155718 0.041341,-0.09922 0.041341,-0.286632 V 68.68368 h 0.2480467 v 1.463476 z"
         style="font-size:2.82222px;fill:#ffffff;stroke-width:0.264583"
         id="path110" />
      <path
         d="m 9.7800733,69.925292 0.035829,0.219108 q -0.1047308,0.02205 -0.187413,0.02205 -0.1350477,0 -0.2094617,-0.04272 Q 9.3446136,70.08101 9.3142968,70.012108 9.28398,69.941828 9.28398,69.718586 v -0.84198 H 9.1020791 V 68.68368 H 9.28398 v -0.362423 l 0.2466686,-0.148828 v 0.511251 h 0.2494247 v 0.192926 H 9.5306486 v 0.855761 q 0,0.106108 0.012402,0.136425 0.01378,0.03032 0.042719,0.04823 0.030317,0.01791 0.085438,0.01791 0.041341,0 0.1088649,-0.0096 z"
         style="font-size:2.82222px;fill:#ffffff;stroke-width:0.264583"
         id="path112" />
    </g>
  </g>
  <g
     inkscape:groupmode="layer"
     id="layer2"
     inkscape:label="components"
     style="display:none">
    <circle
       style="opacity:1;fill:#00ff00;fill-rule:evenodd;stroke-width:0.264583"
       id="path116"
       cx="7.6199999"
       cy="49.073837"
       r="1.1997097"
       inkscape:label="gate" />
    <circle
       r="1.1997097"
       cy="74.896156"
       cx="7.6199999"
       id="circle118"
       style="opacity:1;fill:#0000ff;fill-rule:evenodd;stroke-width:0.264583"
       inkscape:label="out" />
    <circle
       inkscape:label="switch"
       r="1.1997097"
       cy="31.478096"
       cx="7.6199999"
       id="circle72"
       style="opacity:1;fill:#ff0000;fill-rule:evenodd;stroke-width:0.264583" />
  </g>
</svg>
