<?xml version="1.0" encoding="UTF-8" standalone="no"?>
<svg
   xmlns:dc="http://purl.org/dc/elements/1.1/"
   xmlns:cc="http://creativecommons.org/ns#"
   xmlns:rdf="http://www.w3.org/1999/02/22-rdf-syntax-ns#"
   xmlns:svg="http://www.w3.org/2000/svg"
   xmlns="http://www.w3.org/2000/svg"
   xmlns:sodipodi="http://sodipodi.sourceforge.net/DTD/sodipodi-0.dtd"
   xmlns:inkscape="http://www.inkscape.org/namespaces/inkscape"
   sodipodi:docname="klok2.svg"
   inkscape:version="1.0 (4035a4fb49, 2020-05-01)"
   id="svg8"
   version="1.1"
   viewBox="0 0 60.959999 128.5"
   height="128.5mm"
   width="60.959999mm">
  <defs
     id="defs2" />
  <sodipodi:namedview
     inkscape:window-maximized="1"
     inkscape:window-y="-8"
     inkscape:window-x="-8"
     inkscape:window-height="837"
     inkscape:window-width="1600"
     inkscape:snap-global="false"
     showgrid="false"
     inkscape:document-rotation="0"
     inkscape:current-layer="layer1"
     inkscape:document-units="mm"
     inkscape:cy="177.34478"
     inkscape:cx="265.72091"
     inkscape:zoom="1.52"
     inkscape:pageshadow="2"
     inkscape:pageopacity="0.0"
     borderopacity="1.0"
     bordercolor="#666666"
     pagecolor="#ffffff"
     id="base" />
  <metadata
     id="metadata5">
    <rdf:RDF>
      <cc:Work
         rdf:about="">
        <dc:format>image/svg+xml</dc:format>
        <dc:type
           rdf:resource="http://purl.org/dc/dcmitype/StillImage" />
        <dc:title></dc:title>
      </cc:Work>
    </rdf:RDF>
  </metadata>
  <g
     id="layer1"
     inkscape:groupmode="layer"
     inkscape:label="Layer 1">
    <rect
       y="1.7776829e-08"
       x="0"
       height="129.19548"
       width="61.538586"
       id="rect10"
       style="fill:#000000;fill-rule:evenodd;stroke-width:0.217009" />
    <g
       transform="translate(2.0509099,-1.5666118)"
       id="g508">
      <g
         style="font-size:5.71879px;line-height:1.25;font-family:Arial;-inkscape-font-specification:Arial;display:inline;stroke-width:0.42891"
         id="text14"
         transform="matrix(0.94421219,0,0,1.059084,17.173854,-0.96776361)"
         aria-label="KLOK">
        <path
           id="path16"
           style="font-style:normal;font-variant:normal;font-weight:normal;font-stretch:normal;font-size:13.7251px;font-family:'Crucial Noise';-inkscape-font-specification:'Crucial Noise';fill:#ffffff;stroke-width:0.42891"
           d="m 3.6266472,15.355888 c 0.068626,0.233326 0.1098008,0.466653 0.041175,0.69998 -0.068626,0.178426 -0.082351,0.356852 -0.137251,0.535279 -0.096076,0.288227 -0.1921514,0.576454 -0.2882271,0.850956 -0.013725,0.0549 -0.02745,0.123526 0.0549,0.137251 0.041175,0.01373 0.096076,-0.02745 0.137251,-0.0549 0.02745,-0.02745 0.041175,-0.0549 0.0549,-0.08235 0.3431275,-0.480379 0.6039044,-0.974482 0.7411554,-1.509761 0.041175,-0.123526 0.068625,-0.247052 0.1098008,-0.370578 0.068625,-0.260777 0.2196016,-0.494103 0.4254781,-0.67253 0.0549,-0.04118 0.1098008,-0.09608 0.1647012,-0.150976 -0.041175,-0.02745 -0.068626,-0.0549 -0.096076,-0.06863 C 4.5050536,14.450031 4.3815277,14.148079 4.3403524,13.818677 4.3266273,13.6677 4.3815277,13.6128 4.5874042,13.58535 c 0.02745,-0.01373 0.041175,-0.01373 0.096076,-0.02745 -0.068626,-0.06863 -0.1098008,-0.123526 -0.1647012,-0.178427 -0.0549,-0.0549 -0.1098008,-0.1098 -0.1509761,-0.150976 -0.1235259,-0.109801 -0.068626,-0.233326 -0.013725,-0.343127 0.041175,-0.109801 0.1509761,-0.06863 0.2470518,-0.06863 0.02745,0 0.041175,-0.01372 0.096076,-0.02745 -0.02745,-0.0549 -0.041175,-0.09608 -0.082351,-0.137251 C 4.559954,12.583418 4.5050536,12.542242 4.4501532,12.473617 4.3403524,12.377541 4.285452,12.26774 4.285452,12.130489 c 0.013725,-0.137251 0.1098008,-0.205876 0.274502,-0.205876 0.2333267,0.01372 0.3705777,0.123526 0.4254781,0.329402 0.013725,0.06863 0.02745,0.137251 0.041175,0.205877 l 0.3156773,-0.06863 c 0.013725,0.0549 0.013725,0.123526 0.013725,0.192152 0,0.164701 -0.013725,0.343127 -0.013725,0.521553 0,0.123526 0,0.247052 0.013725,0.384303 0,0.02745 0.0549,0.06863 0.096076,0.09608 0.02745,-0.02745 0.068626,-0.0549 0.096076,-0.09608 0.013725,-0.0549 0.013725,-0.109801 0.02745,-0.164701 0.013725,-0.233327 0.041175,-0.466653 0.068626,-0.69998 0.013725,-0.06863 0.02745,-0.123526 0.0549,-0.219602 0.1098008,0.08235 0.1784263,0.205877 0.2058765,0.343128 0.082351,0.301952 0,0.603904 -0.1098008,0.905856 -0.041175,0.150976 -0.068626,0.301953 -0.082351,0.452929 0,0.219601 0.041175,0.425478 0.0549,0.645079 0.013725,0.123526 0.013725,0.260777 0.02745,0.384303 0,0.0549 0.02745,0.109801 0.1509761,0.09608 0.013725,-0.06863 0.02745,-0.123526 0.02745,-0.178426 0.013725,-0.150977 0,-0.288228 0.02745,-0.425479 0.013725,-0.178426 0.068626,-0.343127 0.2196016,-0.480378 0.1647012,-0.164701 0.2333267,-0.164701 0.411753,-0.01372 0.1647012,0.150976 0.2607769,0.329402 0.3431275,0.507829 0.2333267,0.521553 0.3705777,1.056832 0.4803785,1.605836 0.068626,0.343128 0.068626,0.686255 -0.082351,1.015658 -0.013725,0.04117 -0.013725,0.09607 -0.013725,0.178426 0.082351,-0.04117 0.137251,-0.0549 0.1509761,-0.08235 0.082351,-0.137251 0.1921514,-0.274502 0.2333267,-0.411753 0.1509761,-0.549004 0.2333267,-1.098008 0.1647012,-1.660737 -0.02745,-0.247052 -0.068625,-0.480378 -0.1235259,-0.72743 -0.096076,-0.384303 -0.1098008,-0.768606 0.1921514,-1.111733 0.02745,-0.04117 0.02745,-0.08235 0.041175,-0.164701 -0.1098008,0.02745 -0.1784263,0.04117 -0.2470518,0.06863 -0.082351,0.01372 -0.1647012,0.0549 -0.2470518,0.08235 -0.1921514,0.0549 -0.3431275,0.01372 -0.4666534,-0.123526 -0.1784263,-0.219602 -0.1509761,-0.480379 0.0549,-0.67253 0.0549,-0.0549 0.1509761,-0.08235 0.1098008,-0.164701 -0.013725,0 -0.013725,-0.01373 -0.02745,-0.01373 -0.013725,-0.01372 -0.041175,-0.01372 -0.068625,-0.01372 -0.2333267,-0.01373 -0.3568526,-0.137251 -0.4392032,-0.301953 -0.0549,-0.1098 -0.096076,-0.205876 -0.0549,-0.329402 0.013725,-0.04117 0,-0.08235 0,-0.164701 -0.3980279,0.109801 -0.6999801,0.02745 -0.9058566,-0.274502 0.082351,-0.0549 0.1509761,-0.109801 0.2333267,-0.150976 0.1509761,-0.08235 0.3156773,-0.02745 0.4941036,0.01372 0.02745,-0.247052 0.068626,-0.466654 0.4254781,-0.562729 0.041175,0.219601 0.082351,0.425478 0.1098008,0.631354 0.013725,0.150976 0,0.288227 0,0.425478 0,0.0549 -0.02745,0.137251 0.082351,0.150977 0.096076,0 0.082351,-0.08235 0.096076,-0.137251 0,-0.02745 0,-0.0549 0,-0.08235 0.013725,-0.247052 0.02745,-0.494104 0.0549,-0.741155 0.0549,-0.411753 0.2470518,-0.768606 0.6176295,-1.043108 C 7.9088783,9.8383977 7.9500536,9.7834973 8.004954,9.7560471 7.9500536,9.6187961 7.8265277,9.6187961 7.7167269,9.5913459 7.4284998,9.5501706 7.3598743,9.4815451 7.3735994,9.2482184 c 0,-0.1235259 0.02745,-0.2470518 0.068626,-0.3568526 C 7.5794759,8.5619634 7.7853524,8.2737363 8.0461293,8.0404096 8.2382807,7.8757084 8.4441572,7.7247323 8.6363086,7.5600311 c 0.041175,-0.02745 0.096076,-0.0549 0.1235259,-0.096076 0.013725,-0.013725 0.013725,-0.068625 0,-0.082351 -0.013725,-0.013725 -0.068625,-0.02745 -0.096076,-0.02745 -0.02745,0.013725 -0.0549,0.02745 -0.082351,0.041175 C 8.1010297,7.6286566 7.6618265,7.9031586 7.3324241,8.2874614 7.1402727,8.507063 6.9618464,8.7403897 6.7834201,8.9737164 6.5775436,9.2482184 6.3991173,9.5638957 5.946189,9.6462463 c 0.013725,0.068625 0.02745,0.137251 0.013725,0.1921514 -0.013725,0.1235259 -0.013725,0.2607773 -0.0549,0.3705773 -0.096076,0.301953 -0.3019521,0.398028 -0.6588047,0.329403 -0.041175,0 -0.096076,-0.01372 -0.1509761,-0.01372 -0.02745,0.0549 -0.041175,0.123526 -0.0549,0.178426 -0.0549,0.164701 -0.1647012,0.301952 -0.3294024,0.411753 -0.1235259,0.09608 -0.2058765,0.09608 -0.3019522,0.04118 -0.1098008,-0.08235 -0.096076,-0.164701 -0.041175,-0.260777 0.02745,-0.06862 0.082351,-0.137251 0.1235259,-0.219601 C 4.1893763,10.456027 4.2031014,10.208975 4.3678026,9.9481985 4.4638783,9.7834973 4.6148544,9.6599714 4.7795556,9.5776208 4.834456,9.5501706 4.8893564,9.5227204 4.9579819,9.46782 4.8893564,9.4266447 4.8481811,9.3991945 4.8070058,9.3854694 4.2991771,9.1658678 3.9148743,8.644314 3.9285994,8.1639355 c 0,-0.137251 0.013725,-0.274502 0.041175,-0.4254781 C 4.01095,7.546306 4.0658504,7.3404296 4.1207508,7.1345531 4.148201,7.0247523 4.1070257,6.9561268 4.0384002,6.9424017 c -0.096076,0 -0.096076,0.082351 -0.1235259,0.137251 -0.013725,0.02745 -0.02745,0.0549 -0.041175,0.096076 C 3.7776233,7.39533 3.7089978,7.6286566 3.5717468,7.8345331 3.324695,8.232561 3.2560695,8.644314 3.3658703,9.0835172 c 0.041175,0.1647012 0.041175,0.3156773 -0.0549,0.4666534 -0.096076,0.137251 -0.1921514,0.274502 -0.3019522,0.411753 0.013725,0.013725 0.02745,0.02745 0.041175,0.041175 0.1921514,0.164701 0.1921514,0.329402 0,0.466653 -0.0549,0.04118 -0.137251,0.06863 -0.2058765,0.09608 -0.0549,0.02745 -0.1235259,0.06863 -0.1509761,0.109801 -0.013725,0.02745 0.0549,0.09607 0.096076,0.109801 0.2058765,0.1098 0.2607769,0.260776 0.1921514,0.439203 -0.02745,0.109801 -0.068626,0.205876 -0.1235259,0.329402 0.1921514,0.150976 0.2196016,0.356853 0.2058765,0.576454 -0.041175,0.288227 -0.1098008,0.562729 -0.2607769,0.823506 -0.041175,0.0549 -0.068626,0.109801 -0.096076,0.178427 -0.041175,0.1098 -0.02745,0.137251 0.1235259,0.150976 0.1235259,0.01372 0.1784263,0.06863 0.2058765,0.164701 0.1784263,0.452928 0.1647012,0.892131 -0.0549,1.331335 -0.041175,0.09607 -0.082351,0.178426 -0.1235259,0.274502 -0.096076,0.192151 0,0.398027 0.041175,0.590179 0,0.01373 0.0549,0.0549 0.082351,0.04118 0.041175,0 0.068626,-0.02745 0.082351,-0.0549 0.013725,-0.0549 0,-0.109801 0,-0.164702 0.041175,-0.178426 0.137251,-0.315677 0.3980279,-0.384302 0.0549,0.09607 0.137251,0.178426 0.1647012,0.274502 z" />
        <path
           id="path18"
           style="font-style:normal;font-variant:normal;font-weight:normal;font-stretch:normal;font-size:13.7251px;font-family:'Crucial Noise';-inkscape-font-specification:'Crucial Noise';fill:#ffffff;stroke-width:0.42891"
           d="m 9.4362243,17.304852 c -0.0549,-0.247052 -0.096076,-0.494104 -0.1647012,-0.72743 -0.0549,-0.288228 0,-0.56273 0.1509761,-0.809781 0.068625,-0.109801 0.1647012,-0.205877 0.274502,-0.274502 0.2196016,-0.150976 0.5215538,-0.109801 0.6862548,0.09608 0.123526,0.123526 0.178426,0.301953 0.178426,0.466654 0,0.06863 0.01373,0.137251 0.02745,0.219601 0.150976,-0.04118 0.1098,-0.123526 0.123526,-0.178426 0.04117,-0.178426 0.06862,-0.343127 0.137251,-0.507829 0.08235,-0.205876 0.247051,-0.247051 0.452928,-0.123526 0.08235,0.0549 0.164701,0.109801 0.233327,0.178427 0.343127,0.370577 0.384302,0.768605 0.178426,1.180358 -0.09608,0.178427 -0.247052,0.343128 -0.384303,0.521554 -0.04117,0.0549 -0.137251,0.109801 -0.09608,0.219602 0.219602,-0.06863 0.370578,-0.205877 0.521554,-0.329403 0.439203,-0.398028 0.69998,-0.850956 0.549004,-1.413685 -0.0549,-0.247052 0.02745,-0.452928 0.219602,-0.64508 0.0549,-0.0549 0.1098,-0.09607 0.192151,-0.178426 -0.384303,-0.02745 -0.452928,-0.247052 -0.466653,-0.466653 -0.01372,-0.178427 0.01373,-0.370578 0.06863,-0.562729 0.08235,-0.288227 0.247052,-0.549004 0.466654,-0.782331 0.06862,-0.08235 0.178426,-0.150976 0.137251,-0.260777 -0.150977,-0.02745 -0.150977,-0.02745 -0.219602,0.02745 -0.109801,0.08235 -0.219602,0.164701 -0.288227,0.260777 -0.247052,0.301952 -0.480379,0.603905 -0.69998,0.905857 -0.109801,0.150976 -0.219602,0.288227 -0.411753,0.370577 -0.192152,0.08235 -0.398028,0 -0.425478,-0.178426 -0.01372,-0.08235 0,-0.150976 0,-0.233327 0,-0.02745 0,-0.06863 0,-0.137251 -0.0549,0.04118 -0.09608,0.0549 -0.109801,0.08235 -0.06863,0.08235 -0.123526,0.178426 -0.205877,0.247052 -0.0549,0.0549 -0.137251,0.109801 -0.205876,0.123526 -0.233327,0.04118 -0.4941036,-0.06863 -0.5901793,-0.247052 -0.068625,-0.09608 -0.082351,-0.192151 0,-0.301952 0.1098008,-0.137251 0.1921514,-0.301952 0.4117533,-0.356853 0.02745,-0.01372 0.0549,-0.06863 0.0549,-0.09608 0,-0.02745 -0.0549,-0.0549 -0.08235,-0.06863 -0.04118,0 -0.08235,-0.01372 -0.123525,-0.01372 -0.1098012,0 -0.1647016,-0.0549 -0.2058769,-0.178426 0.013725,-0.01373 0.068625,-0.02745 0.096076,-0.04118 0.1509759,-0.164701 0.3019519,-0.315677 0.4529279,-0.480378 0.0549,-0.0549 0.0549,-0.109801 -0.0549,-0.137251 -0.04118,0.01372 -0.08235,0.0549 -0.123526,0.06862 -0.2058764,0.123526 -0.3843027,0.137251 -0.562729,0.02745 -0.1921514,-0.123525 -0.2196016,-0.233326 -0.1509761,-0.439203 0.02745,-0.0549 0.041175,-0.1098 0.082351,-0.205876 -0.096076,0.01372 -0.1509761,0.01372 -0.1784263,0.04117 -0.096076,0.04118 -0.1784263,0.0549 -0.2196016,-0.04117 -0.0549,-0.09608 0.02745,-0.123526 0.1235259,-0.164701 0.1921514,-0.06863 0.3980279,-0.09608 0.6176295,-0.0549 0.068626,0 0.1647016,0.04118 0.2196016,-0.0549 -0.01373,-0.02745 -0.02745,-0.04118 -0.04118,-0.06863 -0.1784266,-0.219601 -0.1509764,-0.356852 0.09608,-0.535279 0.09608,-0.0549 0.192151,-0.1098 0.315677,-0.192151 -0.164701,-0.137251 -0.09608,-0.274502 -0.01373,-0.411753 0.08235,-0.137251 0.178426,-0.274502 0.301952,-0.384303 0.123526,-0.1098005 0.274502,-0.178426 0.425478,-0.2745017 0,-0.02745 -0.01372,-0.0549 -0.02745,-0.082351 -0.123526,-0.2058765 -0.164701,-0.411753 -0.164701,-0.6313546 0,-0.6176295 -0.205877,-1.1803586 -0.686255,-1.660737 C 10.25973,7.3404296 10.20483,7.258079 10.122479,7.1757284 9.9852283,7.0384774 9.8342522,6.9012264 9.669551,6.7502503 9.6283757,6.7228001 9.5734753,6.6816248 9.5048498,6.7639754 9.6009255,6.8737762 9.7107263,6.9973021 9.7930769,7.120828 10.122479,7.5600311 10.28718,8.0266845 10.25973,8.5345132 c 0,0.1921514 -0.06862,0.3705777 -0.150976,0.549004 -0.06862,0.1509761 -0.2470516,0.1509761 -0.3705775,0.02745 C 9.6283757,9.0011666 9.5872004,8.8639156 9.6146506,8.7129395 c 0.013725,-0.068625 0.068626,-0.137251 -0.013725,-0.1921514 -0.013725,-0.013725 -0.041175,-0.013725 -0.0549,0 -0.02745,0.013725 -0.0549,0.02745 -0.068625,0.041175 -0.1235259,0.2333267 -0.2333267,0.4529283 -0.1647012,0.6999801 0.02745,0.082351 0.041175,0.1784263 0.0549,0.2607769 0.0549,0.3980279 -0.041175,0.7548809 -0.4254781,1.0293829 -0.137251,0.09608 -0.2470518,0.205876 -0.4392032,0.247052 -0.041175,0.01372 -0.068626,0.04117 -0.082351,0.08235 0,0.01372 0.041175,0.0549 0.068625,0.06863 0.0549,0.02745 0.1098008,0.0549 0.1784263,0.06862 -0.068625,0.164701 -0.082351,0.205877 -0.1784263,0.233327 -0.2333267,0.08235 -0.4666534,0.137251 -0.7137051,0.04117 -0.068625,-0.02745 -0.137251,-0.0549 -0.1921514,0 -0.068625,0.06863 -0.0549,0.123526 -0.013725,0.192152 0.068625,0.09608 0.137251,0.178426 0.2058765,0.274502 0.150976,0.205876 0.2607768,0.425478 0.0549,0.658804 0,0.01373 0,0.02745 0.013725,0.08235 0.274502,0.01372 0.4529283,0.164701 0.6176295,0.343127 0.1509761,0.164702 0.3019522,0.343128 0.2470518,0.576455 l -0.2470518,0.08235 c 0.0549,0.0549 0.096076,0.09608 0.1235259,0.137251 0.041175,0.04118 0.096076,0.09608 0.1235259,0.150976 0.041175,0.192152 0,0.384303 -0.068625,0.576455 -0.068625,0.137251 -0.1921514,0.205876 -0.3568526,0.260776 -0.013725,0 -0.02745,0.01373 -0.041175,0.01373 -0.02745,0.02745 -0.068626,0.06863 -0.0549,0.08235 0.013725,0.04118 0.0549,0.06863 0.082351,0.08235 0.2333267,0.02745 0.3156773,0.164701 0.3431275,0.329402 0.02745,0.150976 0.041175,0.301952 0.041175,0.452928 0,0.343128 0,0.67253 0.2058765,0.988208 0.082351,0.1098 0.137251,0.233326 0.1921514,0.343127 0.096076,0.205877 0.2333267,0.384303 0.3980279,0.535279 0,-0.0549 0,-0.09608 -0.013725,-0.150976 z" />
        <path
           id="path20"
           style="font-style:normal;font-variant:normal;font-weight:normal;font-stretch:normal;font-size:13.7251px;font-family:'Crucial Noise';-inkscape-font-specification:'Crucial Noise';fill:#ffffff;stroke-width:0.42891"
           d="m 14.356887,14.875509 c 0,0.123526 0,0.247052 0,0.356853 0.01372,0.150976 0.02745,0.288227 0.0549,0.425478 0.01372,0.09608 0.08235,0.150976 0.192152,0.150976 0.1098,0 0.09607,-0.08235 0.1098,-0.150976 0.02745,-0.137251 0.0549,-0.288227 0.08235,-0.439203 0.02745,-0.109801 0.150976,-0.178427 0.288227,-0.137251 0.233327,0.0549 0.411753,0.178426 0.494104,0.384302 0.04117,0.09608 0.08235,0.205877 0.09607,0.329403 0.0549,0.466653 0.09608,0.947032 0.150976,1.42741 0,0.0549 0.01373,0.09608 0.02745,0.150976 0,0.02745 0.04117,0.04118 0.06862,0.04118 0.02745,0 0.0549,-0.01373 0.08235,-0.04118 0.01373,-0.04118 0.01373,-0.08235 0.02745,-0.137251 0.01373,-0.164701 0.02745,-0.343127 0.04118,-0.521553 0.02745,-0.329403 0.150976,-0.631355 0.425478,-0.878407 0.178427,-0.164701 0.315678,-0.192151 0.562729,-0.109801 0.06863,0.02745 0.123526,0.04118 0.233327,0.06863 -0.04117,-0.315677 0.09608,-0.507829 0.398028,-0.64508 0.233327,0.109801 0.329402,0.301952 0.370578,0.494104 0.0549,0.247052 0.08235,0.494103 0.1098,0.75488 0.01373,0.09608 0.02745,0.192152 0.04118,0.288227 l 0.0549,0.01373 c 0.01372,-0.06863 0.04117,-0.150976 0.04117,-0.219601 0.01373,-0.356853 0.04118,-0.69998 0.04118,-1.056833 -0.01373,-0.466653 0.01373,-0.933307 0.288227,-1.358785 0.192151,-0.274502 0.370578,-0.549004 0.768605,-0.658804 0.02745,-0.01373 0.04118,-0.04118 0.06863,-0.06863 -0.219602,-0.205876 -0.260777,-0.466653 -0.329403,-0.713705 -0.0549,-0.219602 0.02745,-0.329403 0.288228,-0.425478 0.02745,-0.01373 0.04117,-0.02745 0.08235,-0.06863 -0.137251,-0.123526 -0.219601,-0.260777 -0.219601,-0.425478 0,-0.192151 0.219601,-0.260777 0.288227,-0.411753 -0.04118,-0.04117 -0.06863,-0.06862 -0.109801,-0.09607 -0.205877,-0.150977 -0.343128,-0.356853 -0.466653,-0.56273 -0.02745,-0.04118 -0.0549,-0.09608 -0.0549,-0.150976 -0.02745,-0.178426 0.123526,-0.288227 0.343128,-0.260777 0.137251,0.02745 0.274502,0.08235 0.466653,0.02745 -0.04118,-0.0549 -0.06863,-0.123526 -0.123526,-0.164702 C 19.5587,10.030554 19.462624,9.9756537 19.366548,9.9207533 18.99597,9.7148718 18.872445,9.46782 18.96852,9.1109674 19.050871,8.8227403 19.105771,8.5345132 19.050871,8.232561 18.99597,7.9031586 18.817544,7.6012064 18.570492,7.3404296 c -0.06863,-0.068626 -0.164701,-0.137251 -0.315677,-0.068626 0.02745,0.0549 0.04117,0.096076 0.06863,0.1509761 0.219601,0.3019521 0.219601,0.6039043 0.06863,0.9195816 -0.09608,0.1784263 -0.301952,0.2882271 -0.521554,0.274502 C 17.637186,8.6031387 17.527385,8.507063 17.499935,8.3286367 17.458759,8.09531 17.458759,8.09531 17.184257,8.1364853 c -0.04117,0.013725 -0.08235,0.02745 -0.123526,0.02745 -0.480378,0.041175 -0.919581,-0.041175 -1.262709,-0.3431275 -0.370577,-0.3156773 -0.67253,-0.6725298 -0.768605,-1.1254581 -0.01373,-0.068626 -0.02745,-0.137251 -0.137251,-0.1235259 -0.109801,0.013725 -0.109801,0.082351 -0.109801,0.1509761 0.01372,0.096076 0.01372,0.1921514 0.0549,0.2882271 0.09608,0.2882271 0.219602,0.562729 0.329403,0.8509561 0.0549,0.1235259 0.1098,0.2470518 0.123526,0.3705777 0.0549,0.4529283 -0.425479,0.8646813 -0.864682,0.9195817 -0.178426,0.02745 -0.370577,0.041175 -0.549004,0.0549 -0.09607,0.013725 -0.178426,0.013725 -0.247052,0.02745 0.01373,0.1509761 0.04118,0.274502 0.02745,0.3980279 -0.01373,0.2058765 -0.0549,0.3980276 -0.109801,0.5901786 -0.08235,0.301953 -0.247052,0.576455 -0.590179,0.754881 -0.178427,0.09608 -0.356853,0.219602 -0.521554,0.329402 -0.02745,0.01372 -0.0549,0.04118 -0.06863,0.06863 0.123526,0.0549 0.123526,0.0549 0.219602,0.04117 0.164701,-0.01372 0.329402,-0.04117 0.494103,-0.04117 0.274502,0.01372 0.521554,0.164701 0.59018,0.356852 0.06863,0.192152 -0.01372,0.411753 -0.233327,0.562729 -0.09608,0.0549 -0.219602,0.09608 -0.329402,0.123526 -0.09608,0.04118 -0.219602,0.0549 -0.329403,0.08235 -0.04117,0.01372 -0.08235,0.0549 -0.164701,0.109801 0.09608,0.02745 0.150976,0.04118 0.219602,0.04118 0.205876,0.02745 0.315677,0.123526 0.315677,0.301952 0,0.06863 0,0.137251 -0.01372,0.219602 0,0.178426 0,0.192151 0.205876,0.260777 0.452929,0.150976 0.686255,0.480378 0.631355,0.878406 0,0.04117 0,0.06863 0,0.109801 0.288227,0.0549 0.398028,0.219602 0.384303,0.452928 z m 2.511693,-0.686255 c 0.04117,0.0549 0.08235,0.109801 0.09608,0.178427 0.0549,0.178426 -0.06863,0.301952 -0.288227,0.260776 -0.356853,-0.06862 -0.631355,-0.219601 -0.741156,-0.535278 -0.01373,-0.02745 -0.01373,-0.0549 -0.02745,-0.08235 -0.0549,-0.192151 -0.0549,-0.192151 -0.301952,-0.178426 -0.08235,0.01372 -0.178426,0 -0.233327,-0.02745 -0.384303,-0.205876 -0.741155,-0.425478 -0.905856,-0.796055 -0.02745,-0.0549 -0.04118,-0.109801 -0.0549,-0.164702 -0.0549,-0.219601 0.0549,-0.398027 0.301952,-0.480378 0.150976,-0.04117 0.315678,-0.06863 0.507829,-0.109801 -0.08235,-0.06863 -0.137251,-0.109801 -0.192151,-0.150976 -0.178427,-0.123526 -0.315678,-0.274502 -0.384303,-0.466653 -0.09608,-0.288227 0.06863,-0.521554 0.411753,-0.59018 0.09608,-0.01372 0.178426,-0.04117 0.288227,-0.0549 -0.06863,-0.0549 -0.123526,-0.09608 -0.178426,-0.137251 -0.164702,-0.137251 -0.288227,-0.288227 -0.315678,-0.494104 -0.02745,-0.137251 0.01373,-0.192151 0.178427,-0.233326 0.06862,-0.01373 0.123526,-0.02745 0.192151,-0.04118 0.0549,0 0.109801,0 0.192151,-0.01373 -0.02745,-0.04117 -0.04118,-0.096075 -0.0549,-0.1372506 -0.01373,-0.068625 -0.02745,-0.137251 -0.02745,-0.1921514 0.02745,-0.096076 0.150976,-0.137251 0.219601,-0.0549 0.06863,0.068625 0.109801,0.137251 0.123526,0.2333267 0.06863,0.2333263 0.109801,0.4529283 0.150976,0.6862543 0.01373,0.04118 0.04118,0.08235 0.0549,0.109801 0.137251,-0.04117 0.08235,-0.123526 0.08235,-0.192151 0,-0.274502 0,-0.5490039 0,-0.8235059 0,-0.096076 0.02745,-0.1784263 0.04118,-0.2607769 0.04117,-0.1509761 0.164701,-0.2470518 0.315677,-0.3294024 0.178426,-0.082351 0.274502,-0.068625 0.439203,0.041175 0.09608,0.068625 0.192152,0.137251 0.274502,0.2196016 0.08235,0.1098008 0.04118,0.1784263 -0.09608,0.2196016 -0.09607,0.041175 -0.192151,0.068625 -0.343127,0.1098008 0.123526,0.068625 0.192151,0.1098008 0.274502,0.1509761 0.192151,0.068625 0.384303,0.137251 0.590179,0.1784261 0.260777,0.06863 0.356853,0.219602 0.384303,0.425478 0.01373,0.219602 -0.06863,0.411753 -0.233327,0.576454 -0.04117,0.04118 -0.123526,0.06863 -0.178426,0.09608 -0.04117,0.01372 -0.08235,0.04117 -0.123526,0.0549 0.02745,0.09608 0.123526,0.08235 0.192152,0.109801 0.123525,0.02745 0.247051,0.0549 0.356852,0.109801 0.233327,0.09608 0.356853,0.370578 0.01373,0.549004 -0.04118,0.01372 -0.08235,0.04117 -0.109801,0.06863 0.219602,0.370577 0.164702,0.507828 -0.233326,0.768605 -0.06863,0.04118 -0.123526,0.09608 -0.178427,0.137251 l 0.01373,0.04117 c 0.06862,0 0.150976,0.01373 0.219601,0.01373 0.260777,0.02745 0.384303,0.150977 0.343128,0.356853 -0.109801,0.535279 -0.576455,0.754881 -1.125459,0.590179 -0.06863,-0.01373 -0.123525,-0.04118 -0.205876,-0.0549 0.109801,0.123526 0.192151,0.205876 0.274502,0.315677 z" />
        <path
           id="path22"
           style="font-style:normal;font-variant:normal;font-weight:normal;font-stretch:normal;font-size:13.7251px;font-family:'Crucial Noise';-inkscape-font-specification:'Crucial Noise';fill:#ffffff;stroke-width:0.42891"
           d="m 20.354112,15.355888 c 0.06863,0.233326 0.109801,0.466653 0.04117,0.69998 -0.06863,0.178426 -0.08235,0.356852 -0.137251,0.535279 -0.09608,0.288227 -0.192151,0.576454 -0.288227,0.850956 -0.01373,0.0549 -0.02745,0.123526 0.0549,0.137251 0.04118,0.01373 0.09608,-0.02745 0.13725,-0.0549 0.02745,-0.02745 0.04118,-0.0549 0.0549,-0.08235 0.343127,-0.480379 0.603904,-0.974482 0.741155,-1.509761 0.04118,-0.123526 0.06863,-0.247052 0.109801,-0.370578 0.06863,-0.260777 0.219602,-0.494103 0.425478,-0.67253 0.0549,-0.04118 0.109801,-0.09608 0.164701,-0.150976 -0.04117,-0.02745 -0.06863,-0.0549 -0.09607,-0.06863 -0.329403,-0.219602 -0.452929,-0.521554 -0.494104,-0.850956 -0.01373,-0.150977 0.04117,-0.205877 0.247052,-0.233327 0.02745,-0.01373 0.04117,-0.01373 0.09608,-0.02745 -0.06863,-0.06863 -0.109801,-0.123526 -0.164702,-0.178427 -0.0549,-0.0549 -0.1098,-0.1098 -0.150976,-0.150976 -0.123526,-0.109801 -0.06863,-0.233326 -0.01373,-0.343127 0.04118,-0.109801 0.150976,-0.06863 0.247052,-0.06863 0.02745,0 0.04118,-0.01372 0.09608,-0.02745 -0.02745,-0.0549 -0.04118,-0.09608 -0.08235,-0.137251 -0.0549,-0.06863 -0.109801,-0.109801 -0.164701,-0.178426 -0.109801,-0.09608 -0.164701,-0.205877 -0.164701,-0.343128 0.01372,-0.137251 0.1098,-0.205876 0.274502,-0.205876 0.233326,0.01372 0.370577,0.123526 0.425478,0.329402 0.01372,0.06863 0.02745,0.137251 0.04117,0.205877 l 0.315677,-0.06863 c 0.01372,0.0549 0.01372,0.123526 0.01372,0.192152 0,0.164701 -0.01372,0.343127 -0.01372,0.521553 0,0.123526 0,0.247052 0.01372,0.384303 0,0.02745 0.0549,0.06863 0.09608,0.09608 0.02745,-0.02745 0.06863,-0.0549 0.09608,-0.09608 0.01373,-0.0549 0.01373,-0.109801 0.02745,-0.164701 0.01373,-0.233327 0.04117,-0.466653 0.06863,-0.69998 0.01373,-0.06863 0.02745,-0.123526 0.0549,-0.219602 0.109801,0.08235 0.178426,0.205877 0.205876,0.343128 0.08235,0.301952 0,0.603904 -0.1098,0.905856 -0.04118,0.150976 -0.06863,0.301953 -0.08235,0.452929 0,0.219601 0.04117,0.425478 0.0549,0.645079 0.01373,0.123526 0.01373,0.260777 0.02745,0.384303 0,0.0549 0.02745,0.109801 0.150976,0.09608 0.01373,-0.06863 0.02745,-0.123526 0.02745,-0.178426 0.01373,-0.150977 0,-0.288228 0.02745,-0.425479 0.01373,-0.178426 0.06863,-0.343127 0.219602,-0.480378 0.164701,-0.164701 0.233326,-0.164701 0.411753,-0.01372 0.164701,0.150976 0.260777,0.329402 0.343127,0.507829 0.233327,0.521553 0.370578,1.056832 0.480379,1.605836 0.06863,0.343128 0.06863,0.686255 -0.08235,1.015658 -0.01373,0.04117 -0.01373,0.09607 -0.01373,0.178426 0.08235,-0.04117 0.137251,-0.0549 0.150976,-0.08235 0.08235,-0.137251 0.192151,-0.274502 0.233327,-0.411753 0.150976,-0.549004 0.233326,-1.098008 0.164701,-1.660737 -0.02745,-0.247052 -0.06863,-0.480378 -0.123526,-0.72743 -0.09608,-0.384303 -0.109801,-0.768606 0.192151,-1.111733 0.02745,-0.04117 0.02745,-0.08235 0.04118,-0.164701 -0.109801,0.02745 -0.178427,0.04117 -0.247052,0.06863 -0.08235,0.01372 -0.164701,0.0549 -0.247052,0.08235 -0.192151,0.0549 -0.343127,0.01372 -0.466653,-0.123526 -0.178427,-0.219602 -0.150976,-0.480379 0.0549,-0.67253 0.0549,-0.0549 0.150976,-0.08235 0.109801,-0.164701 -0.01373,0 -0.01373,-0.01373 -0.02745,-0.01373 -0.01373,-0.01372 -0.04118,-0.01372 -0.06863,-0.01372 -0.233326,-0.01373 -0.356852,-0.137251 -0.439203,-0.301953 -0.0549,-0.1098 -0.09608,-0.205876 -0.0549,-0.329402 0.01373,-0.04117 0,-0.08235 0,-0.164701 -0.398028,0.109801 -0.69998,0.02745 -0.905857,-0.274502 0.08235,-0.0549 0.150976,-0.109801 0.233327,-0.150976 0.150976,-0.08235 0.315677,-0.02745 0.494103,0.01372 0.02745,-0.247052 0.06863,-0.466654 0.425478,-0.562729 0.04118,0.219601 0.08235,0.425478 0.109801,0.631354 0.01372,0.150976 0,0.288227 0,0.425478 0,0.0549 -0.02745,0.137251 0.08235,0.150977 0.09608,0 0.08235,-0.08235 0.09608,-0.137251 0,-0.02745 0,-0.0549 0,-0.08235 0.01372,-0.247052 0.02745,-0.494104 0.0549,-0.741155 0.0549,-0.411753 0.247052,-0.768606 0.617629,-1.043108 0.06863,-0.041175 0.109801,-0.096076 0.164702,-0.1235259 -0.0549,-0.137251 -0.178427,-0.137251 -0.288227,-0.1647012 -0.288228,-0.041175 -0.356853,-0.1098008 -0.343128,-0.3431275 0,-0.1235259 0.02745,-0.2470518 0.06863,-0.3568526 0.137251,-0.3294024 0.343127,-0.6176295 0.603904,-0.8509562 0.192151,-0.1647012 0.398028,-0.3156773 0.590179,-0.4803785 0.04118,-0.02745 0.09608,-0.0549 0.123526,-0.096076 0.01373,-0.013725 0.01373,-0.068625 0,-0.082351 -0.01373,-0.013725 -0.06863,-0.02745 -0.09608,-0.02745 -0.02745,0.013725 -0.0549,0.02745 -0.08235,0.041175 -0.480379,0.2333266 -0.919582,0.5078286 -1.248984,0.8921314 -0.192152,0.2196016 -0.370578,0.4529283 -0.549004,0.686255 -0.205877,0.274502 -0.384303,0.5901793 -0.837231,0.6725299 0.01373,0.068625 0.02745,0.137251 0.01373,0.1921514 -0.01373,0.1235259 -0.01373,0.2607772 -0.0549,0.3705772 -0.09607,0.301953 -0.301952,0.398028 -0.658804,0.329403 -0.04118,0 -0.09608,-0.01372 -0.150976,-0.01372 -0.02745,0.0549 -0.04118,0.123526 -0.0549,0.178426 -0.0549,0.164701 -0.164701,0.301952 -0.329402,0.411753 -0.123526,0.09608 -0.205877,0.09608 -0.301952,0.04118 -0.109801,-0.08235 -0.09608,-0.164701 -0.04118,-0.260777 0.02745,-0.06862 0.08235,-0.137251 0.123526,-0.219601 -0.301952,-0.219602 -0.288227,-0.466654 -0.123526,-0.7274304 0.09608,-0.1647012 0.247052,-0.2882271 0.411753,-0.3705777 0.0549,-0.02745 0.109801,-0.0549 0.178427,-0.1098008 -0.06863,-0.041175 -0.109801,-0.068625 -0.150977,-0.082351 -0.507828,-0.2196016 -0.892131,-0.7411554 -0.878406,-1.2215339 0,-0.137251 0.01373,-0.274502 0.04117,-0.4254781 0.04118,-0.1921514 0.09608,-0.3980278 0.150976,-0.6039043 0.02745,-0.1098008 -0.01373,-0.1784263 -0.08235,-0.1921514 -0.09608,0 -0.09608,0.082351 -0.123526,0.137251 -0.01373,0.02745 -0.02745,0.0549 -0.04117,0.096076 -0.09608,0.2196016 -0.164702,0.4529282 -0.301953,0.6588047 -0.247051,0.3980279 -0.315677,0.8097809 -0.205876,1.2489841 0.04117,0.1647012 0.04117,0.3156773 -0.0549,0.4666534 -0.09608,0.137251 -0.192152,0.274502 -0.301953,0.411753 0.01373,0.013725 0.02745,0.02745 0.04118,0.041175 0.192151,0.164701 0.192151,0.329402 0,0.466653 -0.0549,0.04118 -0.137251,0.06863 -0.205877,0.09608 -0.0549,0.02745 -0.123526,0.06863 -0.150976,0.109801 -0.01373,0.02745 0.0549,0.09607 0.09608,0.109801 0.205876,0.1098 0.260777,0.260776 0.192151,0.439203 -0.02745,0.109801 -0.06863,0.205876 -0.123526,0.329402 0.192152,0.150976 0.219602,0.356853 0.205877,0.576454 -0.04117,0.288227 -0.109801,0.562729 -0.260777,0.823506 -0.04117,0.0549 -0.06863,0.109801 -0.09608,0.178427 -0.04117,0.1098 -0.02745,0.137251 0.123526,0.150976 0.123526,0.01372 0.178426,0.06863 0.205877,0.164701 0.178426,0.452928 0.164701,0.892131 -0.0549,1.331335 -0.04117,0.09607 -0.08235,0.178426 -0.123526,0.274502 -0.09607,0.192151 0,0.398027 0.04118,0.590179 0,0.01373 0.0549,0.0549 0.08235,0.04118 0.04118,0 0.06863,-0.02745 0.08235,-0.0549 0.01373,-0.0549 0,-0.109801 0,-0.164702 0.04117,-0.178426 0.137251,-0.315677 0.398028,-0.384302 0.0549,0.09607 0.137251,0.178426 0.164701,0.274502 z" />
      </g>
      <g
         style="font-size:5.64444px;line-height:1.25;font-family:Arial;-inkscape-font-specification:Arial;stroke-width:0.264583"
         id="text123"
         aria-label="2">
        <path
           id="path606"
           style="font-style:normal;font-variant:normal;font-weight:normal;font-stretch:normal;font-size:5.64444px;font-family:Abduction;-inkscape-font-specification:Abduction;fill:#ffffff;stroke-width:0.264583"
           d="m 48.287532,5.6382443 q 0,0.2539999 -0.158044,0.4120442 -0.158044,0.1523999 -0.4064,0.1523999 h -3.217331 q -0.282222,0 -0.282222,0.282222 v 0.846666 q 0,0.2539998 -0.158044,0.4120441 -0.1524,0.1523999 -0.4064,0.1523999 -0.253999,0 -0.412044,-0.1523999 -0.1524,-0.1580443 -0.1524,-0.4120441 V 5.6382443 q 0,-0.2539998 0.1524,-0.4063996 0.158045,-0.1580444 0.412044,-0.1580444 h 3.217331 q 0.282222,0 0.282222,-0.282222 0,-0.282222 -0.282222,-0.282222 h -3.217331 q -0.253999,0 -0.412044,-0.1523999 -0.1524,-0.1580443 -0.1524,-0.4120441 0,-0.2539998 0.1524,-0.4063997 0.158045,-0.1580443 0.412044,-0.1580443 h 4.063997 q 0.248356,0 0.4064,0.1580443 0.158044,0.1523999 0.158044,0.4063997 z m 0,1.6933321 q 0,0.2539998 -0.158044,0.4120441 -0.1524,0.1523999 -0.4064,0.1523999 h -2.370665 q -0.253999,0 -0.412044,-0.1523999 -0.1524,-0.1580443 -0.1524,-0.4120441 0,-0.2539998 0.1524,-0.4063997 0.158045,-0.1580443 0.412044,-0.1580443 h 2.370665 q 0.254,0 0.4064,0.1580443 0.158044,0.1523999 0.158044,0.4063997 z" />
      </g>
    </g>
    <g
       style="fill:#ffffff"
       transform="matrix(0.01493294,0,0,0.01310464,27.210707,116.08095)"
       id="g40">
      <path
         id="path54"
         d="m 436.00195,399.08312 c 0,-51.68451 0.16814,-72.82817 0.37365,-46.98591 0.20551,25.84225 0.20551,68.12957 0,93.97183 -0.20551,25.84225 -0.37365,4.69859 -0.37365,-46.98592 z m -350.289433,26.70423 -2.575761,-3.04226 3.042253,2.57576 c 2.858962,2.42058 3.65779,3.50875 2.575762,3.50875 -0.256577,0 -1.625591,-1.36901 -3.042254,-3.04225 z m 116.913733,0.67605 c -1.68185,-2.14453 -1.63403,-2.19235 0.5105,-0.5105 1.30141,1.02064 2.3662,2.08543 2.3662,2.3662 0,1.11284 -1.11034,0.39658 -2.8767,-1.8557 z M 8.0945055,422.74509 c 1.7465915,-1.85915 3.4798375,-3.38028 3.8516685,-3.38028 0.371831,0 -0.752964,1.52113 -2.4995559,3.38028 -1.7465915,1.85916 -3.4798376,3.38028 -3.8516686,3.38028 -0.371831,0 0.7529645,-1.52112 2.499556,-3.38028 z m 183.7148445,-8.4507 c -1.68186,-2.14453 -1.63403,-2.19236 0.5105,-0.5105 1.30141,1.02064 2.3662,2.08543 2.3662,2.36619 0,1.11285 -1.11034,0.39659 -2.8767,-1.85569 z m -127.730635,-8.78873 -2.575761,-3.04226 3.042254,2.57576 c 2.858961,2.42058 3.657789,3.50875 2.575761,3.50875 -0.256577,0 -1.625591,-1.36901 -3.042254,-3.04225 z m -149.279981,-0.17248 c 0,-0.28077 1.064789,-1.34555 2.366198,-2.3662 2.144526,-1.68185 2.19235,-1.63402 0.510496,0.51051 -1.766358,2.25228 -2.876694,2.96853 -2.876694,1.85569 z M 29.728307,402.4634 c 1.746592,-1.85915 3.479838,-3.38028 3.851669,-3.38028 0.371831,0 -0.752964,1.52113 -2.499556,3.38028 -1.746591,1.85916 -3.479838,3.38028 -3.851669,3.38028 -0.37183,0 0.752965,-1.52112 2.499556,-3.38028 z m -4.158679,-11.15493 -3.27794,-3.71831 3.71831,3.27794 c 3.475321,3.06374 4.338375,4.15868 3.27794,4.15868 -0.242191,0 -1.91543,-1.67324 -3.71831,-3.71831 z m 42.693889,-3.04225 c 1.346015,-1.48732 2.751522,-2.70423 3.123353,-2.70423 0.371831,0 -0.425226,1.21691 -1.77124,2.70423 -1.346015,1.48732 -2.751522,2.70422 -3.123353,2.70422 -0.371831,0 0.425226,-1.2169 1.77124,-2.70422 z m 122.366193,-9.97529 c 0,-0.28077 1.06479,-1.34556 2.3662,-2.3662 2.14453,-1.68185 2.19235,-1.63403 0.5105,0.5105 -1.76636,2.25229 -2.8767,2.96854 -2.8767,1.8557 z m -187.3960629,-7.9402 -2.57576105,-3.04226 3.04225335,2.57576 c 1.6732394,1.41667 3.0422535,2.78568 3.0422535,3.04226 0,1.08203 -1.0881668,0.2832 -3.5087458,-2.57576 z m 86.6636719,-2.3662 c 1.346015,-1.48732 2.751522,-2.70423 3.123353,-2.70423 0.371831,0 -0.425226,1.21691 -1.77124,2.70423 -1.346015,1.48732 -2.751522,2.70422 -3.123353,2.70422 -0.371831,0 0.425226,-1.2169 1.77124,-2.70422 z m 111.549291,-1.86262 c 0,-0.28076 1.06479,-1.34555 2.3662,-2.36619 2.14453,-1.68186 2.19235,-1.63403 0.5105,0.5105 -1.76636,2.25228 -2.8767,2.96854 -2.8767,1.85569 z"
         style="fill:#ffffff;stroke-width:1.35211" />
      <path
         id="path52"
         d="m -3.4983216,463.30847 c 0.00102,-16.36056 0.1962659,-22.86768 0.4338767,-14.46027 0.2376095,8.40742 0.2367725,21.79333 -0.00189,29.74648 -0.2385979,7.95315 -0.433006,1.07436 -0.4319838,-15.28621 z M -118.89734,432.09721 c 0.0649,-1.57514 0.38528,-1.89553 0.81691,-0.81691 0.39058,0.97605 0.34255,2.14226 -0.10675,2.59156 -0.4493,0.44929 -0.76887,-0.34931 -0.71016,-1.77465 z M 62.17901,394.51628 c 0,-0.28077 1.064789,-1.34556 2.366198,-2.3662 2.144531,-1.68185 2.192355,-1.63403 0.510503,0.51051 -1.766359,2.25228 -2.876701,2.96853 -2.876701,1.85569 z M 7.92203,375.08312 c -1.6818523,-2.14453 -1.6340281,-2.19236 0.5105036,-0.5105 1.3014084,1.02064 2.3661974,2.08543 2.3661974,2.36619 0,1.11285 -1.1103416,0.39659 -2.876701,-1.85569 z m 75.890782,-0.84853 c 0,-0.28077 1.064789,-1.34556 2.366197,-2.3662 2.144532,-1.68185 2.192356,-1.63403 0.510504,0.51051 -1.766359,2.25228 -2.876701,2.96853 -2.876701,1.85569 z M -3.4983216,334.85777 c 0.00102,-16.36056 0.1962659,-22.86769 0.4338767,-14.46028 0.2376095,8.40742 0.2367725,21.79334 -0.00189,29.74648 -0.2385979,7.95315 -0.433006,1.07436 -0.4319838,-15.2862 z"
         style="fill:#ffffff;stroke-width:1.35211" />
      <path
         id="path50"
         d="m 96.605556,497.78735 c 0,-34.58029 0.175098,-48.72676 0.389111,-31.43662 0.214012,17.29014 0.214012,45.5831 0,62.87324 -0.214013,17.29014 -0.389111,3.14366 -0.389111,-31.43662 z m -18.37367,-79.43662 c -1.681852,-2.14454 -1.634028,-2.19236 0.510504,-0.51051 1.301408,1.02065 2.366197,2.08543 2.366197,2.3662 0,1.11284 -1.110341,0.39659 -2.876701,-1.85569 z m 18.37417,-118.64789 c -2.84e-4,-34.95211 0.17449,-49.44472 0.388381,-32.20578 0.21389,17.23893 0.214107,45.83612 5e-4,63.54929 -0.21362,17.71318 -0.388611,3.6086 -0.388881,-31.34351 z"
         style="fill:#ffffff;stroke-width:1.35211" />
      <path
         id="path48"
         d="m 227.45919,581.2803 c 0.17733,-84.21971 0.48093,-128.4845 0.67465,-98.36619 0.92751,144.19826 0.93475,251.49327 0.017,251.49312 -0.55775,-10e-5 -0.86899,-68.90721 -0.69165,-153.12693 z M 335.62905,398.74509 c 0.1778,-89.42535 0.48145,-136.42817 0.67476,-104.4507 0.92675,153.30065 0.93358,267.04254 0.0161,267.0424 -0.55775,-8e-5 -0.86861,-73.16634 -0.6908,-162.5917 z M -4.0745081,433.72755 c 0,-0.28077 1.0647887,-1.34556 2.3661971,-2.3662 2.14452629,-1.68185 2.19235052,-1.63403 0.5104968,0.5105 -1.766358,2.25229 -2.8766939,2.96854 -2.8766939,1.8557 z M 74.175549,414.29439 c -1.681853,-2.14453 -1.634029,-2.19236 0.510503,-0.5105 1.301409,1.02064 2.366197,2.08543 2.366197,2.36619 0,1.11285 -1.110341,0.39659 -2.8767,-1.85569 z m -56.616255,-0.84853 c 0,-0.28077 1.064789,-1.34556 2.366197,-2.3662 2.144532,-1.68185 2.192356,-1.63403 0.510504,0.5105 -1.76636,2.25229 -2.876701,2.96854 -2.876701,1.8557 z m -2.156633,-30.92612 -2.575761,-3.04225 3.042253,2.57576 c 2.858961,2.42058 3.657789,3.50874 2.575761,3.50874 -0.256577,0 -1.625591,-1.36901 -3.042253,-3.04225 z m 63.677757,-3.71831 c 1.346015,-1.48732 2.751522,-2.70422 3.123353,-2.70422 0.371831,0 -0.425226,1.2169 -1.77124,2.70422 -1.346015,1.48732 -2.751522,2.70423 -3.123353,2.70423 -0.371831,0 0.425226,-1.21691 1.77124,-2.70423 z M 227.79121,200.99861 c -5e-5,-89.23943 0.16168,-125.945637 0.35938,-81.56934 0.19771,44.37631 0.19775,117.39039 8e-5,162.25353 -0.19765,44.86313 -0.35942,8.55525 -0.35946,-80.68419 z"
         style="fill:#ffffff;stroke-width:1.35211" />
      <path
         id="path46"
         d="m 210.21207,584.99861 c 6e-5,-82.54647 0.16255,-116.11661 0.36111,-74.6003 0.19856,41.51631 0.19852,109.05434 -9e-5,150.08451 -0.19861,41.03017 -0.36107,7.06227 -0.36102,-75.48421 z m -328.31474,-74.59155 c -0.49578,-0.49577 -0.90141,-17.45788 -0.90141,-37.69359 0,-33.43184 0.21611,-36.96168 2.3662,-38.64789 2.11004,-1.6548 2.17864,-1.61562 0.63376,0.36197 -1.33502,1.70895 -1.64519,10.78154 -1.35211,39.55017 0.20917,20.53288 0.32961,37.33211 0.26764,37.33162 -0.062,-4.7e-4 -0.51831,-0.4065 -1.01408,-0.90228 z m 209.223638,-80.56338 -2.575761,-3.04225 3.042253,2.57576 c 2.858961,2.42058 3.657789,3.50875 2.575761,3.50875 -0.256577,0 -1.625591,-1.36902 -3.042253,-3.04226 z M 2.686055,426.80143 c 1.7465915,-1.85915 3.4798376,-3.38028 3.8516686,-3.38028 0.3718309,0 -0.7529645,1.52113 -2.499556,3.38028 -1.7465915,1.85916 -3.4798349,3.38028 -3.85166587,3.38028 -0.37183098,0 0.75296853,-1.52112 2.49955327,-3.38028 z M 227.72296,395.70284 c -8.3e-4,-18.59155 0.18961,-26.38472 0.42318,-17.31816 0.23358,9.06658 0.23426,24.27785 0.001,33.80282 -0.23261,9.52498 -0.42372,2.10689 -0.42454,-16.48466 z m -158.235794,13.85915 -2.575761,-3.04225 3.042253,2.57576 c 2.858961,2.42058 3.657789,3.50875 2.575761,3.50875 -0.256577,0 -1.625591,-1.36902 -3.042253,-3.04226 z m -45.167309,-3.04225 c 1.746591,-1.85915 3.479838,-3.38028 3.851669,-3.38028 0.371831,0 -0.752965,1.52113 -2.499556,3.38028 -1.746592,1.85916 -3.479838,3.38028 -3.851669,3.38028 -0.371831,0 0.752964,-1.52112 2.499556,-3.38028 z M 182.34456,404.8296 c -1.68185,-2.14453 -1.63403,-2.19236 0.5105,-0.5105 1.30141,1.02064 2.3662,2.08543 2.3662,2.36619 0,1.11285 -1.11034,0.39659 -2.8767,-1.85569 z m -161.533449,-16.90141 -2.575761,-3.04225 3.042254,2.57576 c 2.858961,2.42058 3.657789,3.50874 2.575761,3.50874 -0.256577,0 -1.625591,-1.36901 -3.042254,-3.04225 z m 52.1848,-3.04225 c 1.746592,-1.85916 3.479838,-3.38028 3.851669,-3.38028 0.371831,0 -0.752964,1.52112 -2.499556,3.38028 -1.746591,1.85915 -3.479838,3.38028 -3.851669,3.38028 -0.371831,0 0.752965,-1.52113 2.499556,-3.38028 z m 108.169009,2.86978 c 0,-0.28077 1.06479,-1.34556 2.3662,-2.3662 2.14453,-1.68185 2.19235,-1.63403 0.5105,0.5105 -1.76636,2.25228 -2.8767,2.96854 -2.8767,1.8557 z m -182.6375389,-20.78528 -3.2779455,-3.71831 3.7183097,3.27795 c 3.4753215,3.06373 4.338375,4.15867 3.2779401,4.15867 -0.2421904,0 -1.91543382,-1.67323 -3.7183043,-3.71831 z m 94.7502199,-0.84853 c 0,-0.28076 1.064788,-1.34555 2.366197,-2.36619 2.144532,-1.68186 2.192356,-1.63403 0.510503,0.5105 -1.766359,2.25228 -2.8767,2.96854 -2.8767,1.85569 z M 209.23236,197.61826 c -0.19201,-87.00848 0.10721,-158.197216 0.66495,-158.197178 0.55775,3.6e-5 1.01409,71.188798 1.01409,158.197248 0,87.00845 -0.29922,158.19719 -0.66496,158.19719 -0.36572,0 -0.82205,-71.18876 -1.01408,-158.19726 z"
         style="fill:#ffffff;stroke-width:1.35211" />
      <path
         id="path44"
         d="m 556.34114,413.2803 c 1.4e-4,-53.54366 0.16781,-75.251 0.37263,-48.23855 0.20482,27.01245 0.20472,70.8209 -2.3e-4,97.35211 -0.20494,26.53121 -0.37252,4.43011 -0.3724,-49.11356 z m -470.628623,11.15493 -2.575761,-3.04225 3.042253,2.57576 c 2.858962,2.42058 3.65779,3.50875 2.575762,3.50875 -0.256577,0 -1.625591,-1.36902 -3.042254,-3.04226 z M 8.7705618,420.71692 c 1.3460142,-1.48732 2.7515222,-2.70422 3.1233532,-2.70422 0.371831,0 -0.425226,1.2169 -1.771241,2.70422 -1.3460142,1.48733 -2.7515217,2.70423 -3.1233527,2.70423 -0.371831,0 0.4252259,-1.2169 1.7712405,-2.70423 z m 55.3081532,-16.56338 -2.575761,-3.04225 3.042254,2.57576 c 2.858961,2.42058 3.657789,3.50875 2.575761,3.50875 -0.256577,0 -1.625591,-1.36902 -3.042254,-3.04226 z m -35.70252,-1.52458 c 0,-0.28077 1.064789,-1.34556 2.366197,-2.3662 2.144532,-1.68185 2.192356,-1.63403 0.510504,0.5105 -1.76636,2.25228 -2.876701,2.96854 -2.876701,1.8557 z m -2.156633,-9.29232 -2.575761,-3.04225 3.042253,2.57576 c 2.858961,2.42058 3.657789,3.50875 2.575761,3.50875 -0.256577,0 -1.625591,-1.36902 -3.042253,-3.04226 z m 40.691843,-2.3662 c 1.346014,-1.48732 2.751522,-2.70422 3.123353,-2.70422 0.371831,0 -0.425226,1.2169 -1.771241,2.70422 -1.346014,1.48733 -2.751522,2.70423 -3.123353,2.70423 -0.371831,0 0.425226,-1.2169 1.771241,-2.70423 z M 189.2776,378.29093 c 0,-0.28077 1.06479,-1.34556 2.36619,-2.3662 2.14454,-1.68185 2.19236,-1.63403 0.51051,0.5105 -1.76636,2.25229 -2.8767,2.96854 -2.8767,1.8557 z m -184.6918403,-5.23598 -2.575761,-3.04225 3.0422534,2.57576 c 2.858961,2.42058 3.6577891,3.50875 2.575761,3.50875 -0.2565769,0 -1.6255909,-1.36902 -3.0422534,-3.04226 z m 85.3115593,-3.71831 c 1.346015,-1.48732 2.751522,-2.70422 3.123353,-2.70422 0.371831,0 -0.425226,1.2169 -1.77124,2.70422 -1.346015,1.48733 -2.751522,2.70423 -3.123353,2.70423 -0.371831,0 0.425226,-1.2169 1.77124,-2.70423 z"
         style="fill:#ffffff;stroke-width:1.35211" />
      <path
         id="path42"
         d="M 45.615631,621.29216 -117.65197,509.6199 v -36.86198 -36.86199 l 22.30986,-19.85057 c 12.270422,-10.91781 22.309858,-20.07194 22.309858,-20.34252 0,-0.27059 -10.047335,-9.43174 -22.32741,-20.35814 l -22.327408,-19.86619 0.35558,-46.0244 0.35558,-46.0244 160.9014,-110.08339 c 88.49577,-60.545869 161.96619,-110.664977 163.2676,-111.3758 2.24752,-1.227587 2.36355,6.626948 2.31325,156.61433 l -0.053,157.90672 -17.49075,19.47317 -17.49076,19.47315 3.68456,4.43835 c 2.02649,2.44109 9.92384,11.40858 17.54965,19.92775 l 13.8651,15.4894 -0.34398,148.83552 -0.34392,148.83552 z M 97.333939,498.01744 v -63.3192 L 78.74239,417.29329 c -10.225352,-9.57271 -18.726489,-17.73823 -18.891434,-18.14558 -0.16493,-0.40735 8.201267,-8.63217 18.591549,-18.27738 L 97.333939,363.3336 v -63.39666 c 0,-56.21514 -0.233213,-63.30717 -2.058714,-62.60665 -1.132299,0.4345 -23.9492,15.75928 -50.704223,34.05505 l -48.6455101,33.26507 v 30.0805 30.08051 l 18.2069941,16.79782 18.207008,16.79782 -18.237052,17.57747 -18.2370542,17.57746 0.030057,29.84931 0.030047,29.84931 49.6901392,34.00377 c 27.329576,18.70208 50.146477,34.01919 50.704223,34.03803 0.557747,0.0188 1.014085,-28.45941 1.014085,-63.28497 z M 228.48886,386.93421 c 0,-190.51247 0.49273,-346.183485 1.09496,-345.935597 0.60221,0.247887 71.03038,48.279873 156.50703,106.737747 85.47664,58.45787 157.54166,107.29968 160.14448,108.53735 2.60282,1.23767 6.03876,3.30145 7.63545,4.58619 l 2.90305,2.3359 -0.73228,123.37103 -0.73229,123.37105 -159.57362,109.19233 C 307.97014,679.186 234.43555,729.4471 232.32543,730.82153 l -3.83657,2.49898 z m 159.40431,139.81745 48.82104,-33.42902 v -94.36068 -94.36069 l -48.54089,-33.20034 c -26.69747,-18.26019 -49.51437,-33.57392 -50.70422,-34.0305 -1.97565,-0.75813 -2.16334,13.27176 -2.16334,161.71269 0,138.36498 0.28012,162.43535 1.88318,161.8202 1.03575,-0.39746 23.85265,-15.7657 50.70423,-34.15166 z"
         style="fill:#ffffff;stroke-width:1.35211" />
    </g>
    <rect
       y="22.280701"
       x="8.8774672"
       height="9.7478075"
       width="21.758497"
       id="rect491"
       style="fill:none;fill-rule:evenodd;stroke:#ffffff;stroke-width:0.264583" />
    <text
       id="text495"
       y="20.017818"
       x="13.055099"
       style="font-size:3.52777px;line-height:1.25;font-family:Arial;-inkscape-font-specification:Arial;stroke-width:0.264583"
       xml:space="preserve"><tspan
         style="stroke-width:0.264583"
         y="20.017818"
         x="13.055099"
         id="tspan493"
         sodipodi:role="line" /></text>
    <g
       style="font-size:2.82222px;line-height:1.25;font-family:Arial;-inkscape-font-specification:Arial;stroke-width:0.264583"
       id="text499"
       aria-label="Reset">
      <path
         id="path609"
         style="font-size:2.82222px;fill:#ffffff;stroke-width:0.264583"
         d="m 16.06205,20.888161 v -2.020203 h 0.895724 q 0.270096,0 0.410655,0.05512 0.14056,0.05374 0.22462,0.191547 0.08406,0.137804 0.08406,0.304546 0,0.214974 -0.139182,0.362424 -0.139182,0.14745 -0.429948,0.187413 0.106109,0.05099 0.161231,0.100597 0.117133,0.107487 0.221864,0.268717 l 0.351399,0.549837 h -0.336241 l -0.267339,-0.420302 q -0.117133,-0.181901 -0.192925,-0.278363 -0.07579,-0.09646 -0.136426,-0.135048 -0.05926,-0.03859 -0.121267,-0.05374 -0.04548,-0.0096 -0.148828,-0.0096 h -0.310059 v 0.897102 z m 0.267339,-1.128613 h 0.574642 q 0.183279,0 0.286632,-0.03721 0.103352,-0.03859 0.157096,-0.121267 0.05374,-0.08406 0.05374,-0.181901 0,-0.143316 -0.104731,-0.235644 -0.103352,-0.09233 -0.327972,-0.09233 h -0.63941 z" />
      <path
         id="path611"
         style="font-size:2.82222px;fill:#ffffff;stroke-width:0.264583"
         d="m 19.067549,20.416872 0.256315,0.03169 q -0.06063,0.22462 -0.22462,0.348643 -0.163986,0.124024 -0.418923,0.124024 -0.321083,0 -0.509874,-0.19706 -0.187413,-0.198437 -0.187413,-0.555349 0,-0.369314 0.190169,-0.573263 0.190169,-0.20395 0.493337,-0.20395 0.293522,0 0.479557,0.199816 0.186035,0.199815 0.186035,0.562239 0,0.02205 -0.0014,0.06615 h -1.091405 q 0.01378,0.241156 0.136425,0.369314 0.122646,0.128157 0.305925,0.128157 0.136425,0 0.232888,-0.07166 0.09646,-0.07166 0.152962,-0.228754 z m -0.81442,-0.401009 h 0.817176 q -0.01654,-0.184657 -0.09371,-0.276985 -0.118512,-0.143316 -0.307303,-0.143316 -0.170876,0 -0.288009,0.114377 -0.115755,0.114377 -0.128158,0.305924 z" />
      <path
         id="path613"
         style="font-size:2.82222px;fill:#ffffff;stroke-width:0.264583"
         d="m 19.53746,20.451323 0.24529,-0.03858 q 0.02067,0.14745 0.114378,0.225998 0.09508,0.07855 0.264583,0.07855 0.170876,0 0.253559,-0.0689 0.08268,-0.07028 0.08268,-0.163986 0,-0.08406 -0.07304,-0.132292 -0.05099,-0.03307 -0.253559,-0.08406 -0.272851,-0.0689 -0.37896,-0.118511 -0.104731,-0.05099 -0.159853,-0.139182 -0.05374,-0.08957 -0.05374,-0.197059 0,-0.09784 0.0441,-0.180523 0.04547,-0.08406 0.122645,-0.139182 0.05788,-0.04272 0.157097,-0.07166 0.100596,-0.03032 0.214974,-0.03032 0.172254,0 0.30179,0.04961 0.130913,0.04961 0.192925,0.135047 0.06201,0.08406 0.08544,0.225998 l -0.242534,0.03307 q -0.01654,-0.112999 -0.09646,-0.176388 -0.07855,-0.06339 -0.223242,-0.06339 -0.170877,0 -0.243913,0.0565 -0.07304,0.0565 -0.07304,0.132292 0,0.04823 0.03032,0.08682 0.03032,0.03996 0.09509,0.06615 0.03721,0.01378 0.219108,0.06339 0.263205,0.07028 0.366558,0.115755 0.10473,0.0441 0.163986,0.129535 0.05926,0.08544 0.05926,0.212218 0,0.124023 -0.07304,0.234266 -0.07166,0.108865 -0.208084,0.169499 -0.136426,0.05926 -0.30868,0.05926 -0.285254,0 -0.43546,-0.118512 -0.148828,-0.118511 -0.190169,-0.351399 z" />
      <path
         id="path615"
         style="font-size:2.82222px;fill:#ffffff;stroke-width:0.264583"
         d="m 22.049621,20.416872 0.256315,0.03169 q -0.06063,0.22462 -0.22462,0.348643 -0.163986,0.124024 -0.418923,0.124024 -0.321083,0 -0.509874,-0.19706 -0.187413,-0.198437 -0.187413,-0.555349 0,-0.369314 0.190169,-0.573263 0.19017,-0.20395 0.493338,-0.20395 0.293522,0 0.479557,0.199816 0.186035,0.199815 0.186035,0.562239 0,0.02205 -0.0014,0.06615 h -1.091406 q 0.01378,0.241156 0.136426,0.369314 0.122645,0.128157 0.305924,0.128157 0.136426,0 0.232888,-0.07166 0.09646,-0.07166 0.152962,-0.228754 z m -0.814419,-0.401009 h 0.817176 q -0.01654,-0.184657 -0.09371,-0.276985 -0.118511,-0.143316 -0.307302,-0.143316 -0.170877,0 -0.28801,0.114377 -0.115755,0.114377 -0.128157,0.305924 z" />
      <path
         id="path617"
         style="font-size:2.82222px;fill:#ffffff;stroke-width:0.264583"
         d="m 23.16032,20.666297 0.03583,0.219108 q -0.10473,0.02205 -0.187413,0.02205 -0.135047,0 -0.209461,-0.04272 -0.07441,-0.04272 -0.104731,-0.111621 -0.03032,-0.07028 -0.03032,-0.293522 V 19.61761 h -0.181901 v -0.192925 h 0.181901 v -0.362424 l 0.246669,-0.148828 v 0.511252 h 0.249425 v 0.192925 h -0.249425 v 0.855762 q 0,0.106108 0.0124,0.136425 0.01378,0.03032 0.04272,0.04823 0.03032,0.01791 0.08544,0.01791 0.04134,0 0.108865,-0.0096 z" />
    </g>
    <g
       style="font-size:2.82222px;line-height:1.25;font-family:Arial;-inkscape-font-specification:Arial;stroke-width:0.264583"
       id="text512"
       aria-label="Run">
      <path
         id="path620"
         style="font-size:2.82222px;fill:#ffffff;stroke-width:0.264583"
         d="m 33.991052,20.888161 v -2.020203 h 0.895724 q 0.270095,0 0.410655,0.05512 0.14056,0.05374 0.22462,0.191547 0.08406,0.137804 0.08406,0.304546 0,0.214974 -0.139181,0.362424 -0.139182,0.14745 -0.429948,0.187413 0.106109,0.05099 0.16123,0.100597 0.117134,0.107487 0.221864,0.268717 l 0.3514,0.549837 h -0.336241 l -0.267339,-0.420302 q -0.117134,-0.181901 -0.192926,-0.278363 -0.07579,-0.09646 -0.136425,-0.135048 -0.05926,-0.03859 -0.121268,-0.05374 -0.04548,-0.0096 -0.148828,-0.0096 h -0.310058 v 0.897102 z m 0.267339,-1.128613 h 0.574642 q 0.183279,0 0.286631,-0.03721 0.103353,-0.03859 0.157097,-0.121267 0.05374,-0.08406 0.05374,-0.181901 0,-0.143316 -0.104731,-0.235644 Q 35.12242,19.0912 34.8978,19.0912 h -0.639409 z" />
      <path
         id="path622"
         style="font-size:2.82222px;fill:#ffffff;stroke-width:0.264583"
         d="m 36.953832,20.888161 v -0.214974 q -0.170877,0.248047 -0.464399,0.248047 -0.129535,0 -0.242534,-0.04961 -0.111621,-0.04961 -0.166743,-0.124023 -0.05374,-0.07579 -0.07579,-0.184657 -0.01516,-0.07304 -0.01516,-0.23151 v -0.906749 h 0.248046 v 0.811664 q 0,0.194303 0.01516,0.261827 0.02343,0.09784 0.09922,0.15434 0.07579,0.05512 0.187413,0.05512 0.111621,0 0.209461,-0.0565 0.09784,-0.05788 0.137804,-0.155718 0.04134,-0.09922 0.04134,-0.286632 v -0.784103 h 0.248047 v 1.463476 z" />
      <path
         id="path624"
         style="font-size:2.82222px;fill:#ffffff;stroke-width:0.264583"
         d="m 37.56568,20.888161 v -1.463476 h 0.223242 v 0.208084 q 0.161231,-0.241157 0.465777,-0.241157 0.132292,0 0.242534,0.04823 0.111621,0.04685 0.166743,0.124023 0.05512,0.07717 0.07717,0.183279 0.01378,0.0689 0.01378,0.241156 v 0.899859 H 38.50688 v -0.890212 q 0,-0.151584 -0.02894,-0.225998 -0.02894,-0.07579 -0.103353,-0.11989 -0.07304,-0.04547 -0.172254,-0.04547 -0.158475,0 -0.27423,0.100597 -0.114377,0.100597 -0.114377,0.381716 v 0.799262 z" />
    </g>
    <g
       style="font-size:2.82222px;line-height:1.25;font-family:Arial;-inkscape-font-specification:Arial;stroke-width:0.264583"
       id="text516"
       aria-label="BPM">
      <path
         id="path627"
         style="font-size:2.82222px;fill:#ffffff;stroke-width:0.264583"
         d="m 44.419974,20.888161 v -2.020203 h 0.75792 q 0.231511,0 0.370692,0.06201 0.14056,0.06063 0.219108,0.188791 0.07993,0.126779 0.07993,0.265961 0,0.129536 -0.07028,0.243913 -0.07028,0.114377 -0.212217,0.184657 0.183279,0.05374 0.281119,0.183279 0.09922,0.129535 0.09922,0.305924 0,0.141938 -0.06063,0.264583 -0.05926,0.121267 -0.14745,0.187413 -0.08819,0.06615 -0.221864,0.100597 -0.132291,0.03307 -0.325216,0.03307 z m 0.267339,-1.171332 h 0.436838 q 0.177767,0 0.254937,-0.02343 0.101974,-0.03032 0.152962,-0.100596 0.05237,-0.07028 0.05237,-0.176389 0,-0.100597 -0.04823,-0.176389 -0.04823,-0.07717 -0.137804,-0.104731 -0.08957,-0.02894 -0.307302,-0.02894 h -0.403765 z m 0,0.932931 h 0.502984 q 0.129535,0 0.181901,-0.0096 0.09233,-0.01654 0.15434,-0.05512 0.06201,-0.03859 0.101974,-0.111621 0.03996,-0.07441 0.03996,-0.170877 0,-0.112999 -0.05788,-0.195681 -0.05788,-0.08406 -0.16123,-0.117134 -0.101975,-0.03445 -0.2949,-0.03445 h -0.467155 z" />
      <path
         id="path629"
         style="font-size:2.82222px;fill:#ffffff;stroke-width:0.264583"
         d="m 46.316153,20.888161 v -2.020203 h 0.762055 q 0.201193,0 0.307302,0.01929 0.148828,0.0248 0.249425,0.09508 0.100596,0.0689 0.16123,0.194304 0.06201,0.125401 0.06201,0.275607 0,0.257693 -0.163987,0.436838 -0.163986,0.177767 -0.592556,0.177767 H 46.58349 v 0.82131 z m 0.267339,-1.059711 h 0.522276 q 0.259071,0 0.367936,-0.09646 0.108865,-0.09646 0.108865,-0.271474 0,-0.126779 -0.06477,-0.216352 -0.06339,-0.09095 -0.16812,-0.119889 -0.06752,-0.01791 -0.249425,-0.01791 H 46.58349 Z" />
      <path
         id="path631"
         style="font-size:2.82222px;fill:#ffffff;stroke-width:0.264583"
         d="m 48.19304,20.888161 v -2.020203 h 0.402386 l 0.478179,1.430403 q 0.06615,0.199815 0.09646,0.299034 0.03445,-0.110243 0.107487,-0.323839 l 0.483691,-1.405598 h 0.359668 v 2.020203 h -0.257693 v -1.690852 l -0.587044,1.690852 H 49.03502 L 48.450733,19.16837 v 1.719791 z" />
    </g>
    <g
       style="font-size:2.82222px;line-height:1.25;font-family:Arial;-inkscape-font-specification:Arial;stroke-width:0.264583"
       id="text534"
       aria-label="1x">
      <path
         id="path634"
         style="font-size:2.82222px;fill:#ffffff;stroke-width:0.264583"
         d="m 20.024854,37.076481 h -0.248047 v -1.580609 q -0.08957,0.08544 -0.235644,0.170877 -0.144694,0.08544 -0.260449,0.128157 v -0.239778 q 0.208083,-0.09784 0.363802,-0.237023 0.155718,-0.139181 0.220486,-0.270095 h 0.159852 z" />
      <path
         id="path636"
         style="font-size:2.82222px;fill:#ffffff;stroke-width:0.264583"
         d="m 20.565044,37.076481 0.534679,-0.760677 -0.494715,-0.702799 h 0.310058 l 0.22462,0.343132 q 0.06339,0.09784 0.101975,0.163986 0.06063,-0.09095 0.111621,-0.16123 l 0.246668,-0.345888 h 0.296278 l -0.505739,0.689019 0.544324,0.774457 h -0.304546 l -0.300412,-0.454752 -0.07993,-0.122646 -0.384472,0.577398 z" />
    </g>
    <rect
       style="fill:none;fill-rule:evenodd;stroke:#ffffff;stroke-width:0.231757"
       id="rect536"
       width="19.006235"
       height="8.5621576"
       x="25.049377"
       y="38.45261" />
    <g
       style="font-size:2.82222px;line-height:1.25;font-family:Arial;-inkscape-font-specification:Arial;stroke-width:0.264583"
       id="text540"
       aria-label="Prob.">
      <path
         id="path639"
         style="font-size:2.82222px;fill:#ffffff;stroke-width:0.264583"
         d="m 31.724037,36.728344 v -2.020203 h 0.762055 q 0.201193,0 0.307302,0.01929 0.148828,0.02481 0.249425,0.09508 0.100597,0.0689 0.16123,0.194303 0.06201,0.125401 0.06201,0.275607 0,0.257693 -0.163986,0.436838 -0.163987,0.177767 -0.592556,0.177767 h -0.518142 v 0.82131 z m 0.26734,-1.059711 h 0.522276 q 0.259071,0 0.367936,-0.09646 0.108865,-0.09646 0.108865,-0.271474 0,-0.126779 -0.06477,-0.216351 -0.06339,-0.09095 -0.168121,-0.11989 -0.06752,-0.01791 -0.249424,-0.01791 h -0.516764 z" />
      <path
         id="path641"
         style="font-size:2.82222px;fill:#ffffff;stroke-width:0.264583"
         d="m 33.574741,36.728344 v -1.463475 h 0.223242 v 0.221863 q 0.08544,-0.155718 0.157097,-0.205327 0.07304,-0.04961 0.159852,-0.04961 0.125401,0 0.254937,0.07993 l -0.08544,0.230132 q -0.09095,-0.05374 -0.181901,-0.05374 -0.08131,0 -0.146072,0.04961 -0.06477,0.04823 -0.09233,0.135048 -0.04134,0.132291 -0.04134,0.289387 v 0.766189 z" />
      <path
         id="path643"
         style="font-size:2.82222px;fill:#ffffff;stroke-width:0.264583"
         d="m 34.427746,35.996606 q 0,-0.406521 0.225999,-0.602202 0.188791,-0.162608 0.460264,-0.162608 0.30179,0 0.493337,0.198437 0.191547,0.197059 0.191547,0.545703 0,0.282497 -0.08544,0.445106 -0.08406,0.16123 -0.246669,0.250802 -0.16123,0.08957 -0.352777,0.08957 -0.307302,0 -0.497471,-0.197059 -0.188792,-0.19706 -0.188792,-0.567752 z m 0.254937,0 q 0,0.28112 0.122646,0.42168 0.122645,0.139181 0.30868,0.139181 0.184657,0 0.307302,-0.140559 0.122646,-0.14056 0.122646,-0.42857 0,-0.271473 -0.124024,-0.410655 -0.122645,-0.14056 -0.305924,-0.14056 -0.186035,0 -0.30868,0.139182 -0.122646,0.139182 -0.122646,0.420301 z" />
      <path
         id="path645"
         style="font-size:2.82222px;fill:#ffffff;stroke-width:0.264583"
         d="m 36.319791,36.728344 h -0.230132 v -2.020203 h 0.248047 v 0.720714 q 0.157096,-0.197059 0.401009,-0.197059 0.135047,0 0.254936,0.05512 0.121268,0.05374 0.198438,0.152962 0.07855,0.09784 0.122645,0.237023 0.0441,0.139181 0.0441,0.297656 0,0.376204 -0.186035,0.581531 -0.186035,0.205328 -0.446484,0.205328 -0.259071,0 -0.406521,-0.216352 z m -0.0028,-0.742762 q 0,0.263205 0.07166,0.380338 0.117133,0.191547 0.316949,0.191547 0.162608,0 0.281119,-0.140559 0.118511,-0.141938 0.118511,-0.42168 0,-0.286632 -0.114377,-0.423057 -0.112999,-0.136426 -0.274229,-0.136426 -0.162608,0 -0.28112,0.141938 -0.118511,0.14056 -0.118511,0.407899 z" />
      <path
         id="path647"
         style="font-size:2.82222px;fill:#ffffff;stroke-width:0.264583"
         d="m 37.732279,36.728344 v -0.282498 h 0.282498 v 0.282498 z" />
    </g>
    <rect
       y="53.94466"
       x="10.427667"
       height="8.5621576"
       width="19.006235"
       id="rect542"
       style="fill:none;fill-rule:evenodd;stroke:#ffffff;stroke-width:0.231757" />
    <rect
       style="fill:none;fill-rule:evenodd;stroke:#ffffff;stroke-width:0.231757"
       id="rect546"
       width="19.006235"
       height="8.5621576"
       x="40.367359"
       y="53.94466" />
    <rect
       y="67.69603"
       x="10.253598"
       height="8.5621576"
       width="19.006235"
       id="rect548"
       style="fill:none;fill-rule:evenodd;stroke:#ffffff;stroke-width:0.231757" />
    <rect
       style="fill:none;fill-rule:evenodd;stroke:#ffffff;stroke-width:0.231757"
       id="rect550"
       width="19.006235"
       height="8.5621576"
       x="40.193291"
       y="67.69603" />
    <rect
       style="fill:none;fill-rule:evenodd;stroke:#ffffff;stroke-width:0.231757"
       id="rect552"
       width="19.006235"
       height="8.5621576"
       x="10.253598"
       y="81.273331" />
    <rect
       y="81.447403"
       x="40.193291"
       height="8.5621576"
       width="19.006235"
       id="rect554"
       style="fill:none;fill-rule:evenodd;stroke:#ffffff;stroke-width:0.231757" />
    <rect
       style="fill:none;fill-rule:evenodd;stroke:#ffffff;stroke-width:0.231757"
       id="rect556"
       width="19.006235"
       height="8.5621576"
       x="10.427666"
       y="95.198776" />
    <rect
       y="95.198776"
       x="40.193291"
       height="8.5621576"
       width="19.006235"
       id="rect558"
       style="fill:none;fill-rule:evenodd;stroke:#ffffff;stroke-width:0.231757" />
    <g
       style="font-size:2.82222px;line-height:1.25;font-family:Arial;-inkscape-font-specification:Arial;stroke-width:0.264583"
       id="text562"
       aria-label="2x">
      <path
         id="path650"
         style="font-size:2.82222px;fill:#ffffff;stroke-width:0.264583"
         d="m 5.7724576,51.981994 v 0.2384 h -1.335318 q -0.00276,-0.08957 0.028939,-0.172255 0.050987,-0.136425 0.1626084,-0.268717 0.1129991,-0.132291 0.3252168,-0.305924 0.3293509,-0.270095 0.445106,-0.427192 0.1157551,-0.158474 0.1157551,-0.299034 0,-0.14745 -0.1061088,-0.248046 -0.1047309,-0.101975 -0.2742294,-0.101975 -0.1791449,0 -0.2866318,0.107487 Q 4.740308,50.612225 4.73893,50.802394 l -0.2549369,-0.02618 q 0.026183,-0.285253 0.1970593,-0.434082 0.1708766,-0.150206 0.4588864,-0.150206 0.2907658,0 0.4602644,0.161231 0.1694986,0.16123 0.1694986,0.399631 0,0.121267 -0.049609,0.2384 -0.049609,0.117133 -0.1653645,0.246669 -0.1143771,0.129535 -0.3817163,0.355533 -0.223242,0.187413 -0.2866317,0.254937 -0.06339,0.06615 -0.1047308,0.13367 z" />
      <path
         id="path652"
         style="font-size:2.82222px;fill:#ffffff;stroke-width:0.264583"
         d="M 5.9433341,52.220394 6.4780125,51.459718 5.9832972,50.756919 h 0.3100584 l 0.22462,0.343131 q 0.06339,0.09784 0.1019748,0.163986 0.060634,-0.09095 0.111621,-0.16123 L 6.97824,50.756919 h 0.296278 l -0.5057396,0.689018 0.5443247,0.774457 H 7.0085568 L 6.7081447,51.765642 6.6282186,51.642997 6.2437462,52.220394 Z" />
    </g>
    <g
       style="font-size:2.82222px;line-height:1.25;font-family:Arial;-inkscape-font-specification:Arial;stroke-width:0.264583"
       id="text566"
       aria-label="4x">
      <path
         id="path655"
         style="font-size:2.82222px;fill:#ffffff;stroke-width:0.264583"
         d="m 35.377722,52.220394 v -0.483691 h -0.876431 v -0.227376 l 0.921907,-1.309135 h 0.202571 v 1.309135 h 0.272851 v 0.227376 h -0.272851 v 0.483691 z m 0,-0.711067 v -0.910883 l -0.632519,0.910883 z" />
      <path
         id="path657"
         style="font-size:2.82222px;fill:#ffffff;stroke-width:0.264583"
         d="m 36.057095,52.220394 0.534678,-0.760676 -0.494715,-0.702799 h 0.310058 l 0.22462,0.343131 q 0.06339,0.09784 0.101975,0.163986 0.06063,-0.09095 0.111621,-0.16123 L 37.092,50.756919 h 0.296278 l -0.505739,0.689018 0.544325,0.774457 h -0.304547 l -0.300412,-0.454752 -0.07993,-0.122645 -0.384472,0.577397 z" />
    </g>
    <g
       style="font-size:2.82222px;line-height:1.25;font-family:Arial;-inkscape-font-specification:Arial;stroke-width:0.264583"
       id="text572"
       aria-label="8x">
      <path
         id="path660"
         style="font-size:2.82222px;fill:#ffffff;stroke-width:0.264583"
         d="m 4.5024138,64.702159 q -0.1543402,-0.0565 -0.2287542,-0.16123 -0.074414,-0.104731 -0.074414,-0.250803 0,-0.220486 0.1584743,-0.370692 0.1584743,-0.150206 0.4216794,-0.150206 0.2645831,0 0.4258135,0.15434 0.1612303,0.152963 0.1612303,0.373449 0,0.140559 -0.074414,0.24529 -0.073036,0.103353 -0.223242,0.159852 0.186035,0.06063 0.2824976,0.195682 0.097841,0.135047 0.097841,0.32246 0,0.259071 -0.1832789,0.43546 -0.183279,0.176389 -0.482313,0.176389 -0.2990341,0 -0.482313,-0.176389 -0.183279,-0.177767 -0.183279,-0.44235 0,-0.197059 0.099219,-0.329351 0.1005967,-0.133669 0.285253,-0.181901 z m -0.049609,-0.420301 q 0,0.143316 0.092328,0.234266 0.092328,0.09095 0.2397784,0.09095 0.1433159,0 0.2342663,-0.08957 0.092328,-0.09095 0.092328,-0.221864 0,-0.136425 -0.095084,-0.228754 -0.093707,-0.09371 -0.2342664,-0.09371 -0.1419378,0 -0.2356443,0.09095 -0.093706,0.09095 -0.093706,0.21773 z m -0.079926,0.932931 q 0,0.106109 0.049609,0.205328 0.050987,0.09922 0.150206,0.15434 0.099219,0.05374 0.2135958,0.05374 0.1777668,0 0.2935219,-0.114377 0.1157551,-0.114377 0.1157551,-0.290766 0,-0.179144 -0.1198892,-0.296278 -0.1185112,-0.117133 -0.2976561,-0.117133 -0.1750107,0 -0.2907658,0.115755 -0.1143771,0.115756 -0.1143771,0.289388 z" />
      <path
         id="path662"
         style="font-size:2.82222px;fill:#ffffff;stroke-width:0.264583"
         d="M 5.5951972,65.797699 6.1298756,65.037022 5.6351603,64.334224 h 0.3100584 l 0.22462,0.343131 q 0.06339,0.09784 0.1019748,0.163986 0.060634,-0.09095 0.111621,-0.16123 l 0.2466686,-0.345887 h 0.296278 l -0.5057396,0.689018 0.5443247,0.774457 H 6.6604199 L 6.3600078,65.342947 6.2800817,65.220301 5.8956093,65.797699 Z" />
    </g>
    <g
       style="font-size:2.82222px;line-height:1.25;font-family:Arial;-inkscape-font-specification:Arial;stroke-width:0.264583"
       id="text576"
       aria-label="16x
">
      <path
         id="path665"
         style="font-size:2.82222px;fill:#ffffff;stroke-width:0.264583"
         d="m 34.646566,65.971764 h -0.248047 v -1.580609 q -0.08957,0.08544 -0.235644,0.170877 -0.144694,0.08544 -0.260449,0.128157 v -0.239778 q 0.208083,-0.09784 0.363801,-0.237023 0.155719,-0.139182 0.220486,-0.270095 h 0.159853 z" />
      <path
         id="path667"
         style="font-size:2.82222px;fill:#ffffff;stroke-width:0.264583"
         d="m 36.570305,64.446276 -0.246668,0.01929 q -0.03307,-0.146072 -0.09371,-0.212218 -0.100596,-0.106109 -0.248046,-0.106109 -0.118512,0 -0.208084,0.06615 -0.117133,0.08544 -0.184657,0.249425 -0.06752,0.163986 -0.07028,0.467155 0.08957,-0.136426 0.219108,-0.202572 0.129536,-0.06615 0.271473,-0.06615 0.248047,0 0.42168,0.183279 0.17501,0.181901 0.17501,0.471289 0,0.190169 -0.08268,0.354155 -0.0813,0.162609 -0.22462,0.249425 -0.143316,0.08682 -0.325217,0.08682 -0.310058,0 -0.505739,-0.227377 -0.195682,-0.228754 -0.195682,-0.752408 0,-0.585666 0.216352,-0.851627 0.188791,-0.23151 0.508496,-0.23151 0.2384,0 0.389985,0.13367 0.152962,0.133669 0.183279,0.369313 z m -1.012857,0.87092 q 0,0.128157 0.05374,0.245291 0.05512,0.117133 0.152962,0.179144 0.09784,0.06063 0.205327,0.06063 0.157096,0 0.270096,-0.126779 0.112999,-0.12678 0.112999,-0.34451 0,-0.209461 -0.111621,-0.329351 -0.111621,-0.121267 -0.28112,-0.121267 -0.168121,0 -0.285254,0.121267 -0.117133,0.11989 -0.117133,0.315571 z" />
      <path
         id="path669"
         style="font-size:2.82222px;fill:#ffffff;stroke-width:0.264583"
         d="m 36.757718,65.971764 0.534679,-0.760677 -0.494715,-0.702799 h 0.310058 l 0.22462,0.343131 q 0.06339,0.09784 0.101975,0.163987 0.06063,-0.09095 0.111621,-0.161231 l 0.246668,-0.345887 h 0.296278 l -0.505739,0.689019 0.544324,0.774457 h -0.304546 l -0.300412,-0.454753 -0.07993,-0.122645 -0.384472,0.577398 z" />
    </g>
    <g
       style="font-size:2.82222px;line-height:1.25;font-family:Arial;-inkscape-font-specification:Arial;stroke-width:0.264583"
       id="text584"
       aria-label="/2
">
      <path
         id="path672"
         style="font-size:2.82222px;fill:#ffffff;stroke-width:0.264583"
         d="M 4.1776342,80.105725 4.7633,78.01662 h 0.1984374 l -0.5842878,2.089105 z" />
      <path
         id="path674"
         style="font-size:2.82222px;fill:#ffffff;stroke-width:0.264583"
         d="m 6.3811156,79.832873 v 0.238401 h -1.335318 q -0.00276,-0.08957 0.028939,-0.172255 0.050987,-0.136426 0.1626084,-0.268717 0.112999,-0.132292 0.3252168,-0.305924 0.3293508,-0.270096 0.445106,-0.427192 0.1157551,-0.158474 0.1157551,-0.299034 0,-0.14745 -0.1061089,-0.248047 -0.1047308,-0.101974 -0.2742294,-0.101974 -0.1791448,0 -0.2866317,0.107487 -0.1074869,0.107486 -0.1088649,0.297656 l -0.2549369,-0.02618 q 0.026183,-0.285254 0.1970593,-0.434082 0.1708766,-0.150206 0.4588864,-0.150206 0.2907658,0 0.4602644,0.16123 0.1694986,0.161231 0.1694986,0.399631 0,0.121268 -0.049609,0.238401 -0.049609,0.117133 -0.1653644,0.246668 -0.1143771,0.129536 -0.3817163,0.355534 -0.223242,0.187413 -0.2866318,0.254937 -0.06339,0.06615 -0.1047308,0.133669 z" />
    </g>
    <g
       style="font-size:2.82222px;line-height:1.25;font-family:Arial;-inkscape-font-specification:Arial;stroke-width:0.264583"
       id="text590"
       aria-label="/4
">
      <path
         id="path677"
         style="font-size:2.82222px;fill:#ffffff;stroke-width:0.264583"
         d="m 34.465462,80.105725 0.585666,-2.089105 h 0.198437 l -0.584288,2.089105 z" />
      <path
         id="path679"
         style="font-size:2.82222px;fill:#ffffff;stroke-width:0.264583"
         d="m 36.160447,80.071274 v -0.483691 h -0.876431 v -0.227376 l 0.921907,-1.309136 h 0.202571 v 1.309136 h 0.272851 v 0.227376 h -0.272851 v 0.483691 z m 0,-0.711067 v -0.910883 l -0.632519,0.910883 z" />
    </g>
    <g
       style="font-size:2.82222px;line-height:1.25;font-family:Arial;-inkscape-font-specification:Arial;stroke-width:0.264583"
       id="text596"
       aria-label="/8

">
      <path
         id="path682"
         style="font-size:2.82222px;fill:#ffffff;stroke-width:0.264583"
         d="M 4.3517008,94.031163 4.9373666,91.942058 H 5.1358039 L 4.5515162,94.031163 Z" />
      <path
         id="path684"
         style="font-size:2.82222px;fill:#ffffff;stroke-width:0.264583"
         d="m 5.6332753,92.901172 q -0.1543401,-0.0565 -0.2287541,-0.16123 -0.074414,-0.104731 -0.074414,-0.250803 0,-0.220486 0.1584742,-0.370692 0.1584743,-0.150206 0.4216794,-0.150206 0.2645831,0 0.4258135,0.15434 0.1612303,0.152962 0.1612303,0.373448 0,0.14056 -0.074414,0.245291 -0.073036,0.103353 -0.223242,0.159852 0.186035,0.06063 0.2824976,0.195681 0.097841,0.135048 0.097841,0.322461 0,0.259071 -0.183279,0.43546 -0.1832789,0.176389 -0.482313,0.176389 -0.2990341,0 -0.482313,-0.176389 -0.1832789,-0.177767 -0.1832789,-0.44235 0,-0.197059 0.099219,-0.329351 0.1005967,-0.13367 0.285253,-0.181901 z M 5.583666,92.480871 q 0,0.143316 0.092328,0.234266 0.092328,0.09095 0.2397784,0.09095 0.1433159,0 0.2342664,-0.08957 0.092328,-0.09095 0.092328,-0.221864 0,-0.136425 -0.095084,-0.228754 -0.093707,-0.09371 -0.2342663,-0.09371 -0.1419379,0 -0.2356444,0.09095 -0.093706,0.09095 -0.093706,0.21773 z M 5.50374,93.413802 q 0,0.106109 0.049609,0.205328 0.050987,0.09922 0.150206,0.15434 0.099219,0.05374 0.2135958,0.05374 0.1777668,0 0.2935219,-0.114377 0.1157551,-0.114377 0.1157551,-0.290766 0,-0.179145 -0.1198892,-0.296278 -0.1185112,-0.117133 -0.297656,-0.117133 -0.1750108,0 -0.2907659,0.115755 -0.1143771,0.115755 -0.1143771,0.289388 z" />
    </g>
    <g
       style="font-size:2.82222px;line-height:1.25;font-family:Arial;-inkscape-font-specification:Arial;stroke-width:0.264583"
       id="text604"
       aria-label="/16
">
      <path
         id="path687"
         style="font-size:2.82222px;fill:#ffffff;stroke-width:0.264583"
         d="m 33.421055,94.553364 0.585666,-2.089104 h 0.198437 l -0.584288,2.089104 z" />
      <path
         id="path689"
         style="font-size:2.82222px;fill:#ffffff;stroke-width:0.264583"
         d="m 35.255222,94.518913 h -0.248046 v -1.580608 q -0.08957,0.08544 -0.235645,0.170876 -0.144694,0.08544 -0.260449,0.128158 V 92.99756 q 0.208084,-0.09784 0.363802,-0.237022 0.155718,-0.139182 0.220486,-0.270095 h 0.159852 z" />
      <path
         id="path691"
         style="font-size:2.82222px;fill:#ffffff;stroke-width:0.264583"
         d="m 37.178962,92.993426 -0.246669,0.01929 q -0.03307,-0.146072 -0.09371,-0.212218 -0.100597,-0.106109 -0.248047,-0.106109 -0.118511,0 -0.208083,0.06615 -0.117134,0.08544 -0.184657,0.249425 -0.06752,0.163986 -0.07028,0.467154 0.08957,-0.136425 0.219108,-0.202571 0.129535,-0.06615 0.271473,-0.06615 0.248047,0 0.421679,0.183279 0.175011,0.181901 0.175011,0.471289 0,0.190169 -0.08268,0.354155 -0.0813,0.162609 -0.22462,0.249425 -0.143316,0.08682 -0.325217,0.08682 -0.310058,0 -0.50574,-0.227376 -0.195681,-0.228754 -0.195681,-0.752408 0,-0.585666 0.216352,-0.851627 0.188791,-0.23151 0.508496,-0.23151 0.2384,0 0.389984,0.133669 0.152962,0.13367 0.183279,0.369314 z m -1.012857,0.87092 q 0,0.128157 0.05374,0.24529 0.05512,0.117133 0.152962,0.179145 0.09784,0.06063 0.205328,0.06063 0.157096,0 0.270095,-0.12678 0.112999,-0.126779 0.112999,-0.344509 0,-0.209462 -0.111621,-0.329351 -0.111621,-0.121267 -0.281119,-0.121267 -0.168121,0 -0.285254,0.121267 -0.117133,0.119889 -0.117133,0.315571 z" />
    </g>
  </g>
  <g
     style="display:none"
     inkscape:label="components"
     id="layer2"
     inkscape:groupmode="layer">
    <ellipse
       inkscape:label="main"
       ry="2.2628837"
       rx="2.1758497"
       cy="42.994789"
       cx="20.836634"
       id="ellipse140"
       style="fill:#0000ff;fill-rule:evenodd;stroke-width:0.264583" />
    <ellipse
       inkscape:label="mainp"
       style="fill:#0000ff;fill-rule:evenodd;stroke-width:0.264583"
       id="ellipse142"
       cx="29.157084"
       cy="42.994789"
       rx="2.1758497"
       ry="2.2628837" />
    <ellipse
       inkscape:label="mainp"
       style="fill:#ff0000;fill-rule:evenodd;stroke-width:0.264583"
       id="ellipse144"
       cx="40.123367"
       cy="42.994789"
       rx="2.1758497"
       ry="2.2628837" />
    <ellipse
       inkscape:label="mult2"
       style="fill:#0000ff;fill-rule:evenodd;stroke-width:0.264583"
       id="ellipse151"
       cx="5.7101264"
       cy="58.138702"
       rx="2.1758497"
       ry="2.2628837" />
    <ellipse
       inkscape:label="mult2p"
       ry="2.2628837"
       rx="2.1758497"
       cy="58.138702"
       cx="14.030576"
       id="ellipse153"
       style="fill:#0000ff;fill-rule:evenodd;stroke-width:0.264583" />
    <ellipse
       inkscape:label="mult2p"
       ry="2.2628837"
       rx="2.1758497"
       cy="58.138702"
       cx="24.996859"
       id="ellipse155"
       style="fill:#ff0000;fill-rule:evenodd;stroke-width:0.264583" />
    <ellipse
       inkscape:label="mult4"
       ry="2.2628837"
       rx="2.1758497"
       cy="58.138702"
       cx="35.963142"
       id="ellipse159"
       style="fill:#0000ff;fill-rule:evenodd;stroke-width:0.264583" />
    <ellipse
       inkscape:label="mult4p"
       style="fill:#0000ff;fill-rule:evenodd;stroke-width:0.264583"
       id="ellipse161"
       cx="44.283592"
       cy="58.138702"
       rx="2.1758497"
       ry="2.2628837" />
    <ellipse
       inkscape:label="mult4p"
       style="fill:#ff0000;fill-rule:evenodd;stroke-width:0.264583"
       id="ellipse163"
       cx="55.249874"
       cy="58.138702"
       rx="2.1758497"
       ry="2.2628837" />
    <ellipse
       inkscape:label="mult8"
       style="fill:#0000ff;fill-rule:evenodd;stroke-width:0.264583"
       id="ellipse167"
       cx="5.7101264"
       cy="71.924889"
       rx="2.1758497"
       ry="2.2628837" />
    <ellipse
       inkscape:label="mult8p"
       ry="2.2628837"
       rx="2.1758497"
       cy="71.924889"
       cx="14.030576"
       id="ellipse169"
       style="fill:#0000ff;fill-rule:evenodd;stroke-width:0.264583" />
    <ellipse
       inkscape:label="mult8p"
       ry="2.2628837"
       rx="2.1758497"
       cy="71.924889"
       cx="24.996859"
       id="ellipse171"
       style="fill:#ff0000;fill-rule:evenodd;stroke-width:0.264583" />
    <ellipse
       inkscape:label="mult16"
       ry="2.2628837"
       rx="2.1758497"
       cy="71.924889"
       cx="35.963142"
       id="ellipse175"
       style="fill:#0000ff;fill-rule:evenodd;stroke-width:0.264583" />
    <ellipse
       inkscape:label="mult16p"
       style="fill:#0000ff;fill-rule:evenodd;stroke-width:0.264583"
       id="ellipse177"
       cx="44.283592"
       cy="71.924889"
       rx="2.1758497"
       ry="2.2628837" />
    <ellipse
       inkscape:label="mult16p"
       style="fill:#ff0000;fill-rule:evenodd;stroke-width:0.264583"
       id="ellipse179"
       cx="55.249874"
       cy="71.924889"
       rx="2.1758497"
       ry="2.2628837" />
    <ellipse
       inkscape:label="div2"
       style="fill:#0000ff;fill-rule:evenodd;stroke-width:0.264583"
       id="ellipse183"
       cx="5.7101264"
       cy="85.711075"
       rx="2.1758497"
       ry="2.2628837" />
    <ellipse
       inkscape:label="div2p"
       ry="2.2628837"
       rx="2.1758497"
       cy="85.711075"
       cx="14.030576"
       id="ellipse185"
       style="fill:#0000ff;fill-rule:evenodd;stroke-width:0.264583" />
    <ellipse
       inkscape:label="div2p"
       ry="2.2628837"
       rx="2.1758497"
       cy="85.711075"
       cx="24.996859"
       id="ellipse187"
       style="fill:#ff0000;fill-rule:evenodd;stroke-width:0.264583" />
    <ellipse
       inkscape:label="div4"
       ry="2.2628837"
       rx="2.1758497"
       cy="85.711075"
       cx="35.963142"
       id="ellipse191"
       style="fill:#0000ff;fill-rule:evenodd;stroke-width:0.264583" />
    <ellipse
       inkscape:label="div4p"
       style="fill:#0000ff;fill-rule:evenodd;stroke-width:0.264583"
       id="ellipse193"
       cx="44.283592"
       cy="85.711075"
       rx="2.1758497"
       ry="2.2628837" />
    <ellipse
       inkscape:label="div4p"
       style="fill:#ff0000;fill-rule:evenodd;stroke-width:0.264583"
       id="ellipse195"
       cx="55.249874"
       cy="85.711075"
       rx="2.1758497"
       ry="2.2628837" />
    <ellipse
       inkscape:label="div8"
       style="fill:#0000ff;fill-rule:evenodd;stroke-width:0.264583"
       id="ellipse199"
       cx="5.7101264"
       cy="99.497253"
       rx="2.1758497"
       ry="2.2628837" />
    <ellipse
       inkscape:label="div8p"
       ry="2.2628837"
       rx="2.1758497"
       cy="99.497253"
       cx="14.030576"
       id="ellipse201"
       style="fill:#0000ff;fill-rule:evenodd;stroke-width:0.264583" />
    <ellipse
       inkscape:label="div8p"
       ry="2.2628837"
       rx="2.1758497"
       cy="99.497253"
       cx="24.996859"
       id="ellipse203"
       style="fill:#ff0000;fill-rule:evenodd;stroke-width:0.264583" />
    <ellipse
       inkscape:label="div16"
       ry="2.2628837"
       rx="2.1758497"
       cy="99.497253"
       cx="35.963142"
       id="ellipse207"
       style="fill:#0000ff;fill-rule:evenodd;stroke-width:0.264583" />
    <ellipse
       inkscape:label="div16p"
       style="fill:#0000ff;fill-rule:evenodd;stroke-width:0.264583"
       id="ellipse209"
       cx="44.283592"
       cy="99.497253"
       rx="2.1758497"
       ry="2.2628837" />
    <ellipse
       inkscape:label="div16p"
       style="fill:#ff0000;fill-rule:evenodd;stroke-width:0.264583"
       id="ellipse211"
       cx="55.249874"
       cy="99.497253"
       rx="2.1758497"
       ry="2.2628837" />
    <ellipse
       inkscape:label="reset"
       ry="2.2628837"
       rx="2.1758497"
       cy="27.502737"
       cx="24.996859"
       id="path126"
       style="fill:#ff0000;fill-rule:evenodd;stroke-width:0.264583" />
    <ellipse
       inkscape:label="run"
       style="fill:#ff0000;fill-rule:evenodd;stroke-width:0.264583"
       id="ellipse128"
       cx="35.963142"
       cy="27.502737"
       rx="2.1758497"
       ry="2.2628837" />
    <ellipse
       inkscape:label="reset"
       style="fill:#0000ff;fill-rule:evenodd;stroke-width:0.264583"
       id="ellipse130"
       cx="14.030576"
       cy="27.502737"
       rx="2.1758497"
       ry="2.2628837" />
    <ellipse
       ry="2.2628837"
       rx="2.1758497"
       cy="27.502737"
       cx="46.929424"
       id="ellipse390"
       style="fill:#ff0000;fill-rule:evenodd;stroke-width:0.264583"
       inkscape:label="bpm" />
  </g>
</svg>
