<?xml version="1.0" encoding="UTF-8" standalone="no"?>
<svg
   xmlns:dc="http://purl.org/dc/elements/1.1/"
   xmlns:cc="http://creativecommons.org/ns#"
   xmlns:rdf="http://www.w3.org/1999/02/22-rdf-syntax-ns#"
   xmlns:svg="http://www.w3.org/2000/svg"
   xmlns="http://www.w3.org/2000/svg"
   xmlns:sodipodi="http://sodipodi.sourceforge.net/DTD/sodipodi-0.dtd"
   xmlns:inkscape="http://www.inkscape.org/namespaces/inkscape"
   width="25.4mm"
   height="128.5mm"
   viewBox="0 0 25.4 128.5"
   version="1.1"
   id="svg8"
   inkscape:version="1.0 (4035a4fb49, 2020-05-01)"
   sodipodi:docname="klok.svg">
  <defs
     id="defs2" />
  <sodipodi:namedview
     id="base"
     pagecolor="#ffffff"
     bordercolor="#666666"
     borderopacity="1.0"
     inkscape:pageopacity="0.0"
     inkscape:pageshadow="2"
     inkscape:zoom="2.49"
     inkscape:cx="155.14203"
     inkscape:cy="66.410679"
     inkscape:document-units="mm"
     inkscape:current-layer="layer2"
     inkscape:document-rotation="0"
     showgrid="false"
     inkscape:window-width="1600"
     inkscape:window-height="837"
     inkscape:window-x="-8"
     inkscape:window-y="-8"
     inkscape:window-maximized="1" />
  <metadata
     id="metadata5">
    <rdf:RDF>
      <cc:Work
         rdf:about="">
        <dc:format>image/svg+xml</dc:format>
        <dc:type
           rdf:resource="http://purl.org/dc/dcmitype/StillImage" />
        <dc:title />
      </cc:Work>
    </rdf:RDF>
  </metadata>
  <g
     style="display:inline"
     inkscape:label="Layer 1"
     inkscape:groupmode="layer"
     id="layer1">
    <rect
       style="fill:#000000;fill-rule:evenodd;stroke-width:0.264583"
       id="rect10"
       width="25.478394"
       height="128.12692"
       x="0"
       y="0.24498457" />
    <g
       aria-label="KLOK"
       transform="matrix(0.94421218,0,0,1.059084,-0.6061459,0)"
       id="text14"
       style="font-size:5.71879px;line-height:1.25;font-family:Arial;-inkscape-font-specification:Arial;stroke-width:0.42891">
      <path
         d="m 3.6266472,15.355888 c 0.068626,0.233326 0.1098008,0.466653 0.041175,0.69998 -0.068626,0.178426 -0.082351,0.356852 -0.137251,0.535279 -0.096076,0.288227 -0.1921514,0.576454 -0.2882271,0.850956 -0.013725,0.0549 -0.02745,0.123526 0.0549,0.137251 0.041175,0.01373 0.096076,-0.02745 0.137251,-0.0549 0.02745,-0.02745 0.041175,-0.0549 0.0549,-0.08235 0.3431275,-0.480379 0.6039044,-0.974482 0.7411554,-1.509761 0.041175,-0.123526 0.068625,-0.247052 0.1098008,-0.370578 0.068625,-0.260777 0.2196016,-0.494103 0.4254781,-0.67253 0.0549,-0.04118 0.1098008,-0.09608 0.1647012,-0.150976 -0.041175,-0.02745 -0.068626,-0.0549 -0.096076,-0.06863 C 4.5050536,14.450031 4.3815277,14.148079 4.3403524,13.818677 4.3266273,13.6677 4.3815277,13.6128 4.5874042,13.58535 c 0.02745,-0.01373 0.041175,-0.01373 0.096076,-0.02745 -0.068626,-0.06863 -0.1098008,-0.123526 -0.1647012,-0.178427 -0.0549,-0.0549 -0.1098008,-0.1098 -0.1509761,-0.150976 -0.1235259,-0.109801 -0.068626,-0.233326 -0.013725,-0.343127 0.041175,-0.109801 0.1509761,-0.06863 0.2470518,-0.06863 0.02745,0 0.041175,-0.01372 0.096076,-0.02745 -0.02745,-0.0549 -0.041175,-0.09608 -0.082351,-0.137251 C 4.559954,12.583418 4.5050536,12.542242 4.4501532,12.473617 4.3403524,12.377541 4.285452,12.26774 4.285452,12.130489 c 0.013725,-0.137251 0.1098008,-0.205876 0.274502,-0.205876 0.2333267,0.01372 0.3705777,0.123526 0.4254781,0.329402 0.013725,0.06863 0.02745,0.137251 0.041175,0.205877 l 0.3156773,-0.06863 c 0.013725,0.0549 0.013725,0.123526 0.013725,0.192152 0,0.164701 -0.013725,0.343127 -0.013725,0.521553 0,0.123526 0,0.247052 0.013725,0.384303 0,0.02745 0.0549,0.06863 0.096076,0.09608 0.02745,-0.02745 0.068626,-0.0549 0.096076,-0.09608 0.013725,-0.0549 0.013725,-0.109801 0.02745,-0.164701 0.013725,-0.233327 0.041175,-0.466653 0.068626,-0.69998 0.013725,-0.06863 0.02745,-0.123526 0.0549,-0.219602 0.1098008,0.08235 0.1784263,0.205877 0.2058765,0.343128 0.082351,0.301952 0,0.603904 -0.1098008,0.905856 -0.041175,0.150976 -0.068626,0.301953 -0.082351,0.452929 0,0.219601 0.041175,0.425478 0.0549,0.645079 0.013725,0.123526 0.013725,0.260777 0.02745,0.384303 0,0.0549 0.02745,0.109801 0.1509761,0.09608 0.013725,-0.06863 0.02745,-0.123526 0.02745,-0.178426 0.013725,-0.150977 0,-0.288228 0.02745,-0.425479 0.013725,-0.178426 0.068626,-0.343127 0.2196016,-0.480378 0.1647012,-0.164701 0.2333267,-0.164701 0.411753,-0.01372 0.1647012,0.150976 0.2607769,0.329402 0.3431275,0.507829 0.2333267,0.521553 0.3705777,1.056832 0.4803785,1.605836 0.068626,0.343128 0.068626,0.686255 -0.082351,1.015658 -0.013725,0.04117 -0.013725,0.09607 -0.013725,0.178426 0.082351,-0.04117 0.137251,-0.0549 0.1509761,-0.08235 0.082351,-0.137251 0.1921514,-0.274502 0.2333267,-0.411753 0.1509761,-0.549004 0.2333267,-1.098008 0.1647012,-1.660737 -0.02745,-0.247052 -0.068625,-0.480378 -0.1235259,-0.72743 -0.096076,-0.384303 -0.1098008,-0.768606 0.1921514,-1.111733 0.02745,-0.04117 0.02745,-0.08235 0.041175,-0.164701 -0.1098008,0.02745 -0.1784263,0.04117 -0.2470518,0.06863 -0.082351,0.01372 -0.1647012,0.0549 -0.2470518,0.08235 -0.1921514,0.0549 -0.3431275,0.01372 -0.4666534,-0.123526 -0.1784263,-0.219602 -0.1509761,-0.480379 0.0549,-0.67253 0.0549,-0.0549 0.1509761,-0.08235 0.1098008,-0.164701 -0.013725,0 -0.013725,-0.01373 -0.02745,-0.01373 -0.013725,-0.01372 -0.041175,-0.01372 -0.068625,-0.01372 -0.2333267,-0.01373 -0.3568526,-0.137251 -0.4392032,-0.301953 -0.0549,-0.1098 -0.096076,-0.205876 -0.0549,-0.329402 0.013725,-0.04117 0,-0.08235 0,-0.164701 -0.3980279,0.109801 -0.6999801,0.02745 -0.9058566,-0.274502 0.082351,-0.0549 0.1509761,-0.109801 0.2333267,-0.150976 0.1509761,-0.08235 0.3156773,-0.02745 0.4941036,0.01372 0.02745,-0.247052 0.068626,-0.466654 0.4254781,-0.562729 0.041175,0.219601 0.082351,0.425478 0.1098008,0.631354 0.013725,0.150976 0,0.288227 0,0.425478 0,0.0549 -0.02745,0.137251 0.082351,0.150977 0.096076,0 0.082351,-0.08235 0.096076,-0.137251 0,-0.02745 0,-0.0549 0,-0.08235 0.013725,-0.247052 0.02745,-0.494104 0.0549,-0.741155 0.0549,-0.411753 0.2470518,-0.768606 0.6176295,-1.043108 C 7.9088783,9.8383977 7.9500536,9.7834973 8.004954,9.7560471 7.9500536,9.6187961 7.8265277,9.6187961 7.7167269,9.5913459 7.4284998,9.5501706 7.3598743,9.4815451 7.3735994,9.2482184 c 0,-0.1235259 0.02745,-0.2470518 0.068626,-0.3568526 C 7.5794759,8.5619634 7.7853524,8.2737363 8.0461293,8.0404096 8.2382807,7.8757084 8.4441572,7.7247323 8.6363086,7.5600311 c 0.041175,-0.02745 0.096076,-0.0549 0.1235259,-0.096076 0.013725,-0.013725 0.013725,-0.068625 0,-0.082351 -0.013725,-0.013725 -0.068625,-0.02745 -0.096076,-0.02745 -0.02745,0.013725 -0.0549,0.02745 -0.082351,0.041175 C 8.1010297,7.6286566 7.6618265,7.9031586 7.3324241,8.2874614 7.1402727,8.507063 6.9618464,8.7403897 6.7834201,8.9737164 6.5775436,9.2482184 6.3991173,9.5638957 5.946189,9.6462463 c 0.013725,0.068625 0.02745,0.137251 0.013725,0.1921514 -0.013725,0.1235259 -0.013725,0.2607773 -0.0549,0.3705773 -0.096076,0.301953 -0.3019521,0.398028 -0.6588047,0.329403 -0.041175,0 -0.096076,-0.01372 -0.1509761,-0.01372 -0.02745,0.0549 -0.041175,0.123526 -0.0549,0.178426 -0.0549,0.164701 -0.1647012,0.301952 -0.3294024,0.411753 -0.1235259,0.09608 -0.2058765,0.09608 -0.3019522,0.04118 -0.1098008,-0.08235 -0.096076,-0.164701 -0.041175,-0.260777 0.02745,-0.06862 0.082351,-0.137251 0.1235259,-0.219601 C 4.1893763,10.456027 4.2031014,10.208975 4.3678026,9.9481985 4.4638783,9.7834973 4.6148544,9.6599714 4.7795556,9.5776208 4.834456,9.5501706 4.8893564,9.5227204 4.9579819,9.46782 4.8893564,9.4266447 4.8481811,9.3991945 4.8070058,9.3854694 4.2991771,9.1658678 3.9148743,8.644314 3.9285994,8.1639355 c 0,-0.137251 0.013725,-0.274502 0.041175,-0.4254781 C 4.01095,7.546306 4.0658504,7.3404296 4.1207508,7.1345531 4.148201,7.0247523 4.1070257,6.9561268 4.0384002,6.9424017 c -0.096076,0 -0.096076,0.082351 -0.1235259,0.137251 -0.013725,0.02745 -0.02745,0.0549 -0.041175,0.096076 C 3.7776233,7.39533 3.7089978,7.6286566 3.5717468,7.8345331 3.324695,8.232561 3.2560695,8.644314 3.3658703,9.0835172 c 0.041175,0.1647012 0.041175,0.3156773 -0.0549,0.4666534 -0.096076,0.137251 -0.1921514,0.274502 -0.3019522,0.411753 0.013725,0.013725 0.02745,0.02745 0.041175,0.041175 0.1921514,0.164701 0.1921514,0.329402 0,0.466653 -0.0549,0.04118 -0.137251,0.06863 -0.2058765,0.09608 -0.0549,0.02745 -0.1235259,0.06863 -0.1509761,0.109801 -0.013725,0.02745 0.0549,0.09607 0.096076,0.109801 0.2058765,0.1098 0.2607769,0.260776 0.1921514,0.439203 -0.02745,0.109801 -0.068626,0.205876 -0.1235259,0.329402 0.1921514,0.150976 0.2196016,0.356853 0.2058765,0.576454 -0.041175,0.288227 -0.1098008,0.562729 -0.2607769,0.823506 -0.041175,0.0549 -0.068626,0.109801 -0.096076,0.178427 -0.041175,0.1098 -0.02745,0.137251 0.1235259,0.150976 0.1235259,0.01372 0.1784263,0.06863 0.2058765,0.164701 0.1784263,0.452928 0.1647012,0.892131 -0.0549,1.331335 -0.041175,0.09607 -0.082351,0.178426 -0.1235259,0.274502 -0.096076,0.192151 0,0.398027 0.041175,0.590179 0,0.01373 0.0549,0.0549 0.082351,0.04118 0.041175,0 0.068626,-0.02745 0.082351,-0.0549 0.013725,-0.0549 0,-0.109801 0,-0.164702 0.041175,-0.178426 0.137251,-0.315677 0.3980279,-0.384302 0.0549,0.09607 0.137251,0.178426 0.1647012,0.274502 z"
         style="font-style:normal;font-variant:normal;font-weight:normal;font-stretch:normal;font-size:13.7251px;font-family:'Crucial Noise';-inkscape-font-specification:'Crucial Noise';fill:#ffffff;stroke-width:0.42891"
         id="path16" />
      <path
         d="m 9.4362243,17.304852 c -0.0549,-0.247052 -0.096076,-0.494104 -0.1647012,-0.72743 -0.0549,-0.288228 0,-0.56273 0.1509761,-0.809781 0.068625,-0.109801 0.1647012,-0.205877 0.274502,-0.274502 0.2196016,-0.150976 0.5215538,-0.109801 0.6862548,0.09608 0.123526,0.123526 0.178426,0.301953 0.178426,0.466654 0,0.06863 0.01373,0.137251 0.02745,0.219601 0.150976,-0.04118 0.1098,-0.123526 0.123526,-0.178426 0.04117,-0.178426 0.06862,-0.343127 0.137251,-0.507829 0.08235,-0.205876 0.247051,-0.247051 0.452928,-0.123526 0.08235,0.0549 0.164701,0.109801 0.233327,0.178427 0.343127,0.370577 0.384302,0.768605 0.178426,1.180358 -0.09608,0.178427 -0.247052,0.343128 -0.384303,0.521554 -0.04117,0.0549 -0.137251,0.109801 -0.09608,0.219602 0.219602,-0.06863 0.370578,-0.205877 0.521554,-0.329403 0.439203,-0.398028 0.69998,-0.850956 0.549004,-1.413685 -0.0549,-0.247052 0.02745,-0.452928 0.219602,-0.64508 0.0549,-0.0549 0.1098,-0.09607 0.192151,-0.178426 -0.384303,-0.02745 -0.452928,-0.247052 -0.466653,-0.466653 -0.01372,-0.178427 0.01373,-0.370578 0.06863,-0.562729 0.08235,-0.288227 0.247052,-0.549004 0.466654,-0.782331 0.06862,-0.08235 0.178426,-0.150976 0.137251,-0.260777 -0.150977,-0.02745 -0.150977,-0.02745 -0.219602,0.02745 -0.109801,0.08235 -0.219602,0.164701 -0.288227,0.260777 -0.247052,0.301952 -0.480379,0.603905 -0.69998,0.905857 -0.109801,0.150976 -0.219602,0.288227 -0.411753,0.370577 -0.192152,0.08235 -0.398028,0 -0.425478,-0.178426 -0.01372,-0.08235 0,-0.150976 0,-0.233327 0,-0.02745 0,-0.06863 0,-0.137251 -0.0549,0.04118 -0.09608,0.0549 -0.109801,0.08235 -0.06863,0.08235 -0.123526,0.178426 -0.205877,0.247052 -0.0549,0.0549 -0.137251,0.109801 -0.205876,0.123526 -0.233327,0.04118 -0.4941036,-0.06863 -0.5901793,-0.247052 -0.068625,-0.09608 -0.082351,-0.192151 0,-0.301952 0.1098008,-0.137251 0.1921514,-0.301952 0.4117533,-0.356853 0.02745,-0.01372 0.0549,-0.06863 0.0549,-0.09608 0,-0.02745 -0.0549,-0.0549 -0.08235,-0.06863 -0.04118,0 -0.08235,-0.01372 -0.123525,-0.01372 -0.1098012,0 -0.1647016,-0.0549 -0.2058769,-0.178426 0.013725,-0.01373 0.068625,-0.02745 0.096076,-0.04118 0.1509759,-0.164701 0.3019519,-0.315677 0.4529279,-0.480378 0.0549,-0.0549 0.0549,-0.109801 -0.0549,-0.137251 -0.04118,0.01372 -0.08235,0.0549 -0.123526,0.06862 -0.2058764,0.123526 -0.3843027,0.137251 -0.562729,0.02745 -0.1921514,-0.123525 -0.2196016,-0.233326 -0.1509761,-0.439203 0.02745,-0.0549 0.041175,-0.1098 0.082351,-0.205876 -0.096076,0.01372 -0.1509761,0.01372 -0.1784263,0.04117 -0.096076,0.04118 -0.1784263,0.0549 -0.2196016,-0.04117 -0.0549,-0.09608 0.02745,-0.123526 0.1235259,-0.164701 0.1921514,-0.06863 0.3980279,-0.09608 0.6176295,-0.0549 0.068626,0 0.1647016,0.04118 0.2196016,-0.0549 -0.01373,-0.02745 -0.02745,-0.04118 -0.04118,-0.06863 -0.1784266,-0.219601 -0.1509764,-0.356852 0.09608,-0.535279 0.09608,-0.0549 0.192151,-0.1098 0.315677,-0.192151 -0.164701,-0.137251 -0.09608,-0.274502 -0.01373,-0.411753 0.08235,-0.137251 0.178426,-0.274502 0.301952,-0.384303 0.123526,-0.1098005 0.274502,-0.178426 0.425478,-0.2745017 0,-0.02745 -0.01372,-0.0549 -0.02745,-0.082351 -0.123526,-0.2058765 -0.164701,-0.411753 -0.164701,-0.6313546 0,-0.6176295 -0.205877,-1.1803586 -0.686255,-1.660737 C 10.25973,7.3404296 10.20483,7.258079 10.122479,7.1757284 9.9852283,7.0384774 9.8342522,6.9012264 9.669551,6.7502503 9.6283757,6.7228001 9.5734753,6.6816248 9.5048498,6.7639754 9.6009255,6.8737762 9.7107263,6.9973021 9.7930769,7.120828 10.122479,7.5600311 10.28718,8.0266845 10.25973,8.5345132 c 0,0.1921514 -0.06862,0.3705777 -0.150976,0.549004 -0.06862,0.1509761 -0.2470516,0.1509761 -0.3705775,0.02745 C 9.6283757,9.0011666 9.5872004,8.8639156 9.6146506,8.7129395 c 0.013725,-0.068625 0.068626,-0.137251 -0.013725,-0.1921514 -0.013725,-0.013725 -0.041175,-0.013725 -0.0549,0 -0.02745,0.013725 -0.0549,0.02745 -0.068625,0.041175 -0.1235259,0.2333267 -0.2333267,0.4529283 -0.1647012,0.6999801 0.02745,0.082351 0.041175,0.1784263 0.0549,0.2607769 0.0549,0.3980279 -0.041175,0.7548809 -0.4254781,1.0293829 -0.137251,0.09608 -0.2470518,0.205876 -0.4392032,0.247052 -0.041175,0.01372 -0.068626,0.04117 -0.082351,0.08235 0,0.01372 0.041175,0.0549 0.068625,0.06863 0.0549,0.02745 0.1098008,0.0549 0.1784263,0.06862 -0.068625,0.164701 -0.082351,0.205877 -0.1784263,0.233327 -0.2333267,0.08235 -0.4666534,0.137251 -0.7137051,0.04117 -0.068625,-0.02745 -0.137251,-0.0549 -0.1921514,0 -0.068625,0.06863 -0.0549,0.123526 -0.013725,0.192152 0.068625,0.09608 0.137251,0.178426 0.2058765,0.274502 0.150976,0.205876 0.2607768,0.425478 0.0549,0.658804 0,0.01373 0,0.02745 0.013725,0.08235 0.274502,0.01372 0.4529283,0.164701 0.6176295,0.343127 0.1509761,0.164702 0.3019522,0.343128 0.2470518,0.576455 l -0.2470518,0.08235 c 0.0549,0.0549 0.096076,0.09608 0.1235259,0.137251 0.041175,0.04118 0.096076,0.09608 0.1235259,0.150976 0.041175,0.192152 0,0.384303 -0.068625,0.576455 -0.068625,0.137251 -0.1921514,0.205876 -0.3568526,0.260776 -0.013725,0 -0.02745,0.01373 -0.041175,0.01373 -0.02745,0.02745 -0.068626,0.06863 -0.0549,0.08235 0.013725,0.04118 0.0549,0.06863 0.082351,0.08235 0.2333267,0.02745 0.3156773,0.164701 0.3431275,0.329402 0.02745,0.150976 0.041175,0.301952 0.041175,0.452928 0,0.343128 0,0.67253 0.2058765,0.988208 0.082351,0.1098 0.137251,0.233326 0.1921514,0.343127 0.096076,0.205877 0.2333267,0.384303 0.3980279,0.535279 0,-0.0549 0,-0.09608 -0.013725,-0.150976 z"
         style="font-style:normal;font-variant:normal;font-weight:normal;font-stretch:normal;font-size:13.7251px;font-family:'Crucial Noise';-inkscape-font-specification:'Crucial Noise';fill:#ffffff;stroke-width:0.42891"
         id="path18" />
      <path
         d="m 14.356887,14.875509 c 0,0.123526 0,0.247052 0,0.356853 0.01372,0.150976 0.02745,0.288227 0.0549,0.425478 0.01372,0.09608 0.08235,0.150976 0.192152,0.150976 0.1098,0 0.09607,-0.08235 0.1098,-0.150976 0.02745,-0.137251 0.0549,-0.288227 0.08235,-0.439203 0.02745,-0.109801 0.150976,-0.178427 0.288227,-0.137251 0.233327,0.0549 0.411753,0.178426 0.494104,0.384302 0.04117,0.09608 0.08235,0.205877 0.09607,0.329403 0.0549,0.466653 0.09608,0.947032 0.150976,1.42741 0,0.0549 0.01373,0.09608 0.02745,0.150976 0,0.02745 0.04117,0.04118 0.06862,0.04118 0.02745,0 0.0549,-0.01373 0.08235,-0.04118 0.01373,-0.04118 0.01373,-0.08235 0.02745,-0.137251 0.01373,-0.164701 0.02745,-0.343127 0.04118,-0.521553 0.02745,-0.329403 0.150976,-0.631355 0.425478,-0.878407 0.178427,-0.164701 0.315678,-0.192151 0.562729,-0.109801 0.06863,0.02745 0.123526,0.04118 0.233327,0.06863 -0.04117,-0.315677 0.09608,-0.507829 0.398028,-0.64508 0.233327,0.109801 0.329402,0.301952 0.370578,0.494104 0.0549,0.247052 0.08235,0.494103 0.1098,0.75488 0.01373,0.09608 0.02745,0.192152 0.04118,0.288227 l 0.0549,0.01373 c 0.01372,-0.06863 0.04117,-0.150976 0.04117,-0.219601 0.01373,-0.356853 0.04118,-0.69998 0.04118,-1.056833 -0.01373,-0.466653 0.01373,-0.933307 0.288227,-1.358785 0.192151,-0.274502 0.370578,-0.549004 0.768605,-0.658804 0.02745,-0.01373 0.04118,-0.04118 0.06863,-0.06863 -0.219602,-0.205876 -0.260777,-0.466653 -0.329403,-0.713705 -0.0549,-0.219602 0.02745,-0.329403 0.288228,-0.425478 0.02745,-0.01373 0.04117,-0.02745 0.08235,-0.06863 -0.137251,-0.123526 -0.219601,-0.260777 -0.219601,-0.425478 0,-0.192151 0.219601,-0.260777 0.288227,-0.411753 -0.04118,-0.04117 -0.06863,-0.06862 -0.109801,-0.09607 -0.205877,-0.150977 -0.343128,-0.356853 -0.466653,-0.56273 -0.02745,-0.04118 -0.0549,-0.09608 -0.0549,-0.150976 -0.02745,-0.178426 0.123526,-0.288227 0.343128,-0.260777 0.137251,0.02745 0.274502,0.08235 0.466653,0.02745 -0.04118,-0.0549 -0.06863,-0.123526 -0.123526,-0.164702 C 19.5587,10.030554 19.462624,9.9756537 19.366548,9.9207533 18.99597,9.7148718 18.872445,9.46782 18.96852,9.1109674 19.050871,8.8227403 19.105771,8.5345132 19.050871,8.232561 18.99597,7.9031586 18.817544,7.6012064 18.570492,7.3404296 c -0.06863,-0.068626 -0.164701,-0.137251 -0.315677,-0.068626 0.02745,0.0549 0.04117,0.096076 0.06863,0.1509761 0.219601,0.3019521 0.219601,0.6039043 0.06863,0.9195816 -0.09608,0.1784263 -0.301952,0.2882271 -0.521554,0.274502 C 17.637186,8.6031387 17.527385,8.507063 17.499935,8.3286367 17.458759,8.09531 17.458759,8.09531 17.184257,8.1364853 c -0.04117,0.013725 -0.08235,0.02745 -0.123526,0.02745 -0.480378,0.041175 -0.919581,-0.041175 -1.262709,-0.3431275 -0.370577,-0.3156773 -0.67253,-0.6725298 -0.768605,-1.1254581 -0.01373,-0.068626 -0.02745,-0.137251 -0.137251,-0.1235259 -0.109801,0.013725 -0.109801,0.082351 -0.109801,0.1509761 0.01372,0.096076 0.01372,0.1921514 0.0549,0.2882271 0.09608,0.2882271 0.219602,0.562729 0.329403,0.8509561 0.0549,0.1235259 0.1098,0.2470518 0.123526,0.3705777 0.0549,0.4529283 -0.425479,0.8646813 -0.864682,0.9195817 -0.178426,0.02745 -0.370577,0.041175 -0.549004,0.0549 -0.09607,0.013725 -0.178426,0.013725 -0.247052,0.02745 0.01373,0.1509761 0.04118,0.274502 0.02745,0.3980279 -0.01373,0.2058765 -0.0549,0.3980276 -0.109801,0.5901786 -0.08235,0.301953 -0.247052,0.576455 -0.590179,0.754881 -0.178427,0.09608 -0.356853,0.219602 -0.521554,0.329402 -0.02745,0.01372 -0.0549,0.04118 -0.06863,0.06863 0.123526,0.0549 0.123526,0.0549 0.219602,0.04117 0.164701,-0.01372 0.329402,-0.04117 0.494103,-0.04117 0.274502,0.01372 0.521554,0.164701 0.59018,0.356852 0.06863,0.192152 -0.01372,0.411753 -0.233327,0.562729 -0.09608,0.0549 -0.219602,0.09608 -0.329402,0.123526 -0.09608,0.04118 -0.219602,0.0549 -0.329403,0.08235 -0.04117,0.01372 -0.08235,0.0549 -0.164701,0.109801 0.09608,0.02745 0.150976,0.04118 0.219602,0.04118 0.205876,0.02745 0.315677,0.123526 0.315677,0.301952 0,0.06863 0,0.137251 -0.01372,0.219602 0,0.178426 0,0.192151 0.205876,0.260777 0.452929,0.150976 0.686255,0.480378 0.631355,0.878406 0,0.04117 0,0.06863 0,0.109801 0.288227,0.0549 0.398028,0.219602 0.384303,0.452928 z m 2.511693,-0.686255 c 0.04117,0.0549 0.08235,0.109801 0.09608,0.178427 0.0549,0.178426 -0.06863,0.301952 -0.288227,0.260776 -0.356853,-0.06862 -0.631355,-0.219601 -0.741156,-0.535278 -0.01373,-0.02745 -0.01373,-0.0549 -0.02745,-0.08235 -0.0549,-0.192151 -0.0549,-0.192151 -0.301952,-0.178426 -0.08235,0.01372 -0.178426,0 -0.233327,-0.02745 -0.384303,-0.205876 -0.741155,-0.425478 -0.905856,-0.796055 -0.02745,-0.0549 -0.04118,-0.109801 -0.0549,-0.164702 -0.0549,-0.219601 0.0549,-0.398027 0.301952,-0.480378 0.150976,-0.04117 0.315678,-0.06863 0.507829,-0.109801 -0.08235,-0.06863 -0.137251,-0.109801 -0.192151,-0.150976 -0.178427,-0.123526 -0.315678,-0.274502 -0.384303,-0.466653 -0.09608,-0.288227 0.06863,-0.521554 0.411753,-0.59018 0.09608,-0.01372 0.178426,-0.04117 0.288227,-0.0549 -0.06863,-0.0549 -0.123526,-0.09608 -0.178426,-0.137251 -0.164702,-0.137251 -0.288227,-0.288227 -0.315678,-0.494104 -0.02745,-0.137251 0.01373,-0.192151 0.178427,-0.233326 0.06862,-0.01373 0.123526,-0.02745 0.192151,-0.04118 0.0549,0 0.109801,0 0.192151,-0.01373 -0.02745,-0.04117 -0.04118,-0.096075 -0.0549,-0.1372506 -0.01373,-0.068625 -0.02745,-0.137251 -0.02745,-0.1921514 0.02745,-0.096076 0.150976,-0.137251 0.219601,-0.0549 0.06863,0.068625 0.109801,0.137251 0.123526,0.2333267 0.06863,0.2333263 0.109801,0.4529283 0.150976,0.6862543 0.01373,0.04118 0.04118,0.08235 0.0549,0.109801 0.137251,-0.04117 0.08235,-0.123526 0.08235,-0.192151 0,-0.274502 0,-0.5490039 0,-0.8235059 0,-0.096076 0.02745,-0.1784263 0.04118,-0.2607769 0.04117,-0.1509761 0.164701,-0.2470518 0.315677,-0.3294024 0.178426,-0.082351 0.274502,-0.068625 0.439203,0.041175 0.09608,0.068625 0.192152,0.137251 0.274502,0.2196016 0.08235,0.1098008 0.04118,0.1784263 -0.09608,0.2196016 -0.09607,0.041175 -0.192151,0.068625 -0.343127,0.1098008 0.123526,0.068625 0.192151,0.1098008 0.274502,0.1509761 0.192151,0.068625 0.384303,0.137251 0.590179,0.1784261 0.260777,0.06863 0.356853,0.219602 0.384303,0.425478 0.01373,0.219602 -0.06863,0.411753 -0.233327,0.576454 -0.04117,0.04118 -0.123526,0.06863 -0.178426,0.09608 -0.04117,0.01372 -0.08235,0.04117 -0.123526,0.0549 0.02745,0.09608 0.123526,0.08235 0.192152,0.109801 0.123525,0.02745 0.247051,0.0549 0.356852,0.109801 0.233327,0.09608 0.356853,0.370578 0.01373,0.549004 -0.04118,0.01372 -0.08235,0.04117 -0.109801,0.06863 0.219602,0.370577 0.164702,0.507828 -0.233326,0.768605 -0.06863,0.04118 -0.123526,0.09608 -0.178427,0.137251 l 0.01373,0.04117 c 0.06862,0 0.150976,0.01373 0.219601,0.01373 0.260777,0.02745 0.384303,0.150977 0.343128,0.356853 -0.109801,0.535279 -0.576455,0.754881 -1.125459,0.590179 -0.06863,-0.01373 -0.123525,-0.04118 -0.205876,-0.0549 0.109801,0.123526 0.192151,0.205876 0.274502,0.315677 z"
         style="font-style:normal;font-variant:normal;font-weight:normal;font-stretch:normal;font-size:13.7251px;font-family:'Crucial Noise';-inkscape-font-specification:'Crucial Noise';fill:#ffffff;stroke-width:0.42891"
         id="path20" />
      <path
         d="m 20.354112,15.355888 c 0.06863,0.233326 0.109801,0.466653 0.04117,0.69998 -0.06863,0.178426 -0.08235,0.356852 -0.137251,0.535279 -0.09608,0.288227 -0.192151,0.576454 -0.288227,0.850956 -0.01373,0.0549 -0.02745,0.123526 0.0549,0.137251 0.04118,0.01373 0.09608,-0.02745 0.13725,-0.0549 0.02745,-0.02745 0.04118,-0.0549 0.0549,-0.08235 0.343127,-0.480379 0.603904,-0.974482 0.741155,-1.509761 0.04118,-0.123526 0.06863,-0.247052 0.109801,-0.370578 0.06863,-0.260777 0.219602,-0.494103 0.425478,-0.67253 0.0549,-0.04118 0.109801,-0.09608 0.164701,-0.150976 -0.04117,-0.02745 -0.06863,-0.0549 -0.09607,-0.06863 -0.329403,-0.219602 -0.452929,-0.521554 -0.494104,-0.850956 -0.01373,-0.150977 0.04117,-0.205877 0.247052,-0.233327 0.02745,-0.01373 0.04117,-0.01373 0.09608,-0.02745 -0.06863,-0.06863 -0.109801,-0.123526 -0.164702,-0.178427 -0.0549,-0.0549 -0.1098,-0.1098 -0.150976,-0.150976 -0.123526,-0.109801 -0.06863,-0.233326 -0.01373,-0.343127 0.04118,-0.109801 0.150976,-0.06863 0.247052,-0.06863 0.02745,0 0.04118,-0.01372 0.09608,-0.02745 -0.02745,-0.0549 -0.04118,-0.09608 -0.08235,-0.137251 -0.0549,-0.06863 -0.109801,-0.109801 -0.164701,-0.178426 -0.109801,-0.09608 -0.164701,-0.205877 -0.164701,-0.343128 0.01372,-0.137251 0.1098,-0.205876 0.274502,-0.205876 0.233326,0.01372 0.370577,0.123526 0.425478,0.329402 0.01372,0.06863 0.02745,0.137251 0.04117,0.205877 l 0.315677,-0.06863 c 0.01372,0.0549 0.01372,0.123526 0.01372,0.192152 0,0.164701 -0.01372,0.343127 -0.01372,0.521553 0,0.123526 0,0.247052 0.01372,0.384303 0,0.02745 0.0549,0.06863 0.09608,0.09608 0.02745,-0.02745 0.06863,-0.0549 0.09608,-0.09608 0.01373,-0.0549 0.01373,-0.109801 0.02745,-0.164701 0.01373,-0.233327 0.04117,-0.466653 0.06863,-0.69998 0.01373,-0.06863 0.02745,-0.123526 0.0549,-0.219602 0.109801,0.08235 0.178426,0.205877 0.205876,0.343128 0.08235,0.301952 0,0.603904 -0.1098,0.905856 -0.04118,0.150976 -0.06863,0.301953 -0.08235,0.452929 0,0.219601 0.04117,0.425478 0.0549,0.645079 0.01373,0.123526 0.01373,0.260777 0.02745,0.384303 0,0.0549 0.02745,0.109801 0.150976,0.09608 0.01373,-0.06863 0.02745,-0.123526 0.02745,-0.178426 0.01373,-0.150977 0,-0.288228 0.02745,-0.425479 0.01373,-0.178426 0.06863,-0.343127 0.219602,-0.480378 0.164701,-0.164701 0.233326,-0.164701 0.411753,-0.01372 0.164701,0.150976 0.260777,0.329402 0.343127,0.507829 0.233327,0.521553 0.370578,1.056832 0.480379,1.605836 0.06863,0.343128 0.06863,0.686255 -0.08235,1.015658 -0.01373,0.04117 -0.01373,0.09607 -0.01373,0.178426 0.08235,-0.04117 0.137251,-0.0549 0.150976,-0.08235 0.08235,-0.137251 0.192151,-0.274502 0.233327,-0.411753 0.150976,-0.549004 0.233326,-1.098008 0.164701,-1.660737 -0.02745,-0.247052 -0.06863,-0.480378 -0.123526,-0.72743 -0.09608,-0.384303 -0.109801,-0.768606 0.192151,-1.111733 0.02745,-0.04117 0.02745,-0.08235 0.04118,-0.164701 -0.109801,0.02745 -0.178427,0.04117 -0.247052,0.06863 -0.08235,0.01372 -0.164701,0.0549 -0.247052,0.08235 -0.192151,0.0549 -0.343127,0.01372 -0.466653,-0.123526 -0.178427,-0.219602 -0.150976,-0.480379 0.0549,-0.67253 0.0549,-0.0549 0.150976,-0.08235 0.109801,-0.164701 -0.01373,0 -0.01373,-0.01373 -0.02745,-0.01373 -0.01373,-0.01372 -0.04118,-0.01372 -0.06863,-0.01372 -0.233326,-0.01373 -0.356852,-0.137251 -0.439203,-0.301953 -0.0549,-0.1098 -0.09608,-0.205876 -0.0549,-0.329402 0.01373,-0.04117 0,-0.08235 0,-0.164701 -0.398028,0.109801 -0.69998,0.02745 -0.905857,-0.274502 0.08235,-0.0549 0.150976,-0.109801 0.233327,-0.150976 0.150976,-0.08235 0.315677,-0.02745 0.494103,0.01372 0.02745,-0.247052 0.06863,-0.466654 0.425478,-0.562729 0.04118,0.219601 0.08235,0.425478 0.109801,0.631354 0.01372,0.150976 0,0.288227 0,0.425478 0,0.0549 -0.02745,0.137251 0.08235,0.150977 0.09608,0 0.08235,-0.08235 0.09608,-0.137251 0,-0.02745 0,-0.0549 0,-0.08235 0.01372,-0.247052 0.02745,-0.494104 0.0549,-0.741155 0.0549,-0.411753 0.247052,-0.768606 0.617629,-1.043108 0.06863,-0.041175 0.109801,-0.096076 0.164702,-0.1235259 -0.0549,-0.137251 -0.178427,-0.137251 -0.288227,-0.1647012 -0.288228,-0.041175 -0.356853,-0.1098008 -0.343128,-0.3431275 0,-0.1235259 0.02745,-0.2470518 0.06863,-0.3568526 0.137251,-0.3294024 0.343127,-0.6176295 0.603904,-0.8509562 0.192151,-0.1647012 0.398028,-0.3156773 0.590179,-0.4803785 0.04118,-0.02745 0.09608,-0.0549 0.123526,-0.096076 0.01373,-0.013725 0.01373,-0.068625 0,-0.082351 -0.01373,-0.013725 -0.06863,-0.02745 -0.09608,-0.02745 -0.02745,0.013725 -0.0549,0.02745 -0.08235,0.041175 -0.480379,0.2333266 -0.919582,0.5078286 -1.248984,0.8921314 -0.192152,0.2196016 -0.370578,0.4529283 -0.549004,0.686255 -0.205877,0.274502 -0.384303,0.5901793 -0.837231,0.6725299 0.01373,0.068625 0.02745,0.137251 0.01373,0.1921514 -0.01373,0.1235259 -0.01373,0.2607772 -0.0549,0.3705772 -0.09607,0.301953 -0.301952,0.398028 -0.658804,0.329403 -0.04118,0 -0.09608,-0.01372 -0.150976,-0.01372 -0.02745,0.0549 -0.04118,0.123526 -0.0549,0.178426 -0.0549,0.164701 -0.164701,0.301952 -0.329402,0.411753 -0.123526,0.09608 -0.205877,0.09608 -0.301952,0.04118 -0.109801,-0.08235 -0.09608,-0.164701 -0.04118,-0.260777 0.02745,-0.06862 0.08235,-0.137251 0.123526,-0.219601 -0.301952,-0.219602 -0.288227,-0.466654 -0.123526,-0.7274304 0.09608,-0.1647012 0.247052,-0.2882271 0.411753,-0.3705777 0.0549,-0.02745 0.109801,-0.0549 0.178427,-0.1098008 -0.06863,-0.041175 -0.109801,-0.068625 -0.150977,-0.082351 -0.507828,-0.2196016 -0.892131,-0.7411554 -0.878406,-1.2215339 0,-0.137251 0.01373,-0.274502 0.04117,-0.4254781 0.04118,-0.1921514 0.09608,-0.3980278 0.150976,-0.6039043 0.02745,-0.1098008 -0.01373,-0.1784263 -0.08235,-0.1921514 -0.09608,0 -0.09608,0.082351 -0.123526,0.137251 -0.01373,0.02745 -0.02745,0.0549 -0.04117,0.096076 -0.09608,0.2196016 -0.164702,0.4529282 -0.301953,0.6588047 -0.247051,0.3980279 -0.315677,0.8097809 -0.205876,1.2489841 0.04117,0.1647012 0.04117,0.3156773 -0.0549,0.4666534 -0.09608,0.137251 -0.192152,0.274502 -0.301953,0.411753 0.01373,0.013725 0.02745,0.02745 0.04118,0.041175 0.192151,0.164701 0.192151,0.329402 0,0.466653 -0.0549,0.04118 -0.137251,0.06863 -0.205877,0.09608 -0.0549,0.02745 -0.123526,0.06863 -0.150976,0.109801 -0.01373,0.02745 0.0549,0.09607 0.09608,0.109801 0.205876,0.1098 0.260777,0.260776 0.192151,0.439203 -0.02745,0.109801 -0.06863,0.205876 -0.123526,0.329402 0.192152,0.150976 0.219602,0.356853 0.205877,0.576454 -0.04117,0.288227 -0.109801,0.562729 -0.260777,0.823506 -0.04117,0.0549 -0.06863,0.109801 -0.09608,0.178427 -0.04117,0.1098 -0.02745,0.137251 0.123526,0.150976 0.123526,0.01372 0.178426,0.06863 0.205877,0.164701 0.178426,0.452928 0.164701,0.892131 -0.0549,1.331335 -0.04117,0.09607 -0.08235,0.178426 -0.123526,0.274502 -0.09607,0.192151 0,0.398027 0.04118,0.590179 0,0.01373 0.0549,0.0549 0.08235,0.04118 0.04118,0 0.06863,-0.02745 0.08235,-0.0549 0.01373,-0.0549 0,-0.109801 0,-0.164702 0.04117,-0.178426 0.137251,-0.315677 0.398028,-0.384302 0.0549,0.09607 0.137251,0.178426 0.164701,0.274502 z"
         style="font-style:normal;font-variant:normal;font-weight:normal;font-stretch:normal;font-size:13.7251px;font-family:'Crucial Noise';-inkscape-font-specification:'Crucial Noise';fill:#ffffff;stroke-width:0.42891"
         id="path22" />
    </g>
    <g
       style="fill:#ffffff"
       transform="matrix(0.00903666,0,0,0.00725914,10.827847,120.84512)"
       id="g40">
      <path
         id="path54"
         d="m 436.00195,399.08312 c 0,-51.68451 0.16814,-72.82817 0.37365,-46.98591 0.20551,25.84225 0.20551,68.12957 0,93.97183 -0.20551,25.84225 -0.37365,4.69859 -0.37365,-46.98592 z m -350.289433,26.70423 -2.575761,-3.04226 3.042253,2.57576 c 2.858962,2.42058 3.65779,3.50875 2.575762,3.50875 -0.256577,0 -1.625591,-1.36901 -3.042254,-3.04225 z m 116.913733,0.67605 c -1.68185,-2.14453 -1.63403,-2.19235 0.5105,-0.5105 1.30141,1.02064 2.3662,2.08543 2.3662,2.3662 0,1.11284 -1.11034,0.39658 -2.8767,-1.8557 z M 8.0945055,422.74509 c 1.7465915,-1.85915 3.4798375,-3.38028 3.8516685,-3.38028 0.371831,0 -0.752964,1.52113 -2.4995559,3.38028 -1.7465915,1.85916 -3.4798376,3.38028 -3.8516686,3.38028 -0.371831,0 0.7529645,-1.52112 2.499556,-3.38028 z m 183.7148445,-8.4507 c -1.68186,-2.14453 -1.63403,-2.19236 0.5105,-0.5105 1.30141,1.02064 2.3662,2.08543 2.3662,2.36619 0,1.11285 -1.11034,0.39659 -2.8767,-1.85569 z m -127.730635,-8.78873 -2.575761,-3.04226 3.042254,2.57576 c 2.858961,2.42058 3.657789,3.50875 2.575761,3.50875 -0.256577,0 -1.625591,-1.36901 -3.042254,-3.04225 z m -149.279981,-0.17248 c 0,-0.28077 1.064789,-1.34555 2.366198,-2.3662 2.144526,-1.68185 2.19235,-1.63402 0.510496,0.51051 -1.766358,2.25228 -2.876694,2.96853 -2.876694,1.85569 z M 29.728307,402.4634 c 1.746592,-1.85915 3.479838,-3.38028 3.851669,-3.38028 0.371831,0 -0.752964,1.52113 -2.499556,3.38028 -1.746591,1.85916 -3.479838,3.38028 -3.851669,3.38028 -0.37183,0 0.752965,-1.52112 2.499556,-3.38028 z m -4.158679,-11.15493 -3.27794,-3.71831 3.71831,3.27794 c 3.475321,3.06374 4.338375,4.15868 3.27794,4.15868 -0.242191,0 -1.91543,-1.67324 -3.71831,-3.71831 z m 42.693889,-3.04225 c 1.346015,-1.48732 2.751522,-2.70423 3.123353,-2.70423 0.371831,0 -0.425226,1.21691 -1.77124,2.70423 -1.346015,1.48732 -2.751522,2.70422 -3.123353,2.70422 -0.371831,0 0.425226,-1.2169 1.77124,-2.70422 z m 122.366193,-9.97529 c 0,-0.28077 1.06479,-1.34556 2.3662,-2.3662 2.14453,-1.68185 2.19235,-1.63403 0.5105,0.5105 -1.76636,2.25229 -2.8767,2.96854 -2.8767,1.8557 z m -187.3960629,-7.9402 -2.57576105,-3.04226 3.04225335,2.57576 c 1.6732394,1.41667 3.0422535,2.78568 3.0422535,3.04226 0,1.08203 -1.0881668,0.2832 -3.5087458,-2.57576 z m 86.6636719,-2.3662 c 1.346015,-1.48732 2.751522,-2.70423 3.123353,-2.70423 0.371831,0 -0.425226,1.21691 -1.77124,2.70423 -1.346015,1.48732 -2.751522,2.70422 -3.123353,2.70422 -0.371831,0 0.425226,-1.2169 1.77124,-2.70422 z m 111.549291,-1.86262 c 0,-0.28076 1.06479,-1.34555 2.3662,-2.36619 2.14453,-1.68186 2.19235,-1.63403 0.5105,0.5105 -1.76636,2.25228 -2.8767,2.96854 -2.8767,1.85569 z"
         style="fill:#ffffff;stroke-width:1.35211" />
      <path
         id="path52"
         d="m -3.4983216,463.30847 c 0.00102,-16.36056 0.1962659,-22.86768 0.4338767,-14.46027 0.2376095,8.40742 0.2367725,21.79333 -0.00189,29.74648 -0.2385979,7.95315 -0.433006,1.07436 -0.4319838,-15.28621 z M -118.89734,432.09721 c 0.0649,-1.57514 0.38528,-1.89553 0.81691,-0.81691 0.39058,0.97605 0.34255,2.14226 -0.10675,2.59156 -0.4493,0.44929 -0.76887,-0.34931 -0.71016,-1.77465 z M 62.17901,394.51628 c 0,-0.28077 1.064789,-1.34556 2.366198,-2.3662 2.144531,-1.68185 2.192355,-1.63403 0.510503,0.51051 -1.766359,2.25228 -2.876701,2.96853 -2.876701,1.85569 z M 7.92203,375.08312 c -1.6818523,-2.14453 -1.6340281,-2.19236 0.5105036,-0.5105 1.3014084,1.02064 2.3661974,2.08543 2.3661974,2.36619 0,1.11285 -1.1103416,0.39659 -2.876701,-1.85569 z m 75.890782,-0.84853 c 0,-0.28077 1.064789,-1.34556 2.366197,-2.3662 2.144532,-1.68185 2.192356,-1.63403 0.510504,0.51051 -1.766359,2.25228 -2.876701,2.96853 -2.876701,1.85569 z M -3.4983216,334.85777 c 0.00102,-16.36056 0.1962659,-22.86769 0.4338767,-14.46028 0.2376095,8.40742 0.2367725,21.79334 -0.00189,29.74648 -0.2385979,7.95315 -0.433006,1.07436 -0.4319838,-15.2862 z"
         style="fill:#ffffff;stroke-width:1.35211" />
      <path
         id="path50"
         d="m 96.605556,497.78735 c 0,-34.58029 0.175098,-48.72676 0.389111,-31.43662 0.214012,17.29014 0.214012,45.5831 0,62.87324 -0.214013,17.29014 -0.389111,3.14366 -0.389111,-31.43662 z m -18.37367,-79.43662 c -1.681852,-2.14454 -1.634028,-2.19236 0.510504,-0.51051 1.301408,1.02065 2.366197,2.08543 2.366197,2.3662 0,1.11284 -1.110341,0.39659 -2.876701,-1.85569 z m 18.37417,-118.64789 c -2.84e-4,-34.95211 0.17449,-49.44472 0.388381,-32.20578 0.21389,17.23893 0.214107,45.83612 5e-4,63.54929 -0.21362,17.71318 -0.388611,3.6086 -0.388881,-31.34351 z"
         style="fill:#ffffff;stroke-width:1.35211" />
      <path
         id="path48"
         d="m 227.45919,581.2803 c 0.17733,-84.21971 0.48093,-128.4845 0.67465,-98.36619 0.92751,144.19826 0.93475,251.49327 0.017,251.49312 -0.55775,-10e-5 -0.86899,-68.90721 -0.69165,-153.12693 z M 335.62905,398.74509 c 0.1778,-89.42535 0.48145,-136.42817 0.67476,-104.4507 0.92675,153.30065 0.93358,267.04254 0.0161,267.0424 -0.55775,-8e-5 -0.86861,-73.16634 -0.6908,-162.5917 z M -4.0745081,433.72755 c 0,-0.28077 1.0647887,-1.34556 2.3661971,-2.3662 2.14452629,-1.68185 2.19235052,-1.63403 0.5104968,0.5105 -1.766358,2.25229 -2.8766939,2.96854 -2.8766939,1.8557 z M 74.175549,414.29439 c -1.681853,-2.14453 -1.634029,-2.19236 0.510503,-0.5105 1.301409,1.02064 2.366197,2.08543 2.366197,2.36619 0,1.11285 -1.110341,0.39659 -2.8767,-1.85569 z m -56.616255,-0.84853 c 0,-0.28077 1.064789,-1.34556 2.366197,-2.3662 2.144532,-1.68185 2.192356,-1.63403 0.510504,0.5105 -1.76636,2.25229 -2.876701,2.96854 -2.876701,1.8557 z m -2.156633,-30.92612 -2.575761,-3.04225 3.042253,2.57576 c 2.858961,2.42058 3.657789,3.50874 2.575761,3.50874 -0.256577,0 -1.625591,-1.36901 -3.042253,-3.04225 z m 63.677757,-3.71831 c 1.346015,-1.48732 2.751522,-2.70422 3.123353,-2.70422 0.371831,0 -0.425226,1.2169 -1.77124,2.70422 -1.346015,1.48732 -2.751522,2.70423 -3.123353,2.70423 -0.371831,0 0.425226,-1.21691 1.77124,-2.70423 z M 227.79121,200.99861 c -5e-5,-89.23943 0.16168,-125.945637 0.35938,-81.56934 0.19771,44.37631 0.19775,117.39039 8e-5,162.25353 -0.19765,44.86313 -0.35942,8.55525 -0.35946,-80.68419 z"
         style="fill:#ffffff;stroke-width:1.35211" />
      <path
         id="path46"
         d="m 210.21207,584.99861 c 6e-5,-82.54647 0.16255,-116.11661 0.36111,-74.6003 0.19856,41.51631 0.19852,109.05434 -9e-5,150.08451 -0.19861,41.03017 -0.36107,7.06227 -0.36102,-75.48421 z m -328.31474,-74.59155 c -0.49578,-0.49577 -0.90141,-17.45788 -0.90141,-37.69359 0,-33.43184 0.21611,-36.96168 2.3662,-38.64789 2.11004,-1.6548 2.17864,-1.61562 0.63376,0.36197 -1.33502,1.70895 -1.64519,10.78154 -1.35211,39.55017 0.20917,20.53288 0.32961,37.33211 0.26764,37.33162 -0.062,-4.7e-4 -0.51831,-0.4065 -1.01408,-0.90228 z m 209.223638,-80.56338 -2.575761,-3.04225 3.042253,2.57576 c 2.858961,2.42058 3.657789,3.50875 2.575761,3.50875 -0.256577,0 -1.625591,-1.36902 -3.042253,-3.04226 z M 2.686055,426.80143 c 1.7465915,-1.85915 3.4798376,-3.38028 3.8516686,-3.38028 0.3718309,0 -0.7529645,1.52113 -2.499556,3.38028 -1.7465915,1.85916 -3.4798349,3.38028 -3.85166587,3.38028 -0.37183098,0 0.75296853,-1.52112 2.49955327,-3.38028 z M 227.72296,395.70284 c -8.3e-4,-18.59155 0.18961,-26.38472 0.42318,-17.31816 0.23358,9.06658 0.23426,24.27785 0.001,33.80282 -0.23261,9.52498 -0.42372,2.10689 -0.42454,-16.48466 z m -158.235794,13.85915 -2.575761,-3.04225 3.042253,2.57576 c 2.858961,2.42058 3.657789,3.50875 2.575761,3.50875 -0.256577,0 -1.625591,-1.36902 -3.042253,-3.04226 z m -45.167309,-3.04225 c 1.746591,-1.85915 3.479838,-3.38028 3.851669,-3.38028 0.371831,0 -0.752965,1.52113 -2.499556,3.38028 -1.746592,1.85916 -3.479838,3.38028 -3.851669,3.38028 -0.371831,0 0.752964,-1.52112 2.499556,-3.38028 z M 182.34456,404.8296 c -1.68185,-2.14453 -1.63403,-2.19236 0.5105,-0.5105 1.30141,1.02064 2.3662,2.08543 2.3662,2.36619 0,1.11285 -1.11034,0.39659 -2.8767,-1.85569 z m -161.533449,-16.90141 -2.575761,-3.04225 3.042254,2.57576 c 2.858961,2.42058 3.657789,3.50874 2.575761,3.50874 -0.256577,0 -1.625591,-1.36901 -3.042254,-3.04225 z m 52.1848,-3.04225 c 1.746592,-1.85916 3.479838,-3.38028 3.851669,-3.38028 0.371831,0 -0.752964,1.52112 -2.499556,3.38028 -1.746591,1.85915 -3.479838,3.38028 -3.851669,3.38028 -0.371831,0 0.752965,-1.52113 2.499556,-3.38028 z m 108.169009,2.86978 c 0,-0.28077 1.06479,-1.34556 2.3662,-2.3662 2.14453,-1.68185 2.19235,-1.63403 0.5105,0.5105 -1.76636,2.25228 -2.8767,2.96854 -2.8767,1.8557 z m -182.6375389,-20.78528 -3.2779455,-3.71831 3.7183097,3.27795 c 3.4753215,3.06373 4.338375,4.15867 3.2779401,4.15867 -0.2421904,0 -1.91543382,-1.67323 -3.7183043,-3.71831 z m 94.7502199,-0.84853 c 0,-0.28076 1.064788,-1.34555 2.366197,-2.36619 2.144532,-1.68186 2.192356,-1.63403 0.510503,0.5105 -1.766359,2.25228 -2.8767,2.96854 -2.8767,1.85569 z M 209.23236,197.61826 c -0.19201,-87.00848 0.10721,-158.197216 0.66495,-158.197178 0.55775,3.6e-5 1.01409,71.188798 1.01409,158.197248 0,87.00845 -0.29922,158.19719 -0.66496,158.19719 -0.36572,0 -0.82205,-71.18876 -1.01408,-158.19726 z"
         style="fill:#ffffff;stroke-width:1.35211" />
      <path
         id="path44"
         d="m 556.34114,413.2803 c 1.4e-4,-53.54366 0.16781,-75.251 0.37263,-48.23855 0.20482,27.01245 0.20472,70.8209 -2.3e-4,97.35211 -0.20494,26.53121 -0.37252,4.43011 -0.3724,-49.11356 z m -470.628623,11.15493 -2.575761,-3.04225 3.042253,2.57576 c 2.858962,2.42058 3.65779,3.50875 2.575762,3.50875 -0.256577,0 -1.625591,-1.36902 -3.042254,-3.04226 z M 8.7705618,420.71692 c 1.3460142,-1.48732 2.7515222,-2.70422 3.1233532,-2.70422 0.371831,0 -0.425226,1.2169 -1.771241,2.70422 -1.3460142,1.48733 -2.7515217,2.70423 -3.1233527,2.70423 -0.371831,0 0.4252259,-1.2169 1.7712405,-2.70423 z m 55.3081532,-16.56338 -2.575761,-3.04225 3.042254,2.57576 c 2.858961,2.42058 3.657789,3.50875 2.575761,3.50875 -0.256577,0 -1.625591,-1.36902 -3.042254,-3.04226 z m -35.70252,-1.52458 c 0,-0.28077 1.064789,-1.34556 2.366197,-2.3662 2.144532,-1.68185 2.192356,-1.63403 0.510504,0.5105 -1.76636,2.25228 -2.876701,2.96854 -2.876701,1.8557 z m -2.156633,-9.29232 -2.575761,-3.04225 3.042253,2.57576 c 2.858961,2.42058 3.657789,3.50875 2.575761,3.50875 -0.256577,0 -1.625591,-1.36902 -3.042253,-3.04226 z m 40.691843,-2.3662 c 1.346014,-1.48732 2.751522,-2.70422 3.123353,-2.70422 0.371831,0 -0.425226,1.2169 -1.771241,2.70422 -1.346014,1.48733 -2.751522,2.70423 -3.123353,2.70423 -0.371831,0 0.425226,-1.2169 1.771241,-2.70423 z M 189.2776,378.29093 c 0,-0.28077 1.06479,-1.34556 2.36619,-2.3662 2.14454,-1.68185 2.19236,-1.63403 0.51051,0.5105 -1.76636,2.25229 -2.8767,2.96854 -2.8767,1.8557 z m -184.6918403,-5.23598 -2.575761,-3.04225 3.0422534,2.57576 c 2.858961,2.42058 3.6577891,3.50875 2.575761,3.50875 -0.2565769,0 -1.6255909,-1.36902 -3.0422534,-3.04226 z m 85.3115593,-3.71831 c 1.346015,-1.48732 2.751522,-2.70422 3.123353,-2.70422 0.371831,0 -0.425226,1.2169 -1.77124,2.70422 -1.346015,1.48733 -2.751522,2.70423 -3.123353,2.70423 -0.371831,0 0.425226,-1.2169 1.77124,-2.70423 z"
         style="fill:#ffffff;stroke-width:1.35211" />
      <path
         id="path42"
         d="M 45.615631,621.29216 -117.65197,509.6199 v -36.86198 -36.86199 l 22.30986,-19.85057 c 12.270422,-10.91781 22.309858,-20.07194 22.309858,-20.34252 0,-0.27059 -10.047335,-9.43174 -22.32741,-20.35814 l -22.327408,-19.86619 0.35558,-46.0244 0.35558,-46.0244 160.9014,-110.08339 c 88.49577,-60.545869 161.96619,-110.664977 163.2676,-111.3758 2.24752,-1.227587 2.36355,6.626948 2.31325,156.61433 l -0.053,157.90672 -17.49075,19.47317 -17.49076,19.47315 3.68456,4.43835 c 2.02649,2.44109 9.92384,11.40858 17.54965,19.92775 l 13.8651,15.4894 -0.34398,148.83552 -0.34392,148.83552 z M 97.333939,498.01744 v -63.3192 L 78.74239,417.29329 c -10.225352,-9.57271 -18.726489,-17.73823 -18.891434,-18.14558 -0.16493,-0.40735 8.201267,-8.63217 18.591549,-18.27738 L 97.333939,363.3336 v -63.39666 c 0,-56.21514 -0.233213,-63.30717 -2.058714,-62.60665 -1.132299,0.4345 -23.9492,15.75928 -50.704223,34.05505 l -48.6455101,33.26507 v 30.0805 30.08051 l 18.2069941,16.79782 18.207008,16.79782 -18.237052,17.57747 -18.2370542,17.57746 0.030057,29.84931 0.030047,29.84931 49.6901392,34.00377 c 27.329576,18.70208 50.146477,34.01919 50.704223,34.03803 0.557747,0.0188 1.014085,-28.45941 1.014085,-63.28497 z M 228.48886,386.93421 c 0,-190.51247 0.49273,-346.183485 1.09496,-345.935597 0.60221,0.247887 71.03038,48.279873 156.50703,106.737747 85.47664,58.45787 157.54166,107.29968 160.14448,108.53735 2.60282,1.23767 6.03876,3.30145 7.63545,4.58619 l 2.90305,2.3359 -0.73228,123.37103 -0.73229,123.37105 -159.57362,109.19233 C 307.97014,679.186 234.43555,729.4471 232.32543,730.82153 l -3.83657,2.49898 z m 159.40431,139.81745 48.82104,-33.42902 v -94.36068 -94.36069 l -48.54089,-33.20034 c -26.69747,-18.26019 -49.51437,-33.57392 -50.70422,-34.0305 -1.97565,-0.75813 -2.16334,13.27176 -2.16334,161.71269 0,138.36498 0.28012,162.43535 1.88318,161.8202 1.03575,-0.39746 23.85265,-15.7657 50.70423,-34.15166 z"
         style="fill:#ffffff;stroke-width:1.35211" />
    </g>
    <g
       style="font-size:3.52777px;line-height:1.25;font-family:Arial;-inkscape-font-specification:Arial;stroke-width:0.264583"
       id="text79"
       aria-label="BPM"
       transform="translate(-9.0734867e-8,9.6695114)">
      <path
         id="path91"
         style="fill:#ffffff;stroke-width:0.264583"
         d="m 9.1369178,24.835123 v -2.525249 h 0.9473992 q 0.289387,0 0.463364,0.07751 0.1757,0.07579 0.273885,0.235989 0.09991,0.158474 0.09991,0.332451 0,0.161919 -0.08785,0.30489 -0.08785,0.142971 -0.265272,0.230821 0.229098,0.06718 0.351399,0.229098 0.124023,0.161919 0.124023,0.382405 0,0.177422 -0.07579,0.330728 -0.07407,0.151584 -0.184312,0.234266 -0.110243,0.08268 -0.27733,0.125746 -0.165364,0.04134 -0.40652,0.04134 z m 0.3341735,-1.464162 h 0.5460467 q 0.222208,0 0.31867,-0.02928 0.127469,-0.0379 0.191203,-0.125745 0.06546,-0.08785 0.06546,-0.220486 0,-0.125746 -0.06029,-0.220486 -0.06029,-0.09646 -0.172254,-0.130913 -0.111965,-0.03617 -0.3841273,-0.03617 H 9.4710913 Z m 0,1.166162 H 10.09982 q 0.161919,0 0.227376,-0.01206 0.11541,-0.02067 0.192925,-0.0689 0.07751,-0.04823 0.127468,-0.139526 0.04995,-0.09302 0.04995,-0.213595 0,-0.141249 -0.07235,-0.244601 -0.07235,-0.105076 -0.201538,-0.146417 -0.127468,-0.04306 -0.368624,-0.04306 H 9.4710913 Z" />
      <path
         id="path93"
         style="fill:#ffffff;stroke-width:0.264583"
         d="m 11.507138,24.835123 v -2.525249 h 0.952567 q 0.251491,0 0.384127,0.02411 0.186035,0.03101 0.311781,0.118856 0.125746,0.08613 0.201537,0.242878 0.07752,0.156752 0.07752,0.344509 0,0.322116 -0.204983,0.546047 -0.204983,0.222208 -0.740694,0.222208 h -0.647676 v 1.026636 z m 0.334174,-1.324636 h 0.652844 q 0.323838,0 0.459919,-0.120578 0.136081,-0.120578 0.136081,-0.339341 0,-0.158475 -0.08096,-0.27044 -0.07924,-0.113688 -0.210151,-0.149861 -0.0844,-0.02239 -0.31178,-0.02239 h -0.645954 z" />
      <path
         id="path95"
         style="fill:#ffffff;stroke-width:0.264583"
         d="m 13.853243,24.835123 v -2.525249 h 0.502983 l 0.597723,1.788 q 0.08268,0.249769 0.120578,0.373792 0.04306,-0.137803 0.134358,-0.404798 l 0.604613,-1.756994 h 0.449584 v 2.525249 h -0.322116 v -2.113561 l -0.733803,2.113561 h -0.301446 l -0.730358,-2.149735 v 2.149735 z" />
    </g>
    <g
       aria-label="1x"
       id="text85"
       style="font-size:3.52777px;line-height:1.25;font-family:Arial;-inkscape-font-specification:Arial;stroke-width:0.264583"
       transform="translate(-4.4628514,10.732095)">
      <path
         d="m 11.971364,42.365799 h -0.310058 v -1.975758 q -0.111966,0.106798 -0.294555,0.213595 -0.180867,0.106798 -0.325561,0.160197 V 40.46411 q 0.260104,-0.1223 0.454751,-0.296277 0.194648,-0.173977 0.275607,-0.337619 h 0.199816 z"
         style="fill:#ffffff;stroke-width:0.264583"
         id="path186" />
      <path
         d="m 12.646601,42.365799 0.668347,-0.950844 -0.618393,-0.878498 h 0.387572 l 0.280775,0.428914 q 0.07924,0.1223 0.127468,0.204982 0.07579,-0.113687 0.139526,-0.201537 l 0.308335,-0.432359 h 0.370347 l -0.632173,0.861272 0.680405,0.96807 h -0.380683 l -0.375514,-0.56844 -0.09991,-0.153306 -0.48059,0.721746 z"
         style="fill:#ffffff;stroke-width:0.264583"
         id="path188" />
    </g>
    <g
       transform="translate(-0.10625837,8.9257028)"
       aria-label="2x"
       id="text156"
       style="font-size:3.52777px;line-height:1.25;font-family:Arial;-inkscape-font-specification:Arial;stroke-width:0.264583">
      <path
         d="m 7.7758904,57.85727 v 0.298 H 6.1067453 q -0.00345,-0.111966 0.036173,-0.215318 0.063734,-0.170532 0.2032602,-0.335896 0.1412486,-0.165365 0.4065204,-0.382405 0.411688,-0.337619 0.5563817,-0.533989 0.1446937,-0.198092 0.1446937,-0.373792 0,-0.184312 -0.1326359,-0.310058 -0.1309134,-0.127468 -0.3427863,-0.127468 -0.2239307,0 -0.3582891,0.134358 -0.1343585,0.134359 -0.136081,0.37207 l -0.3186706,-0.03273 q 0.032728,-0.356567 0.2463238,-0.542602 0.2135954,-0.187757 0.5736071,-0.187757 0.3634568,0 0.5753297,0.201538 0.2118729,0.201537 0.2118729,0.499537 0,0.151584 -0.062012,0.298 -0.062012,0.146417 -0.2067053,0.308336 -0.1429711,0.161919 -0.4771446,0.444416 -0.2790522,0.234266 -0.3582892,0.318671 -0.079237,0.08268 -0.1309133,0.167087 z"
         style="fill:#ffffff;stroke-width:0.264583"
         id="path191" />
      <path
         d="m 7.9894859,58.15527 0.668347,-0.950845 -0.6183932,-0.878497 h 0.3875724 l 0.2807746,0.428913 q 0.079237,0.122301 0.1274683,0.204983 0.075792,-0.113688 0.139526,-0.201538 l 0.3083354,-0.432358 h 0.370347 L 9.0212897,57.1872 9.7016946,58.15527 H 9.3210124 L 8.9454978,57.58683 8.8455902,57.433524 8.3650005,58.15527 Z"
         style="fill:#ffffff;stroke-width:0.264583"
         id="path193" />
    </g>
    <g
       transform="translate(0.53129183,9.2444779)"
       aria-label="4x"
       id="text160"
       style="font-size:3.52777px;line-height:1.25;font-family:Arial;-inkscape-font-specification:Arial;stroke-width:0.264583">
      <path
         d="m 16.929731,58.15527 v -0.604613 h -1.095538 v -0.28422 l 1.152382,-1.636417 h 0.253214 v 1.636417 h 0.341064 v 0.28422 h -0.341064 v 0.604613 z m 0,-0.888833 v -1.138602 l -0.790648,1.138602 z"
         style="fill:#ffffff;stroke-width:0.264583"
         id="path196" />
      <path
         d="m 17.778945,58.15527 0.668347,-0.950845 -0.618393,-0.878497 h 0.387572 l 0.280775,0.428913 q 0.07924,0.122301 0.127468,0.204983 0.07579,-0.113688 0.139526,-0.201538 l 0.308336,-0.432358 h 0.370347 l -0.632174,0.861272 0.680405,0.96807 h -0.380682 l -0.375515,-0.56844 -0.09991,-0.153306 -0.480589,0.721746 z"
         style="fill:#ffffff;stroke-width:0.264583"
         id="path198" />
    </g>
    <g
       transform="translate(0,12.007195)"
       aria-label="8x"
       id="text164"
       style="font-size:3.52777px;line-height:1.25;font-family:Arial;-inkscape-font-specification:Arial;stroke-width:0.264583">
      <path
         d="M 6.5674453,67.073998 Q 6.3745204,67.003374 6.281503,66.87246 6.188486,66.741547 6.188486,66.558957 q 0,-0.275607 0.1980926,-0.463364 0.1980925,-0.187757 0.5270984,-0.187757 0.3307285,0 0.5322661,0.192925 0.2015377,0.191202 0.2015377,0.466809 0,0.1757 -0.093017,0.306613 -0.091295,0.129191 -0.2790521,0.199815 0.2325434,0.07579 0.3531215,0.244601 0.1223006,0.16881 0.1223006,0.403075 0,0.323839 -0.2290984,0.544324 -0.2290983,0.220486 -0.6028903,0.220486 -0.3737921,0 -0.6028904,-0.220486 -0.2290984,-0.222208 -0.2290984,-0.552936 0,-0.246324 0.1240232,-0.411688 0.1257457,-0.167087 0.3565658,-0.227376 z m -0.062012,-0.525376 q 0,0.179145 0.1154105,0.292833 0.1154104,0.113687 0.2997226,0.113687 0.1791446,0 0.2928325,-0.111965 0.1154104,-0.113688 0.1154104,-0.27733 0,-0.170531 -0.1188555,-0.285942 -0.117133,-0.117133 -0.2928325,-0.117133 -0.177422,0 -0.294555,0.113688 -0.117133,0.113688 -0.117133,0.272162 z m -0.099908,1.166162 q 0,0.132636 0.062012,0.256659 0.063734,0.124024 0.1877573,0.192925 0.1240232,0.06718 0.2669943,0.06718 0.2222082,0 0.3669019,-0.142972 0.1446937,-0.142971 0.1446937,-0.363456 0,-0.223931 -0.1498613,-0.370347 -0.1481388,-0.146417 -0.3720695,-0.146417 -0.2187631,0 -0.3634568,0.144694 -0.1429711,0.144694 -0.1429716,0.361734 z"
         style="fill:#ffffff;stroke-width:0.264583"
         id="path201" />
      <path
         d="M 7.9334227,68.44342 8.6017698,67.492576 7.9833765,66.614079 h 0.3875724 l 0.2807746,0.428913 q 0.079237,0.122301 0.1274683,0.204983 0.075792,-0.113688 0.1395261,-0.201538 l 0.3083353,-0.432358 h 0.370347 L 8.9652265,67.475351 9.6456314,68.44342 H 9.2649492 L 8.8894346,67.874981 8.7895271,67.721674 8.3089373,68.44342 Z"
         style="fill:#ffffff;stroke-width:0.264583"
         id="path203" />
    </g>
    <g
       transform="translate(0.53129183,12.113454)"
       aria-label="16x"
       id="text168"
       style="font-size:3.52777px;line-height:1.25;font-family:Arial;-inkscape-font-specification:Arial;stroke-width:0.264583">
      <path
         d="m 15.878803,68.499489 h -0.310058 v -1.975758 q -0.111965,0.106798 -0.294555,0.213595 -0.180867,0.106798 -0.325561,0.160197 V 66.5978 q 0.260104,-0.1223 0.454752,-0.296277 0.194647,-0.173977 0.275607,-0.337619 h 0.199815 z"
         style="fill:#ffffff;stroke-width:0.264583"
         id="path206" />
      <path
         d="m 18.283474,66.592633 -0.308335,0.02411 q -0.04134,-0.182589 -0.117133,-0.265271 -0.125746,-0.132636 -0.310058,-0.132636 -0.148139,0 -0.260104,0.08268 -0.146416,0.106797 -0.230821,0.31178 -0.08441,0.204983 -0.08785,0.583943 0.111966,-0.170532 0.273885,-0.253214 0.161919,-0.08268 0.339341,-0.08268 0.310058,0 0.527098,0.229098 0.218763,0.227376 0.218763,0.58911 0,0.237711 -0.103352,0.442694 -0.10163,0.20326 -0.280775,0.31178 -0.179144,0.10852 -0.40652,0.10852 -0.387573,0 -0.632174,-0.284219 -0.244601,-0.285943 -0.244601,-0.940509 0,-0.732082 0.270439,-1.064533 0.235989,-0.289387 0.635619,-0.289387 0.298,0 0.48748,0.167087 0.191202,0.167087 0.229098,0.461642 z m -1.26607,1.088647 q 0,0.160197 0.06718,0.306613 0.0689,0.146417 0.191202,0.223931 0.122301,0.07579 0.256659,0.07579 0.19637,0 0.337619,-0.158474 0.141248,-0.158474 0.141248,-0.430636 0,-0.261827 -0.139526,-0.411688 -0.139526,-0.151584 -0.351399,-0.151584 -0.21015,0 -0.356566,0.151584 -0.146417,0.149861 -0.146417,0.394462 z"
         style="fill:#ffffff;stroke-width:0.264583"
         id="path208" />
      <path
         d="m 18.51774,68.499489 0.668347,-0.950844 -0.618393,-0.878498 h 0.387572 l 0.280775,0.428914 q 0.07924,0.1223 0.127468,0.204982 0.07579,-0.113688 0.139526,-0.201537 l 0.308336,-0.432359 h 0.370347 l -0.632174,0.861272 0.680405,0.96807 h -0.380682 l -0.375515,-0.56844 -0.09991,-0.153306 -0.48059,0.721746 z"
         style="fill:#ffffff;stroke-width:0.264583"
         id="path210" />
    </g>
    <g
       transform="translate(0.42503346,16.045013)"
       aria-label="/2"
       id="text172"
       style="font-size:3.52777px;line-height:1.25;font-family:Arial;-inkscape-font-specification:Arial;stroke-width:0.264583">
      <path
         d="M 6.1062055,82.702945 6.8382866,80.091569 H 7.086333 l -0.7303587,2.611376 z"
         style="fill:#ffffff;stroke-width:0.264583"
         id="path213" />
      <path
         d="m 8.8605533,82.361881 v 0.298001 H 7.1914082 q -0.00345,-0.111966 0.036173,-0.215318 0.063734,-0.170532 0.2032602,-0.335896 0.1412486,-0.165365 0.4065204,-0.382405 0.411688,-0.337619 0.5563817,-0.533989 0.1446937,-0.198092 0.1446937,-0.373792 0,-0.184312 -0.1326359,-0.310058 -0.1309134,-0.127468 -0.3427863,-0.127468 -0.2239307,0 -0.3582891,0.134358 -0.1343584,0.134359 -0.136081,0.37207 l -0.3186706,-0.03273 q 0.032728,-0.356567 0.2463238,-0.542602 0.2135954,-0.187757 0.5736071,-0.187757 0.3634568,0 0.5753297,0.201538 0.2118729,0.201537 0.2118729,0.499537 0,0.151584 -0.062012,0.298 -0.062012,0.146417 -0.2067053,0.308336 -0.1429711,0.161919 -0.4771446,0.444416 -0.2790522,0.234266 -0.3582892,0.318671 -0.079237,0.08268 -0.1309133,0.167086 z"
         style="fill:#ffffff;stroke-width:0.264583"
         id="path215" />
    </g>
    <g
       transform="translate(0.42503346,16.25753)"
       aria-label="/4"
       id="text176"
       style="font-size:3.52777px;line-height:1.25;font-family:Arial;-inkscape-font-specification:Arial;stroke-width:0.264583">
      <path
         d="m 16.108181,82.702938 0.732081,-2.611377 h 0.248047 l -0.730359,2.611377 z"
         style="fill:#ffffff;stroke-width:0.264583"
         id="path218" />
      <path
         d="m 18.22691,82.659874 v -0.604613 h -1.095538 v -0.28422 l 1.152382,-1.636416 h 0.253214 v 1.636416 h 0.341064 v 0.28422 h -0.341064 v 0.604613 z m 0,-0.888833 V 80.63244 l -0.790648,1.138601 z"
         style="fill:#ffffff;stroke-width:0.264583"
         id="path220" />
    </g>
    <g
       transform="translate(0.42503346,19.020248)"
       aria-label="/8"
       id="text180"
       style="font-size:3.52777px;line-height:1.25;font-family:Arial;-inkscape-font-specification:Arial;stroke-width:0.264583">
      <path
         d="M 5.9438844,92.946781 6.6759656,90.335404 H 6.9240119 L 6.1936532,92.946781 Z"
         style="fill:#ffffff;stroke-width:0.264583"
         id="path223" />
      <path
         d="M 7.5458503,91.534295 Q 7.3529254,91.46367 7.259908,91.332757 7.166891,91.201844 7.166891,91.019254 q 0,-0.275607 0.1980926,-0.463364 0.1980925,-0.187758 0.5270984,-0.187758 0.3307285,0 0.5322661,0.192925 0.2015377,0.191203 0.2015377,0.46681 0,0.175699 -0.093017,0.306612 -0.091295,0.129191 -0.2790521,0.199816 0.2325434,0.07579 0.3531215,0.244601 0.1223006,0.168809 0.1223006,0.403075 0,0.323838 -0.2290984,0.544324 -0.2290983,0.220486 -0.6028903,0.220486 -0.3737921,0 -0.6028904,-0.220486 -0.2290984,-0.222208 -0.2290984,-0.552937 0,-0.246323 0.1240232,-0.411688 0.1257457,-0.167086 0.3565658,-0.227375 z m -0.062012,-0.525376 q 0,0.179144 0.1154105,0.292832 0.1154104,0.113688 0.2997226,0.113688 0.1791446,0 0.2928325,-0.111965 0.1154104,-0.113688 0.1154104,-0.27733 0,-0.170532 -0.1188555,-0.285942 -0.117133,-0.117133 -0.2928325,-0.117133 -0.177422,0 -0.294555,0.113688 -0.117133,0.113688 -0.117133,0.272162 z m -0.099907,1.166162 q 0,0.132636 0.062011,0.256659 0.063734,0.124023 0.1877573,0.192925 0.1240232,0.06718 0.2669943,0.06718 0.2222082,0 0.3669019,-0.142971 0.1446937,-0.142971 0.1446937,-0.363457 0,-0.223931 -0.1498613,-0.370347 -0.1481388,-0.146416 -0.3720695,-0.146416 -0.2187631,0 -0.3634568,0.144694 -0.1429711,0.144693 -0.1429711,0.361734 z"
         style="fill:#ffffff;stroke-width:0.264583"
         id="path225" />
    </g>
    <g
       transform="translate(0,19.232765)"
       aria-label="/16"
       id="text184"
       style="font-size:3.52777px;line-height:1.25;font-family:Arial;-inkscape-font-specification:Arial;stroke-width:0.264583">
      <path
         d="m 15.101661,92.890712 0.732081,-2.611376 h 0.248046 l -0.730358,2.611376 z"
         style="fill:#ffffff;stroke-width:0.264583"
         id="path228" />
      <path
         d="m 17.394367,92.847649 h -0.310058 v -1.975758 q -0.111965,0.106797 -0.294555,0.213595 -0.180867,0.106798 -0.325561,0.160197 V 90.94596 q 0.260104,-0.122301 0.454752,-0.296277 0.194647,-0.173977 0.275607,-0.337619 h 0.199815 z"
         style="fill:#ffffff;stroke-width:0.264583"
         id="path230" />
      <path
         d="m 19.799038,90.940792 -0.308335,0.02412 Q 19.449362,90.782318 19.37357,90.699636 19.247824,90.567 19.063512,90.567 q -0.148139,0 -0.260104,0.08268 -0.146416,0.106797 -0.230821,0.31178 -0.08441,0.204983 -0.08785,0.583942 0.111966,-0.170531 0.273885,-0.253214 0.161919,-0.08268 0.339341,-0.08268 0.310058,0 0.527098,0.229099 0.218763,0.227375 0.218763,0.58911 0,0.237711 -0.103352,0.442693 -0.10163,0.203261 -0.280775,0.311781 -0.179144,0.10852 -0.40652,0.10852 -0.387573,0 -0.632174,-0.28422 -0.244601,-0.285942 -0.244601,-0.940509 0,-0.732081 0.270439,-1.064532 0.235989,-0.289387 0.635619,-0.289387 0.298,0 0.48748,0.167087 0.191202,0.167086 0.229098,0.461641 z m -1.266069,1.088648 q 0,0.160197 0.06718,0.306613 0.0689,0.146416 0.191202,0.223931 0.122301,0.07579 0.256659,0.07579 0.19637,0 0.337619,-0.158474 0.141248,-0.158474 0.141248,-0.430636 0,-0.261827 -0.139526,-0.411688 -0.139526,-0.151584 -0.351399,-0.151584 -0.21015,0 -0.356566,0.151584 -0.146416,0.149861 -0.146416,0.394462 z"
         style="fill:#ffffff;stroke-width:0.264583"
         id="path232" />
    </g>
    <g
       aria-label="Reset"
       id="text78"
       style="font-size:3.52777px;line-height:1.25;font-family:Arial;-inkscape-font-specification:Arial;stroke-width:0.264583">
      <path
         d="m 3.5666662,21.889223 v -1.515155 h 0.6717946 q 0.202572,0 0.3079921,0.04134 0.10542,0.04031 0.1684654,0.143661 0.063045,0.103353 0.063045,0.22841 0,0.161231 -0.1043865,0.271818 -0.1043866,0.110588 -0.3224615,0.14056 0.079582,0.03824 0.1209231,0.07545 0.08785,0.08062 0.1663983,0.201539 L 4.901987,21.889224 H 4.6498059 L 4.449301,21.573996 q -0.08785,-0.136426 -0.1446942,-0.208773 -0.056844,-0.07235 -0.1023195,-0.101286 -0.044442,-0.02894 -0.090951,-0.04031 -0.034106,-0.0072 -0.1116212,-0.0072 h -0.232544 v 0.672828 z m 0.2005049,-0.846461 h 0.4309821 q 0.1374595,0 0.2149743,-0.02791 0.077515,-0.02894 0.1178224,-0.09095 0.040308,-0.06304 0.040308,-0.136426 0,-0.107487 -0.078548,-0.176734 Q 4.4151945,20.5415 4.2467291,20.5415 h -0.479558 z"
         style="font-size:2.11667px;fill:#ffffff;stroke-width:0.264583"
         id="path90" />
      <path
         d="m 5.8207956,21.535756 0.1922366,0.02377 q -0.045475,0.168465 -0.1684654,0.261483 -0.1229901,0.09302 -0.3141932,0.09302 -0.2408125,0 -0.3824062,-0.147795 -0.1405601,-0.148828 -0.1405601,-0.416513 0,-0.276986 0.1426272,-0.429948 0.1426271,-0.152963 0.3700038,-0.152963 0.2201419,0 0.3596685,0.149862 0.1395266,0.149862 0.1395266,0.42168 0,0.01654 -0.00103,0.04961 h -0.818556 q 0.010335,0.180868 0.1023195,0.276986 0.091984,0.09612 0.2294437,0.09612 0.1023195,0 0.1746666,-0.05374 0.072347,-0.05374 0.1147219,-0.171566 z M 5.2099792,21.234998 h 0.6128835 q -0.012402,-0.138493 -0.07028,-0.207739 -0.088884,-0.107487 -0.2304772,-0.107487 -0.1281578,0 -0.2160079,0.08578 -0.086817,0.08578 -0.096118,0.229443 z"
         style="font-size:2.11667px;fill:#ffffff;stroke-width:0.264583"
         id="path92" />
      <path
         d="m 6.1732293,21.561594 0.1839683,-0.02894 q 0.015503,0.110588 0.085783,0.169499 0.071314,0.05891 0.1984378,0.05891 0.1281577,0 0.1901695,-0.05168 0.062012,-0.05271 0.062012,-0.12299 0,-0.06305 -0.054777,-0.09922 -0.038241,-0.0248 -0.1901695,-0.06305 -0.204639,-0.05168 -0.2842208,-0.08888 -0.078548,-0.03824 -0.1198895,-0.104387 -0.040308,-0.06718 -0.040308,-0.147794 0,-0.07338 0.033073,-0.135393 0.034107,-0.06304 0.091984,-0.104386 0.043408,-0.03204 0.1178225,-0.05374 0.075448,-0.02274 0.1612307,-0.02274 0.1291913,0 0.2263431,0.03721 0.098185,0.03721 0.1446942,0.101286 0.046509,0.06305 0.064079,0.169499 l -0.1819013,0.02481 q -0.012402,-0.08475 -0.072347,-0.132292 -0.058911,-0.04754 -0.1674319,-0.04754 -0.1281578,0 -0.1829349,0.04237 -0.054777,0.04237 -0.054777,0.09922 0,0.03617 0.022738,0.06511 0.022738,0.02997 0.071314,0.04961 0.027905,0.01034 0.1643313,0.04754 0.1974043,0.05271 0.274919,0.08682 0.078548,0.03307 0.1229901,0.09715 0.044442,0.06408 0.044442,0.159164 0,0.09302 -0.054777,0.1757 -0.053743,0.08165 -0.156063,0.127124 -0.1023195,0.04444 -0.2315108,0.04444 -0.2139408,0 -0.3265956,-0.08888 -0.1116212,-0.08888 -0.1426271,-0.26355 z"
         style="font-size:2.11667px;fill:#ffffff;stroke-width:0.264583"
         id="path94" />
      <path
         d="m 8.057355,21.535756 0.1922366,0.02377 q -0.045475,0.168465 -0.1684654,0.261483 -0.1229901,0.09302 -0.3141932,0.09302 -0.2408126,0 -0.3824062,-0.147795 -0.1405601,-0.148828 -0.1405601,-0.416513 0,-0.276986 0.1426272,-0.429948 0.1426271,-0.152963 0.3700038,-0.152963 0.2201419,0 0.3596685,0.149862 0.1395266,0.149862 0.1395266,0.42168 0,0.01654 -0.00103,0.04961 h -0.818556 q 0.010335,0.180868 0.1023195,0.276986 0.091984,0.09612 0.2294437,0.09612 0.1023195,0 0.1746666,-0.05374 0.072347,-0.05374 0.1147219,-0.171566 z M 7.4465386,21.234998 H 8.059422 Q 8.04702,21.096505 7.989142,21.027259 7.900258,20.919772 7.7586647,20.919772 q -0.1281577,0 -0.2160078,0.08578 -0.086817,0.08578 -0.096118,0.229443 z"
         style="font-size:2.11667px;fill:#ffffff;stroke-width:0.264583"
         id="path96" />
      <path
         d="m 8.8903802,21.722825 0.026872,0.164331 q -0.078548,0.01654 -0.1405601,0.01654 -0.101286,0 -0.1570966,-0.03204 -0.055811,-0.03204 -0.078548,-0.08372 -0.022738,-0.05271 -0.022738,-0.220142 v -0.631487 h -0.136426 v -0.144694 h 0.136426 v -0.271818 l 0.1850019,-0.111622 v 0.38344 h 0.187069 v 0.144694 h -0.187069 v 0.641823 q 0,0.07958 0.0093,0.102319 0.010335,0.02274 0.03204,0.03617 0.022738,0.01344 0.064079,0.01344 0.031006,0 0.081649,-0.0072 z"
         style="font-size:2.11667px;fill:#ffffff;stroke-width:0.264583"
         id="path98" />
    </g>
    <g
       aria-label="Run"
       id="text82"
       style="font-size:3.52777px;line-height:1.25;font-family:Arial;-inkscape-font-specification:Arial;stroke-width:0.264583">
      <path
         d="m 17.167737,22.10174 v -1.515155 h 0.671795 q 0.202572,0 0.307992,0.04134 0.10542,0.04031 0.168465,0.14366 0.06305,0.103354 0.06305,0.228411 0,0.16123 -0.104387,0.271818 -0.104386,0.110588 -0.322461,0.14056 0.07958,0.03824 0.120923,0.07545 0.08785,0.08062 0.166398,0.201538 l 0.26355,0.412379 h -0.252181 l -0.200505,-0.315227 q -0.08785,-0.136426 -0.144694,-0.208773 -0.05684,-0.07235 -0.10232,-0.101286 -0.04444,-0.02894 -0.09095,-0.04031 -0.03411,-0.0072 -0.111622,-0.0072 h -0.232544 v 0.672828 z m 0.200505,-0.846461 h 0.430982 q 0.13746,0 0.214975,-0.02791 0.07751,-0.02894 0.117822,-0.09095 0.04031,-0.06305 0.04031,-0.136426 0,-0.107487 -0.07855,-0.176734 -0.07751,-0.06925 -0.24598,-0.06925 h -0.479558 z"
         style="font-size:2.11667px;fill:#ffffff;stroke-width:0.264583"
         id="path101" />
      <path
         d="m 19.389827,22.10174 v -0.161231 q -0.128157,0.186036 -0.348299,0.186036 -0.09715,0 -0.181902,-0.03721 -0.08372,-0.03721 -0.125057,-0.09302 -0.04031,-0.05684 -0.05684,-0.138493 -0.01137,-0.05478 -0.01137,-0.173633 v -0.680063 h 0.186036 v 0.608749 q 0,0.145728 0.01137,0.196371 0.01757,0.07338 0.07442,0.115755 0.05684,0.04134 0.14056,0.04134 0.08372,0 0.157096,-0.04237 0.07338,-0.04341 0.103353,-0.116789 0.03101,-0.07441 0.03101,-0.214975 v -0.588078 h 0.186036 v 1.097609 z"
         style="font-size:2.11667px;fill:#ffffff;stroke-width:0.264583"
         id="path103" />
      <path
         d="m 19.848715,22.10174 v -1.097609 h 0.167431 v 0.156063 q 0.120923,-0.180868 0.349334,-0.180868 0.09922,0 0.181901,0.03617 0.08372,0.03514 0.125057,0.09302 0.04134,0.05788 0.05788,0.13746 0.01034,0.05168 0.01034,0.180868 v 0.674895 h -0.186035 v -0.667661 q 0,-0.113688 -0.0217,-0.169499 -0.02171,-0.05684 -0.07751,-0.08992 -0.05478,-0.03411 -0.129191,-0.03411 -0.118856,0 -0.205673,0.07545 -0.08578,0.07545 -0.08578,0.286288 v 0.599448 z"
         style="font-size:2.11667px;fill:#ffffff;stroke-width:0.264583"
         id="path105" />
    </g>
    <g
       aria-label="Reset"
       id="text88"
       style="font-size:3.52777px;line-height:1.25;font-family:Arial;-inkscape-font-specification:Arial;stroke-width:0.264583">
      <path
         d="m 15.573861,52.704151 v -1.515155 h 0.671795 q 0.202572,0 0.307992,0.04134 0.10542,0.04031 0.168466,0.143661 0.06304,0.103353 0.06304,0.22841 0,0.161231 -0.104387,0.271818 -0.104386,0.110588 -0.322461,0.14056 0.07958,0.03824 0.120923,0.07545 0.08785,0.08062 0.166398,0.201539 l 0.26355,0.412378 h -0.252181 l -0.200505,-0.315227 q -0.08785,-0.136426 -0.144694,-0.208773 -0.05684,-0.07235 -0.102319,-0.101286 -0.04444,-0.02894 -0.09095,-0.04031 -0.03411,-0.0072 -0.111621,-0.0072 h -0.232545 v 0.672828 z m 0.200505,-0.846461 h 0.430982 q 0.13746,0 0.214975,-0.0279 0.07751,-0.02894 0.117822,-0.09095 0.04031,-0.06304 0.04031,-0.136426 0,-0.107487 -0.07855,-0.176734 -0.07751,-0.06925 -0.245981,-0.06925 h -0.479558 z"
         style="font-size:2.11667px;fill:#ffffff;stroke-width:0.264583"
         id="path108" />
      <path
         d="m 17.827991,52.350684 0.192236,0.02377 q -0.04547,0.168465 -0.168465,0.261483 -0.12299,0.09302 -0.314193,0.09302 -0.240813,0 -0.382406,-0.147795 -0.14056,-0.148828 -0.14056,-0.416513 0,-0.276986 0.142627,-0.429948 0.142627,-0.152963 0.370004,-0.152963 0.220141,0 0.359668,0.149862 0.139527,0.149862 0.139527,0.421681 0,0.01654 -0.001,0.04961 h -0.818556 q 0.01034,0.180868 0.10232,0.276986 0.09198,0.09612 0.229443,0.09612 0.10232,0 0.174667,-0.05374 0.07235,-0.05374 0.114722,-0.171566 z m -0.610817,-0.300757 h 0.612884 q -0.0124,-0.138494 -0.07028,-0.20774 -0.08888,-0.107487 -0.230477,-0.107487 -0.128158,0 -0.216008,0.08578 -0.08682,0.08578 -0.09612,0.229444 z"
         style="font-size:2.11667px;fill:#ffffff;stroke-width:0.264583"
         id="path110" />
      <path
         d="m 18.180425,52.376522 0.183968,-0.02894 q 0.0155,0.110588 0.08578,0.169499 0.07131,0.05891 0.198438,0.05891 0.128157,0 0.190169,-0.05168 0.06201,-0.05271 0.06201,-0.12299 0,-0.06305 -0.05478,-0.09922 -0.03824,-0.0248 -0.19017,-0.06304 -0.204639,-0.05168 -0.28422,-0.08888 -0.07855,-0.03824 -0.11989,-0.104387 -0.04031,-0.06718 -0.04031,-0.147794 0,-0.07338 0.03307,-0.135393 0.03411,-0.06305 0.09198,-0.104386 0.04341,-0.03204 0.117822,-0.05374 0.07545,-0.02274 0.161231,-0.02274 0.129191,0 0.226343,0.03721 0.09819,0.03721 0.144694,0.101286 0.04651,0.06305 0.06408,0.169499 l -0.181901,0.02481 q -0.0124,-0.08475 -0.07235,-0.132292 -0.05891,-0.04754 -0.167432,-0.04754 -0.128158,0 -0.182935,0.04238 -0.05478,0.04237 -0.05478,0.09922 0,0.03617 0.02274,0.06511 0.02274,0.02997 0.07131,0.04961 0.02791,0.01034 0.164331,0.04754 0.197404,0.05271 0.274919,0.08682 0.07855,0.03307 0.12299,0.09715 0.04444,0.06408 0.04444,0.159164 0,0.09302 -0.05478,0.1757 -0.05374,0.08165 -0.156063,0.127124 -0.102319,0.04444 -0.231511,0.04444 -0.213941,0 -0.326595,-0.08888 -0.111622,-0.08888 -0.142627,-0.26355 z"
         style="font-size:2.11667px;fill:#ffffff;stroke-width:0.264583"
         id="path112" />
      <path
         d="m 20.06455,52.350684 0.192237,0.02377 q -0.04547,0.168465 -0.168466,0.261483 -0.12299,0.09302 -0.314193,0.09302 -0.240812,0 -0.382406,-0.147795 -0.14056,-0.148828 -0.14056,-0.416513 0,-0.276986 0.142627,-0.429948 0.142627,-0.152963 0.370004,-0.152963 0.220142,0 0.359668,0.149862 0.139527,0.149862 0.139527,0.421681 0,0.01654 -0.001,0.04961 h -0.818555 q 0.01034,0.180868 0.102319,0.276986 0.09198,0.09612 0.229444,0.09612 0.102319,0 0.174666,-0.05374 0.07235,-0.05374 0.114722,-0.171566 z m -0.610816,-0.300757 h 0.612883 q -0.0124,-0.138494 -0.07028,-0.20774 -0.08888,-0.107487 -0.230477,-0.107487 -0.128158,0 -0.216008,0.08578 -0.08682,0.08578 -0.09612,0.229444 z"
         style="font-size:2.11667px;fill:#ffffff;stroke-width:0.264583"
         id="path114" />
      <path
         d="m 20.897575,52.537753 0.02687,0.164331 q -0.07855,0.01654 -0.14056,0.01654 -0.101286,0 -0.157096,-0.03204 -0.05581,-0.03204 -0.07855,-0.08372 -0.02274,-0.05271 -0.02274,-0.220142 v -0.631487 h -0.136426 v -0.144694 h 0.136426 V 51.334723 L 20.7105,51.223101 v 0.38344 h 0.187069 v 0.144694 H 20.7105 v 0.641823 q 0,0.07958 0.0093,0.102319 0.01034,0.02274 0.03204,0.03617 0.02274,0.01344 0.06408,0.01344 0.03101,0 0.08165,-0.0072 z"
         style="font-size:2.11667px;fill:#ffffff;stroke-width:0.264583"
         id="path116" />
    </g>
  </g>
  <g
     inkscape:groupmode="layer"
     id="layer2"
     inkscape:label="components"
     style="display:none;opacity:0.978">
    <ellipse
       style="fill:#ff0000;fill-rule:evenodd;stroke-width:0.264583"
       id="path75"
       cx="12.7"
       cy="42.071793"
       rx="2.1913342"
       ry="2.1101737"
       inkscape:label="bpm" />
    <ellipse
       inkscape:label="main"
       ry="2.1101737"
       rx="2.1913342"
       cy="58.333233"
       cx="8.2371483"
       id="ellipse81"
       style="fill:#0000ff;fill-rule:evenodd;stroke-width:0.264583" />
    <ellipse
       style="fill:#0000ff;fill-rule:evenodd;stroke-width:0.264583"
       id="ellipse87"
       cx="8.1491432"
       cy="72.056862"
       rx="2.1913342"
       ry="2.1101737"
       inkscape:label="2x" />
    <ellipse
       inkscape:label="4x"
       ry="2.1101737"
       rx="2.1913342"
       cy="72.056862"
       cx="17.888407"
       id="ellipse89"
       style="fill:#0000ff;fill-rule:evenodd;stroke-width:0.264583" />
    <ellipse
       inkscape:label="8x"
       ry="2.1101737"
       rx="2.1913342"
       cy="85.621429"
       cx="8.1491432"
       id="ellipse87-4"
       style="fill:#0000ff;fill-rule:evenodd;stroke-width:0.264583" />
    <ellipse
       style="fill:#0000ff;fill-rule:evenodd;stroke-width:0.264583"
       id="ellipse89-1"
       cx="17.888407"
       cy="85.621429"
       rx="2.1913342"
       ry="2.1101737"
       inkscape:label="16x" />
    <ellipse
       inkscape:label="div2"
       ry="2.1101737"
       rx="2.1913342"
       cy="103.99956"
       cx="8.2022724"
       id="ellipse87-3"
       style="fill:#0000ff;fill-rule:evenodd;stroke-width:0.264583" />
    <ellipse
       style="fill:#0000ff;fill-rule:evenodd;stroke-width:0.264583"
       id="ellipse89-4"
       cx="17.941536"
       cy="103.99956"
       rx="2.1913342"
       ry="2.1101737"
       inkscape:label="div4" />
    <ellipse
       style="fill:#0000ff;fill-rule:evenodd;stroke-width:0.264583"
       id="ellipse87-4-0"
       cx="8.096014"
       cy="116.92657"
       rx="2.1913342"
       ry="2.1101737"
       inkscape:label="div8" />
    <ellipse
       inkscape:label="div16"
       ry="2.1101737"
       rx="2.1913342"
       cy="116.92657"
       cx="17.835278"
       id="ellipse89-1-6"
       style="fill:#0000ff;fill-rule:evenodd;stroke-width:0.264583" />
    <ellipse
       inkscape:label="run"
       ry="2.1101737"
       rx="2.1913342"
       cy="26.345554"
       cx="19.075502"
       id="ellipse73"
       style="fill:#ff0000;fill-rule:evenodd;stroke-width:0.264583" />
    <ellipse
       style="fill:#ff0000;fill-rule:evenodd;stroke-width:0.264583"
       id="ellipse74"
       cx="6.3244982"
       cy="26.451813"
       rx="2.1913342"
       ry="2.1101737"
       inkscape:label="reset" />
    <ellipse
       style="fill:#0000ff;fill-rule:evenodd;stroke-width:0.264583"
       id="ellipse84"
       cx="18.119177"
       cy="58.439491"
       rx="2.1913342"
       ry="2.1101737"
       inkscape:label="reset" />
  </g>
</svg>
