<?xml version="1.0" encoding="UTF-8" standalone="no"?>
<svg
   xmlns:dc="http://purl.org/dc/elements/1.1/"
   xmlns:cc="http://creativecommons.org/ns#"
   xmlns:rdf="http://www.w3.org/1999/02/22-rdf-syntax-ns#"
   xmlns:svg="http://www.w3.org/2000/svg"
   xmlns="http://www.w3.org/2000/svg"
   xmlns:sodipodi="http://sodipodi.sourceforge.net/DTD/sodipodi-0.dtd"
   xmlns:inkscape="http://www.inkscape.org/namespaces/inkscape"
   sodipodi:docname="sin.svg"
   inkscape:version="1.0 (4035a4fb49, 2020-05-01)"
   id="svg8"
   version="1.1"
   viewBox="0 0 10.16 128.5"
   height="128.5mm"
   width="10.16mm">
  <defs
     id="defs2" />
  <sodipodi:namedview
     inkscape:window-maximized="1"
     inkscape:window-y="-8"
     inkscape:window-x="-8"
     inkscape:window-height="837"
     inkscape:window-width="1600"
     showgrid="false"
     inkscape:document-rotation="0"
     inkscape:current-layer="layer1"
     inkscape:document-units="mm"
     inkscape:cy="148.63033"
     inkscape:cx="274.7579"
     inkscape:zoom="1.52"
     inkscape:pageshadow="2"
     inkscape:pageopacity="0.0"
     borderopacity="1.0"
     bordercolor="#666666"
     pagecolor="#ffffff"
     id="base" />
  <metadata
     id="metadata5">
    <rdf:RDF>
      <cc:Work
         rdf:about="">
        <dc:format>image/svg+xml</dc:format>
        <dc:type
           rdf:resource="http://purl.org/dc/dcmitype/StillImage" />
        <dc:title />
      </cc:Work>
    </rdf:RDF>
  </metadata>
  <g
     style="display:inline"
     id="layer1"
     inkscape:groupmode="layer"
     inkscape:label="Layer 1">
    <rect
       y="0.17406797"
       x="0.17406797"
       height="128.94319"
       width="10.618147"
       id="rect10"
       style="fill:#000000;fill-rule:evenodd;stroke-width:0.309031" />
    <g
       style="font-style:normal;font-variant:normal;font-weight:normal;font-stretch:normal;font-size:10.3742px;line-height:1.25;font-family:'Deicide Remain';-inkscape-font-specification:'Deicide Remain';stroke-width:0.353665"
       id="text14"
       transform="matrix(-0.03240513,-1.3354341,0.74741522,-0.05789943,0,0)"
       aria-label="Sin">
      <path
         id="path16"
         style="font-style:normal;font-variant:normal;font-weight:normal;font-stretch:normal;font-size:13.2035px;font-family:'Deicide Remain';-inkscape-font-specification:'Deicide Remain';fill:#ffffff;stroke-width:0.353665"
         d="m -24.360402,6.785653 c 0.330087,-0.4621225 0.673378,-0.5413435 1.161908,-0.26407 0.211256,0.105628 0.409308,0.237663 0.594157,0.3829015 0.607361,0.448919 0.752599,1.161908 0.382901,1.795676 -0.158442,0.2772735 -0.343291,0.3564945 -0.646971,0.2772735 -0.105628,-0.026407 -0.211256,-0.066018 -0.330087,-0.092424 -0.02641,0.079221 -0.05281,0.1452385 -0.07922,0.211256 -0.316884,0.580954 -1.122298,0.6997855 -1.491996,0.092424 -0.462122,-0.7790065 -0.884634,-1.5712165 -1.05628,-2.482258 -0.0132,-0.052814 -0.03961,-0.092425 -0.07922,-0.158442 -0.145238,0.686582 -0.06602,1.3335535 0.105628,1.9673215 0.22446,0.845024 0.580954,1.6504375 1.069484,2.3898335 0.224459,0.330087 0.514936,0.607361 0.779006,0.911041 0.02641,0.02641 0.06602,0.03961 0.132035,0.07922 0,-0.118831 0.0132,-0.198052 0,-0.277273 -0.132035,-0.594158 0.462123,-1.333554 1.148705,-1.346757 0.30368,-0.0132 0.594157,0.03961 0.87143,0.184849 0.145239,0.07922 0.303681,0.145238 0.462123,0.198052 0.05281,0.0132 0.118831,0 0.198052,0 -0.184849,-0.607361 -0.184849,-1.148704 0.184849,-1.6900475 0.250867,-0.369698 0.290477,-0.8054135 0.09243,-1.267536 -0.171646,-0.369698 -0.22446,-0.79221 -0.303681,-1.2015185 -0.03961,-0.1716455 0,-0.343291 0.0132,-0.5149365 0,-0.066018 0.0132,-0.1188315 0.0132,-0.1980525 -0.79221,0.2508665 -1.531605,0.105628 -2.204984,-0.3036805 -0.475326,-0.2904769 -0.699785,-0.7261924 -0.726192,-1.2675359 -0.0132,-0.501733 0.435715,-0.871431 0.937448,-0.8054135 0.290477,0.052814 0.52814,0.1980525 0.752599,0.3829015 0.501733,0.4093085 1.029873,0.7790065 1.597624,1.082687 0.03961,0.013203 0.09242,0.013203 0.132035,0.013203 -0.435716,-0.475326 -0.805414,-1.0166695 -1.095891,-1.5976235 -0.30368,-0.580954 -0.396105,-1.214722 -0.396105,-1.874897 -0.07922,0.066018 -0.145238,0.132035 -0.211256,0.211256 -0.382901,0.422512 -0.818616,0.6997855 -1.425977,0.554547 -0.290477,-0.066017 -0.501733,-0.2508665 -0.726193,-0.422512 -0.118831,-0.092424 -0.224459,-0.184849 -0.382901,-0.3036805 0.02641,0.079221 0.02641,0.1188315 0.02641,0.1452385 0.0132,0.03961 0.0132,0.079221 0.02641,0.105628 0.07922,0.5149365 -0.0132,0.9902625 -0.303681,1.452385 -0.237663,0.369698 -0.422512,0.7790065 -0.620564,1.188315 -0.118832,0.2508665 -0.184849,0.501733 -0.198053,0.7790065 0.105628,-0.066018 0.198053,-0.1188315 0.290477,-0.1716455 0.356495,-0.1716455 0.660175,-0.052814 0.805414,0.316884 0.03961,0.1056279 0.06602,0.2244594 0.07922,0.3564944 0.02641,0.1716455 0.02641,0.343291 0.05281,0.5149365 0.02641,0.26407 0.105628,0.52814 0.277273,0.7525995 0.03961,-0.039611 0.06602,-0.079221 0.09242,-0.105628 z" />
      <path
         id="path18"
         style="font-style:normal;font-variant:normal;font-weight:normal;font-stretch:normal;font-size:13.2035px;font-family:'Deicide Remain';-inkscape-font-specification:'Deicide Remain';fill:#ffffff;stroke-width:0.353665"
         d="m -20.345094,5.2804541 c 0.382901,0.2508664 0.514936,0.5941574 0.422512,1.0430764 -0.02641,0.1188315 -0.06602,0.2508665 -0.105628,0.369698 -0.07922,0.2508665 -0.105628,0.501733 -0.03961,0.765803 0.06602,0.26407 0.0132,0.5413435 -0.145238,0.7525995 -0.03961,0.039611 -0.07922,0.092424 -0.118832,0.1452385 0.620565,0.8582275 0.501733,1.7824725 0.316884,2.7331245 0.09243,-0.07922 0.184849,-0.158442 0.237663,-0.26407 0.237663,-0.422512 0.475326,-0.8582275 0.699786,-1.2807395 0.05281,-0.105628 0.09242,-0.211256 0.105628,-0.316884 0.118831,-0.501733 0.118831,-0.9902625 -0.03961,-1.4655885 -0.145238,-0.422512 -0.09242,-0.8318205 0.132035,-1.2015185 0.09242,-0.158442 0.198053,-0.3036805 0.303681,-0.4621225 0.03961,-0.052814 0.07922,-0.092424 0.132035,-0.1452385 -0.05281,-0.066018 -0.07922,-0.1188315 -0.118832,-0.1716455 -0.396105,-0.5413434 -0.56775,-1.1355009 -0.514936,-1.8088794 0.02641,-0.3300875 0.02641,-0.660175 0.0132,-0.9902625 -0.0132,-0.2508665 -0.05281,-0.4885295 -0.132035,-0.7261925 -0.145238,-0.448919 -0.514936,-0.6997855 -0.990262,-0.897838 0.422512,1.346757 0.30368,2.5746825 -0.409309,3.749794 0.07922,0.066018 0.158442,0.1188315 0.250868,0.1716455 z" />
      <path
         id="path20"
         style="font-style:normal;font-variant:normal;font-weight:normal;font-stretch:normal;font-size:13.2035px;font-family:'Deicide Remain';-inkscape-font-specification:'Deicide Remain';fill:#ffffff;stroke-width:0.353665"
         d="m -16.908883,6.2443095 c 0.211256,0.316884 0.396105,0.5941575 0.594157,0.871431 0.198053,0.26407 0.316884,0.554547 0.409309,0.871431 0.02641,0.092425 0.03961,0.1980525 0.05281,0.3036805 0.198052,0.079221 0.396105,0.132035 0.56775,0.2244595 0.501733,0.2508665 0.831821,0.6469715 0.924245,1.214722 0.06602,0.4489185 -0.0132,0.8846345 -0.171645,1.3071465 -0.02641,0.105628 -0.06602,0.198052 -0.105628,0.30368 l 0.05281,0.03961 c 0.171645,-0.171646 0.356494,-0.330088 0.514936,-0.514937 0.594157,-0.686582 0.871431,-1.465588 0.646971,-2.389833 -0.06602,-0.290477 -0.145238,-0.5941575 -0.211256,-0.8846345 -0.05281,-0.26407 -0.06602,-0.5149365 0,-0.7790065 0.105628,-0.396105 0.22446,-0.765803 0.554547,-1.029873 0.0132,-0.013204 0.02641,-0.039611 0.02641,-0.052814 -0.0132,-0.013203 -0.0132,-0.026407 -0.02641,-0.039611 -0.05281,-0.013203 -0.105628,-0.026407 -0.145238,-0.052814 -0.396105,-0.132035 -0.580954,-0.3829014 -0.594158,-0.7922099 0,-0.2772735 0.06602,-0.5413435 0.158442,-0.79221 0.09243,-0.2772735 0.198053,-0.5413435 0.237663,-0.818617 0.07922,-0.501733 -0.02641,-0.950652 -0.369698,-1.3335535 -0.34329,-0.396105 -0.779006,-0.6205645 -1.267535,-0.739396 -0.06602,-0.013204 -0.132035,-0.026407 -0.198053,-0.039611 0.171646,0.184849 0.369698,0.3300875 0.554547,0.4885295 0.277274,0.2244595 0.475326,0.501733 0.541344,0.8582275 0.03961,0.184849 0,0.343291 -0.145239,0.475326 -0.224459,0.237663 -0.501733,0.3564945 -0.845024,0.316884 -0.09242,0 -0.171645,-0.013204 -0.316884,-0.013204 0.06602,0.092425 0.105628,0.132035 0.132035,0.184849 0.118832,0.211256 0.22446,0.4093085 0.330088,0.6205645 0.145238,0.2508665 0.118831,0.5149365 -0.02641,0.765803 -0.02641,0.052814 -0.03961,0.092425 -0.06602,0.1452385 0.06602,0.1188315 0.118832,0.237663 0.184849,0.343291 0.277274,0.4885294 0.396105,1.0034659 0.382902,1.5580129 -0.0132,0.3036805 0,0.6205645 0.0132,0.924245 0,0.066018 0.0132,0.1188315 0.0132,0.1980525 -0.237663,-0.132035 -0.356495,-0.290477 -0.409309,-0.5149365 -0.05281,-0.237663 -0.184849,-0.4621225 -0.369698,-0.607361 -0.105628,-0.079221 -0.211256,-0.211256 -0.211256,-0.316884 0,-0.237663 -0.145238,-0.3300875 -0.290477,-0.4357155 -0.184849,-0.132035 -0.369698,-0.2772735 -0.52814,-0.4357155 -0.250866,-0.2244595 -0.396105,-0.5413434 -0.422512,-0.8714309 -0.0132,-0.105628 -0.03961,-0.211256 -0.03961,-0.3036805 0,-0.105628 -0.03961,-0.158442 -0.105628,-0.2244595 -0.198053,-0.1980525 -0.330088,-0.4621225 -0.382902,-0.7261925 -0.118831,-0.5413435 -0.105628,-1.0694835 0.05281,-1.5976235 0.03961,-0.158442 0.09242,-0.3036805 0.132035,-0.448919 -0.02641,0 -0.05281,0 -0.06602,0 -0.02641,0.026407 -0.05281,0.03961 -0.07922,0.066018 -0.462123,0.396105 -0.7526,0.8846345 -0.911042,1.4655885 -0.145238,0.5413435 -0.09242,1.082687 0.02641,1.6240305 0.09243,0.369698 0.171646,0.7393959 0.237663,1.1222974 0.03961,0.3036805 -0.06602,0.580954 -0.277273,0.8054135 -0.105628,0.1188315 -0.211256,0.237663 -0.316884,0.3564945 0.250866,0.3564945 0.316884,0.7525995 0.316884,1.1751115 -0.0132,0.211256 -0.02641,0.4093085 -0.05281,0.6205645 -0.105628,0.8054135 0.158442,1.505199 0.646971,2.138967 0.145239,0.198052 0.343291,0.369698 0.567751,0.475326 -0.05281,-0.158442 -0.09242,-0.277274 -0.132035,-0.396105 -0.145239,-0.435716 -0.22446,-0.858228 -0.198053,-1.3071465 0.02641,-0.290477 0.118832,-0.5413435 0.316884,-0.765803 0.03961,-0.039611 0.06602,-0.092424 0.118832,-0.1452385 -0.369698,-0.818617 -0.26407,-1.6240305 -0.02641,-2.4954615 z" />
    </g>
    <g
       aria-label="Freq"
       transform="translate(-1.4941103,-7.7996592)"
       id="text28"
       style="font-size:2.82222px;line-height:1.25;font-family:Arial;-inkscape-font-specification:Arial;white-space:pre;inline-size:0;fill:#ffffff;stroke-width:0.264583">
      <path
         d="m 4.0610059,54.831413 v -2.020202 h 1.3628788 v 0.2384 H 4.3283451 v 0.625629 h 0.9480896 v 0.238401 H 4.3283451 v 0.917772 z"
         style="font-size:2.82222px;fill:#ffffff;stroke-width:0.264583"
         id="path30" />
      <path
         d="m 5.7380771,54.831413 v -1.463475 h 0.223242 v 0.221864 q 0.085438,-0.155718 0.1570962,-0.205328 0.073036,-0.04961 0.1598523,-0.04961 0.1254014,0 0.2549369,0.07993 l -0.085438,0.230132 q -0.09095,-0.05374 -0.1819009,-0.05374 -0.081304,0 -0.1460719,0.04961 -0.064768,0.04823 -0.092328,0.135048 -0.041341,0.132291 -0.041341,0.289388 v 0.766188 z"
         style="font-size:2.82222px;fill:#ffffff;stroke-width:0.264583"
         id="path32" />
      <path
         d="m 7.6852435,54.360125 0.2563149,0.03169 q -0.060634,0.22462 -0.22462,0.348644 -0.1639865,0.124023 -0.4189233,0.124023 -0.3210827,0 -0.5098738,-0.197059 -0.187413,-0.198438 -0.187413,-0.555349 0,-0.369314 0.1901691,-0.573264 0.1901691,-0.203949 0.4933373,-0.203949 0.2935219,0 0.4795569,0.199815 0.186035,0.199816 0.186035,0.562239 0,0.02205 -0.00138,0.06615 H 6.8570432 q 0.01378,0.241157 0.1364257,0.369314 0.1226453,0.128158 0.3059242,0.128158 0.1364257,0 0.2328883,-0.07166 0.096463,-0.07166 0.1529621,-0.228754 z M 6.8708236,53.959116 h 0.817176 Q 7.6714631,53.774459 7.5942931,53.68213 7.4757819,53.538814 7.2869908,53.538814 q -0.1708766,0 -0.2880098,0.114378 -0.1157551,0.114377 -0.1281574,0.305924 z"
         style="font-size:2.82222px;fill:#ffffff;stroke-width:0.264583"
         id="path34" />
      <path
         d="m 9.1873038,55.392274 v -0.716579 q -0.057878,0.0813 -0.1626083,0.135048 -0.1033528,0.05374 -0.220486,0.05374 -0.260449,0 -0.4492401,-0.208083 -0.187413,-0.208084 -0.187413,-0.570508 0,-0.220486 0.075792,-0.395496 0.07717,-0.175011 0.221864,-0.264584 0.1460719,-0.09095 0.3197046,-0.09095 0.2714733,0 0.4271915,0.228754 v -0.195681 h 0.223242 v 2.024336 z M 8.4224932,54.095541 q 0,0.282498 0.1185112,0.424436 0.1185112,0.14056 0.2838757,0.14056 0.1584742,0 0.2728513,-0.13367 0.1143771,-0.135048 0.1143771,-0.409277 0,-0.292144 -0.1212673,-0.439594 -0.1198892,-0.14745 -0.2824976,-0.14745 -0.1612303,0 -0.2742294,0.137804 -0.111621,0.136426 -0.111621,0.427191 z"
         style="font-size:2.82222px;fill:#ffffff;stroke-width:0.264583"
         id="path36" />
    </g>
    <g
       style="font-size:3.52777px;line-height:1.25;font-family:Arial;-inkscape-font-specification:Arial;stroke-width:0.264583"
       id="text70"
       aria-label="V/oct"
       transform="translate(-0.39577743)">
      <path
         id="path78"
         style="font-size:2.82222px;fill:#ffffff;stroke-width:0.264583"
         d="M 3.0580111,72.586349 2.275286,70.566147 h 0.2893878 l 0.5250322,1.46761 q 0.06339,0.176388 0.1061088,0.330729 0.046853,-0.165365 0.1088649,-0.330729 l 0.5457028,-1.46761 h 0.2728513 l -0.7909933,2.020202 z" />
      <path
         id="path80"
         style="font-size:2.82222px;fill:#ffffff;stroke-width:0.264583"
         d="M 4.1480385,72.6208 4.7337043,70.531696 H 4.9321416 L 4.3478539,72.6208 Z" />
      <path
         id="path82"
         style="font-size:2.82222px;fill:#ffffff;stroke-width:0.264583"
         d="m 5.0244702,71.854612 q 0,-0.406521 0.2259981,-0.602202 0.1887911,-0.162609 0.4602644,-0.162609 0.3017902,0 0.4933373,0.198437 0.1915472,0.19706 0.1915472,0.545703 0,0.282498 -0.085438,0.445106 -0.08406,0.161231 -0.2466686,0.250803 -0.1612304,0.08957 -0.3527776,0.08957 -0.3073022,0 -0.4974714,-0.197059 Q 5.0244705,72.225302 5.0244705,71.85461 Z m 0.2549369,0 q 0,0.281119 0.1226453,0.421679 0.1226453,0.139182 0.3086803,0.139182 0.184657,0 0.3073023,-0.14056 0.1226453,-0.14056 0.1226453,-0.428569 0,-0.271474 -0.1240233,-0.410656 -0.1226453,-0.140559 -0.3059243,-0.140559 -0.186035,0 -0.3086803,0.139181 -0.1226453,0.139182 -0.1226453,0.420302 z" />
      <path
         id="path84"
         style="font-size:2.82222px;fill:#ffffff;stroke-width:0.264583"
         d="m 7.6427404,72.050293 0.2439126,0.03169 q -0.039963,0.252181 -0.2053275,0.395497 -0.1639864,0.141937 -0.4037649,0.141937 -0.3004121,0 -0.4836911,-0.195681 -0.1819009,-0.197059 -0.1819009,-0.563617 0,-0.237022 0.078548,-0.414789 0.078548,-0.177767 0.2384004,-0.265961 0.1612303,-0.08957 0.3500214,-0.08957 0.2384005,0 0.3899845,0.121267 0.1515841,0.11989 0.1943033,0.341754 l -0.2411565,0.03721 q -0.034451,-0.14745 -0.1226453,-0.221864 -0.086816,-0.07441 -0.2108397,-0.07441 -0.1874131,0 -0.3045462,0.135047 -0.1171332,0.13367 -0.1171332,0.424436 0,0.2949 0.1129991,0.428569 0.112999,0.13367 0.2948999,0.13367 0.146072,0 0.2439126,-0.08957 0.097841,-0.08957 0.1240233,-0.275607 z" />
      <path
         id="path86"
         style="font-size:2.82222px;fill:#ffffff;stroke-width:0.264583"
         d="m 8.6404397,72.364486 0.035829,0.219107 q -0.1047309,0.02205 -0.1874131,0.02205 -0.1350476,0 -0.2094616,-0.04272 Q 8.20498,72.520204 8.1746631,72.451302 8.1443463,72.381022 8.1443463,72.15778 V 71.315799 H 7.9624454 V 71.122874 H 8.1443463 V 70.76045 L 8.391015,70.611622 v 0.511252 h 0.2494247 v 0.192925 H 8.391015 v 0.855761 q 0,0.106109 0.012402,0.136426 0.01378,0.03032 0.042719,0.04823 0.030317,0.01792 0.085438,0.01792 0.041341,0 0.1088649,-0.0096 z" />
    </g>
    <g
       aria-label="Out"
       transform="translate(-1.4299595,2.2292713)"
       id="text76"
       style="font-size:3.52777px;line-height:1.25;font-family:Arial;-inkscape-font-specification:Arial;white-space:pre;inline-size:0;display:inline;stroke-width:0.264583">
      <path
         d="m 4.3140571,96.494147 q 0,-0.502984 0.2700952,-0.786859 0.2700953,-0.285254 0.6972868,-0.285254 0.2797416,0 0.5043616,0.13367 0.2246201,0.133669 0.3417532,0.373448 0.1185112,0.2384 0.1185112,0.541568 0,0.307303 -0.1240233,0.549837 -0.1240233,0.242535 -0.3513995,0.367936 -0.2273761,0.124023 -0.4905812,0.124023 -0.2852537,0 -0.5098737,-0.137803 Q 4.5455673,97.236909 4.4298122,96.998509 4.3140571,96.760108 4.3140571,96.494147 Z m 0.2756074,0.0041 q 0,0.36518 0.1956813,0.57602 0.1970593,0.209461 0.4933373,0.209461 0.3017901,0 0.4960933,-0.212217 0.1956813,-0.212218 0.1956813,-0.602203 0,-0.246668 -0.08406,-0.429947 -0.082682,-0.184657 -0.2439125,-0.285254 -0.1598523,-0.101975 -0.3596677,-0.101975 -0.2838757,0 -0.4892032,0.195682 -0.2039495,0.194303 -0.2039498,0.650433 z"
         style="font-size:2.82222px;fill:#ffffff;stroke-width:0.264583"
         id="path89" />
      <path
         d="m 7.5166155,97.478065 v -0.214973 q -0.1708766,0.248046 -0.4643985,0.248046 -0.1295355,0 -0.2425345,-0.04961 Q 6.6980614,97.41192 6.64294,97.337506 6.5891965,97.261714 6.5671479,97.152849 6.5519895,97.079813 6.5519895,96.921338 V 96.01459 h 0.2480467 v 0.811664 q 0,0.194303 0.015158,0.261827 0.023427,0.09784 0.099219,0.15434 0.075792,0.05512 0.187413,0.05512 0.111621,0 0.2094617,-0.0565 0.097841,-0.05788 0.1378037,-0.155718 0.041341,-0.09922 0.041341,-0.286632 V 96.01459 h 0.2480467 v 1.463475 z"
         style="font-size:2.82222px;fill:#ffffff;stroke-width:0.264583"
         id="path91" />
      <path
         d="m 8.6700327,97.256202 0.035829,0.219107 q -0.1047308,0.02205 -0.187413,0.02205 -0.1350476,0 -0.2094617,-0.04272 -0.074414,-0.04272 -0.1047308,-0.111621 -0.030317,-0.07028 -0.030317,-0.293522 V 96.207515 H 7.9920384 V 96.01459 H 8.1739393 V 95.652166 L 8.420608,95.503338 v 0.511252 h 0.2494247 v 0.192925 H 8.420608 v 0.855761 q 0,0.106109 0.012402,0.136426 0.01378,0.03032 0.042719,0.04823 0.030317,0.01792 0.085438,0.01792 0.041341,0 0.108865,-0.0096 z"
         style="font-size:2.82222px;fill:#ffffff;stroke-width:0.264583"
         id="path93" />
    </g>
    <g
       id="g40"
       transform="matrix(0.01007637,0,0,0.00853192,3.2226222,111.89602)"
       style="fill:#ffffff">
      <path
         style="fill:#ffffff;stroke-width:1.35211"
         d="m 436.00195,399.08312 c 0,-51.68451 0.16814,-72.82817 0.37365,-46.98591 0.20551,25.84225 0.20551,68.12957 0,93.97183 -0.20551,25.84225 -0.37365,4.69859 -0.37365,-46.98592 z m -350.289433,26.70423 -2.575761,-3.04226 3.042253,2.57576 c 2.858962,2.42058 3.65779,3.50875 2.575762,3.50875 -0.256577,0 -1.625591,-1.36901 -3.042254,-3.04225 z m 116.913733,0.67605 c -1.68185,-2.14453 -1.63403,-2.19235 0.5105,-0.5105 1.30141,1.02064 2.3662,2.08543 2.3662,2.3662 0,1.11284 -1.11034,0.39658 -2.8767,-1.8557 z M 8.0945055,422.74509 c 1.7465915,-1.85915 3.4798375,-3.38028 3.8516685,-3.38028 0.371831,0 -0.752964,1.52113 -2.4995559,3.38028 -1.7465915,1.85916 -3.4798376,3.38028 -3.8516686,3.38028 -0.371831,0 0.7529645,-1.52112 2.499556,-3.38028 z m 183.7148445,-8.4507 c -1.68186,-2.14453 -1.63403,-2.19236 0.5105,-0.5105 1.30141,1.02064 2.3662,2.08543 2.3662,2.36619 0,1.11285 -1.11034,0.39659 -2.8767,-1.85569 z m -127.730635,-8.78873 -2.575761,-3.04226 3.042254,2.57576 c 2.858961,2.42058 3.657789,3.50875 2.575761,3.50875 -0.256577,0 -1.625591,-1.36901 -3.042254,-3.04225 z m -149.279981,-0.17248 c 0,-0.28077 1.064789,-1.34555 2.366198,-2.3662 2.144526,-1.68185 2.19235,-1.63402 0.510496,0.51051 -1.766358,2.25228 -2.876694,2.96853 -2.876694,1.85569 z M 29.728307,402.4634 c 1.746592,-1.85915 3.479838,-3.38028 3.851669,-3.38028 0.371831,0 -0.752964,1.52113 -2.499556,3.38028 -1.746591,1.85916 -3.479838,3.38028 -3.851669,3.38028 -0.37183,0 0.752965,-1.52112 2.499556,-3.38028 z m -4.158679,-11.15493 -3.27794,-3.71831 3.71831,3.27794 c 3.475321,3.06374 4.338375,4.15868 3.27794,4.15868 -0.242191,0 -1.91543,-1.67324 -3.71831,-3.71831 z m 42.693889,-3.04225 c 1.346015,-1.48732 2.751522,-2.70423 3.123353,-2.70423 0.371831,0 -0.425226,1.21691 -1.77124,2.70423 -1.346015,1.48732 -2.751522,2.70422 -3.123353,2.70422 -0.371831,0 0.425226,-1.2169 1.77124,-2.70422 z m 122.366193,-9.97529 c 0,-0.28077 1.06479,-1.34556 2.3662,-2.3662 2.14453,-1.68185 2.19235,-1.63403 0.5105,0.5105 -1.76636,2.25229 -2.8767,2.96854 -2.8767,1.8557 z m -187.3960629,-7.9402 -2.57576105,-3.04226 3.04225335,2.57576 c 1.6732394,1.41667 3.0422535,2.78568 3.0422535,3.04226 0,1.08203 -1.0881668,0.2832 -3.5087458,-2.57576 z m 86.6636719,-2.3662 c 1.346015,-1.48732 2.751522,-2.70423 3.123353,-2.70423 0.371831,0 -0.425226,1.21691 -1.77124,2.70423 -1.346015,1.48732 -2.751522,2.70422 -3.123353,2.70422 -0.371831,0 0.425226,-1.2169 1.77124,-2.70422 z m 111.549291,-1.86262 c 0,-0.28076 1.06479,-1.34555 2.3662,-2.36619 2.14453,-1.68186 2.19235,-1.63403 0.5105,0.5105 -1.76636,2.25228 -2.8767,2.96854 -2.8767,1.85569 z"
         id="path54" />
      <path
         style="fill:#ffffff;stroke-width:1.35211"
         d="m -3.4983216,463.30847 c 0.00102,-16.36056 0.1962659,-22.86768 0.4338767,-14.46027 0.2376095,8.40742 0.2367725,21.79333 -0.00189,29.74648 -0.2385979,7.95315 -0.433006,1.07436 -0.4319838,-15.28621 z M -118.89734,432.09721 c 0.0649,-1.57514 0.38528,-1.89553 0.81691,-0.81691 0.39058,0.97605 0.34255,2.14226 -0.10675,2.59156 -0.4493,0.44929 -0.76887,-0.34931 -0.71016,-1.77465 z M 62.17901,394.51628 c 0,-0.28077 1.064789,-1.34556 2.366198,-2.3662 2.144531,-1.68185 2.192355,-1.63403 0.510503,0.51051 -1.766359,2.25228 -2.876701,2.96853 -2.876701,1.85569 z M 7.92203,375.08312 c -1.6818523,-2.14453 -1.6340281,-2.19236 0.5105036,-0.5105 1.3014084,1.02064 2.3661974,2.08543 2.3661974,2.36619 0,1.11285 -1.1103416,0.39659 -2.876701,-1.85569 z m 75.890782,-0.84853 c 0,-0.28077 1.064789,-1.34556 2.366197,-2.3662 2.144532,-1.68185 2.192356,-1.63403 0.510504,0.51051 -1.766359,2.25228 -2.876701,2.96853 -2.876701,1.85569 z M -3.4983216,334.85777 c 0.00102,-16.36056 0.1962659,-22.86769 0.4338767,-14.46028 0.2376095,8.40742 0.2367725,21.79334 -0.00189,29.74648 -0.2385979,7.95315 -0.433006,1.07436 -0.4319838,-15.2862 z"
         id="path52" />
      <path
         style="fill:#ffffff;stroke-width:1.35211"
         d="m 96.605556,497.78735 c 0,-34.58029 0.175098,-48.72676 0.389111,-31.43662 0.214012,17.29014 0.214012,45.5831 0,62.87324 -0.214013,17.29014 -0.389111,3.14366 -0.389111,-31.43662 z m -18.37367,-79.43662 c -1.681852,-2.14454 -1.634028,-2.19236 0.510504,-0.51051 1.301408,1.02065 2.366197,2.08543 2.366197,2.3662 0,1.11284 -1.110341,0.39659 -2.876701,-1.85569 z m 18.37417,-118.64789 c -2.84e-4,-34.95211 0.17449,-49.44472 0.388381,-32.20578 0.21389,17.23893 0.214107,45.83612 5e-4,63.54929 -0.21362,17.71318 -0.388611,3.6086 -0.388881,-31.34351 z"
         id="path50" />
      <path
         style="fill:#ffffff;stroke-width:1.35211"
         d="m 227.45919,581.2803 c 0.17733,-84.21971 0.48093,-128.4845 0.67465,-98.36619 0.92751,144.19826 0.93475,251.49327 0.017,251.49312 -0.55775,-10e-5 -0.86899,-68.90721 -0.69165,-153.12693 z M 335.62905,398.74509 c 0.1778,-89.42535 0.48145,-136.42817 0.67476,-104.4507 0.92675,153.30065 0.93358,267.04254 0.0161,267.0424 -0.55775,-8e-5 -0.86861,-73.16634 -0.6908,-162.5917 z M -4.0745081,433.72755 c 0,-0.28077 1.0647887,-1.34556 2.3661971,-2.3662 2.14452629,-1.68185 2.19235052,-1.63403 0.5104968,0.5105 -1.766358,2.25229 -2.8766939,2.96854 -2.8766939,1.8557 z M 74.175549,414.29439 c -1.681853,-2.14453 -1.634029,-2.19236 0.510503,-0.5105 1.301409,1.02064 2.366197,2.08543 2.366197,2.36619 0,1.11285 -1.110341,0.39659 -2.8767,-1.85569 z m -56.616255,-0.84853 c 0,-0.28077 1.064789,-1.34556 2.366197,-2.3662 2.144532,-1.68185 2.192356,-1.63403 0.510504,0.5105 -1.76636,2.25229 -2.876701,2.96854 -2.876701,1.8557 z m -2.156633,-30.92612 -2.575761,-3.04225 3.042253,2.57576 c 2.858961,2.42058 3.657789,3.50874 2.575761,3.50874 -0.256577,0 -1.625591,-1.36901 -3.042253,-3.04225 z m 63.677757,-3.71831 c 1.346015,-1.48732 2.751522,-2.70422 3.123353,-2.70422 0.371831,0 -0.425226,1.2169 -1.77124,2.70422 -1.346015,1.48732 -2.751522,2.70423 -3.123353,2.70423 -0.371831,0 0.425226,-1.21691 1.77124,-2.70423 z M 227.79121,200.99861 c -5e-5,-89.23943 0.16168,-125.945637 0.35938,-81.56934 0.19771,44.37631 0.19775,117.39039 8e-5,162.25353 -0.19765,44.86313 -0.35942,8.55525 -0.35946,-80.68419 z"
         id="path48" />
      <path
         style="fill:#ffffff;stroke-width:1.35211"
         d="m 210.21207,584.99861 c 6e-5,-82.54647 0.16255,-116.11661 0.36111,-74.6003 0.19856,41.51631 0.19852,109.05434 -9e-5,150.08451 -0.19861,41.03017 -0.36107,7.06227 -0.36102,-75.48421 z m -328.31474,-74.59155 c -0.49578,-0.49577 -0.90141,-17.45788 -0.90141,-37.69359 0,-33.43184 0.21611,-36.96168 2.3662,-38.64789 2.11004,-1.6548 2.17864,-1.61562 0.63376,0.36197 -1.33502,1.70895 -1.64519,10.78154 -1.35211,39.55017 0.20917,20.53288 0.32961,37.33211 0.26764,37.33162 -0.062,-4.7e-4 -0.51831,-0.4065 -1.01408,-0.90228 z m 209.223638,-80.56338 -2.575761,-3.04225 3.042253,2.57576 c 2.858961,2.42058 3.657789,3.50875 2.575761,3.50875 -0.256577,0 -1.625591,-1.36902 -3.042253,-3.04226 z M 2.686055,426.80143 c 1.7465915,-1.85915 3.4798376,-3.38028 3.8516686,-3.38028 0.3718309,0 -0.7529645,1.52113 -2.499556,3.38028 -1.7465915,1.85916 -3.4798349,3.38028 -3.85166587,3.38028 -0.37183098,0 0.75296853,-1.52112 2.49955327,-3.38028 z M 227.72296,395.70284 c -8.3e-4,-18.59155 0.18961,-26.38472 0.42318,-17.31816 0.23358,9.06658 0.23426,24.27785 0.001,33.80282 -0.23261,9.52498 -0.42372,2.10689 -0.42454,-16.48466 z m -158.235794,13.85915 -2.575761,-3.04225 3.042253,2.57576 c 2.858961,2.42058 3.657789,3.50875 2.575761,3.50875 -0.256577,0 -1.625591,-1.36902 -3.042253,-3.04226 z m -45.167309,-3.04225 c 1.746591,-1.85915 3.479838,-3.38028 3.851669,-3.38028 0.371831,0 -0.752965,1.52113 -2.499556,3.38028 -1.746592,1.85916 -3.479838,3.38028 -3.851669,3.38028 -0.371831,0 0.752964,-1.52112 2.499556,-3.38028 z M 182.34456,404.8296 c -1.68185,-2.14453 -1.63403,-2.19236 0.5105,-0.5105 1.30141,1.02064 2.3662,2.08543 2.3662,2.36619 0,1.11285 -1.11034,0.39659 -2.8767,-1.85569 z m -161.533449,-16.90141 -2.575761,-3.04225 3.042254,2.57576 c 2.858961,2.42058 3.657789,3.50874 2.575761,3.50874 -0.256577,0 -1.625591,-1.36901 -3.042254,-3.04225 z m 52.1848,-3.04225 c 1.746592,-1.85916 3.479838,-3.38028 3.851669,-3.38028 0.371831,0 -0.752964,1.52112 -2.499556,3.38028 -1.746591,1.85915 -3.479838,3.38028 -3.851669,3.38028 -0.371831,0 0.752965,-1.52113 2.499556,-3.38028 z m 108.169009,2.86978 c 0,-0.28077 1.06479,-1.34556 2.3662,-2.3662 2.14453,-1.68185 2.19235,-1.63403 0.5105,0.5105 -1.76636,2.25228 -2.8767,2.96854 -2.8767,1.8557 z m -182.6375389,-20.78528 -3.2779455,-3.71831 3.7183097,3.27795 c 3.4753215,3.06373 4.338375,4.15867 3.2779401,4.15867 -0.2421904,0 -1.91543382,-1.67323 -3.7183043,-3.71831 z m 94.7502199,-0.84853 c 0,-0.28076 1.064788,-1.34555 2.366197,-2.36619 2.144532,-1.68186 2.192356,-1.63403 0.510503,0.5105 -1.766359,2.25228 -2.8767,2.96854 -2.8767,1.85569 z M 209.23236,197.61826 c -0.19201,-87.00848 0.10721,-158.197216 0.66495,-158.197178 0.55775,3.6e-5 1.01409,71.188798 1.01409,158.197248 0,87.00845 -0.29922,158.19719 -0.66496,158.19719 -0.36572,0 -0.82205,-71.18876 -1.01408,-158.19726 z"
         id="path46" />
      <path
         style="fill:#ffffff;stroke-width:1.35211"
         d="m 556.34114,413.2803 c 1.4e-4,-53.54366 0.16781,-75.251 0.37263,-48.23855 0.20482,27.01245 0.20472,70.8209 -2.3e-4,97.35211 -0.20494,26.53121 -0.37252,4.43011 -0.3724,-49.11356 z m -470.628623,11.15493 -2.575761,-3.04225 3.042253,2.57576 c 2.858962,2.42058 3.65779,3.50875 2.575762,3.50875 -0.256577,0 -1.625591,-1.36902 -3.042254,-3.04226 z M 8.7705618,420.71692 c 1.3460142,-1.48732 2.7515222,-2.70422 3.1233532,-2.70422 0.371831,0 -0.425226,1.2169 -1.771241,2.70422 -1.3460142,1.48733 -2.7515217,2.70423 -3.1233527,2.70423 -0.371831,0 0.4252259,-1.2169 1.7712405,-2.70423 z m 55.3081532,-16.56338 -2.575761,-3.04225 3.042254,2.57576 c 2.858961,2.42058 3.657789,3.50875 2.575761,3.50875 -0.256577,0 -1.625591,-1.36902 -3.042254,-3.04226 z m -35.70252,-1.52458 c 0,-0.28077 1.064789,-1.34556 2.366197,-2.3662 2.144532,-1.68185 2.192356,-1.63403 0.510504,0.5105 -1.76636,2.25228 -2.876701,2.96854 -2.876701,1.8557 z m -2.156633,-9.29232 -2.575761,-3.04225 3.042253,2.57576 c 2.858961,2.42058 3.657789,3.50875 2.575761,3.50875 -0.256577,0 -1.625591,-1.36902 -3.042253,-3.04226 z m 40.691843,-2.3662 c 1.346014,-1.48732 2.751522,-2.70422 3.123353,-2.70422 0.371831,0 -0.425226,1.2169 -1.771241,2.70422 -1.346014,1.48733 -2.751522,2.70423 -3.123353,2.70423 -0.371831,0 0.425226,-1.2169 1.771241,-2.70423 z M 189.2776,378.29093 c 0,-0.28077 1.06479,-1.34556 2.36619,-2.3662 2.14454,-1.68185 2.19236,-1.63403 0.51051,0.5105 -1.76636,2.25229 -2.8767,2.96854 -2.8767,1.8557 z m -184.6918403,-5.23598 -2.575761,-3.04225 3.0422534,2.57576 c 2.858961,2.42058 3.6577891,3.50875 2.575761,3.50875 -0.2565769,0 -1.6255909,-1.36902 -3.0422534,-3.04226 z m 85.3115593,-3.71831 c 1.346015,-1.48732 2.751522,-2.70422 3.123353,-2.70422 0.371831,0 -0.425226,1.2169 -1.77124,2.70422 -1.346015,1.48733 -2.751522,2.70423 -3.123353,2.70423 -0.371831,0 0.425226,-1.2169 1.77124,-2.70423 z"
         id="path44" />
      <path
         style="fill:#ffffff;stroke-width:1.35211"
         d="M 45.615631,621.29216 -117.65197,509.6199 v -36.86198 -36.86199 l 22.30986,-19.85057 c 12.270422,-10.91781 22.309858,-20.07194 22.309858,-20.34252 0,-0.27059 -10.047335,-9.43174 -22.32741,-20.35814 l -22.327408,-19.86619 0.35558,-46.0244 0.35558,-46.0244 160.9014,-110.08339 c 88.49577,-60.545869 161.96619,-110.664977 163.2676,-111.3758 2.24752,-1.227587 2.36355,6.626948 2.31325,156.61433 l -0.053,157.90672 -17.49075,19.47317 -17.49076,19.47315 3.68456,4.43835 c 2.02649,2.44109 9.92384,11.40858 17.54965,19.92775 l 13.8651,15.4894 -0.34398,148.83552 -0.34392,148.83552 z M 97.333939,498.01744 v -63.3192 L 78.74239,417.29329 c -10.225352,-9.57271 -18.726489,-17.73823 -18.891434,-18.14558 -0.16493,-0.40735 8.201267,-8.63217 18.591549,-18.27738 L 97.333939,363.3336 v -63.39666 c 0,-56.21514 -0.233213,-63.30717 -2.058714,-62.60665 -1.132299,0.4345 -23.9492,15.75928 -50.704223,34.05505 l -48.6455101,33.26507 v 30.0805 30.08051 l 18.2069941,16.79782 18.207008,16.79782 -18.237052,17.57747 -18.2370542,17.57746 0.030057,29.84931 0.030047,29.84931 49.6901392,34.00377 c 27.329576,18.70208 50.146477,34.01919 50.704223,34.03803 0.557747,0.0188 1.014085,-28.45941 1.014085,-63.28497 z M 228.48886,386.93421 c 0,-190.51247 0.49273,-346.183485 1.09496,-345.935597 0.60221,0.247887 71.03038,48.279873 156.50703,106.737747 85.47664,58.45787 157.54166,107.29968 160.14448,108.53735 2.60282,1.23767 6.03876,3.30145 7.63545,4.58619 l 2.90305,2.3359 -0.73228,123.37103 -0.73229,123.37105 -159.57362,109.19233 C 307.97014,679.186 234.43555,729.4471 232.32543,730.82153 l -3.83657,2.49898 z m 159.40431,139.81745 48.82104,-33.42902 v -94.36068 -94.36069 l -48.54089,-33.20034 c -26.69747,-18.26019 -49.51437,-33.57392 -50.70422,-34.0305 -1.97565,-0.75813 -2.16334,13.27176 -2.16334,161.71269 0,138.36498 0.28012,162.43535 1.88318,161.8202 1.03575,-0.39746 23.85265,-15.7657 50.70423,-34.15166 z"
         id="path42" />
    </g>
  </g>
  <g
     style="display:none"
     inkscape:label="components"
     id="layer2"
     inkscape:groupmode="layer">
    <ellipse
       ry="1.9147478"
       rx="2.0888157"
       cy="12.532894"
       cx="5.0799999"
       id="path24"
       style="fill:#ff00ff;fill-rule:evenodd;stroke-width:0.264583"
       inkscape:label="blink" />
    <circle
       r="1.9147478"
       cy="54.657341"
       cx="5.0799999"
       id="path39"
       style="fill:#ff0000;fill-rule:evenodd;stroke-width:0.264583"
       inkscape:label="pitch" />
    <circle
       style="fill:#00ff00;fill-rule:evenodd;stroke-width:0.264583"
       id="circle72"
       cx="5.0799999"
       cy="78.852791"
       r="1.9147478"
       inkscape:label="pitch" />
    <circle
       r="1.9147478"
       cy="104.61485"
       cx="5.0799999"
       id="circle96"
       style="fill:#0000ff;fill-rule:evenodd;stroke-width:0.264583"
       inkscape:label="sine" />
  </g>
</svg>
