<?xml version="1.0" encoding="UTF-8" standalone="no"?>
<svg
   xmlns:dc="http://purl.org/dc/elements/1.1/"
   xmlns:cc="http://creativecommons.org/ns#"
   xmlns:rdf="http://www.w3.org/1999/02/22-rdf-syntax-ns#"
   xmlns:svg="http://www.w3.org/2000/svg"
   xmlns="http://www.w3.org/2000/svg"
   xmlns:sodipodi="http://sodipodi.sourceforge.net/DTD/sodipodi-0.dtd"
   xmlns:inkscape="http://www.inkscape.org/namespaces/inkscape"
   width="40.639999mm"
   height="128.5mm"
   viewBox="0 0 40.639999 128.5"
   version="1.1"
   id="svg8"
   inkscape:version="1.0 (4035a4fb49, 2020-05-01)"
   sodipodi:docname="volta.svg">
  <defs
     id="defs2">
    <rect
       x="74.585129"
       y="24.177443"
       width="21.440374"
       height="5.9303161"
       id="rect26" />
    <rect
       x="57.02227"
       y="20.299928"
       width="59.075072"
       height="24.405532"
       id="rect14" />
  </defs>
  <sodipodi:namedview
     id="base"
     pagecolor="#ffffff"
     bordercolor="#666666"
     borderopacity="1.0"
     inkscape:pageopacity="0.0"
     inkscape:pageshadow="2"
     inkscape:zoom="1.16"
     inkscape:cx="400"
     inkscape:cy="146.43812"
     inkscape:document-units="mm"
     inkscape:current-layer="layer2"
     inkscape:document-rotation="0"
     showgrid="false"
     inkscape:window-width="1600"
     inkscape:window-height="837"
     inkscape:window-x="-8"
     inkscape:window-y="-8"
     inkscape:window-maximized="1" />
  <metadata
     id="metadata5">
    <rdf:RDF>
      <cc:Work
         rdf:about="">
        <dc:format>image/svg+xml</dc:format>
        <dc:type
           rdf:resource="http://purl.org/dc/dcmitype/StillImage" />
        <dc:title />
      </cc:Work>
    </rdf:RDF>
  </metadata>
  <g
     inkscape:label="Layer 1"
     inkscape:groupmode="layer"
     id="layer1">
    <rect
       style="fill:#000000;fill-rule:evenodd;stroke-width:0.264583"
       id="rect10"
       width="40.827946"
       height="128.87033"
       x="-0.22808908"
       y="-0.22808908" />
    <g
       style="font-size:3.52778px;line-height:0;font-family:Arial;-inkscape-font-specification:Arial;letter-spacing:1.39171px;white-space:pre;shape-inside:url(#rect14)"
       id="text12"
       transform="matrix(1,0,0,0.58726279,-51.23677,-4.6929655)"
       aria-label="VOLTA">
      <path
         id="path257"
         style="font-style:normal;font-variant:normal;font-weight:normal;font-stretch:normal;font-size:12.7px;line-height:1.25;font-family:'Deicide Remain';-inkscape-font-specification:'Deicide Remain';letter-spacing:1.39171px;fill:#ffffff"
         d="m 59.396384,21.231536 c -0.0635,0.0127 -0.127,0.0381 -0.1778,0.0635 -0.8255,0.4191 -1.3843,1.0668 -1.6129,1.9558 -0.1016,0.4318 -0.1524,0.889 -0.2032,1.3335 -0.0635,0.4826 -0.1778,0.9525 -0.4445,1.3716 -0.0127,0.0381 -0.0254,0.0635 -0.0381,0.1016 0.0889,0.0254 0.1651,0.0508 0.2413,0.0889 0.4191,0.1397 0.8001,0.3429 1.0668,0.7112 0.2032,0.2794 0.2794,0.5842 0.1905,0.9271 -0.0381,0.127 -0.0762,0.254 -0.1143,0.381 0.1524,0.127 0.3048,0.2413 0.4318,0.3683 0.381,0.4064 0.5461,0.889 0.4572,1.4478 -0.0889,0.4953 -0.3302,0.9144 -0.635,1.2954 -0.0635,0.0762 -0.1143,0.1397 -0.1651,0.2159 1.143,-0.4445 1.9431,-1.1684 2.0701,-2.4511 0.0381,-0.3556 0.0635,-0.7239 0.1524,-1.0668 0.1397,-0.5715 0.4445,-1.0414 0.9906,-1.3208 0.0508,-0.0254 0.0889,-0.0508 0.127,-0.0889 -0.0381,-0.0254 -0.0762,-0.0635 -0.1143,-0.0889 -0.3175,-0.2159 -0.4699,-0.5842 -0.2921,-1.016 0.1016,-0.2413 0.2413,-0.4572 0.381,-0.6731 0.127,-0.1905 0.2794,-0.3556 0.3937,-0.5461 0.381,-0.6096 0.4318,-1.2446 0.0762,-1.8796 -0.2159,-0.4064 -0.5461,-0.6858 -0.9525,-0.9017 0.0254,0.0762 0.0635,0.1524 0.1143,0.2286 0.1016,0.1651 0.2159,0.3302 0.3048,0.508 0.1524,0.2921 0.2032,0.6096 0.1397,0.9271 -0.0254,0.1651 -0.127,0.2921 -0.2667,0.3683 -0.3175,0.1778 -0.635,0.1905 -0.9525,0.0254 -0.0635,-0.0254 -0.127,-0.0508 -0.1905,-0.0762 0.0381,0.3175 0.0889,0.5969 0.127,0.8763 0.0254,0.2921 -0.0508,0.5461 -0.2794,0.7493 -0.1016,0.0889 -0.127,0.1778 -0.1016,0.3048 0.0127,0.0635 0.0127,0.127 0.0254,0.1905 0.0889,0.5334 0.0381,1.0795 -0.1524,1.5875 -0.1143,0.3175 -0.2032,0.6477 -0.3048,0.9779 -0.0127,0.0381 -0.0254,0.0889 -0.0508,0.1651 -0.1651,-0.1778 -0.2286,-0.3683 -0.2032,-0.5715 0.0381,-0.2794 0,-0.5334 -0.1524,-0.7747 -0.0889,-0.1143 -0.1016,-0.254 -0.0635,-0.4064 0.0127,-0.0508 0.0127,-0.1143 0.0254,-0.1651 -0.4445,-0.127 -0.6858,-0.4318 -0.7874,-0.8509 -0.1143,-0.4699 -0.0635,-0.9398 0.2159,-1.3462 0.0762,-0.1016 0.0635,-0.1778 0.0254,-0.2794 -0.1016,-0.2413 -0.127,-0.508 -0.0889,-0.762 0.0762,-0.4953 0.2286,-0.9779 0.508,-1.397 0.1143,-0.1651 0.2286,-0.3302 0.3429,-0.4953 -0.0254,-0.0127 -0.0508,-0.0127 -0.0635,-0.0127 z" />
      <path
         id="path259"
         style="font-style:normal;font-variant:normal;font-weight:normal;font-stretch:normal;font-size:12.7px;line-height:1.25;font-family:'Deicide Remain';-inkscape-font-specification:'Deicide Remain';letter-spacing:1.39171px;fill:#ffffff"
         d="m 64.049812,30.972436 c 0.0381,-0.0508 0.0635,-0.0889 0.1016,-0.1397 0.2286,-0.3048 0.4445,-0.6096 0.6731,-0.9017 0.2413,-0.2794 0.5588,-0.3175 0.9017,-0.2286 0.0889,0.0254 0.1778,0.0635 0.2667,0.0889 0.2794,-0.3937 0.5461,-0.4826 0.9271,-0.3048 0.0889,0.0381 0.1651,0.0889 0.2413,0.1397 0.1397,0.127 0.2794,0.2667 0.4064,0.4064 0.254,0.2413 0.4953,0.4953 0.7493,0.7366 0.127,0.127 0.2921,0.2159 0.4572,0.2667 -0.1778,-0.3556 -0.3556,-0.6858 -0.508,-1.016 -0.2667,-0.5461 -0.3175,-1.1176 -0.0889,-1.7018 0.0127,-0.0254 0.0127,-0.0635 0.0254,-0.0889 0.0762,-0.2032 0.0762,-0.4191 0,-0.6096 -0.0381,-0.1016 -0.0635,-0.1905 -0.1016,-0.2921 -0.1524,-0.381 -0.2286,-0.8001 -0.254,-1.2192 -0.0127,-0.3683 0.0381,-0.7112 0.2667,-1.0287 0.0254,-0.0508 0.0635,-0.1016 0.0889,-0.1651 -0.3683,-0.4445 -0.5207,-0.9525 -0.4699,-1.4986 0.0381,-0.4191 0.2032,-0.8001 0.4191,-1.1557 0.127,-0.2032 0.2667,-0.4191 0.3937,-0.635 0.0635,-0.127 0.127,-0.254 0.1778,-0.381 0.0254,-0.0762 0.0381,-0.1524 -0.0508,-0.1905 -0.254,0.2032 -0.4953,0.4064 -0.7366,0.5969 -0.2794,0.2159 -0.635,0.3048 -0.9779,0.2413 -0.1778,-0.0381 -0.3556,-0.1016 -0.5588,-0.1651 -0.0889,0.0762 -0.1905,0.1524 -0.2921,0.2286 -0.2413,0.2032 -0.5207,0.2286 -0.8128,0.1524 -0.1651,-0.0381 -0.3302,-0.1143 -0.4699,-0.2159 -0.2413,-0.1524 -0.4572,-0.3429 -0.6731,-0.5207 -0.1778,-0.1397 -0.3556,-0.2794 -0.5588,-0.3302 0.1651,0.254 0.3429,0.4953 0.508,0.7493 0.1651,0.2413 0.2032,0.5207 0.1397,0.8128 -0.0381,0.1651 0,0.3175 0.0508,0.4699 0.0635,0.1397 0.127,0.2921 0.1651,0.4445 0.1143,0.3429 0.0762,0.6731 -0.0762,0.9906 -0.0762,0.1397 -0.1524,0.2794 -0.2286,0.4318 0.3937,0.1524 0.4572,0.4699 0.4318,0.8255 -0.0254,0.1651 -0.0508,0.3302 -0.1143,0.4826 -0.0889,0.2921 -0.127,0.5842 -0.0762,0.889 0.0508,0.3302 0.0889,0.6477 0.1397,0.9652 0.0635,0.5715 0.0508,1.143 -0.1905,1.6764 -0.0762,0.2159 -0.1524,0.4191 -0.2159,0.6477 -0.0508,0.1651 -0.0889,0.3429 -0.127,0.5207 z m 2.159,-2.6416 c -0.0762,0.1397 -0.2286,0.2032 -0.4064,0.1651 -0.1524,-0.0254 -0.2159,-0.1143 -0.2286,-0.3048 0,-0.0635 0,-0.1397 0.0127,-0.2032 0.0762,-0.4318 0.0508,-0.8636 -0.0254,-1.2954 -0.127,-0.7366 -0.0127,-1.1303 0.508,-1.6764 -0.1016,-0.1016 -0.1905,-0.2159 -0.2921,-0.3048 -0.4953,-0.4826 -0.2413,-1.2573 0.3048,-1.5494 0.1778,-0.0889 0.3429,-0.0127 0.4826,0.1016 0.2032,0.1778 0.2921,0.4064 0.2286,0.6731 -0.0508,0.2413 -0.1651,0.4699 -0.254,0.7366 0.0254,0.0381 0.0508,0.0889 0.0762,0.127 0.2159,0.2794 0.2794,0.5969 0.1905,0.9398 -0.1016,0.4318 -0.0635,0.8636 0.0635,1.2827 0.0508,0.1778 0.1143,0.3556 0.1778,0.5207 0.1016,0.2667 0.1397,0.5334 0.127,0.8128 -0.0127,0.2667 -0.1651,0.3556 -0.3937,0.2159 -0.1651,-0.1143 -0.3048,-0.254 -0.4826,-0.3937 -0.0381,0.0508 -0.0508,0.1016 -0.0889,0.1524 z" />
      <path
         id="path261"
         style="font-style:normal;font-variant:normal;font-weight:normal;font-stretch:normal;font-size:12.7px;line-height:1.25;font-family:'Deicide Remain';-inkscape-font-specification:'Deicide Remain';letter-spacing:1.39171px;fill:#ffffff"
         d="m 72.055245,28.749936 c -0.1143,0.2032 -0.3048,0.2286 -0.4826,0.0762 -0.1397,-0.1143 -0.2159,-0.3048 -0.1778,-0.4953 0.0508,-0.3048 0.1397,-0.5969 0.381,-0.8255 0.1143,-0.1143 0.2286,-0.2413 0.3556,-0.381 -0.0635,-0.0762 -0.1143,-0.1651 -0.1778,-0.2413 -0.1905,-0.2413 -0.2794,-0.5207 -0.3048,-0.8255 -0.0381,-0.3302 0.0254,-0.6604 0.1016,-0.9652 0.1016,-0.4064 0.0381,-0.7874 -0.1524,-1.143 -0.1397,-0.2794 -0.2032,-0.5588 -0.2794,-0.8636 -0.1143,-0.4826 -0.2413,-0.9652 -0.381,-1.4478 -0.0508,-0.1778 -0.1524,-0.3302 -0.2794,-0.4572 0.0254,0.5461 0.0635,1.0922 -0.0381,1.6256 -0.0889,0.5461 -0.1905,1.0922 -0.4699,1.5621 0,0.0127 0,0.0254 0.0127,0.0381 0.0254,0.0254 0.0635,0.0508 0.0889,0.0762 0.2921,0.2286 0.3683,0.5334 0.3048,0.8763 -0.0127,0.0889 -0.0254,0.1778 -0.0508,0.2667 -0.1143,0.3048 -0.0635,0.5715 0.0762,0.8509 0.0381,0.0762 0.0635,0.1524 0.1016,0.2286 0.0635,0.2032 0.0508,0.3937 -0.1016,0.5588 -0.1397,0.127 -0.2667,0.254 -0.3937,0.381 0.381,0.2413 0.3429,0.3302 0.4064,0.6731 0.0127,0.0889 0.0127,0.1651 0,0.254 -0.0254,0.2032 -0.0508,0.4191 -0.0889,0.6223 -0.127,0.5588 -0.0381,1.0668 0.2667,1.5494 0.0508,0.0635 0.0889,0.1143 0.1397,0.1651 0.0127,-0.2286 0.0127,-0.4191 0.0635,-0.5969 0.0635,-0.3048 0.2794,-0.4445 0.5842,-0.4318 0.2032,0.0127 0.4064,0.0889 0.5715,0.2286 0.1524,0.127 0.2921,0.2667 0.4445,0.4064 0.0381,0.0381 0.0762,0.0635 0.1397,0.1143 0.0635,-0.4699 0.3175,-0.7874 0.6858,-1.016 0.4699,-0.2921 0.7366,-0.7493 1.0922,-1.1938 -0.3302,0.0254 -0.5969,0.1397 -0.8128,0.3175 -0.1778,0.1524 -0.3683,0.1905 -0.5842,0.1905 -0.3429,-0.0127 -0.6477,-0.1397 -0.9525,-0.3556 -0.0381,0.0762 -0.0635,0.127 -0.0889,0.1778 z" />
      <path
         id="path263"
         style="font-style:normal;font-variant:normal;font-weight:normal;font-stretch:normal;font-size:12.7px;line-height:1.25;font-family:'Deicide Remain';-inkscape-font-specification:'Deicide Remain';letter-spacing:1.39171px;fill:#ffffff"
         d="m 79.044678,21.904636 c -0.2032,0.1651 -0.4445,0.2667 -0.6985,0.3048 -0.1778,0.0381 -0.3683,-0.0508 -0.4445,-0.2032 -0.0381,-0.0762 -0.0635,-0.1397 -0.0889,-0.2159 -0.0889,-0.254 -0.2159,-0.4826 -0.3937,-0.6858 -0.1397,-0.1524 -0.3048,-0.2667 -0.508,-0.3429 0.0127,0.0635 0.0508,0.1143 0.0635,0.1651 0.1016,0.2667 0.2159,0.5334 0.3048,0.8001 0.0381,0.0889 0.0254,0.2159 0,0.3175 -0.0635,0.2286 -0.2159,0.2921 -0.4191,0.1651 -0.2032,-0.1143 -0.3556,-0.2921 -0.4445,-0.4953 -0.0254,-0.0508 -0.0508,-0.0889 -0.0889,-0.1397 -1.0033,0.6985 -2.0828,0.8509 -3.2512,0.4953 0.1016,0.2032 0.2413,0.3556 0.4699,0.4953 0.3937,0.2413 0.8128,0.4064 1.27,0.4445 0.3048,0.0127 0.5969,0.1397 0.8636,0.3048 0.0635,-0.0762 0.127,-0.1397 0.1778,-0.2032 0.1397,-0.1397 0.3048,-0.2159 0.4826,-0.2413 0.3683,-0.0508 0.7112,0.254 0.6858,0.6096 -0.0127,0.1524 -0.0508,0.3048 -0.1016,0.4445 -0.127,0.3302 -0.2667,0.6604 -0.4191,1.0033 0.0762,0.0635 0.1524,0.127 0.2286,0.1778 0.2921,0.2286 0.4699,0.5334 0.4318,0.9144 -0.0127,0.2286 -0.0635,0.4572 -0.1143,0.6858 -0.0635,0.254 -0.1143,0.508 -0.0508,0.7747 0.0762,0.3683 0.0254,0.7112 -0.2159,1.016 -0.0127,0.0254 -0.0127,0.0508 -0.0254,0.0762 0.1778,0.2667 0.3048,0.5588 0.3556,0.8763 0.1143,0.6096 0.1016,1.2319 -0.0254,1.8415 -0.0127,0.1016 -0.0508,0.2032 -0.0127,0.3429 0.0889,-0.127 0.1524,-0.2032 0.2032,-0.3048 0.1905,-0.381 0.3937,-0.762 0.5715,-1.143 0.3302,-0.762 0.3937,-1.5367 0.1651,-2.3241 -0.127,-0.4572 -0.0889,-0.889 0.1143,-1.2954 0.127,-0.2413 0.2794,-0.4826 0.4318,-0.7239 -0.2413,-0.4191 -0.4953,-0.8382 -0.5715,-1.3462 -0.0635,-0.4953 -0.0127,-0.9779 0,-1.4605 0.0381,-0.0254 0.0635,-0.0381 0.0889,-0.0381 0.2286,-0.0762 0.4445,-0.0254 0.6604,0.0381 0.5842,0.1651 1.143,0.127 1.6764,-0.1778 0.3429,-0.2032 0.6731,-0.4318 1.0033,-0.6604 0.0762,-0.0508 0.1397,-0.127 0.2032,-0.1905 -0.8382,0.1778 -1.651,0.2921 -2.4003,-0.254 -0.0635,0.0508 -0.127,0.1016 -0.1778,0.1524 z" />
      <path
         id="path265"
         style="font-style:normal;font-variant:normal;font-weight:normal;font-stretch:normal;font-size:12.7px;line-height:1.25;font-family:'Deicide Remain';-inkscape-font-specification:'Deicide Remain';letter-spacing:1.39171px;fill:#ffffff"
         d="m 83.298056,30.070736 c 0.2413,0.0127 0.4953,-0.0508 0.7112,-0.1651 0.6223,-0.3302 1.0541,-0.8128 1.2319,-1.5113 0.1397,-0.508 0.3683,-0.9652 0.8001,-1.3081 0.0508,-0.0381 0.0889,-0.0889 0.1524,-0.1651 -0.1143,-0.0381 -0.2032,-0.0762 -0.2794,-0.1016 -0.4191,-0.1524 -0.8128,-0.3683 -1.0795,-0.7366 -0.2159,-0.3048 -0.3048,-0.635 -0.2032,-1.0033 0.0381,-0.127 0.0762,-0.254 0.1016,-0.381 -0.127,-0.1143 -0.254,-0.2286 -0.3683,-0.3429 -0.4445,-0.4572 -0.6096,-0.9906 -0.4953,-1.6129 0.0889,-0.4953 0.3175,-0.9271 0.6223,-1.3208 0.0508,-0.0635 0.1016,-0.1397 0.1651,-0.2159 -0.0508,0 -0.0635,-0.0127 -0.0762,-0.0127 -1.1176,0.508 -1.8669,1.2827 -1.9939,2.5527 -0.0381,0.381 -0.0635,0.762 -0.1524,1.1176 -0.1397,0.6096 -0.4445,1.1176 -1.016,1.4097 -0.0381,0.0254 -0.0762,0.0508 -0.1143,0.0889 0.0762,0.0508 0.127,0.1016 0.1651,0.1397 0.2794,0.2286 0.381,0.5334 0.2921,0.8763 -0.0635,0.2286 -0.1778,0.4318 -0.2794,0.635 -0.1016,0.1651 -0.2413,0.3175 -0.3429,0.4699 -0.127,0.1905 -0.254,0.381 -0.3429,0.5842 -0.2159,0.4826 -0.2286,0.9652 -0.0381,1.4605 0.1905,0.4826 0.5207,0.8382 0.9398,1.1176 0.0508,0.0381 0.1143,0.0635 0.1778,0.0889 -0.1016,-0.1524 -0.1651,-0.2667 -0.2286,-0.3683 -0.1016,-0.1905 -0.2159,-0.381 -0.3048,-0.5715 -0.1143,-0.2794 -0.1397,-0.5969 -0.0762,-0.889 0.0254,-0.127 0.1016,-0.2413 0.2032,-0.3048 0.3175,-0.1905 0.635,-0.2413 0.9779,-0.0762 0.0762,0.0381 0.1397,0.0762 0.254,0.127 -0.0254,-0.1016 -0.0254,-0.1397 -0.0381,-0.1905 -0.0381,-0.254 -0.0889,-0.508 -0.1143,-0.762 -0.0381,-0.2921 0.0508,-0.5461 0.254,-0.762 0.0762,-0.0762 0.1397,-0.1651 0.2032,-0.2286 -0.0762,-0.1778 -0.1397,-0.3175 -0.1905,-0.4699 -0.0889,-0.2667 0,-0.4699 0.2667,-0.5842 0.2667,-0.1143 0.5461,-0.1143 0.8128,-0.0508 0.1524,0.0381 0.2794,0.127 0.3556,0.2667 0.1651,0.2921 0.2794,0.6096 0.2286,0.9525 -0.1524,0.8382 -0.4699,1.5748 -1.1303,2.1336 -0.0254,0.0254 -0.0762,0.0254 -0.1143,0.0381 z m -0.2286,-4.2799 0.3429,-1.2192 c 0.1397,0.127 0.1905,0.2921 0.1905,0.4699 0.0127,0.2159 0,0.4318 0,0.6477 z" />
    </g>
    <text
       xml:space="preserve"
       id="text24"
       style="font-size:3.52778px;line-height:1.55;font-family:Arial;-inkscape-font-specification:Arial;white-space:pre;shape-inside:url(#rect26);" />
    <g
       style="fill:#ffffff"
       transform="matrix(0.01530569,0,0,0.01154709,16.9691,115.62117)"
       id="g40">
      <path
         id="path54"
         d="m 436.00195,399.08312 c 0,-51.68451 0.16814,-72.82817 0.37365,-46.98591 0.20551,25.84225 0.20551,68.12957 0,93.97183 -0.20551,25.84225 -0.37365,4.69859 -0.37365,-46.98592 z m -350.289433,26.70423 -2.575761,-3.04226 3.042253,2.57576 c 2.858962,2.42058 3.65779,3.50875 2.575762,3.50875 -0.256577,0 -1.625591,-1.36901 -3.042254,-3.04225 z m 116.913733,0.67605 c -1.68185,-2.14453 -1.63403,-2.19235 0.5105,-0.5105 1.30141,1.02064 2.3662,2.08543 2.3662,2.3662 0,1.11284 -1.11034,0.39658 -2.8767,-1.8557 z M 8.0945055,422.74509 c 1.7465915,-1.85915 3.4798375,-3.38028 3.8516685,-3.38028 0.371831,0 -0.752964,1.52113 -2.4995559,3.38028 -1.7465915,1.85916 -3.4798376,3.38028 -3.8516686,3.38028 -0.371831,0 0.7529645,-1.52112 2.499556,-3.38028 z m 183.7148445,-8.4507 c -1.68186,-2.14453 -1.63403,-2.19236 0.5105,-0.5105 1.30141,1.02064 2.3662,2.08543 2.3662,2.36619 0,1.11285 -1.11034,0.39659 -2.8767,-1.85569 z m -127.730635,-8.78873 -2.575761,-3.04226 3.042254,2.57576 c 2.858961,2.42058 3.657789,3.50875 2.575761,3.50875 -0.256577,0 -1.625591,-1.36901 -3.042254,-3.04225 z m -149.279981,-0.17248 c 0,-0.28077 1.064789,-1.34555 2.366198,-2.3662 2.144526,-1.68185 2.19235,-1.63402 0.510496,0.51051 -1.766358,2.25228 -2.876694,2.96853 -2.876694,1.85569 z M 29.728307,402.4634 c 1.746592,-1.85915 3.479838,-3.38028 3.851669,-3.38028 0.371831,0 -0.752964,1.52113 -2.499556,3.38028 -1.746591,1.85916 -3.479838,3.38028 -3.851669,3.38028 -0.37183,0 0.752965,-1.52112 2.499556,-3.38028 z m -4.158679,-11.15493 -3.27794,-3.71831 3.71831,3.27794 c 3.475321,3.06374 4.338375,4.15868 3.27794,4.15868 -0.242191,0 -1.91543,-1.67324 -3.71831,-3.71831 z m 42.693889,-3.04225 c 1.346015,-1.48732 2.751522,-2.70423 3.123353,-2.70423 0.371831,0 -0.425226,1.21691 -1.77124,2.70423 -1.346015,1.48732 -2.751522,2.70422 -3.123353,2.70422 -0.371831,0 0.425226,-1.2169 1.77124,-2.70422 z m 122.366193,-9.97529 c 0,-0.28077 1.06479,-1.34556 2.3662,-2.3662 2.14453,-1.68185 2.19235,-1.63403 0.5105,0.5105 -1.76636,2.25229 -2.8767,2.96854 -2.8767,1.8557 z m -187.3960629,-7.9402 -2.57576105,-3.04226 3.04225335,2.57576 c 1.6732394,1.41667 3.0422535,2.78568 3.0422535,3.04226 0,1.08203 -1.0881668,0.2832 -3.5087458,-2.57576 z m 86.6636719,-2.3662 c 1.346015,-1.48732 2.751522,-2.70423 3.123353,-2.70423 0.371831,0 -0.425226,1.21691 -1.77124,2.70423 -1.346015,1.48732 -2.751522,2.70422 -3.123353,2.70422 -0.371831,0 0.425226,-1.2169 1.77124,-2.70422 z m 111.549291,-1.86262 c 0,-0.28076 1.06479,-1.34555 2.3662,-2.36619 2.14453,-1.68186 2.19235,-1.63403 0.5105,0.5105 -1.76636,2.25228 -2.8767,2.96854 -2.8767,1.85569 z"
         style="fill:#ffffff;stroke-width:1.35211" />
      <path
         id="path52"
         d="m -3.4983216,463.30847 c 0.00102,-16.36056 0.1962659,-22.86768 0.4338767,-14.46027 0.2376095,8.40742 0.2367725,21.79333 -0.00189,29.74648 -0.2385979,7.95315 -0.433006,1.07436 -0.4319838,-15.28621 z M -118.89734,432.09721 c 0.0649,-1.57514 0.38528,-1.89553 0.81691,-0.81691 0.39058,0.97605 0.34255,2.14226 -0.10675,2.59156 -0.4493,0.44929 -0.76887,-0.34931 -0.71016,-1.77465 z M 62.17901,394.51628 c 0,-0.28077 1.064789,-1.34556 2.366198,-2.3662 2.144531,-1.68185 2.192355,-1.63403 0.510503,0.51051 -1.766359,2.25228 -2.876701,2.96853 -2.876701,1.85569 z M 7.92203,375.08312 c -1.6818523,-2.14453 -1.6340281,-2.19236 0.5105036,-0.5105 1.3014084,1.02064 2.3661974,2.08543 2.3661974,2.36619 0,1.11285 -1.1103416,0.39659 -2.876701,-1.85569 z m 75.890782,-0.84853 c 0,-0.28077 1.064789,-1.34556 2.366197,-2.3662 2.144532,-1.68185 2.192356,-1.63403 0.510504,0.51051 -1.766359,2.25228 -2.876701,2.96853 -2.876701,1.85569 z M -3.4983216,334.85777 c 0.00102,-16.36056 0.1962659,-22.86769 0.4338767,-14.46028 0.2376095,8.40742 0.2367725,21.79334 -0.00189,29.74648 -0.2385979,7.95315 -0.433006,1.07436 -0.4319838,-15.2862 z"
         style="fill:#ffffff;stroke-width:1.35211" />
      <path
         id="path50"
         d="m 96.605556,497.78735 c 0,-34.58029 0.175098,-48.72676 0.389111,-31.43662 0.214012,17.29014 0.214012,45.5831 0,62.87324 -0.214013,17.29014 -0.389111,3.14366 -0.389111,-31.43662 z m -18.37367,-79.43662 c -1.681852,-2.14454 -1.634028,-2.19236 0.510504,-0.51051 1.301408,1.02065 2.366197,2.08543 2.366197,2.3662 0,1.11284 -1.110341,0.39659 -2.876701,-1.85569 z m 18.37417,-118.64789 c -2.84e-4,-34.95211 0.17449,-49.44472 0.388381,-32.20578 0.21389,17.23893 0.214107,45.83612 5e-4,63.54929 -0.21362,17.71318 -0.388611,3.6086 -0.388881,-31.34351 z"
         style="fill:#ffffff;stroke-width:1.35211" />
      <path
         id="path48"
         d="m 227.45919,581.2803 c 0.17733,-84.21971 0.48093,-128.4845 0.67465,-98.36619 0.92751,144.19826 0.93475,251.49327 0.017,251.49312 -0.55775,-10e-5 -0.86899,-68.90721 -0.69165,-153.12693 z M 335.62905,398.74509 c 0.1778,-89.42535 0.48145,-136.42817 0.67476,-104.4507 0.92675,153.30065 0.93358,267.04254 0.0161,267.0424 -0.55775,-8e-5 -0.86861,-73.16634 -0.6908,-162.5917 z M -4.0745081,433.72755 c 0,-0.28077 1.0647887,-1.34556 2.3661971,-2.3662 2.14452629,-1.68185 2.19235052,-1.63403 0.5104968,0.5105 -1.766358,2.25229 -2.8766939,2.96854 -2.8766939,1.8557 z M 74.175549,414.29439 c -1.681853,-2.14453 -1.634029,-2.19236 0.510503,-0.5105 1.301409,1.02064 2.366197,2.08543 2.366197,2.36619 0,1.11285 -1.110341,0.39659 -2.8767,-1.85569 z m -56.616255,-0.84853 c 0,-0.28077 1.064789,-1.34556 2.366197,-2.3662 2.144532,-1.68185 2.192356,-1.63403 0.510504,0.5105 -1.76636,2.25229 -2.876701,2.96854 -2.876701,1.8557 z m -2.156633,-30.92612 -2.575761,-3.04225 3.042253,2.57576 c 2.858961,2.42058 3.657789,3.50874 2.575761,3.50874 -0.256577,0 -1.625591,-1.36901 -3.042253,-3.04225 z m 63.677757,-3.71831 c 1.346015,-1.48732 2.751522,-2.70422 3.123353,-2.70422 0.371831,0 -0.425226,1.2169 -1.77124,2.70422 -1.346015,1.48732 -2.751522,2.70423 -3.123353,2.70423 -0.371831,0 0.425226,-1.21691 1.77124,-2.70423 z M 227.79121,200.99861 c -5e-5,-89.23943 0.16168,-125.945637 0.35938,-81.56934 0.19771,44.37631 0.19775,117.39039 8e-5,162.25353 -0.19765,44.86313 -0.35942,8.55525 -0.35946,-80.68419 z"
         style="fill:#ffffff;stroke-width:1.35211" />
      <path
         id="path46"
         d="m 210.21207,584.99861 c 6e-5,-82.54647 0.16255,-116.11661 0.36111,-74.6003 0.19856,41.51631 0.19852,109.05434 -9e-5,150.08451 -0.19861,41.03017 -0.36107,7.06227 -0.36102,-75.48421 z m -328.31474,-74.59155 c -0.49578,-0.49577 -0.90141,-17.45788 -0.90141,-37.69359 0,-33.43184 0.21611,-36.96168 2.3662,-38.64789 2.11004,-1.6548 2.17864,-1.61562 0.63376,0.36197 -1.33502,1.70895 -1.64519,10.78154 -1.35211,39.55017 0.20917,20.53288 0.32961,37.33211 0.26764,37.33162 -0.062,-4.7e-4 -0.51831,-0.4065 -1.01408,-0.90228 z m 209.223638,-80.56338 -2.575761,-3.04225 3.042253,2.57576 c 2.858961,2.42058 3.657789,3.50875 2.575761,3.50875 -0.256577,0 -1.625591,-1.36902 -3.042253,-3.04226 z M 2.686055,426.80143 c 1.7465915,-1.85915 3.4798376,-3.38028 3.8516686,-3.38028 0.3718309,0 -0.7529645,1.52113 -2.499556,3.38028 -1.7465915,1.85916 -3.4798349,3.38028 -3.85166587,3.38028 -0.37183098,0 0.75296853,-1.52112 2.49955327,-3.38028 z M 227.72296,395.70284 c -8.3e-4,-18.59155 0.18961,-26.38472 0.42318,-17.31816 0.23358,9.06658 0.23426,24.27785 0.001,33.80282 -0.23261,9.52498 -0.42372,2.10689 -0.42454,-16.48466 z m -158.235794,13.85915 -2.575761,-3.04225 3.042253,2.57576 c 2.858961,2.42058 3.657789,3.50875 2.575761,3.50875 -0.256577,0 -1.625591,-1.36902 -3.042253,-3.04226 z m -45.167309,-3.04225 c 1.746591,-1.85915 3.479838,-3.38028 3.851669,-3.38028 0.371831,0 -0.752965,1.52113 -2.499556,3.38028 -1.746592,1.85916 -3.479838,3.38028 -3.851669,3.38028 -0.371831,0 0.752964,-1.52112 2.499556,-3.38028 z M 182.34456,404.8296 c -1.68185,-2.14453 -1.63403,-2.19236 0.5105,-0.5105 1.30141,1.02064 2.3662,2.08543 2.3662,2.36619 0,1.11285 -1.11034,0.39659 -2.8767,-1.85569 z m -161.533449,-16.90141 -2.575761,-3.04225 3.042254,2.57576 c 2.858961,2.42058 3.657789,3.50874 2.575761,3.50874 -0.256577,0 -1.625591,-1.36901 -3.042254,-3.04225 z m 52.1848,-3.04225 c 1.746592,-1.85916 3.479838,-3.38028 3.851669,-3.38028 0.371831,0 -0.752964,1.52112 -2.499556,3.38028 -1.746591,1.85915 -3.479838,3.38028 -3.851669,3.38028 -0.371831,0 0.752965,-1.52113 2.499556,-3.38028 z m 108.169009,2.86978 c 0,-0.28077 1.06479,-1.34556 2.3662,-2.3662 2.14453,-1.68185 2.19235,-1.63403 0.5105,0.5105 -1.76636,2.25228 -2.8767,2.96854 -2.8767,1.8557 z m -182.6375389,-20.78528 -3.2779455,-3.71831 3.7183097,3.27795 c 3.4753215,3.06373 4.338375,4.15867 3.2779401,4.15867 -0.2421904,0 -1.91543382,-1.67323 -3.7183043,-3.71831 z m 94.7502199,-0.84853 c 0,-0.28076 1.064788,-1.34555 2.366197,-2.36619 2.144532,-1.68186 2.192356,-1.63403 0.510503,0.5105 -1.766359,2.25228 -2.8767,2.96854 -2.8767,1.85569 z M 209.23236,197.61826 c -0.19201,-87.00848 0.10721,-158.197216 0.66495,-158.197178 0.55775,3.6e-5 1.01409,71.188798 1.01409,158.197248 0,87.00845 -0.29922,158.19719 -0.66496,158.19719 -0.36572,0 -0.82205,-71.18876 -1.01408,-158.19726 z"
         style="fill:#ffffff;stroke-width:1.35211" />
      <path
         id="path44"
         d="m 556.34114,413.2803 c 1.4e-4,-53.54366 0.16781,-75.251 0.37263,-48.23855 0.20482,27.01245 0.20472,70.8209 -2.3e-4,97.35211 -0.20494,26.53121 -0.37252,4.43011 -0.3724,-49.11356 z m -470.628623,11.15493 -2.575761,-3.04225 3.042253,2.57576 c 2.858962,2.42058 3.65779,3.50875 2.575762,3.50875 -0.256577,0 -1.625591,-1.36902 -3.042254,-3.04226 z M 8.7705618,420.71692 c 1.3460142,-1.48732 2.7515222,-2.70422 3.1233532,-2.70422 0.371831,0 -0.425226,1.2169 -1.771241,2.70422 -1.3460142,1.48733 -2.7515217,2.70423 -3.1233527,2.70423 -0.371831,0 0.4252259,-1.2169 1.7712405,-2.70423 z m 55.3081532,-16.56338 -2.575761,-3.04225 3.042254,2.57576 c 2.858961,2.42058 3.657789,3.50875 2.575761,3.50875 -0.256577,0 -1.625591,-1.36902 -3.042254,-3.04226 z m -35.70252,-1.52458 c 0,-0.28077 1.064789,-1.34556 2.366197,-2.3662 2.144532,-1.68185 2.192356,-1.63403 0.510504,0.5105 -1.76636,2.25228 -2.876701,2.96854 -2.876701,1.8557 z m -2.156633,-9.29232 -2.575761,-3.04225 3.042253,2.57576 c 2.858961,2.42058 3.657789,3.50875 2.575761,3.50875 -0.256577,0 -1.625591,-1.36902 -3.042253,-3.04226 z m 40.691843,-2.3662 c 1.346014,-1.48732 2.751522,-2.70422 3.123353,-2.70422 0.371831,0 -0.425226,1.2169 -1.771241,2.70422 -1.346014,1.48733 -2.751522,2.70423 -3.123353,2.70423 -0.371831,0 0.425226,-1.2169 1.771241,-2.70423 z M 189.2776,378.29093 c 0,-0.28077 1.06479,-1.34556 2.36619,-2.3662 2.14454,-1.68185 2.19236,-1.63403 0.51051,0.5105 -1.76636,2.25229 -2.8767,2.96854 -2.8767,1.8557 z m -184.6918403,-5.23598 -2.575761,-3.04225 3.0422534,2.57576 c 2.858961,2.42058 3.6577891,3.50875 2.575761,3.50875 -0.2565769,0 -1.6255909,-1.36902 -3.0422534,-3.04226 z m 85.3115593,-3.71831 c 1.346015,-1.48732 2.751522,-2.70422 3.123353,-2.70422 0.371831,0 -0.425226,1.2169 -1.77124,2.70422 -1.346015,1.48733 -2.751522,2.70423 -3.123353,2.70423 -0.371831,0 0.425226,-1.2169 1.77124,-2.70423 z"
         style="fill:#ffffff;stroke-width:1.35211" />
      <path
         id="path42"
         d="M 45.615631,621.29216 -117.65197,509.6199 v -36.86198 -36.86199 l 22.30986,-19.85057 c 12.270422,-10.91781 22.309858,-20.07194 22.309858,-20.34252 0,-0.27059 -10.047335,-9.43174 -22.32741,-20.35814 l -22.327408,-19.86619 0.35558,-46.0244 0.35558,-46.0244 160.9014,-110.08339 c 88.49577,-60.545869 161.96619,-110.664977 163.2676,-111.3758 2.24752,-1.227587 2.36355,6.626948 2.31325,156.61433 l -0.053,157.90672 -17.49075,19.47317 -17.49076,19.47315 3.68456,4.43835 c 2.02649,2.44109 9.92384,11.40858 17.54965,19.92775 l 13.8651,15.4894 -0.34398,148.83552 -0.34392,148.83552 z M 97.333939,498.01744 v -63.3192 L 78.74239,417.29329 c -10.225352,-9.57271 -18.726489,-17.73823 -18.891434,-18.14558 -0.16493,-0.40735 8.201267,-8.63217 18.591549,-18.27738 L 97.333939,363.3336 v -63.39666 c 0,-56.21514 -0.233213,-63.30717 -2.058714,-62.60665 -1.132299,0.4345 -23.9492,15.75928 -50.704223,34.05505 l -48.6455101,33.26507 v 30.0805 30.08051 l 18.2069941,16.79782 18.207008,16.79782 -18.237052,17.57747 -18.2370542,17.57746 0.030057,29.84931 0.030047,29.84931 49.6901392,34.00377 c 27.329576,18.70208 50.146477,34.01919 50.704223,34.03803 0.557747,0.0188 1.014085,-28.45941 1.014085,-63.28497 z M 228.48886,386.93421 c 0,-190.51247 0.49273,-346.183485 1.09496,-345.935597 0.60221,0.247887 71.03038,48.279873 156.50703,106.737747 85.47664,58.45787 157.54166,107.29968 160.14448,108.53735 2.60282,1.23767 6.03876,3.30145 7.63545,4.58619 l 2.90305,2.3359 -0.73228,123.37103 -0.73229,123.37105 -159.57362,109.19233 C 307.97014,679.186 234.43555,729.4471 232.32543,730.82153 l -3.83657,2.49898 z m 159.40431,139.81745 48.82104,-33.42902 v -94.36068 -94.36069 l -48.54089,-33.20034 c -26.69747,-18.26019 -49.51437,-33.57392 -50.70422,-34.0305 -1.97565,-0.75813 -2.16334,13.27176 -2.16334,161.71269 0,138.36498 0.28012,162.43535 1.88318,161.8202 1.03575,-0.39746 23.85265,-15.7657 50.70423,-34.15166 z"
         style="fill:#ffffff;stroke-width:1.35211" />
    </g>
  </g>
  <g
     inkscape:groupmode="layer"
     id="layer2"
     inkscape:label="components"
     style="display:none">
    <ellipse
       style="fill:#ff00ff;fill-rule:evenodd;stroke-width:0.264583"
       id="path80"
       cx="12.519353"
       cy="19.273527"
       rx="2.5089798"
       ry="2.6230245"
       inkscape:label="ch1_light1" />
    <ellipse
       ry="2.6230245"
       rx="2.5089798"
       cy="28.488327"
       cx="12.519353"
       id="ellipse82"
       style="fill:#ff00ff;fill-rule:evenodd;stroke-width:0.264583"
       inkscape:label="ch1_light2" />
    <ellipse
       style="fill:#ff00ff;fill-rule:evenodd;stroke-width:0.264583"
       id="ellipse84"
       cx="12.519353"
       cy="37.703125"
       rx="2.5089798"
       ry="2.6230245"
       inkscape:label="ch1_light3" />
    <ellipse
       ry="2.6230245"
       rx="2.5089798"
       cy="46.917923"
       cx="12.519353"
       id="ellipse86"
       style="fill:#ff00ff;fill-rule:evenodd;stroke-width:0.264583"
       inkscape:label="ch1_light4" />
    <ellipse
       style="fill:#ff00ff;fill-rule:evenodd;stroke-width:0.264583"
       id="ellipse88"
       cx="12.519353"
       cy="56.132725"
       rx="2.5089798"
       ry="2.6230245"
       inkscape:label="ch1_light5" />
    <ellipse
       ry="2.6230245"
       rx="2.5089798"
       cy="65.347519"
       cx="12.519353"
       id="ellipse90"
       style="fill:#ff00ff;fill-rule:evenodd;stroke-width:0.264583"
       inkscape:label="ch1_light6" />
    <ellipse
       style="fill:#ff00ff;fill-rule:evenodd;stroke-width:0.264583"
       id="ellipse92"
       cx="12.519353"
       cy="74.562325"
       rx="2.5089798"
       ry="2.6230245"
       inkscape:label="ch1_light7" />
    <ellipse
       ry="2.6230245"
       rx="2.5089798"
       cy="83.777122"
       cx="12.519353"
       id="ellipse94"
       style="fill:#ff00ff;fill-rule:evenodd;stroke-width:0.264583"
       inkscape:label="ch1_light8" />
    <ellipse
       style="fill:#ff00ff;fill-rule:evenodd;stroke-width:0.264583"
       id="ellipse96"
       cx="12.519353"
       cy="92.99192"
       rx="2.5089798"
       ry="2.6230245"
       inkscape:label="ch1_light9" />
    <ellipse
       ry="2.6230245"
       rx="2.5089798"
       cy="102.20672"
       cx="12.519353"
       id="ellipse98"
       style="fill:#ff00ff;fill-rule:evenodd;stroke-width:0.264583"
       inkscape:label="ch1_light10" />
    <ellipse
       ry="2.6230245"
       rx="2.5089798"
       cy="19.273527"
       cx="28.120646"
       id="ellipse100"
       style="fill:#ff00ff;fill-rule:evenodd;stroke-width:0.264583"
       inkscape:label="ch2_light1" />
    <ellipse
       style="fill:#ff00ff;fill-rule:evenodd;stroke-width:0.264583"
       id="ellipse102"
       cx="28.120646"
       cy="28.488327"
       rx="2.5089798"
       ry="2.6230245"
       inkscape:label="ch2_light2" />
    <ellipse
       ry="2.6230245"
       rx="2.5089798"
       cy="37.703125"
       cx="28.120646"
       id="ellipse104"
       style="fill:#ff00ff;fill-rule:evenodd;stroke-width:0.264583"
       inkscape:label="ch2_light3" />
    <ellipse
       style="fill:#ff00ff;fill-rule:evenodd;stroke-width:0.264583"
       id="ellipse106"
       cx="28.120646"
       cy="46.917923"
       rx="2.5089798"
       ry="2.6230245"
       inkscape:label="ch2_light4" />
    <ellipse
       ry="2.6230245"
       rx="2.5089798"
       cy="56.132725"
       cx="28.120646"
       id="ellipse108"
       style="fill:#ff00ff;fill-rule:evenodd;stroke-width:0.264583"
       inkscape:label="ch2_light5" />
    <ellipse
       style="fill:#ff00ff;fill-rule:evenodd;stroke-width:0.264583"
       id="ellipse110"
       cx="28.120646"
       cy="65.347519"
       rx="2.5089798"
       ry="2.6230245"
       inkscape:label="ch2_light6" />
    <ellipse
       ry="2.6230245"
       rx="2.5089798"
       cy="74.562325"
       cx="28.120646"
       id="ellipse112"
       style="fill:#ff00ff;fill-rule:evenodd;stroke-width:0.264583"
       inkscape:label="ch2_light7" />
    <ellipse
       style="fill:#ff00ff;fill-rule:evenodd;stroke-width:0.264583"
       id="ellipse114"
       cx="28.120646"
       cy="83.777122"
       rx="2.5089798"
       ry="2.6230245"
       inkscape:label="ch2_light8" />
    <ellipse
       ry="2.6230245"
       rx="2.5089798"
       cy="92.99192"
       cx="28.120646"
       id="ellipse116"
       style="fill:#ff00ff;fill-rule:evenodd;stroke-width:0.264583"
       inkscape:label="ch2_light9" />
    <ellipse
       style="fill:#ff00ff;fill-rule:evenodd;stroke-width:0.264583"
       id="ellipse118"
       cx="28.120646"
       cy="102.20672"
       rx="2.5089798"
       ry="2.6230245"
       inkscape:label="ch2_light10" />
    <ellipse
       style="fill:#00ff00;fill-rule:evenodd;stroke-width:0.264583"
       id="ellipse162"
       cx="12.519353"
       cy="111.42152"
       rx="2.5089798"
       ry="2.6230245"
       inkscape:label="ch1" />
    <ellipse
       inkscape:label="ch2"
       ry="2.6230245"
       rx="2.5089798"
       cy="111.42152"
       cx="28.120646"
       id="ellipse164"
       style="fill:#00ff00;fill-rule:evenodd;stroke-width:0.264583" />
  </g>
</svg>
